<svg xmlns="http://www.w3.org/2000/svg" viewBox="0 0 288.66 288.66"><defs><style>.cls-1{fill:#fff;}</style></defs><g id="Capa_2" data-name="Capa 2"><g id="Capa_1-2" data-name="Capa 1"><path class="cls-1" d="M144.33,0A144.33,144.33,0,1,1,0,144.33,144.32,144.32,0,0,1,144.33,0ZM27.06,144.33A117.27,117.27,0,1,0,144.33,27.06,117.24,117.24,0,0,0,27.06,144.33ZM130.8,67.65a13.53,13.53,0,0,1,27.06,0v69.46l48.09,32a13.07,13.07,0,0,1,3.27,18.78A12.42,12.42,0,0,1,191,191.18L136.83,155.1c-3.78-2-6-6.26-6-11.28Z"/></g></g></svg>