<svg xmlns="http://www.w3.org/2000/svg" viewBox="0 0 317.51 317.51"><defs><style>.cls-1{fill:#fff;}</style></defs><g id="Capa_2" data-name="Capa 2"><g id="Capa_1-2" data-name="Capa 1"><path class="cls-1" d="M102.26,15.33l24.8,59.53a24.75,24.75,0,0,1-7.19,28.71l-30.57,25A209.56,209.56,0,0,0,189,228.22L214,197.65a24.74,24.74,0,0,1,28.71-7.2l59.54,24.81a24.72,24.72,0,0,1,14.38,29.39l-14.88,54.57a24.88,24.88,0,0,1-23.94,18.29C124.4,317.51,0,193.12,0,39.7A24.88,24.88,0,0,1,18.29,15.76L72.86.88a24.74,24.74,0,0,1,29.4,14.39Z"/></g></g></svg>