<svg xmlns="http://www.w3.org/2000/svg" viewBox="0 0 1676.94 2261.37"><defs><style>.cls-1{fill:#757575;}</style></defs><g id="Capa_2" data-name="Capa 2"><g id="logo-perez-gray"><g id="Copa_cubiertos" data-name="Copa &amp; cubiertos"><g id="Cuchillo"><path class="cls-1" d="M1041.1,654.88c-.67,8.31-1.35,23.49-2,42.21q15.36-.47,30.72-.27V454.68c0-39.46-24.33-28-30.61-.56-10.8,47.24-18,142.54-17.82,187.9C1021.4,653.82,1041.76,646.61,1041.1,654.88Z"/><path class="cls-1" d="M1035.36,819.34c-.8,27.06-1.54,49.06-2.16,57.9-2.28,32.73,36.59,31.87,36.59,5.74V819.11Q1052.57,818.8,1035.36,819.34Z"/></g><g id="Tenedor"><path class="cls-1" d="M698.54,600c.5,12.82-2,71.09-4.53,131.11q15.43-.27,30.82-1.12c-4.77-59.84-9.47-117.74-9.69-130-.12-6.58,10-5.25,22-22.56,7.18-10.4,9.31-17.65,8.13-61.73-.88-33.31-4.65-75.9-8.62-87.48s-8.21-13-8.21,5.18c0,14.1,0,85.65,0,93.57s-9.39,10.06-9.39.92V427c0-7.36-8.32-7.61-8.32.06V527.91c0,8.57-7.72,7-7.72,0V426.74c0-7.06-8.85-7.06-8.85-.31V527.32c0,6.09-7.63,10.06-8.92,0s-.25-85.39,0-92.4c.86-24.42-5.35-17.46-8.53-6-2.87,10.29-9.14,57.42-9.14,87.14,0,32.46,1.85,51,9.21,63.35C686.29,595.4,698.25,592.57,698.54,600Z"/><path class="cls-1" d="M689.53,853.15c-.25,12.07-.24,20.7.12,24.32,3.38,34.17,44.27,30.4,45.35-1.07.13-3.74-.28-12.66-1-25.11C719.18,852.27,704.38,852.92,689.53,853.15Z"/></g><g id="Copa"><path class="cls-1" d="M875,713.63c1.36-5.31,3-10.67,4.91-16.15-18.24,3.77-29.15,4-45.32-1.38A212,212,0,0,1,841,718.23Q858,716,875,713.63Z"/><path class="cls-1" d="M870.7,840.94c0-1.69-.09-3.36-.14-5q-11.41,1.55-22.85,3.09c0,.8,0,1.59,0,2.37,0,45.33-65.89,41-65.89,58.31,16.86,0,119.94.25,148.12,0C929.92,880.1,872,892.65,870.7,840.94Z"/><path class="cls-1" d="M852.75,701.6h0c-32.9,0-58.46-9.81-76-29.17-19.49-21.54-28.07-55-24.15-94.25,2.5-24.92,9.5-40.07,16.27-54.72,10.11-21.88,19.66-42.55,15-96.18a5.5,5.5,0,0,1,11-.95c4.92,56.54-5.7,79.52-16,101.75-6.68,14.46-13,28.11-15.3,51.2-3.61,36.1,4,66.56,21.36,85.77,15.34,17,38.16,25.55,67.82,25.55,33.52,0,58.78-9.41,75.09-28,16.9-19.24,23.75-48.75,19.3-83.12-2.89-22.28-8.52-36.24-14-49.74-9.41-23.34-18.3-45.38-13.55-103.42a5.5,5.5,0,1,1,11,.89c-4.53,55.45,3.88,76.32,12.79,98.42,5.7,14.14,11.6,28.76,14.67,52.44,4.86,37.55-2.93,70.14-21.95,91.79C917.61,690.93,889.57,701.6,852.75,701.6Z"/><path class="cls-1" d="M915,491.56c4.69,34,19.08,39,25.74,90.37,6.84,52.81-14.34,102.93-87.63,102.93-68.48,0-88.31-50.5-83.06-103,2.77-27.74,11.4-48.87,17.22-57.14C823.69,527.75,902,503.14,915,491.56Z"/></g><g id="Ribbon"><path class="cls-1" d="M550.57,830.35c217.29,55.1,429.64-58.22,637.75-2.36V720.59C986.67,660,766.65,778.72,550.57,723.16Z"/><path class="cls-1" d="M551.78,716.91c12,3.73,40.82,10.67,53.77,11.58L605,705.86S558.48,715.25,551.78,716.91Z"/><path class="cls-1" d="M544.79,795l0-83.12s53.36-10.41,60.1-12.21c-25.58-3-78.32-9.88-114.84-23.27l19.86,59.3s-26.07,17.75-53.92,36.77C487,785.43,528.64,789.66,544.79,795Z"/><path class="cls-1" d="M1187.11,835.1c-12-3.73-40.82-10.68-53.77-11.59l.54,22.64S1180.41,836.76,1187.11,835.1Z"/><path class="cls-1" d="M1194.1,757l.05,83.12s-53.35,10.41-60.1,12.2c25.59,3,78.32,9.89,114.84,23.28L1229,816.33s26.07-17.76,53.92-36.77C1251.87,766.57,1210.25,762.35,1194.1,757Z"/></g></g><g id="Parrillada"><path class="cls-1" d="M664.22,2140.49c-11,.78-14.89-2.36-13.19-11.5l24.43,5c1.32.28,2.76,1.12,3.92.83,10.39-2.62,19.08,2.6,28,6.16,8.13,3.24,14.31,19.91,10.53,27.78-2.39,5-4.68,10.82-8.79,14s-10.23,3.09-15.56,4.48c1.47,6.34,1.17,15.89,5.75,21.36,3.8,4.54,5.12,10.15,9,14s5.74,7.2,3.88,12.38c-.28.78.32,1.88.45,2.54,2.59,2.24,8.69-1.21,8.34,5.26l5.87,2.1c-4,7.8-5.8,8.23-13.19,5.85-4.8-1.54-10-1.88-14.92-3.07a14.82,14.82,0,0,1-6.18-2.9c-1.23-1.1-2.48-3.87-1.92-4.91.91-1.67,3.22-2.75,5.14-3.63,1.07-.5,2.56-.09,4.57-.09-3.74-6.83-7.46-12.82-10.36-19.19-1.59-3.51-1.47-7.75-2.7-11.46-1.87-5.64-4.24-11.12-6-15.62L666.75,2186c-1.92,9.88-3.75,20.08-6,30.19-.59,2.68-2.76,4.26-1.48,8.16,1.22,3.69,3,5,5.66,6.88,2.26,1.58,4.77,4.32,5.09,6.81.61,4.65-1.6,5.24-6.19,4.15-4.93-1.18-10.35-.46-15.21-1.81s-9.35-4.08-13.79-6.59c-.85-.48-1.37-3.16-.82-4.12a9.26,9.26,0,0,1,4.47-4c1.67-.56,3.91,0,5.75.58,5.53,1.66,5.64,1.47,5.09-4.4-.5-5.33-2.14-10,1.23-16.08,4.21-7.6,6.06-17.3,6.21-26.14.21-11.74,4.84-22,7.38-32.95C664.59,2144.8,664.22,2142.78,664.22,2140.49Zm11.56,1.91c-5.27,8.28-4.84,17.67-6.16,26.61-.59,4,.87,6.38,5.49,7,7.53,1,15,2.59,22.47,3.94l-.46-1.88c2.42-2.62,4.92-5.19,7.25-7.9,2.1-2.45,5.23-4.82,5.77-7.64,1.21-6.28-3.38-11-9.93-11.66a10.8,10.8,0,0,1-2.21-.73Z"/><path class="cls-1" d="M544.72,2107.48c-4.36-2-8.12-3-10.88-5.27-1.44-1.17-1.11-4.5-1.58-6.85,1.84-.3,3.91-1.3,5.49-.79,6.89,2.22,13.65,4.87,20.45,7.37.73.26,1.49.84,2.18.75,10.83-1.35,19,5,27.45,9.89,8.11,4.68,11.23,21,5.9,29.3a63.78,63.78,0,0,1-10,12.49c-1.89,1.75-5.56,1.94-8.47,2.11-2.37.14-4.81-.8-7.52-1.32.76,8-1.13,17.8,2.94,22.92,4.53,5.7,3.66,13,8.62,17.9,1.56,1.54,1.84,5.55,1.1,7.93-1.25,4-.86,5.77,3.55,6.46,2,.31,5.81.65,3.51,4.47,1.5,1,3.8,1.9,4.66,3.53.42.79-1.56,4-3,4.37-2.79.83-6.15,1.29-8.87.5-5.39-1.57-10.35-4.9-15.8-6-4.83-.95-7.25-4.34-7.32-7.51-.1-4.72,4.28-5.16,8.34-4.31.53.11,1.13-.15.8-.1-3.92-16.42-7.83-32.82-11.48-48.13l-12.73-5.29c-3.15,7-7.93,13.93-9.12,21.44-.89,5.6-6.5,10.3-3.44,16.53a26.38,26.38,0,0,0,2.94,5.29c1.34,1.62,4.12,2.57,4.58,4.26.63,2.3-.08,5.13-.91,7.5-.15.44-3.59-.06-5.45-.46-5.45-1.15-11.15-1.8-16.2-3.94-4.24-1.79-7.87-5.22-11.4-8.34-.69-.6-.2-3.57.71-4.64,1.08-1.25,3.3-2.42,4.84-2.21,3.32.44,6.53,1.78,10.52,3,0-4,.13-7.22,0-10.48a14.54,14.54,0,0,1,3.09-10.06c3.44-4.82,5-11.11,6.83-16.92,2.57-8,4.33-16.25,7.15-24.13,2.1-5.88,5.46-11.3,8-17A11,11,0,0,0,544.72,2107.48Zm30.78,42.89c-2-4.27-1.44-5.39,4-8.83,9.16-5.75,9.79-8.32,6.51-17-1.7-4.51-5.23-2.5-7.79-3.73-7.33-3.5-14.48-7.38-21.66-11.08-6,6.8-11,22.66-9.74,32.44Z"/><path class="cls-1" d="M1282.88,2166.21c-4.46,2.81-8.29,5.45-12.34,7.72-7,3.92-14.29,7.3-21.11,11.48-6.49,4-12.84,2.93-17.88-4.61,3.67-2,7.26-4,10.84-5.93,6.94-3.83,7.89-9.07,2.82-15-.86-1-2.18-2.52-1.94-3.46,1.62-6.34-3.44-10.44-5.09-15.64-2.29-7.23-5.51-14.16-8.47-21.17a56.06,56.06,0,0,0-3.38-6.1c-4.7-8.13-9.42-16.25-14.58-25.14-2,1.43-4.29,3.72-7.06,4.86s-6.24,1.26-10,1.92c1.14-4.06,1.21-7.67,3-9.86,2-2.46,5.45-3.94,8.51-5.34,6.76-3.09,13.6-6.07,20.55-8.7,5.24-2,10.72-3.32,16.07-5,1.48-.46,3-1.79,4.32-1.53,10.06,2.05,20.3,1.39,30,7.61,9.08,5.83,15.45,13.73,22.35,21.19,3.78,4.08,4.78,10.74,6.93,16.27.56,1.45.43,3.22,1.18,4.53,4.76,8.37,2.11,16.87,0,25.08-1.09,4.33-3.91,8.34-6.48,12.15-2.91,4.31-6,8.71-9.82,12.15C1289.3,2165.57,1285.5,2165.51,1282.88,2166.21ZM1224,2084.62c1.61,3.93,3,8.18,5,12.1,4.87,9.5,10,18.84,15,28.26.24.47-.1,1.24.13,1.73.93,2,2,3.93,3,5.87.84,1.6,2.05,3.09,2.53,4.78,1.26,4.45.78,10.6,3.62,13.11,4.24,3.75,5.41,7.47,4.86,13.75l6.7-2.9c5.15-2.2,10.11-5.37,15.48-6.39,10.37-2,14.83-7.06,15.81-18.08.54-6.09,4.74-12,.24-18.11-.06-.08.13-.34.22-.51,3.41-7-.48-12.51-4.63-16.9-6.83-7.23-14.76-13.41-22.11-20.16-8.38-7.69-17.62-8.37-27.74-4C1236,2079.89,1229.73,2082.27,1224,2084.62Z"/><path class="cls-1" d="M428.6,2087l1.9,3.35c2.58-4.62,4.05-10.46,7.78-13,4.2-2.89,5.1-11.09,12.69-8.65,4.86-9.38,7.84-11.63,17-11.78-.57,7-.95,13.84-1.74,20.67-.95,8.29-2.21,16.54-3.39,24.8-.25,1.77-.87,3.5-1,5.27-.22,2.47-1.24,6,0,7.26,4.11,4.22,1.21,7.7.35,11.8-1.23,5.82-1.3,11.89-1.8,17.85-.21,2.42.54,5.29-.52,7.2-4.35,7.84-2.68,14,5.25,18.69,2.37,1.4,4.16,3.78,6.24,5.73-4.26,4.52-8.1,5.95-12.8,2.3-.69-.54-2.2-.06-3.32,0s-2.59.78-3.39.32c-6.53-3.76-13.28-7.29-19.16-11.9-1.66-1.31-.68-6-.12-9.33,4.69,2.33,12.05-1.91,13.2,6.55.39-4.65.76-9.3,1.17-13.95.49-5.58.58-11.25,1.65-16.72,1-5,.59-8.73-4.32-11.27-1.45-.76-2.5-2.29-4.13-3.84-6.65,3.67-9.95-4-15.43-5.37-1.93-.49-4.64-1.49-5.86-.64-5.09,3.55-8.39,8.76-15.06,11.25-5.11,1.91-8.28,9-11.75,13.18,2.61,1.18,6,2,8.33,4,1.2,1,1.44,4.59.57,6.15-.61,1.09-4,1.38-5.85.92a124.24,124.24,0,0,1-15.54-5,75,75,0,0,1-10.62-5.62c-3.35-2-3.7-5.54-1.62-8,1.63-1.92,5.84-4,7.48-3.14,4.67,2.35,8.62,1.64,12.07-1.19q14.13-11.54,27.69-23.74C419.36,2096.87,423.68,2092,428.6,2087Zm22.64,21.65c2.07-10.72,4.26-22,6.82-35.23l-30.48,29.19Z"/><path class="cls-1" d="M1451.75,2064.17c2.18,6.38,1.34,10.17-4,12.32-1,.4-1.47,2-2.13,3.12s-.86,2.52-1.72,3c-6.68,3.53-13.33,7.18-20.33,10-1.44.58-4.51-2.08-6.32-3.78-.49-.47.6-3,1.4-4.36,2.16-3.66,4.7-6.84,9.9-4.67-3.26-2.33-6.6-4.56-9.77-7-5.86-4.5-11.61-9.14-17.44-13.68-3-2.38-14-1.29-15,2-2,6.57-8.51,6.09-12.73,9-2,1.41-3.89,1.78-3.69,4.75.41,6.19,3.44,11.67,1.47,18.79-1.38,5,3.37,11.69,5.17,17,2.25-1.58,4.54-4.06,7.29-4.8,1.76-.48,4.21,1.61,6.35,2.55-.87,1.89-1.31,4.25-2.71,5.58a123.1,123.1,0,0,1-12.48,10.45,70.54,70.54,0,0,1-10.47,6c-3.46,1.71-6.7.21-7.62-3-.7-2.43-.14-7,1.48-8,4.43-2.73,5.95-6.58,5.47-10.88-1.3-11.65-3-23.28-5-34.84-1.18-6.72-3.28-13.29-5.09-20.38h4.7c-.51-1-.63-1.68-1-1.89-1.86-1-4.91-1-3.16-4.73.33-.71-2.73-2.57-2.75-3.92-.08-6-5.48-11.23-2.07-18.12,1.13-2.3-2.46-6.58-2.88-10.07-.35-2.92.77-6,1.24-9,2.5.68,5.34.83,7.44,2.15,3.62,2.27,6.8,5.23,10.11,8q10.11,8.35,20.13,16.79c1.27,1.07,2.25,2.46,3.5,3.54,1.76,1.51,4,4.36,5.42,4,6.84-1.59,8.32,3.71,11.75,7.31,3.69,3.89,8.85,6.36,13.27,9.6,2.24,1.63,5,3.17,6.2,5.45,3.1,5.87,11,8.59,16.78,5.44C1445.22,2066.32,1448.38,2065.47,1451.75,2064.17Zm-67.16-19.62c-1.27-.9-3.9-2.53-6.24-4.51-3.92-3.3-7.77-6.71-11.43-10.3-2.5-2.46-4.64-5.29-6.93-8l-1.58,1.14c4,12.25,1.89,26,9.57,37.59,3.53-2.89,7-5.48,10.19-8.44C1380.45,2049.94,1382.27,2047.31,1384.59,2044.55Z"/><path class="cls-1" d="M1205.66,2193.13c0,6.06-1.54,9.94-7.83,10-.79,0-1.56,1.49-2.35,2.28-.94,1-1.76,2.53-2.87,2.78-6.77,1.51-13.64,2.59-20.42,4.07-4.4,1-5.73-2.21-6.47-5.07-.3-1.15,2.07-3,3.23-4.52,2.79-3.66,5.9-4.15,9.93-1.33-3-3.79-6.07-7.55-9-11.4-3.4-4.48-6.92-8.89-10-13.6-4-6.23-12.45-6.95-18.43-2.67-3.45,2.46-8.7,2.27-13,3.71-1.82.61-4.32,2.05-4.71,3.58-1.52,5.89.23,11.86-3.81,18.13-2.77,4.3.17,12.28.51,17.74,2.87-.83,6-2.35,9.1-2.36,1.53,0,3.69,2.57,4.35,4.41.31.87-2,3.29-3.52,4.09a146.82,146.82,0,0,1-15.47,7c-3.56,1.34-7.42,1.91-11.16,2.74s-6.14-1.3-6.85-4.6-.59-7,3.9-7.78c5.26-.89,7.3-4.74,8-9,1.84-11.74,3.4-23.55,4.51-35.37.62-6.54.11-13.19.11-20.1l4.41.76c-1.2-4.89-3.16-9.6-3.3-14.37-.15-5.33,1.37-10.71,2.86-16,.24-5.34-2.11-10.7,1.93-16.14,2.32-3.12,4-2.68,6-.37,3.51,4.16,7,8.4,10.14,12.84,5.06,7.09,9.88,14.36,14.76,21.59.93,1.37,1.46,3.08,2.58,4.23,2.13,2.17,4.54,4.06,6.87,6,1.29,1.08,3,1.82,3.89,3.15,2.76,4.32,5,9,7.81,13.22,1.63,2.47,4.08,4.37,6,6.69,1.43,1.75,3.25,3.61,3.69,5.68,1.73,8,7.74,11.86,15.72,10.11C1199.56,2192.6,1202.66,2193.13,1205.66,2193.13Zm-59.92-37.9a21.83,21.83,0,0,0-3.48-4.84c-5.07-4.56-8.45-9.76-9.8-16.63-.54-2.8-2.27-7-7.15-5.05.91,1.92,2.44,3.6,2.31,5.14-.34,4.12-.6,8.55-2.34,12.17-3.34,7,1.09,13.41-.78,20.84,5.13-2.19,9.22-3.63,13-5.64C1140.28,2159.73,1142.67,2157.5,1145.74,2155.23Z"/><path class="cls-1" d="M324.35,1980.07c6.18-1.69,10.1-1.43,14,2,3,2.63,7.25,3.86,10.6,6.2,7.12,5,14.48,9.76,20.85,15.59a85.27,85.27,0,0,1,13.45,16.65c1.59,2.44,1.26,6.38,1.14,9.6-.35,9-5.33,16.36-9.3,23.89-1.9,3.62-6.48,5.91-10,8.54-1.81,1.34-4,2.11-6.3,3.26-5.2-3.35-15.26,2.21-17.06-7.16-3.06-1-5.72-1.39-7.66-2.74-5.82-4.06-11.37-8.52-16.26-12.25-2.46,3.32-4.81,6.28-6.93,9.4-3.78,5.54-7.43,11.16-11.08,16.79-.51.79-.47,2-1,2.71-3.07,4.08-4.25,7,2.14,9.63,1.7.69,1.36,6.39,1.95,9.79-1.75.1-3.92.87-5.15.12s-1.65-3-2-3.66c-3-.2-5.77.25-7.94-.65-3.67-1.53-7-3.94-10.43-6-5.06-2.94-6.59-7.89-3.78-13.94,2.45,1,4.94,2.77,7.5,2.9,2,.1,4.47-1.44,6.12-2.92a40.09,40.09,0,0,0,6.66-7.76c3.51-5.37,6.56-11,10-16.48,2.35-3.78,5.07-7.34,7.41-11.13,5.75-9.32,11.33-18.75,17.09-28.06.68-1.09,2.07-1.74,3.11-2.62,4.79-4.09,4.63-7,.19-11.67C329,1987.34,327.07,1983.89,324.35,1980.07ZM347,1998.76c-3,3.39-5.78,5.88-7.7,8.92-4.47,7.08-8.42,14.5-12.79,21.65-2.43,4-1,11.77,3.42,13.77a144.31,144.31,0,0,0,21.47,8.22c3.34.91,8.71.42,10.84-1.73,3.16-3.19,5.22-5,10.24-.5-3.76-5.94-4.21-6.27-.78-10.83,4.73-6.3,2.93-12.55-.09-18.09C366.11,2010.12,356.4,2004.38,347,1998.76Z"/><path class="cls-1" d="M1007.94,2142.48c-.05,6-2.55,8.83-8.73,8.15-2.88-.31-5.85.25-9.49.46.33,2.16.58,4.16.95,6.14,1,5.29,2.64,10.53,2.91,15.85.68,13.72-.18,27.55,4.58,40.84.6,1.68-.22,3.82-.07,5.73a110.81,110.81,0,0,0,1.4,12.23c.75,3.75,2.13,7.37,3.43,11.7,4-4.43,7.47-6.46,13-7.49a165,165,0,0,1,21.57-2.62c8.51-.44,13.45-7.8,12-16.59-.46-2.86-.44-5.79-.63-8.45,2.33-.53,4.09-1.33,5.8-1.21,1.5.1,3.87.9,4.24,2,1.28,3.65,1.83,7.54,2.72,11.33.35,1.52.43,3.33,1.33,4.46,4.81,6.06,3.31,14.29-3.77,17.5-4.36,2-9.12,4.31-13.33.18-1.93,1.25-3.6,3.17-5.48,3.4-9.53,1.16-19.12,1.76-28.67,2.78-7.31.78-14.59,1.88-21.88,2.85-1.55.21-3.25.93-4.62.54-1.84-.54-4.53-1.68-4.82-3-.34-1.51,1.36-3.68,2.59-5.24a5.23,5.23,0,0,1,2.37-1.39c.45-5.19.84-9.48,1.17-13.77.12-1.54.59-3.33,0-4.61-4.12-9.06-2-18.89-3.73-28.22-.8-4.38-2.76-8.61-3.12-13-.46-5.59-3.22-10.82-.93-17,1.23-3.34-.11-9.79-2.67-11.78-2.92-2.26-8.49-1.14-12.91-1.41a8.17,8.17,0,0,0-2.22.47c-.32-2.32-.63-4.57-1.07-7.8l19.22-3.63c2.12-.4,4.5-.32,6.31-1.29C993.3,2136.3,1000.55,2137.94,1007.94,2142.48Z"/><path class="cls-1" d="M860.91,2249.94c-.26-2.3-1.11-4.39-.6-6.06,4.29-13.89.53-28.18,2.29-42.2.42-3.35-1.24-6.91-1.16-10.36.13-5.88-2.52-11.62,1-17.82,1.72-3,1.11-10.16-1.16-11.89-3.7-2.82-9.63-2.72-14.86-3.91v-6.87l19.25-1.07c1.76-.1,3.7.27,5.26-.33,8.53-3.28,16.13-1.8,23,4.36-1,6.94-1.88,7.63-8.94,6.93-3.11-.31-6.25-.4-10.22-.63,0,1.88,0,3.54,0,5.2.14,10.1.32,20.2.44,30.29q.16,13.41.21,26.81c0,2.09.35,4.47-.48,6.23-4.23,8.9.82,16.52,2.3,25.31,3.66-4.3,6.78-7.06,12.17-6.2a23.69,23.69,0,0,0,10-.88c6-1.74,11.8,2.71,18.15-.9,5.26-3,8.79-5.67,8.77-11.94,0-3.1,0-6.21,0-9.45,2.28-.24,4.23-1,5.8-.47a8.17,8.17,0,0,1,4.57,3.45c.94,1.79,1,4.2.93,6.32-.17,4.43.27,8.4,2.83,12.41,2,3.19-2.37,10.69-6.7,12.9a13.88,13.88,0,0,1-14.62-1.43c-1.32.93-2.55,2.52-3.9,2.64-9.74.83-19.39,1.77-29.3-.06-7.29-1.34-15-.27-22.58-.25-1.38,0-3,.62-4.08.13a43.08,43.08,0,0,1-5.94-3.65c1.45-1.82,2.82-3.73,4.42-5.4C858.46,2250.51,859.63,2250.42,860.91,2249.94Z"/><path class="cls-1" d="M797.58,2245c2.93.43,6.8.75,10.54,1.62a17.65,17.65,0,0,1,7,3c2.62,2.12.46,7.45-3.58,7.93-4.37.51-8.89-.15-13.34-.4-2.45-.13-5-2.64-7.17,1.24-.54,1-4.7,1.3-5.9.32-3.92-3.19-8.08-2-12.3-1.94-7,0-10.14-4.57-7.56-12.09l16.62,3.21c.82-3,1.85-7,3-11,.7-2.43,1.59-4.8,2.36-7.21a9.45,9.45,0,0,0,.88-3.25c-.29-4.55-1.14-9.09-1.12-13.63,0-6.32.93-12.64.94-19,0-5.52-.69-11-1.11-16.55-.11-1.46-.8-3.08-.39-4.34,1.28-3.87,3-7.6,4.51-11.4l-19.65-3.93c-3.43-10.48-3.43-10.35,8.69-10,4.56.14,9.14-.52,13.71-.74a6.91,6.91,0,0,1,3.45.41c4,2.23,8.06,2.68,12.73,2.2,2.05-.22,4.49,3.2,6.75,5-2,1.74-4,4.91-6,5-11.88.36-11.11,5-10.21,13.92.56,5.57,0,8.4-3.86,11.11,3.62,3.08,5.23,6,2.22,11-1.77,2.95-.75,7.53-1.11,11.37-.72,7.57-1.57,15.14-2.23,22.72-.11,1.3.52,2.66.7,4C796.63,2237.15,797,2240.67,797.58,2245Z"/></g><g id="Border_Inferior" data-name="Border Inferior"><path class="cls-1" d="M837.66,2020.06a839.24,839.24,0,0,1-256.4-39.82A855,855,0,0,1,367.09,1876.6a873.86,873.86,0,0,1-165.67-143.7c-45.49-50.86-82.82-104.7-111-160L90,1572l.91-.45a16.58,16.58,0,0,1,7.21-2c4.3,0,7.74,2.66,11.14,8.62,92.66,162.6,226.55,283.16,398,358.34a814.52,814.52,0,0,0,329.18,69c16.34,0,33-.48,49.52-1.42,156.6-8.93,301.17-58.23,429.71-146.53,98.28-67.52,179.8-153.89,242.28-256.72a832.07,832.07,0,0,0,82.74-182.46l.06-.17c2.7-8.6,3.42-10.91,11-10.91,1.53,0,3.39.08,5.55.17l1.27.06-.35,1.22c-21.17,74.44-53.65,146.39-96.56,213.87a863.91,863.91,0,0,1-156.08,182.89c-128.29,113.72-284.93,185.34-453,207.12a896.06,896.06,0,0,1-114.79,7.49Z"/></g><g id="Desde_2012" data-name="Desde 2012"><path class="cls-1" d="M684.1,1840.14c.62-3.51.13-8.36,5.7-6.47-.74,9.5-1.45,18.6-2.2,28.14a32.52,32.52,0,0,0-4.43-1.51c-4-.79-4.11-3-2.59-6.08,3.08-6.27,3-6.2-3.55-7.49-3.17-.62-6.26-1.68-9.06-2.45-2.44,10.07-4.67,19.19-6.82,28.33-.78,3.28.25,4.41,4,4.48a111.74,111.74,0,0,1,18.09,2.21c1.89.35,3.49,2.27,6.38,4.29,1.87-4.3,3.66-8.57,5.59-12.79a22.42,22.42,0,0,1,2.14-3.15c1.08,1,2.85,1.8,3.11,2.95a20.56,20.56,0,0,1,.25,7.5c-.43,2.72-1.7,5.29-2.46,8-2.11,7.43-2.45,7.29-8.8,2.53-2.22-1.66-5.92-1.36-9-2l-23.46-4.76-.68-2.52c-2.13-.26-4.08,0-5.55-.8-1.74-.87-3.06-2.56-4.55-3.9l.87-1.31c1.16.37,2.5,1.3,3.46,1,1.74-.53,4-1.41,4.73-2.82a32.77,32.77,0,0,0,3.5-9.79c1.24-7.2,1.7-14.53,3-21.73.6-3.4,3-6.53,3.39-9.91.79-8,5.59-17.47-7.78-21.67,8.56-2.8,14.82-1.86,19.93,4.27,4.23-2.75,8.4-3.52,12.58-.07a4.79,4.79,0,0,0,2.64.71c5.17.3,10.36.89,15.52.68,4.88-.21,5.7,3.52,5.41,6.17-.69,6.24-2.55,12.35-4,18.69-4.28-1.93-4.28-1.93-3.4-18.78-6.73-1.51-13.58-3.22-20.51-4.53-4.14-.79-9.67-2.71-12.23-.88s-1.94,7.74-3,11.81c-.55,2.15-2.43,4.27-2.2,6.22s1.87,5.06,3.6,5.66C675.4,1839.62,679.43,1839.56,684.1,1840.14Z"/><path class="cls-1" d="M774.67,1826.89c1.59-2,2.26-3.64,3.18-3.8,4.43-.75,9-1.81,13.38-1.44,7.48.62,15.22,1.26,22.23,3.69,8.86,3.07,15.28,9.71,19,18.61,4.36,10.44,4.8,21.14,2.37,32-1.68,7.57-17,21.91-24.23,20.47-8.68-1.72-16.75.83-25.08.46a68.92,68.92,0,0,1-9.82-1.08c-1.58-.3-3-1.47-4.5-2.24l.33-1.9c2.4-.33,4.78-.75,7.19-1,5.41-.48,7.47-3.16,7-8.54-.17-2.21,1-4.5,1-6.76q.1-20.34-.07-40.68C786.61,1826.48,785.88,1826,774.67,1826.89Zm57.62,36.56a15.92,15.92,0,0,0-1.39-6.16c-3.25-7-6-14.18-9.74-20.85a13.06,13.06,0,0,0-7.67-5.93c-6.82-1.45-13.9-1.66-21.21-2.4v60.54a23,23,0,0,0,4.07.79c3.53.23,7.13-.19,10.59.35,9,1.4,18.34-4.29,21.48-13A78.13,78.13,0,0,0,832.29,1863.45Z"/><path class="cls-1" d="M592.62,1791.64c1.48-1.16,2.49-2.61,3.39-2.54,4.72.38,9.62.51,14.07,1.93,6.77,2.17,13.8,4.46,19.66,8.3,7.61,5,12.32,12.63,14.1,21.87a45.39,45.39,0,0,1-5.47,32.55c-2.71,4.52-8.1,7.69-12.77,10.72a19.6,19.6,0,0,1-10.09,3.18c-4.72,0-9.46-1.39-14.17-2.31-4.48-.87-9-1.75-13.37-2.88a129,129,0,0,1-12.63-3.91c-1.19-.45-2-2-4-4.32,3.42,0,5.27-.3,7,0,7.34,1.51,9.54,0,11.23-7.18.65-2.78,2.29-5.32,3-8.08,3.4-12.61,6.83-25.22,9.88-37.92,1.59-6.64.58-7.48-7.42-8.7A21.54,21.54,0,0,1,592.62,1791.64Zm48.4,50.74a41.17,41.17,0,0,1-1.45-4.8c-1.51-8.35-2.54-16.81-4.56-25a12.92,12.92,0,0,0-5.87-7.64c-6.24-3.16-13-5.21-19.25-7.58-5.51,19.7-10.84,38.77-16.43,58.78,4.34,1.3,9.43,2.4,14.17,4.34a20.44,20.44,0,0,0,24.5-7.37C634.61,1849.34,637.88,1846.11,641,1842.38Z"/><path class="cls-1" d="M862.64,1826.5c-6.17,1.37-4.79,6-4.52,10.22.23,3.61.21,7.24.26,10.85,0,.56-.44,1.48-.24,1.63,1.68,1.22,3.47,2.3,5.22,3.42,2.75-4.85,10.92,4.68,12.18-4.61.23-1.74,1.92-3.3,2.93-4.94.75,1.52,1.91,3,2.19,4.57,1.38,7.93,2.53,15.9,3.76,23.86-11.36,1.93-8-6.78-8.07-12.69-3.29.23-5.78.47-8.28.56s-4.92,0-6.68,0c0,10.07,0,19.42,0,28.77,0,3.71,1.62,4.25,5,3.38,8.52-2.2,8.55-2.06,11.38,1,3.95-3.54,8.11-4.8,13.81.39.79-5.62,1.31-10,2.07-14.26a24.94,24.94,0,0,1,1.74-4.57c1.41.85,4,1.61,4.06,2.58.62,6.83.81,13.7.76,20.56,0,.33-3.53,1-5.38.88a26.92,26.92,0,0,1-6.26-1.39c-6.94-2.06-13.66,2.61-20.76.53-2-.58-4.73,1.46-7.55,2.44l-2.38-4.37c-4.17,3.59-6.88.75-10.19-2.55,7.81,1.13,8.41-2.33,7.64-8.49-.87-7,.09-14.27-.14-21.41q-.4-13.11-1.51-26.19c-.35-4.1-2-7.59-7-8.14-1.19-.13-2.26-1.26-3.68-2.11,7.09-5.25,13.53-5,19.86.21Z"/><path class="cls-1" d="M1025.93,1870.79c-1.37,1.21-.68,1-2.53,1.62-16.82.45-24.43-10.46-31.58-23-5-8.7-2.54-17.58-3.19-26.38-.53-7,5.46-11.06,9-16.18a2.72,2.72,0,0,1,2.1-.8c6.77.41,14.31-.81,20.13,1.77,9.49,4.22,14.46,12.6,16.18,23.58,1.88,11.92,2.15,23-4,33.75C1030.09,1868.5,1029.34,1869.5,1025.93,1870.79Zm5.22-9.51c-.17-3.07-.43-5.46-.4-7.85,0-3.53,1.22-7.32.32-10.55-2.5-8.91-5.6-17.68-8.89-26.34-2.5-6.58-8.54-6.91-14.42-6.77-5.12.12-10.36,1-11.62,7-1.32,6.36-3.68,13.34-2.27,19.26a54.94,54.94,0,0,0,17.22,29c5,4.32,11.2,3.74,15.91-1A20.74,20.74,0,0,1,1031.15,1861.28Z"/><path class="cls-1" d="M1102.94,1791.38c-6.47-.5-9.38-9.5-17.47-5.38-6.11,3.11-10.93,8-10.39,13.87l-4.26-.21c-1.83-9.82,7-13.25,11-19.39.56-.86,3.06-.57,4.67-.63,2.52-.08,5.09.29,7.57,0,6.42-.83,11.94,3.42,12.41,9.83.75,10.24.29,12.07-2.25,13.9,0,4.6.62,8.14-.13,11.36-1.49,6.46-3.85,12.72-5.6,19.13-.55,2-.3,4.3-.53,8.43,3.48-1.12,6.1-1.66,8.44-2.79,4.49-2.17,8.91-4.52,13.18-7.09,5.62-3.39,8.13,1.25,13.39,4.87-8.43,3.29-15.39,6.33-22.57,8.72-5.83,1.92-12.76.39-17.39,6.24-.75.94-4.11.15-6.08-.46-.38-.12-.13-3.15.27-4.73,3.18-12.7,11.2-23.81,11.76-37.48C1099.21,1803.67,1101.45,1797.87,1102.94,1791.38Z"/><path class="cls-1" d="M990.27,1880.52c-7.26,1.49-14.46,3.54-21.8,4.29-6.33.65-12.94-1.59-18.73,3.19-1,.81-4-.5-5.87-1.4-.44-.21-.17-2.92.48-4.09,7.26-13,16.6-24.88,20.79-39.53,1.24-4.34,3.37-8.44,5.27-13.07-5.92-1.65-7.14-11-16-8.58-6,1.64-12.1,5.87-12.89,11.34l-5.64-.42c2.38-3.88,4-7.39,6.43-10.22a24.37,24.37,0,0,1,7.55-5.69c1.92-1,4.47-1,6.73-.91a21.24,21.24,0,0,1,6.86,1.2c3,1.12,6.49,2.16,8.53,4.37,4.79,5.18,4.06,16.92-1.47,22-.86,3.09-.78,4-1.39,5.54-2.51,6.37-5.61,12.51-8.53,18.72-.93,2-2.36,3.8-2.81,5.86-.37,1.66-.2,4.19.84,5.16.83.78,3.39,0,5.07-.43,5.74-1.58,11.36-4.16,17.17-4.68,3.14-.28,6.58,2.85,9.89,4.45Z"/><path class="cls-1" d="M1078.76,1852.92c-2.3,7.53-21.1,13.08-27.34,7.23l10.5-2.76c-.13-2,.16-4.66-.53-7-3.06-10.4-6.41-20.72-9.64-31.07-1-3.21-2-6.45-3-9.66-2.25-7.08-3.5-7.48-9-3a17.69,17.69,0,0,1-2,1.23c-2.28-4.42,3.31-15.48,7.73-15.21,1.53.1,4,1.85,4.26,3.23,2.34,10.69,10.41,19.91,8.32,31.75-.1.56.67,1.24.93,1.91,1.75,4.5,4.13,8.89,5,13.55C1065.39,1850,1071.25,1854.61,1078.76,1852.92Z"/><path class="cls-1" d="M758.36,1843a63.84,63.84,0,0,1-1.62-7.89c-.66-8.14-8.89-13.78-18.37-12.38-6.94,1-9.78,6.21-8.28,14.8.53,3,.73,6.16,1.09,9.36-6.85-7.29-7.66-18.36-2-25.08,2.69-3.2,5.73-3.87,9.87-2.91,6.57,1.51,13.45,1.79,19.91,3.6,2.11.6,4.77,4.43,4.66,6.65-.24,4.75-2.13,9.42-3.34,14.12Z"/><path class="cls-1" d="M862.8,1826.66c-34.57-1.13,5-5,11.32-3.85a10.89,10.89,0,0,0,3.77-.1c5.31-.91,10.56-2.15,15.9-2.73,1.3-.14,3.88,1.63,4.07,2.82a100.49,100.49,0,0,1,1.34,21c-7.07-3.93-5.35-10.9-7.44-17.29-9.37,0-14.25.21-24.12.2A42.62,42.62,0,0,0,862.8,1826.66Z"/><path class="cls-1" d="M723.45,1882.52c2.6,1.19,5.63,1.88,7.71,3.66,7.2,6.17,19.06,4.45,22.9-4.13,1.1-2.45-.17-6-.36-9h0c5.14-.39,7.11,3.54,7.42,7.15a11,11,0,0,1-3.65,8.38c-2.7,2-5.91,1.64-9.8,3.81a21.66,21.66,0,0,1-2.86,1c-4,1.41-11.06,1.67-13.54-1.27-.61-.72-2.83-1.78-2.78-2.41-2.93-2-5.08-3.32-8-5.34C720.75,1884.29,723.19,1882.66,723.45,1882.52Z"/><path class="cls-1" d="M723.45,1882.52l-.76.41a17.89,17.89,0,0,1-1.24,2c-1.5,1.89-3.05,3.74-4.58,5.6-.81-2.6-2.36-5.25-2.24-7.81a25.39,25.39,0,0,1,2.77-9.4c.36-.77,4.39-.76,4.44-.58C722.59,1876,723,1879.25,723.45,1882.52Z"/><path class="cls-1" d="M753.7,1873.07c-2.76-3.93-1.77-3.16-4.5-6s-9-10-14.36-16c-2.37-2.66-4.38-5-5.53-6.48,1.83.67-4.8-14.94,10.44,5.36,4.45,5.94,10,10.53,12.19,13.91,1.72,2.74,14.2,19.86,1.75,9.16Z"/></g><g id="Waves"><path class="cls-1" d="M908.44,1535.29c-1.6,2.36-3.14,4.64-4.68,6.9a1267.59,1267.59,0,0,0-79.9,134.13c-6.08,11.79-13.88,12.9-23.77,3.85-39.13-35.78-73.29-75.81-103.31-119.41-1-1.42-2.1-2.76-3.57-4.68-5.11,8.27-9.9,16.09-14.75,23.87q-29.4,47.17-58.79,94.35c-3,4.92-6.7,8.45-12.95,8.19-5.75-.24-8.86-3.86-11.51-8.43A920.78,920.78,0,0,1,537.58,1556c-.73-1.82-1.55-3.61-2.66-6.18-10.78,7.73-21.57,14.63-31.4,22.68-25.31,20.7-50.19,41.91-75.23,62.93-1.07.9-2,1.95-3.13,2.81-4.06,3.16-8.21,3.13-12-.31s-3.95-8.34,0-12.23c8.68-8.62,17.17-17.54,26.61-25.29q45.33-37.2,91.37-73.56c8.7-6.9,14.72-5,19.73,5.68,5.08,10.87,9.16,22.22,14.53,32.93,12.55,25,25.61,49.84,38.49,74.71.89,1.73,2.08,3.29,3.55,5.59,1.53-2.25,2.75-4,3.87-5.74,23.08-36.84,46.05-73.74,69.37-110.43a21.06,21.06,0,0,1,10.22-8.33c6.28-2.08,10.73,1.93,14.39,7.17,14.19,20.38,27.58,41.45,43.29,60.62,18.14,22.13,38.42,42.52,57.79,63.65a9.26,9.26,0,0,0,1.57,1.21c13.24-23,25.84-46.25,39.73-68.71,15.48-25,32-49.44,48.32-73.94,7-10.5,15-10.71,23.54-1.37q56.76,62.28,113.51,124.54c2.3,2.52,4.42,5.19,6.67,7.75,5.64,6.42,9.49,6.74,15.52.56a156.9,156.9,0,0,0,15-17.18c21.57-29.77,47.72-55.16,75.39-79.1,9.06-7.83,19.36-14.29,31.7-10.49a48.81,48.81,0,0,1,20.19,12.12c18.7,19.58,36.44,40.05,54.54,60.18,2.69,3,5.47,5.88,8.08,8.93,4,4.74,3.85,9.37-.42,13.22-3.93,3.54-8.41,3.31-12.66-1.23q-26.08-27.93-52-56c-3-3.24-5.83-6.64-9-9.7-8.26-8-16.58-8.72-26-1.89-4,2.93-7.52,6.59-11.15,10-27.75,26.3-52.14,55.49-74.93,86.1a49.79,49.79,0,0,1-12.89,11.55c-10,6.49-20.75,6.07-29.61-1.65a360.65,360.65,0,0,1-29.26-29.26c-30.82-33.79-61.34-67.84-92-101.78A11.1,11.1,0,0,0,908.44,1535.29Z"/></g><g id="Perez_s" data-name="Perez's"><path class="cls-1" d="M115.61,1022c-5.06,43.86-9.75,87.76-15.27,131.57-11.87,94.35-24.2,188.65-36.26,283-1,8.14-1.28,16.39-2.28,24.53-1.41,11.37-6.92,17.23-16.68,18.38-12.81,1.51-21.7-5.44-20.72-18.22,2-25.66,4.53-51.31,7.89-76.82,9.64-73.24,20.46-146.32,29.54-219.62C68.6,1110,73.67,1055,78.9,1000.05c1.94-20.36-.3-21-19.88-15.59-15.2,4.23-30.88,6.76-46.42,9.65-5.75,1.07-12-.69-12.58-7-.33-4,2.91-9.72,6.33-12.38,17.51-13.61,38-21.68,59.25-26.65,35.66-8.33,71.86-14,108.66-12.47,47.65,2,89.33,19.1,121.49,54.7,41.61,46.07,49.36,98.8,24.05,155.27-33.95,75.73-93.42,119-175,132.15-9.16,1.47-19.11-.58-28.47-2.24-5.61-1-10.76-4.78-10.26-11.71.53-7.34,7.2-7.08,12.16-8.28,39.81-9.68,77.26-24.41,108.75-51.46,32.15-27.63,56.13-60.93,65.33-102.85,7.93-36.17,3.45-70.78-21.58-99.91a86.68,86.68,0,0,0-27.1-21.24c-37.49-18.09-77.07-24-118.3-15.79a64.1,64.1,0,0,0-9.78,2.78c-11.55,4.28-11.9,6.23-5.46,16.57a28.74,28.74,0,0,1,3.91,12.69c.6,8.45,1.62,13.57,1.62,22.07C115.68,1019.28,115.64,1021.16,115.61,1022Z"/><path class="cls-1" d="M700.84,1144.47c3.81-6.42,7.74-12.77,11.41-19.27,13.91-24.69,30.51-47.16,54.61-62.87,14-9.1,29.32-14.82,46.53-13.23a24.76,24.76,0,0,1,5,.78c6,1.86,12.66,3.71,13.42,11.19s-5.87,10-11.2,12.09c-19.63,7.79-38.16,17.23-54,31.53-27,24.44-43,55.68-56.06,89-14.29,36.51-21.24,74.48-23.69,113.37-1.59,25.14-2.64,50.31-3.64,75.48-.63,15.63-8.84,23.8-24.46,24.33-7.59.26-12.44-3-13.14-10.15-.9-9.22-.68-18.57-.55-27.86.09-7.06.77-14.1,1.36-23.94-3.56,4.24-5.58,6.59-7.54,9-31.2,38.18-69.57,64.69-119.31,72.1-25.46,3.8-50.39,1.86-73.79-10-24.82-12.61-38.22-33.52-44-60.18-18.68-86.75.77-165.57,50.17-237.83,7.07-10.35,16.71-19.32,26.4-27.46,34.92-29.32,81.71-13,90.67,31.84,8.49,42.59-6.2,78.77-35.11,109.52-20.32,21.61-45.54,33.9-75.74,35.71-22.62,1.35-25.34,4.31-26.23,26.94-1,25.8,2.52,50.9,15.24,73.92,16.46,29.79,37,38.74,70.25,30.36,40.25-10.16,70.78-35.23,96.51-66.12,13.51-16.2,24-34.9,35.69-52.61,1.3-2,1.61-4.77,1.81-7.23q5.76-69.86,11.38-139.72c1.14-14.1,1.93-28.24,3.65-42.27.45-3.66,3.91-10,5.76-9.89,6.67.3,14.17,1.41,19.54,4.95,3.54,2.34,5.32,9.3,5.57,14.3.71,14.38.25,28.82.25,43.24Zm-158.51-11.54c-.11-12.85-1.86-22-11.36-27.08-9.66-5.15-18.07-.91-26,4.6-1.63,1.12-3.13,2.44-4.65,3.7-38.07,31.64-52.11,75.58-62.12,121.48-1.67,7.66,1,9.87,8.92,8.36,19.79-3.78,36.39-13.76,51.22-27C524.43,1193.74,539,1164.64,542.33,1132.93Z"/><path class="cls-1" d="M1082.67,1336.08c-12.32,8.23-23.74,17.05-36.23,24-32.16,17.75-66.68,25.81-103.24,19-37.29-6.91-64.64-28.89-73.4-74.33-16.52-85.77,3-163.35,52.13-234.24,7.14-10.3,16.85-19.23,26.65-27.22,33.75-27.54,78.46-12.54,88.88,29.91,9.68,39.46-2.79,74-27.37,104.43-21.39,26.5-49.36,41.08-84,44-24.3,2.05-23.82,3.39-24.79,25.23-1.19,26.72,2.27,52.58,15.64,76.32,15.33,27.22,36.71,37.26,67,29.74a151.91,151.91,0,0,0,38.52-15c39.32-22.55,68.69-55.08,90.49-94.59,1.23-2.23,2-5.19,3.85-6.49,3.37-2.34,7.4-5,11.2-5.11,5.4-.1,8.32,4.17,8.54,9.76.06,1.41.23,2.81,2.28,6a43.63,43.63,0,0,1,2.34-4.87q54.7-85.49,109.32-171c1.68-2.64,1.22-6.63,1.75-10-3.11-.14-6.33-.89-9.31-.34-19.48,3.63-38.78,8.47-58.38,11.1-22.63,3-44.12-.06-61.14-17.91-4.66-4.88-7.4-9.5-3.61-15.66,3.42-5.55,8.45-5.14,14.22-3.51,36.15,10.17,72,5.66,107.41-3.7,15-4,29.68-9.39,44.39-14.44,11.77-4.05,18.6-2.93,24.48,4.72,6.37,8.29,5.66,15.07-1.06,25.65-20.17,31.77-38.25,65-60.39,95.36-33.49,45.86-63.14,94-91.86,142.77-1.57,2.67-1.9,6.06-2.81,9.12,3,.33,6.11,1.47,8.88.87,24.41-5.25,47.92-2.3,70.72,7.26,26.47,11.09,51.33,8.64,75-7.83,6.39-4.45,9.93-2.35,10.23,5.59.37,9.8-2.7,18.4-10.18,25.11-23.21,20.83-49.62,25.75-78,13.17-30.5-13.52-59.74-13.1-88.8,3.3-8.88,5-18,9.56-26.91,14.53-16.09,9-27.83,3.47-31.62-15C1083,1339.84,1082.91,1338,1082.67,1336.08Zm-71-252.71c-.86-9.69-2.21-18.77-11.44-23.71s-18.28-2.29-25.22,4c-11.27,10.21-23,20.51-31.73,32.78-19.11,26.89-28.79,58-35.67,90-2.3,10.71-.18,12.83,10.73,10.45,18.42-4,34.26-13.09,48.27-25.5C993.24,1147.83,1008.26,1118.33,1011.67,1083.37Z"/><path class="cls-1" d="M1396.52,818.51c-1.47-4.37-4.29-8.11.55-12.06,4.54-3.72,9.18-4,14-.93,15.51,9.86,22.32,24.67,25,42.3,3.91,25.68-4.45,48.56-15.3,70.88-4.94,10.15-10.57,20-16.35,29.69-4.89,8.21-11.55,10.24-18.49,6.49-8.37-4.51-10.27-10.58-6-19.93C1390.65,911.24,1422.63,870.16,1396.52,818.51Z"/><path class="cls-1" d="M1642.34,1197.05c.45-19.44-10.86-35.86-30.84-47.67-23.09-13.67-48.22-20.54-74.36-25.22-29.27-5.23-46.73-26.24-44.91-52.73,1-15.19,8.6-27.41,18.83-38,18.55-19.23,42-30.7,66.58-39.74,15.66-5.76,31.77-10.34,47.83-15,13.65-3.92,27.08,6.86,25.4,20.84-.41,3.34-5,7.57-8.59,8.89-14,5.21-28.58,9.1-42.73,14.05-25.39,8.89-49.35,20.22-66.94,41.67-1.08,1.31-2.25,2.56-3.23,3.94-5.77,8.2-4.77,12.66,4.86,16,11,3.8,22.2,6.79,33.44,9.68,28.34,7.32,54.82,18.12,76.52,38.61,30.92,29.2,46.08,86.77,17.75,129.17-4.67,7-9.92,14.12-16.42,19.29-26.06,20.77-54.27,37.35-88.93,38.25-16.9.44-33.32-2.11-48.44-10.47-20-11.1-27.83-29.69-31.23-50.87-2.22-13.86-2.06-27.63,3.11-41,1.66-4.28,3.84-8.61,9-6.44,2.77,1.18,5.08,5,6.19,8.2,3.67,10.35,5.68,21.4,10.19,31.33,9.8,21.58,27.39,30.58,50.86,28.83,29.84-2.22,53.28-15.94,72.3-38.24C1638,1229.37,1642.38,1216.6,1642.34,1197.05Z"/></g><g id="Border_Superior" data-name="Border Superior"><path class="cls-1" d="M1653.79,854.8c-4.31,0-7.21-2.59-8.88-7.91-16.83-53.72-34.75-99.42-54.78-139.71-.11-.23-17.68-33.45-25.51-47.26-.59-1-2-3.46-2.35-3.94-19.88-31.36-43.94-68.09-71.65-102.8-82.31-103.09-186.24-183.9-308.9-240.17A811.29,811.29,0,0,0,975,249.71c-30.44-5-63.62-8.34-104.42-10.53-15.68-.84-31.36-1.26-46.6-1.26-16.37,0-32.65.49-48.41,1.46a813.81,813.81,0,0,0-191.23,35.11C425.82,323.7,290.78,413.18,183,540.44,122.9,611.37,74.71,692.85,39.75,782.62c-2.31,5.92-4.43,11.44-6.49,16.89-2.77,7.33-4.53,13.06-6.56,19.69-1.17,3.79-2.49,8.09-4.15,13.2a127.47,127.47,0,0,0-4.19,15.28c-.85,4.69-3.45,7.06-7.74,7.06a22.67,22.67,0,0,1-5-.72l-2-.46.49-2c17.36-70.21,46.59-140,86.87-207.28A872.44,872.44,0,0,1,244.6,454.54C378.83,329.23,545.22,251.57,725.78,230a923,923,0,0,1,109.29-6.6A843.13,843.13,0,0,1,1316.9,373.09a878.46,878.46,0,0,1,163.33,145.09c43,49.13,79.59,102.59,105.77,154.6l.31.61c10.8,19.32,24.41,46.05,26.49,50.22,20.69,41.45,35.32,86.37,47.41,125.22a6.24,6.24,0,0,1,.15,2.36c0,.24,0,.47,0,.72v1.43l-1.36.46A16.26,16.26,0,0,1,1653.79,854.8Z"/></g><g id="Bar-Restaurant"><path class="cls-1" d="M668.83,124.9c-11.93,2.09-21.73,3.83-31.54,5.5-1,.17-2.53-.59-3.09-.09-6,5.33-12.93,5.13-20,3.19a46,46,0,0,1-9.23-3.93c-.51-.27-.58-2.86,0-3.42a5.89,5.89,0,0,1,4.22-1.57c5.53.85,6.13-1.23,5.18-6.22-2.17-11.47-3.63-23.08-5.36-34.64-.15-1-.12-2.1-.32-3.13-1.65-8.54-3.7-17-4.88-25.62a18.8,18.8,0,0,0-13.54-15.88c-2.36-.67-4.38-2.5-7.86-4.58,10.71-5.13,19.3-10.3,28.82-5.16,2.12-1.66,4.05-4.23,6.49-4.87,12.27-3.23,24.7-5.85,37-8.94,4.91-1.23,11.24,4.08,10.46,9.18-.23,1.49-.69,3.11-.35,4.5,1.7,6.85,3.63,13.64,5.5,20.54-10.2,2-10.71,1.2-17-22.37L609,35.46c2,10.2,3.71,19.23,5.92,30.64l19.92-2.21c-.68-2.4-2.17-4.71-1.57-6.14,1.07-2.54,3.41-4.55,5.21-6.77,1.88,1.63,4.9,3,5.44,5C646,63.6,647,71.54,649,79.25c.58,2.34,3.11,4.13,4.11,6.45a9,9,0,0,1,.27,5.64c-.18.6-2.91.52-4.48.65-.82.07-1.68-.24-2.47-.12-6.67,1-9.53-1.94-8.56-8.58a47.38,47.38,0,0,0,.06-7.31l-19.26,3c2.54,14.68,5,28.91,7.24,41.92,11.65-2.52,22.58-5.25,33.66-7.14,5.54-.94,8.13-2.87,7-8.69-.83-4.38-1.26-8.83-1.87-13.24,7.66-2.25,10.63-1,12.49,6.6a197.78,197.78,0,0,1,4,23.1c.53,4.3-4.66,7.42-8.79,5.61A17.14,17.14,0,0,1,668.83,124.9Z"/><path class="cls-1" d="M1467.48,291.47c8.31-10.28,15.6-19.42,23-28.46,5.38-6.54,11-12.91,16.42-19.4,3.49-4.13,8.58-8,1.66-13.63-1-.79-1.26-4.34-.51-4.95,1.3-1,4.22-1.68,5.47-.9a268.64,268.64,0,0,1,22.24,15.14c1.08.82.77,5.47-.51,6.78s-5.44,2.19-7,1.18c-9.11-5.9-11-5.15-16.24,4.28a95.12,95.12,0,0,1-14.16,19c-9.18,9.65-17.64,19.69-24.37,31.22-2.21,3.78-5.36,7.06-8.33,10.33-.85.94-3.4,1.82-3.82,1.4-1.54-1.55-3.62-3.73-3.51-5.54.64-9.86,2-19.67,2.89-29.51,1.18-12.55,1.9-25.15,3.41-37.65,1-8.57,3.09-17,3.11-26.49-4.67,6.27-9.24,12.61-14,18.8-8.62,11.16-17.61,22.06-25.92,33.45-2.39,3.27-6.24,7.47-.75,12.17,1.46,1.24,1,4.7,1.44,7.14-1.94-.34-4.1-1.42-5.79-.92-12.14,3.54-14.54-10.35-23.3-12.89-.91-.27-1.73-3.94-1.13-5.44s3.25-3,4.74-2.73c4,.61,7.91,2.15,11.85,3.31L1464.21,202c-3.08-2.42-7.22-5-10.44-8.42s-3.64-8.37.58-10.87c1.74-1,6.71,1.26,8.83,3.39,3.21,3.23,4.87,7.19,10.54,8.26,2.25.42,4.62,7.62,4.49,11.65-.35,10.37-1.83,20.73-3.29,31-1.36,9.58-3.52,19.05-4.88,28.62C1468.91,273.7,1468.41,281.79,1467.48,291.47Z"/><path class="cls-1" d="M136.35,391c-10-10.6-19.9-21.25-29.95-31.78-5.8-6.07-11.78-12-17.74-17.87-2.78-2.75-5.4-5.87-8.7-7.8-1.51-.89-4.52.53-6.76,1.19-2.67.78-5.25,2.6-7.84,2.56-1.77,0-4.19-2.16-5-3.95-.65-1.39.17-4.12,1.26-5.54,2.49-3.24,5-7.14,8.47-8.82,13.79-6.68,21.48-22.67,38-24.78a46.07,46.07,0,0,1,15.5.51c15,3.32,17.54,23.25,8.14,34-.47.53-.56,1.4-1.31,3.4,3.89-2.35,6.58-4.93,9.73-5.72,17.73-4.43,33.16,7.5,35.29,25.64,1.19,10.14-1.22,17.59-8.94,24.34-8.87,7.76-16.61,16.8-25.49,24.54-1.91,1.66-6.59.16-10,.11q1.47-4.45,2.93-8.91Zm-21-38.54,31.2,31c2.48-2.53,5.23-5,7.61-7.84,4.86-5.75,12.14-9.88,11.17-19.38-.77-7.56-1.61-16.09-8.44-19.11-6.06-2.69-14.94-3.08-21-.65C128.45,339.42,122.72,346.4,115.3,352.43Zm-7.25-6.68c5.3-6.67,10.39-12.81,15.19-19.16,4.48-5.94,4.15-16.29-.34-20-6-4.88-16.05-4.93-21.09-.17s-10.42,9.72-16.93,15.77Z"/><path class="cls-1" d="M505.94,156.18c-9.89-9.13-10.74-20.07-13.2-30.76-3.54-15.43-9-30.42-13.69-45.58a11.36,11.36,0,0,0-1.68-2.57c-9.46,4.38-12.64,3.81-16.23-3.52,2.91-1.12,5.75-2.24,8.61-3.3,8.33-3.1,16.68-6.13,25-9.26,10.78-4,21.45-4.1,31.46,1.87,12.81,7.62,12.49,29-.29,36.41-1.11.65-2.14,1.43-3.34,2.23,7,11.21,18.23,17,28.52,24,4,2.69,7.62,5.85,12.55,9.67h12.76c1.32,6.93-1,10-7.06,11.06a57.34,57.34,0,0,0-13.75,4.09c-4.43,2-8.66,2-10.81-1.86-.94-1.66,2.28-5.64,3.85-9.08-6-4.71-13.33-10.43-20.54-16.35-1.91-1.57-3.34-3.75-4.94-5.69-6.4-7.76-14.15-8.27-22.41-3.42,2.22,9.87,4.1,20.77,7.38,31.22.94,3,5.74,5.12,9.15,6.95,1.93,1,5.69-.2,6.7,1.09,1.48,1.88,1.94,7.34,1.61,7.45A257.81,257.81,0,0,1,499.3,168c-1.84.38-4.31-2.29-6.49-3.56,1.82-2.18,3.4-4.65,5.56-6.42C499.61,157,501.79,157.1,505.94,156.18Zm16-60.8c1.43-6.46,2.81-11.21,3.43-16,.32-2.5.18-6.1-1.34-7.56-2.45-2.34-6.47-5-9.36-4.57-9,1.38-17.69,4.16-27.06,6.54-.9,9.62,4.35,17.8,8.24,26.29.53,1.16,3.51,2.16,5,1.77C508.51,99.73,516.11,97.19,521.91,95.38Z"/><path class="cls-1" d="M1217,121.78c-4.88,9.91-10.34,19.74-14.43,30.11-1.11,2.82,1,7.92,3.2,10.79,3.07,4,6.76,7,1.47,11.76-5.62-1.81-11.36-3.15-16.63-5.52a50.08,50.08,0,0,1-11.33-7.63c-1.12-.95-1.74-4-1-5.21a6.33,6.33,0,0,1,5.16-2.36c2.71.33,5.27,1.87,6.8,2.48l33-77c-6.12-2-13.61-2.8-10.77-13.11,3.42,1.2,6.32,2.2,9.21,3.23,8.1,2.91,16.1,6.11,24.31,8.67,11.53,3.6,19.45,10.88,23.51,22.09,4.82,13.34-9.33,29.64-23.39,27.27a28.64,28.64,0,0,0-4.73,0c-.95,13.88,2.62,26.82,8.48,39.45,1.43,3.09.21,7.4.21,11.21l10.82,10.09c-3.4,5-7.07,6.42-12.64,3.31-4.7-2.62-10.22-3.83-14.8-6.6-2.46-1.49-3.71-5-5.51-7.56,2.63-.88,5.25-1.8,7.9-2.63.7-.22,1.49-.14,1.06-.1-1.53-11.12-2.92-22.15-4.62-33.13-.72-4.66-.9-10.13-3.53-13.57C1226.26,124.6,1220.9,123.63,1217,121.78Zm31.66.92c-1.16-8,6.69-7.17,9.51-10.9,1.58-2.09,4.06-4.58,3.86-6.68-.33-3.35-1.65-8-4.13-9.49-7.79-4.71-16.31-8.22-26.59-13.18l-11.15,30.05Z"/><path class="cls-1" d="M318.74,246c-5.38-10.25-10.27-19.79-15.36-29.24-7.49-13.9-15.11-27.73-22.7-41.59-.51-.92-1.19-1.75-1.69-2.48-10.57,6.49-12.21,6.52-17.06-.08,2.14-1.42,4.22-2.87,6.37-4.21,8-4.95,16.08-9.73,23.95-14.84,9.77-6.35,20.1-8.28,31.19-4.37,13.61,4.81,17.75,25.54,7.16,35.25-1.16,1.07-2.3,2.15-3.58,3.35,5.79,4.24,11.05,8.92,17.07,12.23,4.66,2.56,10.36,3.16,15.42,5.09,4.77,1.82,9.3,4.24,15.43,7.08l12.43-1.84c1.85,5.58,1.14,9.45-4.76,11.88-4.69,1.93-8.91,5-13.66,6.78-3,1.1-6.59.64-9.92.88l1.83-10.1-40.63-22.06-11.89,5.91c4.58,9.85,8.59,19.9,14,29.17,1.65,2.86,6.84,4.65,10.62,5.08,4.86.56,10.11-1,10.8,5.93-5.46,3.73-10.2,7.63-15.53,10.39-4,2.07-8.73,2.93-13.24,3.74-1.16.21-3.65-1.67-3.88-2.89a6.91,6.91,0,0,1,1.61-5.47C314.68,247.76,317.5,246.74,318.74,246Zm6.58-64.56c.28-6.51.89-11.54.57-16.52-.16-2.47-1.38-5.88-3.24-7-2.86-1.74-7.28-3.43-10-2.41-8.48,3.19-16.47,7.67-26.55,12.56l16.57,27.31Z"/><path class="cls-1" d="M255.45,290.46l8.86-8c-7.51-5-16.3-10.58-24.82-16.56-5.89-4.13-10.06.81-14.19,2.83-4.53,2.22-8.11,6.52-11.82,10.2-1.37,1.36-3,3.79-2.67,5.33,2.43,11.13,5.32,22.16,8.26,34,2.43-2.56,3.73-5.11,5.55-5.58,2.34-.59,5.11.5,7.69.87-.79,1.92-1.08,4.38-2.47,5.66a210.1,210.1,0,0,1-18.69,15.85c-1.71,1.24-6.58.88-7.72-.55-1.31-1.63-1.16-6.75.25-7.8,4.87-3.59,4.8-8.35,3.73-12.8-3.51-14.59-7.71-29-11.46-43.55-.54-2.11-.07-4.48-.07-8.31-6.25-4.52-14.71-33.52-10.63-43.72,4.84,2.71,9.83,5,14.25,8.08,9.34,6.53,18.34,13.55,27.61,20.19,1.55,1.12,3.77,1.26,5.65,2,2.49.92,5.16,1.61,7.38,3,5.8,3.64,11.43,7.57,17.08,11.46,1.86,1.28,3.93,2.51,5.27,4.25,4.52,5.86,10.44,6.88,17.1,3.3,2.41-1.29,5.59-1.16,8.42-1.68-1,3-1.6,6.31-3.11,9.07-4.09,7.44-10.75,12.08-18.07,16.16C261.8,296.94,258.54,296.12,255.45,290.46Zm-61-57.22c4.34,13.94,7.93,25.48,12.08,38.84,6.58-7.33,11.36-12.64,15.82-17.62Z"/><path class="cls-1" d="M998.15,109.08l11.84,1.14c-1.83-8.94-3.22-19.88-6.64-30.16-1.16-3.49-7.13-6.3-11.45-7.61-4.87-1.46-10.36-1-15.58-1.1-1.79,0-4.51.24-5.23,1.37-6.43,10.11-12.51,20.45-19,31.24,3.92-.24,6.82-1.2,8.95-.31,1.88.79,2.89,3.64,4.29,5.58-1.92.8-3.87,2.35-5.76,2.28a190.56,190.56,0,0,1-23.66-1.9c-2.42-.4-4.34-3.79-6.49-5.82,2.37-1.79,4.64-3.74,7.14-5.32,3.55-2.25,8.67-3.33,10.66-6.46,8.18-12.9,15.36-26.42,23.07-39.62,1-1.7,2.9-2.87,5.27-5.12-1.45-6.05,14.66-34.77,23.27-38.74,1.62,5.25,3.7,10.25,4.64,15.46,2,11.25,3.36,22.62,5.28,33.88.36,2.1,2.27,3.89,3.23,5.94a34.25,34.25,0,0,1,2.66,6.94c1.47,6.66,2.76,13.37,3.93,20.09a26.2,26.2,0,0,1,.41,7.49c-.68,6,3.29,11.55,9.16,13.46,2.92.95,7.78,3.6,7.61,4.95-.6,4.73-5,3.77-8.89,4.53-8.24,1.6-15.73.66-23.5-1.64C998.42,118.17,996.08,115.79,998.15,109.08Zm-2.54-81.3-1.5-.1L976.62,60.9h23.12C998.33,49.54,997,38.66,995.61,27.78Z"/><path class="cls-1" d="M1345.62,230l10.73,5.18c1.51-9.46,4-20.34,4.52-31.3.16-3.32-4.71-7.59-8.22-10.15-4-2.9-8.91-4.61-13.61-6.34-2-.74-5.2-1.19-6.66-.13-9.07,6.56-17.79,13.59-27.67,21.28,3.21.87,6,.79,7,2.08,1.63,2.12,2.12,5.13,3.09,7.77-2.3,0-4.88.59-6.83-.24a233.92,233.92,0,0,1-22-10.51c-1.62-.89-3-4.64-2.43-6.39.64-1.91,4.41-4.75,5.55-4.26,13.28,5.76,20.58-4.47,29-10.76,9.1-6.84,17.39-14.76,26-22.21l2,2.37c7.57-15,21.36-22.25,34-30.88l3.1,1.6c-.93,6.48-1.62,13-2.85,19.43-2,10.4-7.64,21.4-5.69,30.92,2.6,12.71-6.79,23-3.24,35.21,1,3.64-3.63,8.74-3,12.75.57,3.6,4.94,6.53,7.38,9.93,1.07,1.47,2.59,4.17,2,5-1.14,1.57-4,3.46-5.42,3-9-2.78-18.93-4.19-25.61-11.73-2.21-2.5-2.89-6.34-4.27-9.57Zm26.7-76.59-1.81-.26L1342.6,178l22.26,7.23C1367.25,175,1369.79,164.24,1372.32,153.44Z"/><path class="cls-1" d="M1093,38.54,1082.31,27c6-4.69,5.76-4.41,11.13-.62,2.3,1.61,6,1.21,8.43,2.69,2.93,1.77,5.24,4.57,7.82,6.92a55.58,55.58,0,0,0-6.76,4.34c-1.58,1.36-3.27,3.2-3.77,5.12-5,19.19-10.15,38.37-14.51,57.71-1.36,6.05-1.4,12.74,4.73,17.45,2,1.53,3.23,4.08,4.82,6.16,7.12,9.33,17.15,9.3,24.4-.21a132.52,132.52,0,0,0,9.74-14,107.88,107.88,0,0,0,7.42-16c2.88-7.73,4.89-15.78,7.81-23.49,3.07-8.15,2.92-15.73-1.84-23.19-1.17-1.84-1.63-4.15-2.55-6.62,10.46-1.93,19.39-.5,27.36,4.89,2.26,1.53,3.55,4.51,5.28,6.83a55.42,55.42,0,0,1-7.67,2.6,19.05,19.05,0,0,1-5.23-.16c-3.18,8.14-6.39,15.53-9,23.13-3,9.08-4.3,19-8.6,27.37-4.67,9.14-11.86,17-18.11,25.34-2.13,2.83-4.25,6.21-7.21,7.79-7.15,3.83-14.43,2.62-20.72-2.35a131,131,0,0,1-12.45-11.47c-6.9-7.09-9.23-23.45-5.21-32.75.72-1.66-.05-3.9.28-5.8,2-11.52,3.56-23.17,6.5-34.45C1085.9,48.67,1090,43.82,1093,38.54Z"/><path class="cls-1" d="M1569.43,269.42c5.87,6.61,11.41,13.71,17.88,19.82,4.34,4.1,10.76,6.06,14.88,10.31,4.66,4.81,7.39,11.44,11.72,16.66,3.52,4.23,8.16,7.54,14,12.81-.5,8.76-8.19,16-19,22.75,0-2.59-.12-5.2,0-7.78a8.15,8.15,0,0,1,1.22-2.81c3.72-7.08,4.46-13.61-2.43-19.56-3.68-3.18-6.75-7.08-9.38-9.9-10.28,10.41-20.75,20.93-31.11,31.54-9.16,9.39-18.2,18.89-27.58,28.64,3.07,4.07,10.35,6.17,6.41,13.23-10.94-.12-23-10.69-23.29-19.85-8.4,0-5.19-5.69-5.71-11.43l14.45,8.34c4.51-3.77,9.47-7.93,14.44-12.06a19.78,19.78,0,0,0,1.9-1.29c9.9-10.29,19.72-20.67,29.68-30.9,4.21-4.31,8.73-8.32,14.25-13.55l-19.45-19.51c-8.34,4.73-14.66,8.42-21.12,11.87-1.25.67-3,.36-4.56.5,0-1.91-.75-4.62.22-5.59,4.26-4.26,9.21-7.81,13.54-12C1564,276.28,1566.89,272.36,1569.43,269.42Z"/><path class="cls-1" d="M865.92,96c4.88-.42,10.92-1.9,12.67,6.33-7.9,3.44-15.51,6.79-24.07,2.38-5.44-2.8-14.14,3.31-17.52-7.22l15.62-3.87c1.71-26.07,3.51-53.6,5.44-83H829.43c-2.87,8.49-5.14,15.52-7.69,22.46-.44,1.17-2.15,2.68-3.19,2.62s-3-1.7-3.14-2.77a97.64,97.64,0,0,1-.3-15.76c.46-5.34,1.85-10.6,3-17C831.35,3.86,846,3.88,861.2,0c8.75,5.68,29.09,7.17,37,2,7.29,9.14,7.39,19.43,4.78,32.48-2.78-2.63-5.31-4.17-6.58-6.42-1.91-3.37-2-8.25-4.6-10.62-2.9-2.66-7.62-3.74-11.73-4.58-4.45-.91-9.13-.74-15-1.13,6.2,13.65-1.59,26.87.4,40.75S865.92,80.9,865.92,96Z"/><path class="cls-1" d="M766.62,39.84c-2.82-6-5.19-9.92-6.52-14.15-2.18-7-5.9-11.83-13.73-11.42-5.65.3-11.18-2-17,2.42C722.85,21.58,723.53,27,724.9,33c3.47,15.31,17.22,19.39,28.69,26.29,7.64,4.6,15.16,10.16,21,16.82,4.16,4.78,11.57,10.32,7.28,18.39-4.89,9.19-14.09,13.3-23.44,17-10.23,4-18-.2-25.42-6.49a23.22,23.22,0,0,0-3.68-2c-1.15,2.8-1.84,5.27-3.13,7.36-1,1.57-2.77,3.76-4.08,3.67-1.65-.1-3.83-1.91-4.63-3.55-3.91-8-2-16.34-.26-24.4.9-4.12,5.61-3.19,9.32.55a143.5,143.5,0,0,0,18.41,16.19c5.49,3.9,15.07.69,22.07-7,4.15-4.54,5.36-10.76,1.91-16-2.6-3.93-6.91-7-11-9.61-8.72-5.5-18-10.17-26.71-15.65-12.38-7.78-18.93-29.82-12.54-40.9C722.2,7.51,735,3.75,744.09,5.28c5.1.86,10.35,6.06,16.1.46.38-.36,7.22,3.87,8.74,7.06C772.74,20.75,772.4,29.17,766.62,39.84Z"/><path class="cls-1" d="M394.94,170.26c4.51-3,8.76-6.49,13.59-8.79,10.8-5.13,21.89-9.66,32.87-14.44,1.45-.63,3-1.78,4.38-1.7,3.45.18,6.88.94,10.31,1.46-1.92,3.14-3.1,7.83-5.88,9.15-13.22,6.22-26.72,11.92-40.45,16.91-4.27,1.54-9.58.24-14.42.24C395.21,172.14,395.07,171.2,394.94,170.26Z"/></g></g></g></svg>