<svg xmlns="http://www.w3.org/2000/svg" viewBox="0 0 3424.13 790.69"><defs><style>.cls-1{fill:#757575;}.cls-2{fill:#c21500;}</style></defs><g id="Capa_2" data-name="Capa 2"><g id="logo-perez-wide"><g id="Copa_cubiertos" data-name="Copa &amp; cubiertos"><g id="Cuchillo"><path class="cls-1" d="M956,386.25c-1.07,13.33-2.16,37.48-3.25,67.3q25.05-.94,50.13-.85V59.17c0-64.46-39.75-45.81-50-.91-17.64,77.18-29.33,232.88-29.11,307C923.82,384.51,957.08,372.73,956,386.25Z"/><path class="cls-1" d="M946.58,656.67c-1.3,43.41-2.48,78.6-3.48,92.85-3.73,53.48,59.78,52.08,59.78,9.38V656.74Q974.73,656,946.58,656.67Z"/></g><g id="Tenedor"><path class="cls-1" d="M396.35,296.64c.82,20.93-3.28,116-7.4,214q25.23-.24,50.35-1.5c-7.8-97.8-15.47-192.45-15.83-212.46-.2-10.75,16.37-8.58,35.91-36.87,11.73-17,15.2-28.83,13.29-100.85-1.45-54.41-7.62-124-14.09-142.91s-13.42-21.17-13.42,8.47c0,23,0,139.92,0,152.87s-15.35,16.43-15.35,1.49V14c0-12-13.6-12.43-13.6.1V178.81c0,14-12.61,11.48-12.61,0V13.52C403.58,2,389.12,2,389.12,13V177.84c0,10-12.47,16.44-14.57,0s-.41-139.5,0-150.95C376-13,365.82-1.64,360.62,17.05c-4.69,16.81-14.93,93.82-14.93,142.37,0,53,3,83.31,15,103.49C376.33,289.08,395.88,284.44,396.35,296.64Z"/><path class="cls-1" d="M381.61,711.05c-.39,19.26-.37,33,.2,38.86,5.54,55.82,72.35,49.67,74.1-1.76.21-6.06-.44-20.48-1.69-40.61C430.08,709.26,405.89,710.49,381.61,711.05Z"/></g><g id="Copa"><path class="cls-1" d="M684.53,482.35c2.23-8.7,4.89-17.51,8.07-26.51-29.81,6.16-47.63,6.48-74-2.25A352.5,352.5,0,0,1,629.15,490Q656.87,486.28,684.53,482.35Z"/><path class="cls-1" d="M677.61,690.22c-.07-2.69-.14-5.33-.22-8q-18.66,2.47-37.35,5c0,1.26,0,2.5,0,3.72,0,74-107.66,67.06-107.66,95.26,27.54.08,196,.41,242,0C774.37,754.21,679.77,774.7,677.61,690.22Z"/><path class="cls-1" d="M648.29,462.58h0c-53.75,0-95.51-16-124.12-47.66-31.85-35.19-45.86-89.87-39.45-154,4.07-40.72,15.5-65.47,26.56-89.41C527.79,135.79,543.4,102,535.78,14.41a9,9,0,0,1,17.9-1.56c8,92.38-9.31,129.92-26.09,166.23-10.92,23.63-21.23,45.94-25,83.66-5.9,59,6.49,108.74,34.89,140.12,25.07,27.7,62.35,41.75,110.8,41.75,54.77,0,96-15.37,122.68-45.69,27.61-31.42,38.81-79.64,31.53-135.79-4.72-36.41-13.91-59.21-22.8-81.26-15.37-38.13-29.89-74.15-22.15-169a9,9,0,0,1,17.91,1.46c-7.4,90.59,6.35,124.69,20.91,160.79,9.31,23.1,18.94,47,23.95,85.67,8,61.35-4.78,114.6-35.85,150C754.26,445.15,708.44,462.58,648.29,462.58Z"/><path class="cls-2" d="M750,119.42c7.66,55.62,31.18,63.74,42,147.65,11.19,86.28-23.43,168.16-143.15,168.16C537,435.23,504.56,352.73,513.14,267c4.53-45.31,18.63-79.84,28.13-93.36C600.82,178.56,728.7,138.34,750,119.42Z"/></g><g id="Ribbon"><path class="cls-1" d="M154.6,672.92c355,90,701.92-95.11,1041.92-3.85V493.6c-329.44-99-688.89,95-1041.92,4.2Z"/><path class="cls-1" d="M156.58,487.58c19.6,6.1,66.69,17.45,87.84,18.93l-.87-37S167.52,484.87,156.58,487.58Z"/><path class="cls-1" d="M145.16,615.13l-.08-135.79s87.17-17,98.19-19.95c-41.8-4.94-128-16.15-187.63-38l32.45,96.88S45.51,547.26,0,578.32C50.78,599.54,118.77,606.44,145.16,615.13Z"/><path class="cls-1" d="M1194.55,680.68c-19.6-6.09-66.69-17.44-87.84-18.93l.87,37S1183.6,683.39,1194.55,680.68Z"/><path class="cls-1" d="M1206,553.13l.09,135.79s-87.17,17-98.19,20c41.8,5,128,16.15,187.62,38L1263,650s42.58-29,88.09-60.07C1300.35,568.73,1232.36,561.82,1206,553.13Z"/></g></g><g id="Perez_s" data-name="Perez's"><path class="cls-1" d="M1609.22,258.71c-5.88,51-11.34,102-17.75,152.93-13.8,109.68-28.13,219.29-42.15,328.94-1.21,9.46-1.48,19-2.65,28.51-1.64,13.21-8.05,20-19.39,21.36-14.89,1.76-25.22-6.32-24.08-21.17,2.27-29.83,5.26-59.64,9.17-89.31,11.2-85.12,23.79-170.07,34.33-255.28,7.88-63.66,13.77-127.59,19.85-191.46,2.25-23.66-.35-24.47-23.11-18.12-17.66,4.92-35.9,7.85-54,11.22-6.68,1.24-14-.81-14.62-8.08-.39-4.65,3.38-11.3,7.36-14.4,20.35-15.81,44.12-25.19,68.87-31,41.45-9.68,83.53-16.33,126.3-14.5,55.39,2.37,103.85,22.2,141.22,63.58,48.37,53.56,57.39,114.85,28,180.49-39.46,88-108.58,138.33-203.36,153.61-10.65,1.72-22.21-.67-33.09-2.59-6.53-1.16-12.51-5.56-11.93-13.62.61-8.53,8.37-8.23,14.13-9.63,46.29-11.24,89.82-28.38,126.41-59.81,37.38-32.12,65.26-70.83,75.94-119.56,9.22-42.05,4-82.28-25.08-116.14A100.82,100.82,0,0,0,1758.1,210c-43.59-21-89.6-27.91-137.52-18.34a75.8,75.8,0,0,0-11.36,3.22c-13.43,5-13.85,7.25-6.36,19.26a33.16,33.16,0,0,1,4.54,14.75c.7,9.83,1.89,15.78,1.89,25.66C1609.3,255.59,1609.26,257.77,1609.22,258.71Z"/><path class="cls-1" d="M2289.5,401.11c4.42-7.46,9-14.85,13.26-22.4,16.17-28.7,35.46-54.83,63.48-73.08,16.25-10.59,34.08-17.23,54.09-15.39a28.65,28.65,0,0,1,5.85.92c7,2.15,14.71,4.3,15.59,13s-6.82,11.59-13,14c-22.81,9.06-44.35,20-62.74,36.65-31.44,28.41-50,64.72-65.16,103.41-16.62,42.43-24.7,86.56-27.55,131.77-1.84,29.22-3.06,58.49-4.23,87.74-.72,18.17-10.27,27.67-28.42,28.28-8.83.3-14.47-3.45-15.28-11.79-1-10.72-.79-21.59-.65-32.4.11-8.19.91-16.38,1.59-27.82-4.14,4.93-6.49,7.66-8.77,10.45-36.26,44.39-80.86,75.2-138.68,83.82-29.59,4.41-58.58,2.16-85.78-11.67-28.85-14.66-44.43-39-51.1-69.95-21.71-100.84.9-192.46,58.32-276.46,8.22-12,19.43-22.46,30.7-31.92,40.58-34.08,95-15.17,105.38,37,9.87,49.51-7.2,91.56-40.8,127.31-23.62,25.13-52.94,39.41-88,41.51-26.3,1.58-29.47,5-30.5,31.31-1.17,30,2.93,59.17,17.72,85.93,19.13,34.63,43,45,81.66,35.29,46.79-11.8,82.27-40.95,112.19-76.85,15.69-18.84,27.92-40.58,41.48-61.16,1.51-2.28,1.86-5.54,2.1-8.41q6.7-81.19,13.23-162.41c1.32-16.39,2.24-32.83,4.24-49.14.52-4.24,4.55-11.58,6.7-11.48,7.76.34,16.46,1.63,22.71,5.75,4.12,2.71,6.18,10.8,6.47,16.62.83,16.72.29,33.5.29,50.26Zm-184.26-13.42c-.12-14.94-2.16-25.58-13.21-31.48-11.21-6-21-1-30.26,5.35-1.89,1.3-3.63,2.83-5.4,4.31-44.25,36.76-60.58,87.84-72.21,141.2-1.94,8.91,1.22,11.47,10.37,9.72,23-4.4,42.3-16,59.53-31.36C2084.43,458.38,2101.41,424.55,2105.24,387.69Z"/><path class="cls-1" d="M2733.34,623.84c-14.33,9.56-27.6,19.81-42.11,27.83-37.38,20.64-77.51,30-120,22.13-43.34-8-75.13-33.59-85.31-86.4-19.2-99.71,3.49-189.88,60.6-272.29,8.3-12,19.58-22.35,31-31.64,39.23-32,91.21-14.57,103.32,34.77,11.26,45.86-3.25,86-31.81,121.39-24.87,30.81-57.39,47.75-97.69,51.14-28.25,2.38-27.7,3.94-28.83,29.33-1.38,31.06,2.64,61.12,18.19,88.71,17.82,31.64,42.67,43.32,77.88,34.57,15.46-3.84,31-9.57,44.77-17.47,45.71-26.21,79.85-64,105.19-109.95,1.43-2.59,2.29-6,4.48-7.54,3.91-2.72,8.6-5.87,13-5.94,6.27-.11,9.67,4.84,9.93,11.34.06,1.64.26,3.27,2.64,7a50.81,50.81,0,0,1,2.72-5.66q63.58-99.36,127.08-198.8c1.95-3.07,1.41-7.71,2-11.62-3.62-.17-7.36-1-10.82-.39-22.65,4.21-45.09,9.84-67.87,12.89-26.31,3.53-51.28-.07-71.07-20.81-5.42-5.68-8.6-11.05-4.2-18.2,4-6.45,9.82-6,16.53-4.09,42,11.83,83.66,6.58,124.86-4.3,17.46-4.61,34.49-10.91,51.6-16.78,13.68-4.71,21.62-3.41,28.45,5.49,7.4,9.63,6.58,17.51-1.23,29.81-23.45,36.94-44.46,75.61-70.2,110.85-38.92,53.3-73.39,109.23-106.77,166-1.83,3.11-2.21,7.05-3.27,10.61,3.45.38,7.1,1.7,10.32,1,28.37-6.1,55.7-2.67,82.2,8.44,30.77,12.89,59.67,10,87.15-9.1,7.43-5.18,11.54-2.73,11.89,6.49.43,11.39-3.14,21.39-11.83,29.19-27,24.21-57.68,29.94-90.68,15.31-35.45-15.72-69.44-15.23-103.23,3.83-10.31,5.82-20.93,11.12-31.27,16.89-18.7,10.44-32.35,4-36.76-17.47C2733.76,628.21,2733.62,626,2733.34,623.84Zm-82.53-293.75c-1-11.28-2.56-21.83-13.3-27.57s-21.25-2.66-29.32,4.65c-13.09,11.87-26.74,23.84-36.87,38.1-22.22,31.26-33.47,67.47-41.47,104.66-2.67,12.45-.21,14.92,12.47,12.16,21.42-4.67,39.82-15.22,56.11-29.65C2629.39,405,2646.84,370.72,2650.81,330.09Z"/><path class="cls-1" d="M3098.16,22.2c-1.7-5.07-5-9.42.64-14,5.28-4.32,10.67-4.68,16.33-1.08,18,11.47,25.95,28.68,29.06,49.18,4.54,29.84-5.17,56.44-17.79,82.39-5.73,11.8-12.28,23.23-19,34.51-5.68,9.54-13.42,11.9-21.49,7.55-9.73-5.25-11.93-12.3-7-23.17C3091.34,130,3128.51,82.25,3098.16,22.2Z"/><path class="cls-1" d="M3383.9,462.23c.52-22.6-12.62-41.69-35.84-55.42-26.84-15.88-56-23.88-86.44-29.31-34-6.09-54.32-30.5-52.2-61.3,1.21-17.65,10-31.86,21.89-44.2,21.55-22.36,48.78-35.69,77.38-46.2,18.21-6.69,36.94-12,55.6-17.38,15.87-4.57,31.48,8,29.53,24.21-.47,3.89-5.81,8.8-10,10.35-16.34,6-33.23,10.57-49.68,16.33-29.51,10.32-57.36,23.5-77.81,48.43-1.25,1.53-2.62,3-3.75,4.58-6.71,9.53-5.54,14.71,5.65,18.6,12.73,4.41,25.81,7.89,38.87,11.26,33,8.5,63.73,21.05,89,44.87C3422,421,3439.64,487.92,3406.7,537.2c-5.43,8.13-11.53,16.41-19.08,22.43-30.3,24.14-63.09,43.41-103.38,44.46-19.64.5-38.74-2.46-56.3-12.18-23.31-12.89-32.36-34.51-36.3-59.13-2.59-16.11-2.4-32.12,3.61-47.67,1.93-5,4.46-10,10.41-7.48,3.22,1.37,5.9,5.87,7.2,9.53,4.27,12,6.6,24.87,11.84,36.42,11.4,25.08,31.84,35.54,59.12,33.51,34.68-2.58,61.94-18.53,84-44.45C3378.82,499.79,3384,485,3383.9,462.23Z"/></g></g></g></svg>