<svg xmlns="http://www.w3.org/2000/svg" viewBox="0 0 699.01 699.01"><defs><style>.cls-1{fill:#ddd;}.cls-2{fill:#999;}</style></defs><g id="Capa_2" data-name="Capa 2"><g id="Placeholder_1.1" data-name="Placeholder 1.1"><rect class="cls-1" width="699.01" height="699.01"/><g id="Copa_cubiertos" data-name="Copa &amp; cubiertos"><g id="Cuchillo"><path class="cls-2" d="M379.61,265.73c-.11,1.43-.23,4-.34,7.24,1.75-.05,3.51-.07,5.27,0V231.39c0-6.77-4.18-4.81-5.26-.09-1.85,8.1-3.07,24.45-3,32.23C376.23,265.55,379.73,264.31,379.61,265.73Z"/><path class="cls-2" d="M378.63,293.94c-.14,4.64-.26,8.42-.37,9.93-.39,5.62,6.28,5.47,6.28,1v-11Q381.59,293.86,378.63,293.94Z"/></g><g id="Tenedor"><path class="cls-2" d="M320.85,256.33c.09,2.19-.34,12.19-.77,22.48,1.76,0,3.52-.09,5.28-.19-.82-10.26-1.62-20.19-1.66-22.29,0-1.13,1.72-.91,3.77-3.88,1.23-1.78,1.6-3,1.4-10.58-.16-5.72-.8-13-1.48-15s-1.41-2.22-1.41.89c0,2.42,0,14.69,0,16.05s-1.61,1.73-1.61.16V226.65c0-1.26-1.43-1.3-1.43,0V244c0,1.47-1.33,1.21-1.33,0V226.6c0-1.21-1.51-1.21-1.51,0v17.3c0,1.05-1.31,1.73-1.54,0s0-14.65,0-15.85c.15-4.19-.91-3-1.46-1a88,88,0,0,0-1.57,14.95c0,5.57.32,8.75,1.58,10.86C318.75,255.53,320.8,255,320.85,256.33Z"/><path class="cls-2" d="M319.31,299.74c0,2.07,0,3.55,0,4.18.58,5.86,7.59,5.21,7.78-.19,0-.64-.05-2.17-.18-4.31C324.39,299.59,321.86,299.7,319.31,299.74Z"/></g><g id="Copa"><path class="cls-2" d="M351.11,275.81c.24-.91.52-1.83.85-2.77a13.07,13.07,0,0,1-7.78-.24,35.62,35.62,0,0,1,1.11,3.8Z"/><path class="cls-2" d="M350.38,297.65c0-.29,0-.58,0-.86l-3.92.53v.4c0,7.78-11.31,7-11.31,10,2.9,0,20.58,0,25.41,0C360.54,304.37,350.61,306.52,350.38,297.65Z"/><path class="cls-2" d="M347.31,273.75h0c-5.65,0-10-1.69-13-5-3.34-3.69-4.81-9.43-4.14-16.16a26.45,26.45,0,0,1,2.79-9.39c1.73-3.75,3.37-7.3,2.57-16.5a.94.94,0,0,1,1.88-.16c.85,9.7-1,13.64-2.74,17.45a24.55,24.55,0,0,0-2.62,8.79c-.62,6.19.68,11.41,3.66,14.71,2.63,2.91,6.55,4.38,11.64,4.38,5.74,0,10.08-1.61,12.88-4.8s4.07-8.36,3.31-14.25a31.28,31.28,0,0,0-2.4-8.54c-1.61-4-3.14-7.78-2.32-17.74a.93.93,0,0,1,1-.86,1,1,0,0,1,.87,1c-.78,9.51.66,13.09,2.19,16.88a32.89,32.89,0,0,1,2.52,9c.83,6.45-.5,12-3.77,15.75S353.62,273.75,347.31,273.75Z"/><path class="cls-2" d="M358,237.72c.8,5.84,3.27,6.69,4.42,15.5,1.17,9.06-2.47,17.66-15,17.66-11.74,0-15.14-8.67-14.24-17.67a22.82,22.82,0,0,1,2.95-9.8C342.32,243.93,355.75,239.7,358,237.72Z"/></g><g id="Ribbon"><path class="cls-2" d="M295.47,295.83c37.27,9.45,73.7-10,109.4-.4V277c-34.59-10.38-72.33,10-109.4.45Z"/><path class="cls-2" d="M295.68,276.37a59.06,59.06,0,0,0,9.22,2l-.09-3.88S296.83,276.09,295.68,276.37Z"/><path class="cls-2" d="M294.48,289.76V275.51s9.15-1.79,10.31-2.1c-4.39-.52-13.43-1.69-19.7-4l3.41,10.17-9.25,6.31C284.57,288.13,291.71,288.85,294.48,289.76Z"/><path class="cls-2" d="M404.66,296.65a59.06,59.06,0,0,0-9.22-2l.09,3.88S403.51,296.93,404.66,296.65Z"/><path class="cls-2" d="M405.86,283.26v14.25s-9.15,1.79-10.31,2.1c4.39.52,13.43,1.69,19.7,4l-3.41-10.17,9.25-6.31C415.77,284.89,408.63,284.17,405.86,283.26Z"/></g></g><g id="Parrillada"><path class="cls-2" d="M315,520.56c-1.88.14-2.56-.4-2.27-2l4.19.86c.23,0,.48.19.68.14,1.78-.45,3.27.45,4.8,1.06s2.45,3.41,1.8,4.76a6.5,6.5,0,0,1-1.5,2.4,7.85,7.85,0,0,1-2.67.77c.25,1.08.2,2.72,1,3.66.66.78.88,1.74,1.54,2.4a1.83,1.83,0,0,1,.67,2.12c-.05.14.05.32.07.44.45.38,1.49-.21,1.43.9l1,.36c-.69,1.34-1,1.41-2.26,1-.83-.26-1.71-.32-2.56-.52a2.48,2.48,0,0,1-1.06-.5c-.21-.19-.43-.66-.33-.84a1.94,1.94,0,0,1,.88-.63,2.5,2.5,0,0,1,.79,0c-.65-1.17-1.28-2.2-1.78-3.29a20.21,20.21,0,0,1-.46-2c-.33-1-.73-1.9-1-2.68l-2.49-.65c-.33,1.69-.64,3.44-1,5.17-.1.46-.47.74-.25,1.4a2,2,0,0,0,1,1.18,2,2,0,0,1,.87,1.17c.11.8-.27.9-1.06.71s-1.77-.07-2.61-.31a10.87,10.87,0,0,1-2.36-1.13.7.7,0,0,1-.14-.7,1.54,1.54,0,0,1,.76-.69,1.72,1.72,0,0,1,1,.1c.95.28,1,.25.87-.76a4.12,4.12,0,0,1,.21-2.76,9.8,9.8,0,0,0,1.07-4.48c0-2,.83-3.78,1.27-5.65A5.29,5.29,0,0,0,315,520.56Zm2,.33c-.9,1.42-.83,3-1.06,4.57-.1.68.15,1.09.94,1.19,1.3.17,2.57.45,3.86.68l-.08-.32c.42-.45.84-.9,1.24-1.36s.9-.83,1-1.31a1.71,1.71,0,0,0-1.7-2,1.43,1.43,0,0,1-.38-.13Z"/><path class="cls-2" d="M294.47,514.9a9.34,9.34,0,0,1-1.87-.9c-.25-.2-.19-.77-.27-1.18.32-.05.67-.22.94-.13,1.19.38,2.34.83,3.51,1.26.13,0,.26.15.37.13,1.86-.23,3.26.86,4.71,1.7s1.93,3.59,1,5a11.6,11.6,0,0,1-1.72,2.15,2.49,2.49,0,0,1-1.45.36,5.76,5.76,0,0,1-1.29-.23c.13,1.37-.2,3,.5,3.93s.63,2.22,1.48,3.07a1.59,1.59,0,0,1,.19,1.36c-.22.69-.15,1,.61,1.11.34.05,1,.11.6.77.26.18.65.32.8.6s-.27.68-.51.75a2.92,2.92,0,0,1-1.52.09c-.92-.27-1.77-.84-2.71-1a1.4,1.4,0,0,1-1.25-1.28c0-.81.73-.89,1.43-.74.09,0,.19,0,.13,0l-2-8.26-2.18-.9a15.46,15.46,0,0,0-1.56,3.67c-.16,1-1.12,1.77-.59,2.84a4.22,4.22,0,0,0,.5.91c.23.28.71.44.79.73A2.38,2.38,0,0,1,293,532c0,.08-.62,0-.93-.07a14.86,14.86,0,0,1-2.78-.68,7.94,7.94,0,0,1-2-1.43c-.12-.1,0-.61.12-.8a1.17,1.17,0,0,1,.83-.38,14.17,14.17,0,0,1,1.81.51c0-.67,0-1.23,0-1.79a2.52,2.52,0,0,1,.53-1.73,10.44,10.44,0,0,0,1.17-2.9c.45-1.37.75-2.79,1.23-4.14.36-1,.94-1.94,1.37-2.92A2,2,0,0,0,294.47,514.9Zm5.28,7.36c-.34-.73-.25-.92.69-1.52,1.57-1,1.68-1.42,1.12-2.92-.29-.77-.9-.43-1.34-.64-1.25-.6-2.48-1.26-3.71-1.9a8.7,8.7,0,0,0-1.67,5.57Z"/><path class="cls-2" d="M421.09,525c-.77.48-1.43.93-2.12,1.32-1.2.67-2.45,1.25-3.62,2a2.07,2.07,0,0,1-3.07-.79l1.86-1c1.19-.66,1.36-1.55.49-2.57-.15-.17-.38-.43-.34-.59.28-1.09-.59-1.79-.87-2.69-.39-1.24-.95-2.43-1.45-3.63a10.59,10.59,0,0,0-.58-1l-2.5-4.32a6.62,6.62,0,0,1-1.21.84,9.79,9.79,0,0,1-1.71.33,4.91,4.91,0,0,1,.51-1.69,4,4,0,0,1,1.46-.92c1.16-.53,2.33-1,3.53-1.49.9-.34,1.84-.57,2.75-.86.26-.08.53-.31.74-.26,1.73.35,3.49.24,5.15,1.3a20.11,20.11,0,0,1,3.83,3.64,8.68,8.68,0,0,1,1.19,2.79c.1.25.08.55.2.78.82,1.43.37,2.89,0,4.3a7.1,7.1,0,0,1-1.11,2.08,11.05,11.05,0,0,1-1.69,2.09C422.19,524.87,421.54,524.86,421.09,525ZM411,511c.27.68.51,1.4.86,2.08.83,1.63,1.72,3.23,2.58,4.84,0,.08,0,.22,0,.3.16.34.34.67.51,1a4.64,4.64,0,0,1,.44.82c.21.76.13,1.82.62,2.25a2.45,2.45,0,0,1,.83,2.35l1.15-.49a13.75,13.75,0,0,1,2.65-1.1c1.78-.33,2.55-1.21,2.72-3.1.09-1,.81-2.05,0-3.11,0,0,0-.06,0-.08.59-1.2-.08-2.15-.79-2.9-1.17-1.24-2.53-2.3-3.79-3.46a4.06,4.06,0,0,0-4.76-.68C413,510.17,412,510.58,411,511Z"/><path class="cls-2" d="M274.55,511.38l.33.58c.44-.79.69-1.8,1.33-2.24s.88-1.9,2.18-1.48c.83-1.61,1.34-2,2.92-2-.1,1.19-.17,2.37-.3,3.54-.16,1.43-.38,2.84-.58,4.26-.05.3-.15.6-.18.9s-.21,1,0,1.25c.7.72.21,1.32.06,2a26,26,0,0,0-.31,3.06c0,.42.09.91-.09,1.24a2.11,2.11,0,0,0,.9,3.21,6.55,6.55,0,0,1,1.07,1c-.73.77-1.39,1-2.19.39-.12-.09-.38,0-.57,0s-.45.13-.58,0a27,27,0,0,1-3.29-2c-.29-.22-.12-1,0-1.6.8.4,2.06-.33,2.26,1.12.07-.79.13-1.59.2-2.39a27.34,27.34,0,0,1,.29-2.87c.16-.85.1-1.49-.75-1.93a4.12,4.12,0,0,1-.7-.66c-1.14.63-1.71-.68-2.65-.92-.33-.08-.8-.26-1-.11-.87.61-1.44,1.5-2.58,1.93-.88.33-1.42,1.55-2,2.26a5.71,5.71,0,0,1,1.43.69,1.1,1.1,0,0,1,.1,1.06c-.1.19-.68.23-1,.15a21.17,21.17,0,0,1-2.67-.84,14.45,14.45,0,0,1-1.82-1,.88.88,0,0,1-.28-1.37c.28-.33,1-.68,1.29-.54a1.78,1.78,0,0,0,2.07-.2q2.42-2,4.75-4.08C273,513.08,273.71,512.24,274.55,511.38Zm3.88,3.72,1.17-6.05-5.22,5Z"/><path class="cls-2" d="M450.05,507.47c.38,1.1.23,1.75-.68,2.12-.17.06-.26.34-.37.53s-.15.43-.29.51a36.31,36.31,0,0,1-3.49,1.71c-.25.1-.77-.35-1.09-.65-.08-.08.11-.51.24-.74.37-.63.81-1.18,1.7-.8-.56-.4-1.13-.79-1.67-1.2-1-.78-2-1.57-3-2.35-.52-.41-2.39-.22-2.56.35-.35,1.13-1.46,1-2.19,1.55-.35.24-.66.3-.63.81.07,1.06.59,2,.25,3.22-.23.86.58,2,.89,2.92a4.69,4.69,0,0,1,1.25-.83c.3-.08.72.28,1.09.44a3,3,0,0,1-.47,1,20.49,20.49,0,0,1-2.14,1.79,11.66,11.66,0,0,1-1.79,1,.87.87,0,0,1-1.31-.51c-.12-.42,0-1.2.25-1.37a1.8,1.8,0,0,0,.94-1.86c-.22-2-.51-4-.86-6-.2-1.15-.56-2.28-.87-3.5h.8c-.08-.17-.1-.28-.17-.32-.32-.18-.84-.17-.54-.81.05-.12-.47-.44-.47-.67,0-1-.94-1.93-.36-3.11.2-.4-.42-1.13-.49-1.73a6,6,0,0,1,.21-1.55,4.75,4.75,0,0,1,1.28.37,17.33,17.33,0,0,1,1.73,1.37q1.74,1.43,3.45,2.88c.22.18.39.42.6.6s.69.75.93.69c1.18-.27,1.43.64,2,1.26a15.94,15.94,0,0,0,2.28,1.64,3.46,3.46,0,0,1,1.06.94,2.19,2.19,0,0,0,2.88.93A15.06,15.06,0,0,1,450.05,507.47Zm-11.52-3.36c-.21-.16-.67-.44-1.07-.78-.67-.56-1.33-1.15-2-1.76-.43-.42-.79-.91-1.19-1.37l-.27.2c.69,2.1.33,4.46,1.65,6.45.6-.5,1.2-.94,1.74-1.45A14.76,14.76,0,0,0,438.53,504.11Z"/><path class="cls-2" d="M407.84,529.59c0,1-.26,1.71-1.34,1.72-.14,0-.27.25-.4.39s-.31.43-.5.48c-1.16.25-2.34.44-3.5.69-.76.17-1-.38-1.11-.87-.05-.19.36-.51.55-.77a1.09,1.09,0,0,1,1.71-.23c-.52-.65-1-1.29-1.55-2s-1.18-1.52-1.71-2.33a2.2,2.2,0,0,0-3.16-.46,8.4,8.4,0,0,1-2.23.64c-.31.1-.74.35-.81.61-.26,1,0,2-.65,3.11-.47.74,0,2.11.09,3a5.88,5.88,0,0,1,1.56-.41c.26,0,.63.44.74.76.06.15-.33.56-.6.7a27.51,27.51,0,0,1-2.65,1.2,14.93,14.93,0,0,1-1.92.46.91.91,0,0,1-1.17-.78c-.12-.57-.1-1.21.67-1.34a1.64,1.64,0,0,0,1.37-1.55c.31-2,.58-4,.77-6.06.1-1.13,0-2.27,0-3.45l.75.13a12.52,12.52,0,0,1-.56-2.47,9,9,0,0,1,.49-2.73c0-.92-.36-1.84.33-2.77.4-.54.69-.46,1-.07.61.72,1.2,1.44,1.74,2.2.87,1.22,1.7,2.47,2.54,3.71a3.75,3.75,0,0,0,.44.72,14.62,14.62,0,0,0,1.18,1c.22.18.52.31.66.54.48.74.86,1.53,1.34,2.27.28.42.7.74,1,1.14a2.74,2.74,0,0,1,.63,1,2.1,2.1,0,0,0,2.7,1.73A7.09,7.09,0,0,1,407.84,529.59Zm-10.28-6.5a4.12,4.12,0,0,0-.59-.83,5,5,0,0,1-1.68-2.85c-.1-.48-.39-1.2-1.23-.87.16.33.42.62.4.89a6,6,0,0,1-.41,2.08c-.57,1.2.19,2.3-.13,3.58.88-.38,1.58-.62,2.23-1A12.48,12.48,0,0,0,397.56,523.09Z"/><path class="cls-2" d="M256.67,493.05a2.3,2.3,0,0,1,2.41.34c.52.45,1.24.66,1.81,1.06a35.12,35.12,0,0,1,3.58,2.68,14.78,14.78,0,0,1,2.31,2.85,3.09,3.09,0,0,1,.19,1.65,9.77,9.77,0,0,1-1.59,4.1,5.51,5.51,0,0,1-1.72,1.46,7,7,0,0,1-1.09.56c-.89-.57-2.61.38-2.92-1.23a5.19,5.19,0,0,1-1.31-.47c-1-.69-2-1.46-2.79-2.1-.43.57-.83,1.08-1.19,1.61-.65,1-1.28,1.92-1.9,2.89-.09.13-.08.33-.18.46-.53.7-.73,1.21.37,1.65.29.12.23,1.1.33,1.68-.3,0-.67.15-.88,0s-.28-.52-.34-.63a4.44,4.44,0,0,1-1.36-.11,15.22,15.22,0,0,1-1.79-1,1.68,1.68,0,0,1-.64-2.39,4.05,4.05,0,0,0,1.28.5,1.7,1.7,0,0,0,1.05-.5,7.28,7.28,0,0,0,1.15-1.33c.6-.92,1.12-1.9,1.7-2.83.4-.65.87-1.26,1.27-1.91,1-1.6,2-3.22,2.93-4.81a2.39,2.39,0,0,1,.54-.45c.82-.7.79-1.2,0-2A17.71,17.71,0,0,1,256.67,493.05Zm3.88,3.2a14,14,0,0,0-1.32,1.53c-.77,1.22-1.45,2.49-2.19,3.72a1.83,1.83,0,0,0,.58,2.36,24.9,24.9,0,0,0,3.68,1.41,2.25,2.25,0,0,0,1.86-.3c.55-.54.9-.85,1.76-.08-.65-1-.72-1.08-.13-1.86a2.65,2.65,0,0,0,0-3.1C263.83,498.2,262.17,497.22,260.55,496.25Z"/><path class="cls-2" d="M373.93,520.91c0,1-.44,1.51-1.5,1.39a12.12,12.12,0,0,0-1.63.08c.06.37.1.72.16,1.06a19.55,19.55,0,0,1,.5,2.71c.12,2.36,0,4.73.79,7,.1.29,0,.66,0,1a16.46,16.46,0,0,0,.24,2.1c.12.64.36,1.27.58,2A3.64,3.64,0,0,1,375.3,537a28.54,28.54,0,0,1,3.7-.45,2.26,2.26,0,0,0,2.06-2.84c-.08-.49-.08-1-.11-1.45a4,4,0,0,1,1-.21c.25,0,.66.15.72.34a17.7,17.7,0,0,1,.47,1.94,1.83,1.83,0,0,0,.23.76,1.89,1.89,0,0,1-.65,3c-.75.34-1.56.74-2.28,0-.34.21-.62.54-.94.58-1.64.2-3.28.3-4.92.48-1.26.13-2.5.32-3.76.49a2.19,2.19,0,0,1-.79.09c-.31-.09-.78-.29-.83-.52s.24-.63.45-.9a.86.86,0,0,1,.41-.24c.07-.89.14-1.62.2-2.36a1.75,1.75,0,0,0,0-.79c-.71-1.55-.35-3.24-.64-4.84-.14-.75-.47-1.48-.54-2.23-.07-1-.55-1.86-.16-2.92a2.21,2.21,0,0,0-.45-2c-.5-.39-1.46-.2-2.22-.24a1.36,1.36,0,0,0-.38.08l-.18-1.34,3.29-.62a3.77,3.77,0,0,0,1.09-.23A3.64,3.64,0,0,1,373.93,520.91Z"/><path class="cls-2" d="M348.71,539.34a2.86,2.86,0,0,1-.11-1c.74-2.38.09-4.84.4-7.24.07-.57-.22-1.19-.2-1.78,0-1-.44-2,.18-3a2.13,2.13,0,0,0-.2-2,6.73,6.73,0,0,0-2.55-.67v-1.18l3.3-.19a3,3,0,0,0,.9,0,3.58,3.58,0,0,1,3.95.75c-.17,1.19-.32,1.3-1.53,1.18-.54,0-1.08-.06-1.76-.1v.89c0,1.73.06,3.46.08,5.19,0,1.54,0,3.07,0,4.6a2.51,2.51,0,0,1-.09,1.07c-.72,1.53.14,2.84.4,4.34.63-.73,1.16-1.21,2.09-1.06a4,4,0,0,0,1.72-.15c1-.3,2,.46,3.11-.16.9-.51,1.51-1,1.5-2V535a2.83,2.83,0,0,1,1-.09,1.43,1.43,0,0,1,.78.6,2.28,2.28,0,0,1,.16,1.08,3.45,3.45,0,0,0,.49,2.13c.35.55-.41,1.83-1.15,2.21a2.39,2.39,0,0,1-2.51-.24c-.23.16-.44.43-.67.45a18.83,18.83,0,0,1-5,0,20.81,20.81,0,0,0-3.87,0c-.24,0-.5.1-.7,0a7.79,7.79,0,0,1-1-.63c.25-.31.49-.64.76-.92C348.28,539.44,348.49,539.42,348.71,539.34Z"/><path class="cls-2" d="M337.84,538.49c.51.08,1.17.13,1.81.28a3.05,3.05,0,0,1,1.21.52c.45.37.08,1.28-.61,1.36a12.56,12.56,0,0,1-2.29-.07c-.42,0-.86-.45-1.23.22a1.08,1.08,0,0,1-1,.05c-.68-.54-1.39-.33-2.11-.33-1.2,0-1.74-.79-1.3-2.08l2.85.56c.14-.52.32-1.21.51-1.89.12-.42.27-.82.41-1.24a1.62,1.62,0,0,0,.15-.55c-.05-.78-.2-1.56-.19-2.34,0-1.09.16-2.17.16-3.25s-.12-1.9-.19-2.84a2.19,2.19,0,0,1-.07-.75c.22-.66.51-1.3.77-1.95l-3.37-.68c-.58-1.79-.59-1.77,1.49-1.71.78,0,1.57-.09,2.36-.13a1.16,1.16,0,0,1,.59.07,3.48,3.48,0,0,0,2.18.38c.35,0,.77.55,1.16.85-.34.3-.68.84-1,.85-2,.06-1.91.86-1.76,2.39.1,1,0,1.44-.66,1.91a1.27,1.27,0,0,1,.38,1.89c-.3.5-.13,1.29-.19,2-.12,1.3-.27,2.59-.38,3.89a3.33,3.33,0,0,0,.12.69C337.68,537.14,337.75,537.75,337.84,538.49Z"/></g><g id="Border_Inferior" data-name="Border Inferior"><path class="cls-2" d="M344.72,500.74c-61.94,0-109.37-38.76-128.91-77.16l-.46-.91.91-.45a3.74,3.74,0,0,1,1.6-.42,3.13,3.13,0,0,1,2.63,1.89,142.31,142.31,0,0,0,67.88,61.12,138.77,138.77,0,0,0,56.13,11.76h0c2.79,0,5.63-.08,8.45-.24a143.3,143.3,0,0,0,128.71-99.89c.49-1.56.78-2.48,2.68-2.48l1,0,1.27.05-.35,1.22c-15.61,54.9-64.53,96.77-121.73,104.18A154,154,0,0,1,344.72,500.74Z"/></g><g id="Desde_2012" data-name="Desde 2012"><path class="cls-2" d="M318.38,469c.1-.6,0-1.43,1-1.11l-.37,4.83a6.81,6.81,0,0,0-.76-.26c-.68-.13-.71-.51-.45-1,.53-1.08.52-1.06-.61-1.29a15.83,15.83,0,0,1-1.55-.42c-.42,1.73-.8,3.3-1.17,4.86-.13.57,0,.76.69.77a19.28,19.28,0,0,1,3.11.38c.32.06.59.39,1.09.74.32-.74.63-1.47,1-2.2a4.61,4.61,0,0,1,.36-.54c.19.17.49.31.54.51a3.5,3.5,0,0,1,0,1.29,11.79,11.79,0,0,1-.42,1.36c-.36,1.28-.42,1.25-1.51.44-.38-.29-1-.24-1.54-.34l-4-.82-.12-.43a2.93,2.93,0,0,1-.95-.14,4.08,4.08,0,0,1-.78-.67l.15-.22c.2.06.43.22.59.17a1.41,1.41,0,0,0,.81-.48,5.65,5.65,0,0,0,.61-1.68c.21-1.24.29-2.49.5-3.73.11-.58.53-1.12.59-1.7.13-1.37,1-3-1.34-3.72,1.47-.48,2.54-.31,3.42.74a1.65,1.65,0,0,1,2.16,0,.84.84,0,0,0,.45.12,26.41,26.41,0,0,0,2.66.11c.84,0,1,.61.93,1.06a31.71,31.71,0,0,1-.68,3.21c-.74-.33-.74-.33-.59-3.22-1.15-.26-2.32-.56-3.51-.78-.71-.14-1.66-.47-2.1-.15s-.33,1.33-.51,2c-.09.37-.41.74-.38,1.07a1.35,1.35,0,0,0,.62,1A10.39,10.39,0,0,0,318.38,469Z"/><path class="cls-2" d="M333.91,466.77c.28-.34.39-.62.55-.65a9.45,9.45,0,0,1,2.29-.25,15.74,15.74,0,0,1,3.82.64,5.39,5.39,0,0,1,3.25,3.19,8.86,8.86,0,0,1,.41,5.5c-.29,1.29-2.91,3.75-4.16,3.51-1.49-.3-2.87.14-4.3.08a11.83,11.83,0,0,1-1.68-.19,3.06,3.06,0,0,1-.77-.38l.05-.33c.41-.06.82-.13,1.24-.16.92-.09,1.28-.55,1.2-1.47,0-.38.17-.77.17-1.16q0-3.48,0-7C336,466.7,335.83,466.62,333.91,466.77ZM343.8,473a2.89,2.89,0,0,0-.24-1.05c-.56-1.2-1-2.44-1.67-3.58a2.31,2.31,0,0,0-1.32-1,34.6,34.6,0,0,0-3.64-.41v10.38a3.4,3.4,0,0,0,.7.14c.61,0,1.22,0,1.82.06a3.45,3.45,0,0,0,3.68-2.24A13.09,13.09,0,0,0,343.8,473Z"/><path class="cls-2" d="M302.68,460.73c.26-.2.43-.45.59-.44a11.29,11.29,0,0,1,2.41.33,14,14,0,0,1,3.37,1.42,5.59,5.59,0,0,1,2.42,3.76,7.79,7.79,0,0,1-.94,5.58,6.72,6.72,0,0,1-2.19,1.84,3.36,3.36,0,0,1-1.73.54,13.66,13.66,0,0,1-2.43-.39c-.77-.15-1.54-.3-2.29-.5s-1.46-.41-2.17-.67c-.2-.07-.33-.35-.69-.74a7.42,7.42,0,0,1,1.2,0c1.26.26,1.64,0,1.93-1.23.11-.48.39-.91.52-1.39.58-2.16,1.17-4.32,1.69-6.5.27-1.14.1-1.29-1.27-1.49Zm8.31,8.7a6.18,6.18,0,0,1-.25-.82c-.26-1.44-.44-2.89-.78-4.3a2.26,2.26,0,0,0-1-1.31c-1.07-.54-2.24-.89-3.3-1.3l-2.82,10.08c.74.23,1.62.41,2.43.75a3.49,3.49,0,0,0,4.2-1.27A22.48,22.48,0,0,1,311,469.43Z"/><path class="cls-2" d="M349,466.71c-1.06.23-.82,1-.77,1.75s0,1.24,0,1.86c0,.1-.07.25,0,.28.29.21.6.39.9.58.47-.83,1.87.81,2.08-.78,0-.3.33-.57.51-.85a2.92,2.92,0,0,1,.37.78c.24,1.36.44,2.73.65,4.09-1.95.33-1.38-1.16-1.39-2.17-.56,0-1,.08-1.42.09s-.84,0-1.14,0v4.93c0,.64.27.73.85.58,1.46-.38,1.47-.35,1.95.17a1.53,1.53,0,0,1,2.37.07c.14-1,.22-1.71.35-2.44a4.43,4.43,0,0,1,.3-.79c.25.15.68.28.7.44a34.71,34.71,0,0,1,.13,3.53,2.15,2.15,0,0,1-.92.15,4.55,4.55,0,0,1-1.08-.24c-1.19-.35-2.34.45-3.56.09-.34-.09-.81.25-1.29.42l-.41-.75c-.72.62-1.18.13-1.75-.43,1.34.19,1.44-.4,1.31-1.46s0-2.45,0-3.67c-.05-1.5-.13-3-.26-4.5a1.32,1.32,0,0,0-1.21-1.39c-.2,0-.38-.22-.63-.36a2.5,2.5,0,0,1,3.41,0Z"/><path class="cls-2" d="M377,474.3c-.23.21-.12.17-.43.28-2.89.08-4.19-1.79-5.42-3.95-.85-1.5-.44-3-.55-4.53-.09-1.2.94-1.89,1.54-2.77a.45.45,0,0,1,.36-.14c1.16.07,2.46-.14,3.45.3a4.93,4.93,0,0,1,2.78,4.05,8.45,8.45,0,0,1-.68,5.79C377.72,473.91,377.6,474.08,377,474.3Zm.9-1.63c0-.53-.08-.94-.07-1.35a6.5,6.5,0,0,0,.05-1.81c-.43-1.52-1-3-1.52-4.51-.43-1.13-1.47-1.19-2.47-1.17s-1.78.17-2,1.2a8.35,8.35,0,0,0-.39,3.31,9.4,9.4,0,0,0,3,5,1.9,1.9,0,0,0,2.73-.17A3,3,0,0,1,377.91,472.67Z"/><path class="cls-2" d="M390.22,460.68c-1.11-.08-1.61-1.63-3-.92a2.68,2.68,0,0,0-1.79,2.38l-.73,0c-.31-1.68,1.2-2.27,1.89-3.33.1-.14.53-.09.8-.1.43,0,.87.05,1.3,0a1.84,1.84,0,0,1,2.13,1.69c.13,1.75.05,2.07-.39,2.38a9.51,9.51,0,0,1,0,1.95c-.26,1.11-.66,2.18-1,3.28a8.29,8.29,0,0,0-.09,1.45,12.28,12.28,0,0,0,1.45-.48c.77-.37,1.53-.78,2.26-1.22,1-.58,1.39.22,2.3.84-1.45.56-2.65,1.09-3.88,1.49-1,.33-2.19.07-3,1.07-.13.17-.71,0-1-.07-.07,0,0-.54,0-.82.55-2.17,1.92-4.08,2-6.42A18.5,18.5,0,0,1,390.22,460.68Z"/><path class="cls-2" d="M370.9,476a38,38,0,0,1-3.74.74c-1.09.11-2.22-.28-3.22.54-.17.14-.69-.08-1-.24-.08,0,0-.5.08-.7,1.24-2.23,2.85-4.27,3.56-6.78a23.45,23.45,0,0,1,.91-2.24c-1-.28-1.23-1.89-2.74-1.47-1,.28-2.08,1-2.21,1.94l-1-.07a14.84,14.84,0,0,1,1.1-1.75,4.17,4.17,0,0,1,1.3-1,2.57,2.57,0,0,1,1.15-.15,3.61,3.61,0,0,1,1.18.2,3.75,3.75,0,0,1,1.46.75,3,3,0,0,1-.25,3.77c-.15.53-.14.68-.24,1-.43,1.09-1,2.14-1.46,3.21a4.81,4.81,0,0,0-.48,1,1.06,1.06,0,0,0,.14.89c.14.13.58,0,.87-.08a17.58,17.58,0,0,1,2.94-.8c.54-.05,1.13.49,1.7.76Z"/><path class="cls-2" d="M386.07,471.24c-.39,1.29-3.61,2.24-4.69,1.24l1.81-.48a5.66,5.66,0,0,0-.1-1.2c-.52-1.78-1.1-3.55-1.65-5.33l-.51-1.65c-.39-1.22-.6-1.29-1.55-.52a1.94,1.94,0,0,1-.34.21c-.39-.75.57-2.65,1.33-2.6a1,1,0,0,1,.73.55c.4,1.83,1.78,3.41,1.43,5.44,0,.1.11.22.16.33a14.9,14.9,0,0,1,.86,2.33A2,2,0,0,0,386.07,471.24Z"/><path class="cls-2" d="M331.11,469.54a10.75,10.75,0,0,1-.27-1.35,2.6,2.6,0,0,0-3.15-2.13c-1.19.18-1.68,1.07-1.42,2.54.09.53.12,1.06.18,1.61a3.31,3.31,0,0,1-.34-4.3,1.5,1.5,0,0,1,1.69-.5c1.13.26,2.31.3,3.41.62a1.42,1.42,0,0,1,.8,1.14,12.48,12.48,0,0,1-.57,2.42Z"/><path class="cls-2" d="M349,466.73c-5.93-.19.86-.86,1.94-.66a1.78,1.78,0,0,0,.65,0c.91-.15,1.81-.37,2.73-.46a.85.85,0,0,1,.69.48,17.26,17.26,0,0,1,.23,3.6c-1.21-.67-.91-1.87-1.27-3-1.61,0-2.45,0-4.14,0C349.09,466.72,349,466.73,349,466.73Z"/><path class="cls-2" d="M325.13,476.31a6.18,6.18,0,0,1,1.32.63,2.54,2.54,0,0,0,3.93-.71c.19-.42,0-1-.06-1.54h0c.89-.06,1.22.61,1.28,1.23a1.87,1.87,0,0,1-.63,1.44c-.46.34-1,.28-1.68.65a4.09,4.09,0,0,1-.49.18c-.69.24-1.9.28-2.32-.22-.11-.12-.49-.3-.48-.41-.5-.35-.87-.57-1.37-.92Z"/><path class="cls-2" d="M325.13,476.31l-.13.07a2.07,2.07,0,0,1-.22.35c-.25.33-.52.64-.78,1a4.33,4.33,0,0,1-.39-1.34,4.41,4.41,0,0,1,.48-1.61c.06-.13.75-.13.76-.1C325,475.19,325.05,475.75,325.13,476.31Z"/><path class="cls-2" d="M330.32,474.69a5.5,5.5,0,0,0-.78-1c-.47-.49-1.54-1.71-2.46-2.73-.41-.46-.75-.86-.95-1.11.31.11-.82-2.57,1.79.92.77,1,1.73,1.8,2.09,2.38s2.44,3.41.3,1.57Z"/></g><g id="Waves"><path class="cls-2" d="M356.86,416.75l-.81,1.19a217.53,217.53,0,0,0-13.7,23c-1,2-2.38,2.22-4.08.66a118.89,118.89,0,0,1-17.72-20.48c-.17-.24-.36-.47-.61-.8-.88,1.42-1.7,2.76-2.53,4.09L307.32,440.6a2.38,2.38,0,0,1-2.22,1.4,2.35,2.35,0,0,1-2-1.44,158.71,158.71,0,0,1-9.89-20.26c-.12-.31-.26-.62-.45-1.06-1.85,1.33-3.7,2.51-5.39,3.89-4.34,3.55-8.61,7.19-12.9,10.8-.19.15-.35.33-.54.48a1.46,1.46,0,0,1-2.06-.05,1.37,1.37,0,0,1,0-2.1c1.49-1.48,2.94-3,4.56-4.34q7.79-6.37,15.68-12.62c1.49-1.18,2.52-.86,3.38,1s1.57,3.81,2.49,5.65c2.16,4.29,4.39,8.54,6.6,12.81.16.3.36.57.61,1,.27-.39.48-.68.67-1,4-6.32,7.9-12.65,11.9-19a3.65,3.65,0,0,1,1.75-1.43c1.08-.35,1.84.33,2.47,1.23,2.43,3.5,4.73,7.12,7.42,10.4,3.12,3.8,6.59,7.3,9.92,10.92a1.42,1.42,0,0,0,.27.21c2.27-4,4.43-7.93,6.81-11.79,2.66-4.29,5.49-8.48,8.29-12.68,1.2-1.8,2.58-1.84,4-.24l19.47,21.37c.39.43.76.89,1.14,1.33,1,1.1,1.63,1.15,2.66.09a26.61,26.61,0,0,0,2.58-2.94,80.72,80.72,0,0,1,12.94-13.57c1.55-1.35,3.32-2.45,5.43-1.8a8.39,8.39,0,0,1,3.47,2.08c3.2,3.35,6.25,6.87,9.35,10.32.46.51.94,1,1.39,1.53a1.47,1.47,0,0,1-.07,2.27,1.4,1.4,0,0,1-2.17-.21c-3-3.2-5.95-6.41-8.92-9.62-.51-.55-1-1.13-1.54-1.66a3.07,3.07,0,0,0-4.45-.32,18.42,18.42,0,0,0-1.92,1.72,113.49,113.49,0,0,0-12.85,14.76,8.76,8.76,0,0,1-2.21,2,4,4,0,0,1-5.08-.29,61,61,0,0,1-5-5c-5.29-5.79-10.52-11.63-15.78-17.45A2,2,0,0,0,356.86,416.75Z"/></g><g id="Perez_s" data-name="Perez's"><path class="cls-2" d="M220.86,328.7c-.87,7.52-1.67,15.06-2.62,22.57-2,16.18-4.15,32.36-6.22,48.54-.18,1.4-.22,2.81-.39,4.21-.24,2-1.19,3-2.86,3.15-2.2.26-3.72-.93-3.55-3.13.33-4.4.77-8.8,1.35-13.17,1.65-12.57,3.51-25.1,5.07-37.68,1.16-9.39,2-18.82,2.92-28.25.34-3.49-.05-3.61-3.41-2.67-2.6.72-5.29,1.16-8,1.65-1,.19-2.06-.12-2.15-1.19a2.87,2.87,0,0,1,1.08-2.12A25.76,25.76,0,0,1,212.28,316a68.92,68.92,0,0,1,18.64-2.14c8.18.35,15.33,3.27,20.84,9.38,7.14,7.9,8.47,17,4.13,26.63-5.83,13-16,20.41-30,22.67a15.36,15.36,0,0,1-4.89-.38,1.91,1.91,0,0,1-1.76-2c.09-1.26,1.24-1.22,2.09-1.42,6.83-1.66,13.25-4.19,18.65-8.83s9.63-10.45,11.21-17.64c1.36-6.21.59-12.14-3.7-17.14a14.94,14.94,0,0,0-4.65-3.64,31.45,31.45,0,0,0-20.29-2.71,9.77,9.77,0,0,0-1.68.48c-2,.73-2,1.06-.94,2.84a4.84,4.84,0,0,1,.67,2.17c.11,1.45.28,2.33.28,3.79C220.87,328.24,220.87,328.56,220.86,328.7Z"/><path class="cls-2" d="M321.25,349.71c.65-1.1,1.33-2.19,1.95-3.3,2.39-4.24,5.24-8.09,9.37-10.79a12.37,12.37,0,0,1,8-2.27,4.27,4.27,0,0,1,.87.14c1,.32,2.17.64,2.3,1.92s-1,1.71-1.92,2.07a29.93,29.93,0,0,0-9.26,5.41c-4.64,4.19-7.38,9.55-9.62,15.26a63.87,63.87,0,0,0-4.06,19.44c-.27,4.32-.45,8.64-.63,13-.1,2.68-1.51,4.09-4.19,4.18-1.3,0-2.14-.51-2.26-1.74a44.86,44.86,0,0,1-.09-4.78c0-1.21.13-2.42.23-4.11l-1.29,1.54c-5.35,6.55-11.93,11.1-20.47,12.37a20.54,20.54,0,0,1-12.65-1.72c-4.26-2.16-6.56-5.75-7.54-10.32-3.21-14.88.13-28.4,8.6-40.8a24.63,24.63,0,0,1,4.53-4.71c6-5,14-2.24,15.55,5.46,1.46,7.31-1.06,13.51-6,18.79a18.8,18.8,0,0,1-13,6.12c-3.88.24-4.35.74-4.5,4.62a23.74,23.74,0,0,0,2.61,12.68c2.83,5.11,6.36,6.65,12.05,5.21,6.91-1.74,12.15-6,16.56-11.34a97.83,97.83,0,0,0,6.12-9,2.72,2.72,0,0,0,.31-1.25q1-12,1.95-24c.2-2.42.33-4.85.63-7.25.08-.63.67-1.71,1-1.7a6.78,6.78,0,0,1,3.35.85,3.43,3.43,0,0,1,1,2.45c.13,2.47,0,4.95,0,7.42Zm-27.19-2c0-2.21-.32-3.78-1.95-4.65s-3.1-.16-4.47.79c-.28.19-.53.42-.79.63-6.53,5.43-8.94,13-10.66,20.84-.29,1.32.18,1.69,1.53,1.44a18.46,18.46,0,0,0,8.79-4.63A22.14,22.14,0,0,0,294.06,347.74Z"/><path class="cls-2" d="M386.74,382.58c-2.11,1.41-4.07,2.93-6.21,4.11-5.52,3.05-11.44,4.43-17.71,3.26S351.73,385,350.23,377.2c-2.83-14.71.52-28,8.94-40.18a24.34,24.34,0,0,1,4.57-4.67c5.79-4.72,13.46-2.15,15.25,5.14,1.66,6.76-.48,12.69-4.69,17.91A19.88,19.88,0,0,1,359.88,363c-4.17.35-4.09.58-4.25,4.32a23.78,23.78,0,0,0,2.68,13.09c2.63,4.67,6.3,6.4,11.49,5.11a26.32,26.32,0,0,0,6.61-2.58,41,41,0,0,0,15.52-16.23c.21-.38.34-.89.66-1.11a3.94,3.94,0,0,1,1.92-.88c.93,0,1.43.72,1.47,1.68a1.84,1.84,0,0,0,.39,1,8.09,8.09,0,0,1,.4-.84q9.39-14.66,18.75-29.33a4.7,4.7,0,0,0,.3-1.72,7.75,7.75,0,0,0-1.59-.06c-3.35.63-6.66,1.46-10,1.91-3.88.52-7.57,0-10.49-3.07-.8-.84-1.26-1.63-.61-2.69s1.44-.88,2.43-.6c6.21,1.74,12.35,1,18.43-.64,2.58-.68,5.09-1.61,7.61-2.47,2-.7,3.19-.51,4.2.81s1,2.58-.18,4.4c-3.46,5.45-6.56,11.15-10.36,16.35-5.74,7.87-10.83,16.12-15.75,24.49a7.19,7.19,0,0,0-.49,1.57,5.41,5.41,0,0,0,1.53.15,19.89,19.89,0,0,1,12.13,1.24,12.64,12.64,0,0,0,12.86-1.34c1.09-.77,1.7-.4,1.75,1a5.25,5.25,0,0,1-1.74,4.3c-4,3.58-8.52,4.42-13.39,2.26a16,16,0,0,0-15.23.57c-1.52.86-3.09,1.64-4.61,2.49-2.76,1.54-4.78.6-5.43-2.58C386.81,383.23,386.79,382.9,386.74,382.58Zm-12.17-43.35c-.15-1.66-.38-3.22-2-4.06a3.61,3.61,0,0,0-4.32.68,36.09,36.09,0,0,0-5.44,5.62c-3.28,4.62-4.94,10-6.12,15.45-.4,1.84,0,2.2,1.84,1.79a18.3,18.3,0,0,0,8.28-4.37A22.54,22.54,0,0,0,374.57,339.23Z"/><path class="cls-2" d="M440.58,293.8c-.25-.75-.74-1.39.09-2.07a1.88,1.88,0,0,1,2.41-.16c2.66,1.69,3.83,4.23,4.29,7.26.67,4.4-.76,8.33-2.62,12.16-.85,1.74-1.82,3.43-2.81,5.09-.83,1.41-2,1.76-3.17,1.11-1.43-.77-1.76-1.81-1-3.42C439.57,309.71,445.06,302.66,440.58,293.8Z"/><path class="cls-2" d="M482.75,358.73c.07-3.33-1.87-6.15-5.29-8.17a37.25,37.25,0,0,0-12.76-4.33c-5-.9-8-4.5-7.7-9.05a10.35,10.35,0,0,1,3.23-6.52c3.18-3.3,7.2-5.26,11.42-6.82,2.68-1,5.45-1.77,8.2-2.56a3.38,3.38,0,0,1,4.36,3.57,2.49,2.49,0,0,1-1.47,1.53c-2.41.89-4.91,1.56-7.33,2.41-4.36,1.52-8.47,3.47-11.49,7.15-.18.22-.38.44-.55.67-1,1.41-.82,2.17.83,2.75,1.88.65,3.81,1.16,5.74,1.66,4.86,1.25,9.4,3.11,13.13,6.62,5.3,5,7.9,14.88,3,22.16a14.26,14.26,0,0,1-2.82,3.31c-4.47,3.56-9.31,6.4-15.25,6.56a16,16,0,0,1-8.31-1.8c-3.44-1.9-4.77-5.09-5.36-8.72a13.3,13.3,0,0,1,.54-7c.28-.73.65-1.48,1.53-1.1a2.49,2.49,0,0,1,1.07,1.4c.63,1.78,1,3.67,1.74,5.38,1.68,3.7,4.7,5.24,8.73,4.94a17.47,17.47,0,0,0,12.4-6.56C482,364.28,482.75,362.09,482.75,358.73Z"/></g><g id="Border_Superior" data-name="Border Superior"><path class="cls-2" d="M484.71,301.68a3.17,3.17,0,0,1-3.1-2.52,162,162,0,0,0-9.3-23.72c-.15-.29-3.06-5.76-4.34-8l-.36-.61a198.11,198.11,0,0,0-12.18-17.48A142.09,142.09,0,0,0,403,208.6a137.27,137.27,0,0,0-35-10.73,160.8,160.8,0,0,0-17.73-1.79c-2.66-.14-5.32-.21-7.91-.21-2.77,0-5.53.08-8.2.24a138.15,138.15,0,0,0-32.41,6,144.7,144.7,0,0,0-92.37,86.18c-.37,1-.73,1.9-1.1,2.88-.46,1.21-.74,2.12-1.1,3.28-.2.67-.43,1.4-.72,2.29a20.13,20.13,0,0,0-.66,2.4,2.91,2.91,0,0,1-3,2.57,5.56,5.56,0,0,1-1.23-.16l-2-.47.49-2c11.4-46.11,55.44-99.53,125.2-107.88a159.72,159.72,0,0,1,18.94-1.14c62.88,0,110.75,39.17,130.29,78l0,.07c1.88,3.37,4.21,7.94,4.56,8.66a143.8,143.8,0,0,1,8.23,21.72,2.72,2.72,0,0,1,.1,1V301l-1.35.46A4.3,4.3,0,0,1,484.71,301.68Z"/></g><g id="Bar-Restaurant"><path class="cls-2" d="M315.76,174.82l-5.41,1c-.18,0-.44-.1-.53,0a3.43,3.43,0,0,1-3.43.55,7.93,7.93,0,0,1-1.59-.68.66.66,0,0,1,0-.58,1,1,0,0,1,.72-.27c1,.15,1.05-.21.89-1.07-.37-2-.62-4-.92-5.94,0-.18,0-.36-.05-.54-.28-1.46-.64-2.92-.84-4.39a3.21,3.21,0,0,0-2.32-2.72,7.22,7.22,0,0,1-1.35-.79c1.84-.88,3.31-1.77,4.94-.89.37-.28.7-.72,1.12-.83,2.1-.56,4.23-1,6.35-1.53a1.57,1.57,0,0,1,1.79,1.57,2,2,0,0,0-.06.77c.29,1.18.62,2.34.94,3.53-1.75.33-1.83.2-2.92-3.84l-7.61,1.38,1,5.26,3.41-.38c-.11-.41-.37-.81-.26-1.05a5.41,5.41,0,0,1,.89-1.17c.32.28.84.51.93.86.36,1.31.54,2.67.87,4,.1.4.53.71.7,1.11a1.47,1.47,0,0,1,.05,1c0,.1-.5.09-.77.11s-.29,0-.42,0c-1.15.18-1.64-.33-1.47-1.47a8.92,8.92,0,0,0,0-1.26l-3.3.52c.43,2.52.85,5,1.24,7.19,2-.43,3.87-.9,5.77-1.22.95-.17,1.4-.5,1.21-1.49-.14-.76-.22-1.52-.32-2.28,1.31-.38,1.82-.17,2.14,1.14a33.12,33.12,0,0,1,.69,4,1.06,1.06,0,0,1-1.51,1A2.7,2.7,0,0,1,315.76,174.82Z"/><path class="cls-2" d="M452.75,203.4c1.43-1.77,2.68-3.33,3.95-4.88.93-1.13,1.88-2.22,2.82-3.33.6-.71,1.47-1.38.28-2.34-.16-.14-.21-.75-.08-.85a1,1,0,0,1,.94-.16c1.3.82,2.59,1.67,3.81,2.6.19.14.13.94-.09,1.17a1.26,1.26,0,0,1-1.19.2c-1.57-1-1.89-.89-2.79.73a16.53,16.53,0,0,1-2.43,3.27,28.87,28.87,0,0,0-4.18,5.35,11,11,0,0,1-1.43,1.77c-.15.16-.58.31-.65.24-.27-.26-.63-.64-.61-.95.11-1.69.34-3.37.5-5.06.2-2.15.32-4.31.58-6.46a37.37,37.37,0,0,0,.54-4.54c-.8,1.07-1.59,2.16-2.41,3.22-1.48,1.92-3,3.79-4.44,5.74-.41.56-1.07,1.28-.13,2.09.25.21.17.8.25,1.22a2.64,2.64,0,0,0-1-.16c-2.08.61-2.49-1.77-4-2.21-.16,0-.3-.67-.2-.93a1,1,0,0,1,.81-.47,16.75,16.75,0,0,1,2,.57l8.54-11.17a14.8,14.8,0,0,1-1.79-1.45,1.14,1.14,0,0,1,.1-1.86c.3-.18,1.15.21,1.51.58.55.55.84,1.23,1.81,1.42.39.07.79,1.3.77,2a50.42,50.42,0,0,1-.56,5.33c-.24,1.64-.61,3.26-.84,4.9C453,200.35,452.91,201.74,452.75,203.4Z"/><path class="cls-2" d="M224.42,220.46c-1.71-1.81-3.41-3.64-5.14-5.45-1-1-2-2-3-3.06a8.52,8.52,0,0,0-1.49-1.34c-.26-.15-.78.09-1.16.2a4.84,4.84,0,0,1-1.35.44,1.24,1.24,0,0,1-.86-.67,1.17,1.17,0,0,1,.22-1,4.88,4.88,0,0,1,1.45-1.51c2.37-1.14,3.68-3.89,6.52-4.25a7.92,7.92,0,0,1,2.66.09c2.57.57,3,4,1.39,5.83a3.28,3.28,0,0,0-.22.59,7.23,7.23,0,0,1,1.67-1,4.84,4.84,0,0,1,6.05,4.39,4.36,4.36,0,0,1-1.53,4.18c-1.52,1.33-2.85,2.88-4.38,4.21-.32.28-1.13,0-1.71,0l.5-1.53Zm-3.61-6.61,5.35,5.33c.43-.44.9-.86,1.31-1.35.83-1,2.08-1.69,1.91-3.32-.13-1.3-.27-2.76-1.44-3.28a5.11,5.11,0,0,0-3.61-.11C223.06,211.62,222.08,212.82,220.81,213.85Zm-1.25-1.14c.92-1.15,1.79-2.2,2.61-3.29a2.81,2.81,0,0,0-.06-3.43,3,3,0,0,0-3.62,0c-.88.84-1.78,1.67-2.9,2.71Z"/><path class="cls-2" d="M287.82,180.19c-1.7-1.57-1.85-3.44-2.27-5.28-.61-2.64-1.54-5.22-2.35-7.82a2.32,2.32,0,0,0-.28-.44c-1.63.76-2.17.66-2.79-.6l1.48-.57,4.29-1.58a5.93,5.93,0,0,1,5.39.32,3.77,3.77,0,0,1-.05,6.24c-.19.11-.36.25-.57.39,1.2,1.92,3.13,2.91,4.89,4.11.68.46,1.31,1,2.16,1.66h2.18c.23,1.19-.16,1.71-1.21,1.9a9.71,9.71,0,0,0-2.36.7c-.75.35-1.48.34-1.85-.32-.16-.28.39-1,.66-1.56-1-.81-2.29-1.79-3.52-2.8a7.29,7.29,0,0,1-.85-1,2.71,2.71,0,0,0-3.84-.59c.38,1.7.7,3.57,1.26,5.36.16.52,1,.88,1.57,1.19.33.18,1,0,1.15.19a2.44,2.44,0,0,1,.28,1.28,44.87,44.87,0,0,1-4.51,1.22c-.32.07-.74-.39-1.12-.61a9.23,9.23,0,0,1,1-1.1C286.73,180.33,287.1,180.35,287.82,180.19Zm2.74-10.43c.24-1.11.48-1.92.58-2.75a1.69,1.69,0,0,0-.23-1.3,2.36,2.36,0,0,0-1.6-.78,47.22,47.22,0,0,0-4.64,1.12c-.16,1.65.74,3,1.41,4.51a.94.94,0,0,0,.85.3C288.26,170.51,289.56,170.07,290.56,169.76Z"/><path class="cls-2" d="M409.79,174.29c-.84,1.7-1.77,3.39-2.48,5.16a2.41,2.41,0,0,0,.55,1.85c.53.69,1.16,1.21.26,2a29,29,0,0,1-2.86-.94,8.94,8.94,0,0,1-1.94-1.31,1,1,0,0,1-.18-.9,1.1,1.1,0,0,1,.89-.4,4.61,4.61,0,0,1,1.17.42c1.87-4.38,3.74-8.75,5.65-13.2-1.05-.34-2.34-.48-1.85-2.25l1.58.55c1.39.5,2.76,1.05,4.17,1.49a5.92,5.92,0,0,1,4,3.79c.83,2.29-1.6,5.08-4,4.68a4.36,4.36,0,0,0-.81,0,13.78,13.78,0,0,0,1.45,6.77,4.91,4.91,0,0,1,0,1.92l1.86,1.73a1.44,1.44,0,0,1-2.17.57c-.81-.45-1.75-.66-2.54-1.13-.42-.26-.64-.86-1-1.3.46-.15.9-.31,1.36-.45.12,0,.26,0,.18,0-.26-1.91-.5-3.8-.79-5.68a5.25,5.25,0,0,0-.61-2.33C411.38,174.77,410.46,174.61,409.79,174.29Zm5.43.16c-.2-1.37,1.15-1.23,1.63-1.87.27-.36.7-.79.66-1.15a2.35,2.35,0,0,0-.7-1.63c-1.34-.81-2.8-1.41-4.57-2.26l-1.91,5.16Z"/><path class="cls-2" d="M255.7,195.6c-.92-1.75-1.76-3.39-2.63-5-1.28-2.39-2.59-4.76-3.89-7.14-.09-.15-.21-.3-.29-.42-1.82,1.11-2.1,1.12-2.93,0,.37-.24.72-.49,1.09-.72,1.37-.85,2.76-1.67,4.11-2.54a5.82,5.82,0,0,1,5.35-.75,3.78,3.78,0,0,1,1.23,6l-.61.58a28.16,28.16,0,0,0,2.92,2.1,20.55,20.55,0,0,0,2.65.87c.82.31,1.59.73,2.65,1.21l2.13-.31c.32,1,.19,1.62-.82,2-.8.33-1.53.86-2.34,1.16a6.34,6.34,0,0,1-1.7.15l.31-1.73-7-3.79-2,1c.79,1.69,1.48,3.41,2.39,5a2.66,2.66,0,0,0,1.83.87c.83.1,1.73-.17,1.85,1a26.34,26.34,0,0,1-2.67,1.78,7.51,7.51,0,0,1-2.27.64.83.83,0,0,1-.66-.49,1.16,1.16,0,0,1,.27-.94A4.81,4.81,0,0,1,255.7,195.6Zm1.13-11.07a26.5,26.5,0,0,0,.1-2.83,1.7,1.7,0,0,0-.55-1.21,2.43,2.43,0,0,0-1.72-.41c-1.45.55-2.83,1.32-4.55,2.16l2.84,4.68Z"/><path class="cls-2" d="M244.85,203.22l1.52-1.36c-1.29-.86-2.8-1.82-4.26-2.84-1-.71-1.72.14-2.43.48a8.58,8.58,0,0,0-2,1.75c-.24.24-.52.65-.46.92.42,1.91.92,3.8,1.42,5.83.42-.44.64-.88.95-1a3.83,3.83,0,0,1,1.32.15c-.14.33-.19.75-.42,1a36,36,0,0,1-3.21,2.72,1,1,0,0,1-1.28-1.43,1.92,1.92,0,0,0,.64-2.2c-.6-2.5-1.32-5-2-7.47a7.24,7.24,0,0,1,0-1.43c-1.07-.77-2.52-5.74-1.82-7.49a27.48,27.48,0,0,1,2.44,1.38c1.6,1.12,3.15,2.33,4.74,3.47a4,4,0,0,0,1,.33,7.72,7.72,0,0,1,1.26.51c1,.63,2,1.3,2.93,2a3.84,3.84,0,0,1,.91.73,2.1,2.1,0,0,0,2.93.56,5.11,5.11,0,0,1,1.44-.28,8.85,8.85,0,0,1-.53,1.55,7.3,7.3,0,0,1-3.1,2.77C245.94,204.33,245.38,204.19,244.85,203.22Zm-10.47-9.81,2.07,6.66,2.71-3Z"/><path class="cls-2" d="M372.25,172.11l2,.2a43.74,43.74,0,0,0-1.14-5.18c-.2-.6-1.22-1.08-2-1.3a9.82,9.82,0,0,0-2.67-.19c-.3,0-.77,0-.89.23-1.11,1.74-2.15,3.51-3.26,5.36a4.28,4.28,0,0,1,1.53,0c.32.13.5.62.74,1-.33.13-.67.4-1,.39a32.36,32.36,0,0,1-4.06-.33c-.41-.07-.74-.65-1.11-1,.4-.3.79-.64,1.22-.91.61-.38,1.49-.57,1.83-1.11,1.4-2.21,2.64-4.53,4-6.79a5,5,0,0,1,.9-.88c-.25-1,2.52-6,4-6.65a22.4,22.4,0,0,1,.8,2.66c.35,1.92.58,3.87.9,5.81.07.36.39.66.56,1a5.71,5.71,0,0,1,.45,1.19c.26,1.14.48,2.29.68,3.44a4.67,4.67,0,0,1,.07,1.29,2.21,2.21,0,0,0,1.57,2.31c.5.16,1.34.61,1.31.84-.11.82-.85.65-1.53.78a8.08,8.08,0,0,1-4-.28C372.29,173.67,371.89,173.26,372.25,172.11Zm-.44-13.94-.26,0-3,5.7h4C372.28,161.9,372,160,371.81,158.17Z"/><path class="cls-2" d="M431.85,192.86l1.84.89a48.07,48.07,0,0,0,.78-5.37c0-.57-.81-1.3-1.41-1.74a9.62,9.62,0,0,0-2.34-1.09,1.42,1.42,0,0,0-1.14,0c-1.56,1.12-3.05,2.33-4.75,3.65.55.15,1,.13,1.2.35a5.14,5.14,0,0,1,.53,1.34,3.23,3.23,0,0,1-1.17-.05,37.36,37.36,0,0,1-3.78-1.8,1.19,1.19,0,0,1-.42-1.09c.11-.33.76-.82.95-.73,2.28,1,3.53-.77,5-1.85s3-2.53,4.47-3.81l.33.41c1.3-2.58,3.66-3.82,5.83-5.3l.53.27c-.16,1.12-.28,2.23-.49,3.34-.34,1.78-1.31,3.67-1,5.3.45,2.18-1.16,3.94-.55,6,.18.62-.62,1.5-.52,2.19s.85,1.12,1.27,1.7c.18.25.44.72.35.85s-.69.59-.93.52c-1.55-.48-3.25-.72-4.4-2a6,6,0,0,1-.73-1.65Zm4.58-13.14-.31-.05-4.79,4.26,3.82,1.24C435.56,183.42,436,181.57,436.43,179.72Z"/><path class="cls-2" d="M388.52,160l-1.84-2c1-.81,1-.76,1.91-.11.4.28,1,.21,1.45.46a8.79,8.79,0,0,1,1.34,1.19,9.92,9.92,0,0,0-1.16.74,2,2,0,0,0-.65.88c-.86,3.29-1.74,6.58-2.49,9.9a2.7,2.7,0,0,0,.82,3,5.44,5.44,0,0,1,.82,1.06c1.22,1.6,2.94,1.6,4.19,0a21,21,0,0,0,1.67-2.4,18.4,18.4,0,0,0,1.27-2.74c.49-1.32.84-2.7,1.34-4a4.2,4.2,0,0,0-.31-4,5.67,5.67,0,0,1-.44-1.13,6,6,0,0,1,4.69.84,4.69,4.69,0,0,1,.91,1.17,10.81,10.81,0,0,1-1.32.45,3.61,3.61,0,0,1-.9,0c-.54,1.39-1.09,2.66-1.53,4a33.24,33.24,0,0,1-1.48,4.69,31.64,31.64,0,0,1-3.1,4.35,4.53,4.53,0,0,1-1.24,1.33,3.09,3.09,0,0,1-3.55-.4,23.45,23.45,0,0,1-2.14-2,6,6,0,0,1-.89-5.62c.12-.28,0-.66.05-1,.34-2,.6-4,1.11-5.91A12.7,12.7,0,0,1,388.52,160Z"/><path class="cls-2" d="M470.24,199.61c1,1.14,2,2.36,3.07,3.4.74.71,1.84,1,2.55,1.77s1.27,2,2,2.86a24.53,24.53,0,0,0,2.41,2.2c-.09,1.5-1.41,2.75-3.26,3.9,0-.45,0-.89,0-1.33a1.24,1.24,0,0,1,.21-.49c.63-1.21.76-2.33-.42-3.35a22.08,22.08,0,0,1-1.61-1.7c-1.76,1.79-3.56,3.59-5.34,5.41-1.57,1.61-3.12,3.24-4.73,4.91.53.7,1.78,1.06,1.1,2.27-1.87,0-3.95-1.83-4-3.4-1.44,0-.89-1-1-2l2.48,1.43,2.47-2.07a3.78,3.78,0,0,0,.33-.22c1.7-1.77,3.38-3.55,5.09-5.3.72-.74,1.5-1.43,2.44-2.33l-3.33-3.34c-1.43.81-2.52,1.44-3.62,2a2.23,2.23,0,0,1-.79.09c0-.33-.13-.79,0-1,.73-.73,1.58-1.34,2.32-2.06S469.8,200.12,470.24,199.61Z"/><path class="cls-2" d="M349.56,169.87c.84-.08,1.88-.33,2.18,1.08-1.36.59-2.66,1.17-4.13.41-.93-.48-2.43.57-3-1.24l2.68-.66c.3-4.47.61-9.2.94-14.24h-4.91c-.5,1.45-.89,2.66-1.32,3.85-.08.2-.37.46-.55.45a.77.77,0,0,1-.54-.48,16.26,16.26,0,0,1,0-2.7c.08-.92.32-1.82.52-2.92a14.13,14.13,0,0,0,7.39,0c1.5,1,5,1.23,6.35.34,1.25,1.57,1.26,3.33.82,5.57a6.26,6.26,0,0,1-1.13-1.1c-.33-.58-.35-1.42-.79-1.82a4.26,4.26,0,0,0-2-.79,19,19,0,0,0-2.58-.19c1.06,2.34-.27,4.61.07,7A54.46,54.46,0,0,1,349.56,169.87Z"/><path class="cls-2" d="M332.53,160.23a24.25,24.25,0,0,1-1.12-2.42c-.37-1.2-1-2-2.35-2-1,.05-1.92-.34-2.92.41s-1,1.77-.76,2.8c.59,2.63,2.95,3.33,4.92,4.51a14.81,14.81,0,0,1,3.59,2.89c.72.82,2,1.77,1.25,3.15-.84,1.58-2.42,2.28-4,2.92-1.76.69-3.09,0-4.36-1.12a3.51,3.51,0,0,0-.63-.34,9.52,9.52,0,0,1-.54,1.26c-.16.27-.47.64-.7.63a1.17,1.17,0,0,1-.79-.61,6.21,6.21,0,0,1-.05-4.19c.16-.7,1-.54,1.6.1a24.39,24.39,0,0,0,3.16,2.77c.94.67,2.58.12,3.79-1.19a2.19,2.19,0,0,0,.32-2.74,5.92,5.92,0,0,0-1.89-1.65c-1.49-.94-3.08-1.75-4.58-2.69-2.12-1.33-3.25-5.11-2.15-7,.61-1.06,2.81-1.71,4.37-1.44.87.14,1.77,1,2.76.08a3.39,3.39,0,0,1,1.5,1.21A4.78,4.78,0,0,1,332.53,160.23Z"/><path class="cls-2" d="M268.78,182.61a19.3,19.3,0,0,1,2.33-1.51c1.85-.88,3.75-1.66,5.64-2.48a1.89,1.89,0,0,1,.75-.29c.59,0,1.18.16,1.77.25-.33.54-.54,1.34-1,1.57-2.27,1.07-4.59,2-6.94,2.9a7.82,7.82,0,0,1-2.47,0Z"/></g></g></g></svg>