<svg xmlns="http://www.w3.org/2000/svg" viewBox="0 0 1226.74 699.01"><defs><style>.cls-1{fill:#ddd;}.cls-2{fill:#999;}</style></defs><g id="Capa_2" data-name="Capa 2"><g id="Placeholder_16.9" data-name="Placeholder 16.9"><rect class="cls-1" width="1226.74" height="699.01"/><g id="Copa_cubiertos" data-name="Copa &amp; cubiertos"><g id="Cuchillo"><path class="cls-2" d="M658.76,229.85c-.16,2.05-.33,5.8-.49,10.42q3.78-.12,7.58-.07V180.41c0-9.75-6-6.93-7.56-.14-2.66,11.66-4.43,35.2-4.4,46.4C653.9,229.58,658.93,227.8,658.76,229.85Z"/><path class="cls-2" d="M657.35,270.46c-.2,6.68-.38,12.12-.53,14.3-.57,8.08,9,7.87,9,1.42V270.4C663,270.35,660.18,270.38,657.35,270.46Z"/></g><g id="Tenedor"><path class="cls-2" d="M574.17,216.3c.12,3.17-.5,17.56-1.12,32.38,2.54,0,5.08-.14,7.61-.28-1.18-14.78-2.34-29.08-2.39-32.1,0-1.62,2.47-1.3,5.43-5.57,1.77-2.57,2.29-4.36,2-15.25-.21-8.22-1.15-18.74-2.12-21.6s-2-3.2-2,1.28c0,3.48,0,21.15,0,23.11s-2.32,2.48-2.32.22V173.58c0-1.82-2.05-1.88-2.05,0v24.9c0,2.12-1.91,1.74-1.91,0v-25c0-1.74-2.18-1.74-2.18-.07v24.91c0,1.51-1.89,2.49-2.21,0s-.06-21.08,0-22.81c.22-6-1.32-4.32-2.1-1.49a126.07,126.07,0,0,0-2.26,21.52c0,8,.46,12.59,2.27,15.64C571.14,215.16,574.1,214.46,574.17,216.3Z"/><path class="cls-2" d="M571.94,278.81c-.06,3-.06,5.11,0,6,.84,8.43,10.94,7.5,11.2-.27,0-.92-.07-3.12-.26-6.2C579.27,278.59,575.61,278.75,571.94,278.81Z"/></g><g id="Copa"><path class="cls-2" d="M617.74,244.35c.33-1.31.73-2.63,1.21-4-4.51.93-7.2,1-11.19-.34a52,52,0,0,1,1.58,5.46C612.15,245.12,614.94,244.74,617.74,244.35Z"/><path class="cls-2" d="M616.68,275.79c0-.41,0-.83,0-1.23l-5.64.76c0,.19,0,.39,0,.58,0,11.2-16.27,10.14-16.27,14.4,4.16,0,29.62.06,36.58,0C631.31,285.47,617,288.56,616.68,275.79Z"/><path class="cls-2" d="M612.25,241.38h0c-8.12,0-14.44-2.42-18.76-7.2-4.82-5.32-6.93-13.59-6-23.27a38.16,38.16,0,0,1,4-13.52c2.5-5.4,4.86-10.51,3.7-23.75a1.36,1.36,0,0,1,2.71-.24c1.22,14-1.41,19.64-3.94,25.13a35.24,35.24,0,0,0-3.78,12.65c-.89,8.91,1,16.43,5.27,21.18,3.79,4.18,9.43,6.31,16.75,6.31,8.28,0,14.52-2.33,18.54-6.91,4.18-4.75,5.87-12,4.77-20.52A44.82,44.82,0,0,0,632.11,199c-2.32-5.76-4.51-11.21-3.34-25.54a1.35,1.35,0,0,1,2.7.22c-1.11,13.69,1,18.85,3.16,24.31a47,47,0,0,1,3.62,12.95c1.21,9.27-.72,17.32-5.41,22.66S621.34,241.38,612.25,241.38Z"/><path class="cls-2" d="M627.62,189.51c1.16,8.41,4.71,9.64,6.36,22.32,1.69,13-3.55,25.42-21.64,25.42-16.92,0-21.81-12.47-20.52-25.44.69-6.85,2.82-12.07,4.25-14.11C605.08,198.45,624.41,192.37,627.62,189.51Z"/></g><g id="Ribbon"><path class="cls-2" d="M537.63,273.18c53.66,13.61,106.1-14.38,157.49-.58V246.07c-49.8-14.95-104.13,14.36-157.49.64Z"/><path class="cls-2" d="M537.92,245.16A84.33,84.33,0,0,0,551.2,248l-.13-5.58S539.58,244.75,537.92,245.16Z"/><path class="cls-2" d="M536.2,264.44V243.92s13.17-2.57,14.84-3c-6.32-.74-19.34-2.44-28.36-5.74l4.9,14.64s-6.44,4.38-13.31,9.08C521.93,262.09,532.21,263.13,536.2,264.44Z"/><path class="cls-2" d="M694.82,274.35a85.09,85.09,0,0,0-13.27-2.86l.13,5.59S693.17,274.76,694.82,274.35Z"/><path class="cls-2" d="M696.55,255.07V275.6s-13.17,2.57-14.84,3c6.32.75,19.34,2.44,28.36,5.75l-4.9-14.64,13.31-9.08C710.82,257.43,700.54,256.39,696.55,255.07Z"/></g></g><g id="Parrillada"><path class="cls-2" d="M565.69,596.73c-2.71.19-3.67-.59-3.25-2.84l6,1.23c.32.07.68.28,1,.21,2.56-.65,4.71.64,6.91,1.52,2,.8,3.53,4.92,2.6,6.86a9.41,9.41,0,0,1-2.17,3.45c-1,.75-2.53.76-3.85,1.1.37,1.57.29,3.93,1.43,5.28.93,1.12,1.26,2.51,2.21,3.45s1.42,1.78,1,3.06c-.07.19.07.46.11.63.64.55,2.14-.3,2.06,1.29l1.45.52c-1,1.93-1.44,2-3.26,1.45-1.19-.38-2.47-.47-3.68-.76a3.61,3.61,0,0,1-1.53-.72c-.31-.27-.61-1-.47-1.21a2.72,2.72,0,0,1,1.26-.9,3.39,3.39,0,0,1,1.13,0c-.92-1.68-1.84-3.16-2.56-4.74a27.81,27.81,0,0,1-.66-2.83c-.46-1.39-1-2.74-1.48-3.85l-3.58-.95c-.48,2.44-.93,5-1.48,7.46-.15.66-.68,1.05-.36,2a3,3,0,0,0,1.39,1.7,2.94,2.94,0,0,1,1.26,1.68c.15,1.15-.4,1.3-1.53,1s-2.56-.12-3.76-.45a15.83,15.83,0,0,1-3.4-1.63,1.05,1.05,0,0,1-.2-1,2.29,2.29,0,0,1,1.1-1,2.62,2.62,0,0,1,1.42.14c1.37.42,1.39.37,1.26-1.08s-.53-2.47.3-4a14.3,14.3,0,0,0,1.54-6.46c0-2.9,1.19-5.43,1.82-8.14A7.54,7.54,0,0,0,565.69,596.73Zm2.86.47c-1.3,2-1.2,4.36-1.52,6.57-.15,1,.21,1.58,1.35,1.72,1.86.24,3.7.64,5.55,1l-.11-.47c.6-.65,1.21-1.28,1.79-2s1.29-1.19,1.42-1.89a2.46,2.46,0,0,0-2.45-2.88,2,2,0,0,1-.55-.18Z"/><path class="cls-2" d="M536.18,588.58a13,13,0,0,1-2.69-1.31c-.35-.28-.27-1.11-.39-1.69.46-.07,1-.32,1.36-.19,1.7.55,3.37,1.2,5,1.82.18.06.37.21.54.18,2.67-.33,4.69,1.24,6.78,2.45s2.77,5.17,1.45,7.23a15.39,15.39,0,0,1-2.47,3.09,3.65,3.65,0,0,1-2.09.52,8.22,8.22,0,0,1-1.85-.33c.18,2-.28,4.4.72,5.66s.91,3.2,2.13,4.42a2.27,2.27,0,0,1,.27,2c-.31,1-.21,1.42.88,1.6.49.07,1.43.16.87,1.1.37.26.93.47,1.15.87.1.2-.39,1-.73,1.08a4.1,4.1,0,0,1-2.19.12c-1.33-.38-2.56-1.21-3.9-1.47a2,2,0,0,1-1.81-1.85c0-1.17,1-1.28,2.06-1.07.13,0,.28,0,.2,0-1-4.06-1.94-8.11-2.84-11.89l-3.14-1.31c-.78,1.73-2,3.44-2.26,5.3-.22,1.38-1.6,2.54-.85,4.08a6.67,6.67,0,0,0,.73,1.31c.33.4,1,.63,1.13,1a3.31,3.31,0,0,1-.22,1.85c0,.11-.89,0-1.35-.11a22.26,22.26,0,0,1-4-1,11.11,11.11,0,0,1-2.82-2c-.16-.15,0-.89.18-1.15a1.63,1.63,0,0,1,1.2-.55,17.4,17.4,0,0,1,2.59.74c0-1,0-1.78,0-2.59a3.53,3.53,0,0,1,.76-2.48,15.4,15.4,0,0,0,1.69-4.18c.63-2,1.07-4,1.76-6,.52-1.45,1.35-2.79,2-4.21A2.62,2.62,0,0,0,536.18,588.58Zm7.6,10.59c-.48-1.06-.35-1.33,1-2.18,2.26-1.42,2.42-2.06,1.61-4.21-.42-1.11-1.29-.62-1.92-.92-1.81-.87-3.58-1.82-5.35-2.74a12.48,12.48,0,0,0-2.41,8Z"/><path class="cls-2" d="M718.47,603.08c-1.1.69-2,1.35-3,1.91-1.73,1-3.53,1.8-5.22,2.83s-3.17.72-4.41-1.14l2.68-1.46c1.71-1,1.94-2.24.69-3.7-.21-.25-.54-.63-.48-.86.4-1.56-.85-2.58-1.25-3.86-.57-1.78-1.37-3.5-2.1-5.23a12.94,12.94,0,0,0-.83-1.5l-3.6-6.21a9.33,9.33,0,0,1-1.74,1.2,12.8,12.8,0,0,1-2.46.47,7.21,7.21,0,0,1,.74-2.43,5.74,5.74,0,0,1,2.1-1.32c1.67-.77,3.36-1.5,5.08-2.15,1.29-.49,2.64-.82,4-1.23.37-.12.75-.45,1.07-.38,2.49.51,5,.34,7.41,1.88a29.55,29.55,0,0,1,5.52,5.23c.93,1,1.18,2.65,1.71,4a9.66,9.66,0,0,0,.29,1.12c1.17,2.06.52,4.16,0,6.19a10.24,10.24,0,0,1-1.6,3,15.72,15.72,0,0,1-2.43,3C720.06,602.92,719.12,602.91,718.47,603.08Zm-14.55-20.15c.4,1,.74,2,1.24,3,1.2,2.34,2.48,4.65,3.71,7,.06.11,0,.3,0,.43.22.49.48,1,.73,1.44a6.81,6.81,0,0,1,.63,1.19c.31,1.09.19,2.61.89,3.23a3.51,3.51,0,0,1,1.2,3.4l1.66-.72a20.27,20.27,0,0,1,3.82-1.58c2.56-.48,3.66-1.74,3.9-4.46.13-1.5,1.17-3,.06-4.47,0,0,0-.09.05-.13.85-1.72-.11-3.09-1.14-4.17-1.69-1.79-3.64-3.32-5.46-5a5.85,5.85,0,0,0-6.85-1C706.89,581.76,705.35,582.35,703.92,582.93Z"/><path class="cls-2" d="M507.5,583.51l.47.83c.64-1.14,1-2.59,1.92-3.22s1.27-2.74,3.14-2.14c1.2-2.31,1.93-2.87,4.2-2.91-.14,1.73-.23,3.42-.43,5.11-.23,2.05-.54,4.08-.83,6.12-.07.44-.22.87-.26,1.31-.05.61-.3,1.48,0,1.79,1,1,.3,1.9.08,2.91a36,36,0,0,0-.44,4.41c-.05.6.13,1.31-.13,1.78-1.07,1.93-.66,3.46,1.3,4.62a10.13,10.13,0,0,1,1.54,1.41c-1,1.12-2,1.47-3.16.57-.17-.13-.54,0-.82,0s-.64.2-.84.08a38.16,38.16,0,0,1-4.73-2.94c-.41-.32-.17-1.47,0-2.3,1.16.58,3-.47,3.26,1.62.1-1.15.19-2.3.29-3.45a38.24,38.24,0,0,1,.41-4.13c.24-1.22.14-2.15-1.07-2.78a5.42,5.42,0,0,1-1-1c-1.64.91-2.46-1-3.81-1.32-.48-.12-1.15-.37-1.45-.16-1.26.88-2.07,2.16-3.72,2.78-1.26.47-2,2.23-2.9,3.25a8.16,8.16,0,0,1,2.06,1,1.61,1.61,0,0,1,.14,1.52c-.15.27-1,.34-1.45.22a29.92,29.92,0,0,1-3.83-1.22,17.87,17.87,0,0,1-2.63-1.39,1.26,1.26,0,0,1-.4-2c.41-.48,1.44-1,1.85-.78a2.53,2.53,0,0,0,3-.29c2.33-1.9,4.6-3.86,6.84-5.87C505.22,586,506.29,584.75,507.5,583.51Zm5.59,5.35,1.69-8.7-7.53,7.21Z"/><path class="cls-2" d="M760.18,577.88c.54,1.58.33,2.51-1,3-.24.1-.36.5-.53.77s-.21.63-.42.74a54.17,54.17,0,0,1-5,2.46c-.36.14-1.12-.51-1.56-.93-.13-.12.15-.75.34-1.08.53-.9,1.16-1.69,2.45-1.15-.81-.58-1.63-1.13-2.42-1.73-1.44-1.11-2.86-2.26-4.3-3.38-.76-.58-3.45-.32-3.7.51-.49,1.62-2.1,1.5-3.14,2.22-.51.35-1,.44-.92,1.17.11,1.53.85,2.89.37,4.64-.34,1.24.83,2.89,1.27,4.2a6.6,6.6,0,0,1,1.81-1.19c.43-.12,1,.4,1.56.63a4.22,4.22,0,0,1-.67,1.38,30.27,30.27,0,0,1-3.08,2.58,16.84,16.84,0,0,1-2.58,1.47,1.26,1.26,0,0,1-1.89-.73c-.17-.6,0-1.73.37-2a2.64,2.64,0,0,0,1.35-2.69c-.32-2.88-.74-5.75-1.24-8.6-.29-1.66-.81-3.29-1.26-5h1.16c-.12-.24-.15-.41-.25-.46-.46-.26-1.21-.24-.78-1.17.08-.18-.67-.64-.68-1,0-1.49-1.35-2.77-.51-4.48.28-.56-.6-1.62-.71-2.48a8.27,8.27,0,0,1,.31-2.23,6.43,6.43,0,0,1,1.84.53,24.46,24.46,0,0,1,2.49,2q2.49,2.05,5,4.14c.32.27.56.61.87.88s1,1.07,1.33,1c1.7-.39,2.06.92,2.91,1.81a22.69,22.69,0,0,0,3.28,2.37,4.89,4.89,0,0,1,1.53,1.34,3.16,3.16,0,0,0,4.14,1.35A19,19,0,0,1,760.18,577.88ZM743.59,573c-.31-.23-1-.63-1.54-1.12-1-.81-1.92-1.66-2.82-2.54-.62-.61-1.15-1.31-1.71-2l-.39.28c1,3,.46,6.42,2.36,9.29.87-.72,1.74-1.36,2.52-2.09A20.47,20.47,0,0,0,743.59,573Z"/><path class="cls-2" d="M699.41,609.73c0,1.49-.38,2.45-1.94,2.47-.19,0-.38.36-.58.56s-.43.62-.71.68c-1.67.38-3.37.64-5,1-1.09.24-1.41-.55-1.6-1.25-.07-.29.51-.74.8-1.12a1.56,1.56,0,0,1,2.45-.33c-.74-.93-1.5-1.86-2.22-2.81-.84-1.11-1.71-2.2-2.46-3.36a3.17,3.17,0,0,0-4.56-.66c-.85.61-2.14.56-3.21.92-.45.15-1.06.5-1.16.88-.37,1.46.06,2.93-.94,4.48-.68,1.06,0,3,.13,4.38a8.51,8.51,0,0,1,2.24-.59c.38,0,.91.64,1.08,1.1.07.21-.48.81-.87,1a38.37,38.37,0,0,1-3.82,1.71,19.52,19.52,0,0,1-2.76.68,1.32,1.32,0,0,1-1.69-1.14c-.18-.81-.14-1.73,1-1.92a2.36,2.36,0,0,0,2-2.23c.46-2.9.84-5.81,1.12-8.73.15-1.62,0-3.26,0-5l1.09.18a17.86,17.86,0,0,1-.81-3.54,13.25,13.25,0,0,1,.7-3.95c.06-1.32-.52-2.64.48-4,.57-.77,1-.67,1.47-.1.87,1,1.73,2.08,2.51,3.17,1.25,1.76,2.44,3.55,3.64,5.34a7.24,7.24,0,0,0,.64,1c.53.54,1.12,1,1.7,1.49.32.27.75.45,1,.78.68,1.06,1.23,2.21,1.93,3.26a20.65,20.65,0,0,0,1.47,1.65,3.87,3.87,0,0,1,.91,1.41,3,3,0,0,0,3.88,2.49A11,11,0,0,1,699.41,609.73Zm-14.8-9.36a5.68,5.68,0,0,0-.86-1.2,7.19,7.19,0,0,1-2.42-4.1c-.14-.69-.56-1.74-1.77-1.25.23.47.6.89.57,1.27a8.79,8.79,0,0,1-.57,3c-.83,1.73.26,3.31-.2,5.15,1.27-.54,2.28-.9,3.21-1.39A18.76,18.76,0,0,0,684.61,600.37Z"/><path class="cls-2" d="M481.76,557.11c1.52-.41,2.49-.35,3.47.49.75.65,1.79,1,2.61,1.54A47.58,47.58,0,0,1,493,563a21,21,0,0,1,3.33,4.11,4.38,4.38,0,0,1,.28,2.37c-.09,2.21-1.32,4-2.3,5.9a8,8,0,0,1-2.48,2.11,10.83,10.83,0,0,1-1.56.8c-1.28-.83-3.76.55-4.21-1.77a8.36,8.36,0,0,1-1.89-.67c-1.44-1-2.81-2.11-4-3-.6.82-1.18,1.55-1.71,2.32-.93,1.37-1.83,2.76-2.73,4.15-.13.2-.12.49-.26.67-.75,1-1.05,1.74.53,2.38.42.17.34,1.58.48,2.42-.43,0-1,.21-1.27,0s-.41-.75-.48-.91a6.91,6.91,0,0,1-2-.16,22.8,22.8,0,0,1-2.58-1.47,2.43,2.43,0,0,1-.93-3.44,6.19,6.19,0,0,0,1.85.71,2.43,2.43,0,0,0,1.52-.72,10,10,0,0,0,1.64-1.91c.87-1.33,1.62-2.73,2.46-4.07.58-.94,1.25-1.81,1.83-2.75,1.42-2.3,2.79-4.63,4.22-6.93.16-.27.51-.43.76-.65,1.19-1,1.15-1.72.05-2.88A24.12,24.12,0,0,1,481.76,557.11Zm5.59,4.62a18.48,18.48,0,0,0-1.9,2.2c-1.11,1.75-2.08,3.58-3.16,5.35a2.66,2.66,0,0,0,.84,3.4,35.49,35.49,0,0,0,5.3,2,3.25,3.25,0,0,0,2.68-.43c.78-.79,1.29-1.22,2.53-.12-.93-1.47-1-1.55-.19-2.68,1.17-1.55.72-3.1,0-4.46C492.07,564.53,489.67,563.12,487.35,561.73Z"/><path class="cls-2" d="M650.58,597.22c0,1.47-.63,2.18-2.16,2a16.57,16.57,0,0,0-2.34.12c.08.53.14,1,.23,1.51a31.36,31.36,0,0,1,.72,3.92c.17,3.38,0,6.8,1.13,10.08.15.42,0,.95,0,1.42a27.64,27.64,0,0,0,.35,3c.18.92.53,1.82.85,2.89a5.09,5.09,0,0,1,3.21-1.85,39.78,39.78,0,0,1,5.33-.65c2.1-.11,3.32-1.93,3-4.1-.12-.7-.11-1.43-.16-2.08a5.72,5.72,0,0,1,1.43-.3c.38,0,1,.22,1,.48a26,26,0,0,1,.67,2.8,3,3,0,0,0,.33,1.1,2.72,2.72,0,0,1-.93,4.32c-1.08.49-2.25,1.06-3.29.05-.48.3-.89.78-1.35.83-2.36.29-4.73.44-7.09.69-1.8.19-3.6.47-5.4.71a3.06,3.06,0,0,1-1.14.13c-.45-.13-1.12-.42-1.19-.75s.34-.91.64-1.29a1.26,1.26,0,0,1,.59-.34c.11-1.29.2-2.34.28-3.41a2.54,2.54,0,0,0,0-1.13c-1-2.24-.5-4.67-.92-7a31.15,31.15,0,0,1-.77-3.21c-.12-1.38-.8-2.68-.24-4.21a3.15,3.15,0,0,0-.66-2.91c-.71-.56-2.09-.28-3.18-.35a2.17,2.17,0,0,0-.55.12l-.26-1.93,4.74-.89a5.62,5.62,0,0,0,1.56-.32C647,595.69,648.75,596.1,650.58,597.22Z"/><path class="cls-2" d="M614.27,623.76a4.14,4.14,0,0,1-.15-1.5c1.06-3.43.13-7,.56-10.42a25.34,25.34,0,0,0-.28-2.56c0-1.45-.62-2.87.26-4.4a3.08,3.08,0,0,0-.29-2.94c-.91-.69-2.38-.67-3.67-1v-1.7l4.75-.26a5,5,0,0,0,1.3-.08,5.17,5.17,0,0,1,5.69,1.07c-.25,1.72-.47,1.89-2.21,1.71-.77-.07-1.55-.09-2.53-.15,0,.46,0,.87,0,1.28,0,2.5.08,5,.11,7.48q0,3.31,0,6.62a3.89,3.89,0,0,1-.12,1.54c-1,2.2.2,4.08.57,6.25.9-1.06,1.67-1.74,3-1.53a6,6,0,0,0,2.48-.21c1.47-.43,2.91.66,4.48-.23,1.3-.74,2.17-1.4,2.16-2.95v-2.33a4.22,4.22,0,0,1,1.44-.12,2.09,2.09,0,0,1,1.13.86,3.23,3.23,0,0,1,.22,1.56,5,5,0,0,0,.7,3.06c.51.79-.58,2.64-1.65,3.19a3.43,3.43,0,0,1-3.61-.36c-.33.23-.63.63-1,.66a27,27,0,0,1-7.24,0,30.53,30.53,0,0,0-5.58-.06c-.34,0-.72.15-1,0a9.65,9.65,0,0,1-1.47-.9c.36-.45.69-.92,1.09-1.33C613.66,623.9,614,623.88,614.27,623.76Z"/><path class="cls-2" d="M598.63,622.54c.72.11,1.68.19,2.6.4a4.39,4.39,0,0,1,1.74.75c.65.53.11,1.84-.88,2a19.23,19.23,0,0,1-3.3-.1c-.6,0-1.24-.65-1.77.31-.13.24-1.16.32-1.46.08-1-.79-2-.49-3-.48-1.73,0-2.51-1.13-1.87-3l4.1.79c.21-.74.46-1.73.74-2.71.18-.6.39-1.19.59-1.78a2.44,2.44,0,0,0,.21-.8c-.07-1.13-.28-2.25-.27-3.37,0-1.56.23-3.12.23-4.68,0-1.36-.17-2.73-.28-4.09,0-.36-.19-.76-.09-1.07.31-1,.73-1.88,1.11-2.82l-4.85-1c-.85-2.58-.85-2.55,2.14-2.46,1.13,0,2.26-.13,3.39-.19a1.82,1.82,0,0,1,.85.1,5,5,0,0,0,3.15.55c.5-.06,1.11.79,1.66,1.22-.49.43-1,1.22-1.48,1.23-2.94.09-2.75,1.24-2.53,3.44.14,1.37,0,2.07-1,2.74.9.76,1.29,1.48.55,2.72-.44.73-.19,1.86-.27,2.81-.18,1.87-.39,3.74-.55,5.61a4.37,4.37,0,0,0,.17,1C598.39,620.6,598.49,621.47,598.63,622.54Z"/></g><g id="Border_Inferior" data-name="Border Inferior"><path class="cls-2" d="M608.53,567.74c-89,0-157.14-55.67-185.2-110.85l-.46-.9.91-.45a4.85,4.85,0,0,1,2.11-.57c1.77,0,2.79,1.43,3.4,2.51,22.8,40,55.75,69.68,97.93,88.18a200.41,200.41,0,0,0,81,17h0c4,0,8.11-.12,12.18-.35A206.81,206.81,0,0,0,806.11,418.16c.69-2.19,1-3.27,3.44-3.27.38,0,.84,0,1.4.05l1.26.05-.34,1.22c-22.43,78.87-92.71,139-174.89,149.67A220.6,220.6,0,0,1,608.53,567.74Z"/></g><g id="Desde_2012" data-name="Desde 2012"><path class="cls-2" d="M570.6,522.55c.16-.86,0-2.06,1.41-1.59l-.54,6.95a8.4,8.4,0,0,0-1.1-.38c-1-.19-1-.73-.64-1.5.76-1.55.75-1.53-.88-1.85-.78-.15-1.54-.41-2.23-.6-.6,2.48-1.16,4.74-1.69,7-.19.81.06,1.09,1,1.11a28.26,28.26,0,0,1,4.47.54c.46.09.86.57,1.57,1.07.46-1.07.91-2.12,1.38-3.16a5.65,5.65,0,0,1,.53-.78c.27.24.7.44.77.73a5,5,0,0,1,.06,1.85,17.87,17.87,0,0,1-.61,2c-.52,1.83-.6,1.8-2.17.62-.55-.41-1.46-.33-2.21-.48l-5.79-1.18-.17-.62a4.78,4.78,0,0,1-1.37-.2,5.65,5.65,0,0,1-1.13-1l.22-.33c.29.1.62.32.85.25a2,2,0,0,0,1.17-.69,8.45,8.45,0,0,0,.87-2.42c.3-1.78.42-3.59.73-5.37.15-.84.75-1.61.84-2.44.19-2,1.38-4.32-1.93-5.36,2.12-.69,3.66-.46,4.93,1.06a2.38,2.38,0,0,1,3.1,0,1.27,1.27,0,0,0,.66.18,37.74,37.74,0,0,0,3.83.16c1.2-.05,1.41.87,1.33,1.53a43.1,43.1,0,0,1-1,4.61c-1.06-.47-1.06-.47-.84-4.63-1.66-.38-3.35-.8-5.06-1.12-1-.2-2.39-.67-3-.22s-.48,1.91-.74,2.92c-.13.53-.59,1-.54,1.53a1.94,1.94,0,0,0,.89,1.4A15.12,15.12,0,0,0,570.6,522.55Z"/><path class="cls-2" d="M593,519.28c.39-.48.56-.9.79-.93a13.25,13.25,0,0,1,3.3-.36,22.35,22.35,0,0,1,5.49.91,7.86,7.86,0,0,1,4.69,4.6,12.84,12.84,0,0,1,.58,7.91c-.41,1.87-4.19,5.41-6,5.06-2.14-.43-4.14.2-6.19.11a16.43,16.43,0,0,1-2.43-.27,4.41,4.41,0,0,1-1.11-.55l.08-.47c.59-.08,1.18-.19,1.78-.24,1.33-.11,1.84-.78,1.74-2.11-.05-.54.24-1.11.24-1.67q0-5,0-10C595.92,519.18,595.74,519.06,593,519.28Zm14.23,9a3.83,3.83,0,0,0-.35-1.52c-.8-1.72-1.48-3.5-2.4-5.15a3.23,3.23,0,0,0-1.89-1.46,51.14,51.14,0,0,0-5.24-.6v14.95a5.53,5.53,0,0,0,1,.2c.87.06,1.76-.05,2.62.09a5,5,0,0,0,5.3-3.23A18.87,18.87,0,0,0,607.2,528.31Z"/><path class="cls-2" d="M548,510.58c.36-.29.62-.65.84-.63a14.89,14.89,0,0,1,3.47.48,19.72,19.72,0,0,1,4.86,2.05,8.06,8.06,0,0,1,3.48,5.4,11.23,11.23,0,0,1-1.35,8,9.56,9.56,0,0,1-3.16,2.64,4.85,4.85,0,0,1-2.49.79,19.49,19.49,0,0,1-3.5-.57c-1.1-.22-2.21-.43-3.3-.71s-2.1-.59-3.12-1c-.29-.11-.48-.5-1-1.07a10.19,10.19,0,0,1,1.73,0c1.81.37,2.35,0,2.77-1.78.16-.68.56-1.31.75-2,.84-3.12,1.68-6.23,2.44-9.37.39-1.64.14-1.84-1.83-2.14A5.47,5.47,0,0,1,548,510.58Zm12,12.53a9.64,9.64,0,0,1-.35-1.19c-.38-2.06-.63-4.15-1.13-6.18a3.21,3.21,0,0,0-1.45-1.89,49.33,49.33,0,0,0-4.76-1.87l-4,14.52a36.07,36.07,0,0,1,3.5,1.07,5.05,5.05,0,0,0,6-1.82A31.86,31.86,0,0,1,560,523.11Z"/><path class="cls-2" d="M614.69,519.19c-1.52.34-1.18,1.47-1.11,2.52,0,.89,0,1.79.06,2.68,0,.14-.11.37-.06.4.42.3.86.57,1.29.85.68-1.2,2.7,1.15,3-1.14.06-.43.47-.82.72-1.22a4.34,4.34,0,0,1,.54,1.13c.34,2,.63,3.92.93,5.89-2.8.47-2-1.67-2-3.13-.81.05-1.43.11-2.05.13s-1.21,0-1.65,0c0,2.48,0,4.79,0,7.1,0,.92.4,1.05,1.23.84,2.1-.54,2.11-.51,2.81.25,1-.88,2-1.19,3.41.09.2-1.38.32-2.46.51-3.52a6.23,6.23,0,0,1,.43-1.13c.35.21,1,.4,1,.64a50.63,50.63,0,0,1,.19,5.08,3.32,3.32,0,0,1-1.33.22,6.87,6.87,0,0,1-1.54-.35c-1.72-.51-3.38.65-5.13.13-.49-.14-1.17.36-1.86.61l-.59-1.08c-1,.88-1.7.18-2.52-.63,1.93.27,2.08-.58,1.89-2.1-.22-1.74,0-3.52,0-5.29-.06-2.16-.18-4.31-.37-6.47-.09-1-.5-1.87-1.73-2-.3,0-.56-.32-.91-.53a3.58,3.58,0,0,1,4.9.06Z"/><path class="cls-2" d="M655,530.12c-.34.3-.17.25-.63.4-4.15.12-6-2.58-7.79-5.68-1.23-2.16-.63-4.35-.79-6.52-.13-1.74,1.35-2.73,2.21-4a.71.71,0,0,1,.52-.19c1.67.1,3.53-.21,5,.43,2.34,1.05,3.57,3.12,4,5.83.46,2.94.53,5.68-1,8.33A2.34,2.34,0,0,1,655,530.12Zm1.29-2.35c0-.75-.11-1.34-.1-1.93a10,10,0,0,0,.08-2.61c-.62-2.2-1.39-4.36-2.2-6.5-.61-1.63-2.11-1.71-3.56-1.68-1.26,0-2.56.24-2.87,1.73s-.91,3.3-.56,4.76a13.65,13.65,0,0,0,4.25,7.17,2.72,2.72,0,0,0,3.93-.25A5.71,5.71,0,0,1,656.31,527.77Z"/><path class="cls-2" d="M674,510.51c-1.6-.12-2.32-2.34-4.32-1.33-1.51.77-2.7,2-2.56,3.43l-1.06-.05c-.45-2.43,1.73-3.27,2.72-4.79.14-.21.76-.14,1.16-.16a16.67,16.67,0,0,0,1.87,0,2.63,2.63,0,0,1,3.06,2.42c.19,2.53.07,3-.55,3.44a13.34,13.34,0,0,1,0,2.8c-.37,1.6-1,3.14-1.38,4.73a12.48,12.48,0,0,0-.13,2.08,17.39,17.39,0,0,0,2.08-.69c1.11-.54,2.21-1.12,3.26-1.75,1.39-.84,2,.31,3.31,1.2-2.09.81-3.81,1.57-5.58,2.15-1.44.48-3.15.1-4.29,1.55-.19.23-1,0-1.5-.12-.1,0,0-.78.06-1.17.79-3.13,2.77-5.88,2.91-9.25A26.21,26.21,0,0,1,674,510.51Z"/><path class="cls-2" d="M646.21,532.53c-1.79.36-3.57.87-5.38,1.06-1.56.16-3.2-.4-4.63.78-.24.2-1-.12-1.45-.34-.1,0,0-.72.12-1,1.79-3.21,4.1-6.15,5.14-9.76a29.87,29.87,0,0,1,1.3-3.23c-1.46-.41-1.77-2.72-3.95-2.12-1.48.4-3,1.45-3.18,2.8l-1.39-.1a19.15,19.15,0,0,1,1.58-2.53,6,6,0,0,1,1.87-1.4,3.65,3.65,0,0,1,1.66-.23,6.9,6.9,0,0,1,3.8,1.38,4.35,4.35,0,0,1-.36,5.42c-.21.76-.2,1-.35,1.37-.62,1.57-1.38,3.09-2.1,4.62a8,8,0,0,0-.7,1.45,1.54,1.54,0,0,0,.21,1.27c.21.19.84,0,1.25-.1a25.46,25.46,0,0,1,4.24-1.16c.78-.07,1.63.7,2.45,1.1Z"/><path class="cls-2" d="M668.07,525.71c-.57,1.86-5.21,3.23-6.76,1.79l2.6-.69a7.4,7.4,0,0,0-.13-1.72c-.76-2.57-1.59-5.12-2.39-7.68-.24-.79-.48-1.59-.73-2.38-.55-1.75-.86-1.85-2.23-.74a4,4,0,0,1-.49.3c-.56-1.09.82-3.82,1.91-3.75a1.38,1.38,0,0,1,1,.79c.58,2.64,2.57,4.92,2.06,7.84,0,.14.16.31.23.48a20.11,20.11,0,0,1,1.24,3.34A2.93,2.93,0,0,0,668.07,525.71Z"/><path class="cls-2" d="M588.94,523.27a14.66,14.66,0,0,1-.4-1.95c-.16-2-2.2-3.4-4.54-3.06-1.71.26-2.41,1.54-2,3.66.13.75.18,1.52.27,2.31a4.77,4.77,0,0,1-.5-6.19,2.18,2.18,0,0,1,2.44-.72c1.62.37,3.32.44,4.91.89a2.07,2.07,0,0,1,1.15,1.64,18.2,18.2,0,0,1-.82,3.49Z"/><path class="cls-2" d="M614.73,519.23c-8.53-.28,1.24-1.24,2.8-1a2.65,2.65,0,0,0,.93,0c1.31-.23,2.61-.53,3.93-.67a1.24,1.24,0,0,1,1,.69,24.19,24.19,0,0,1,.33,5.19c-1.74-1-1.32-2.69-1.83-4.27-2.32,0-3.52,0-6,0A8.11,8.11,0,0,0,614.73,519.23Z"/><path class="cls-2" d="M580.32,533a7.42,7.42,0,0,1,1.9.91,3.66,3.66,0,0,0,5.66-1c.27-.6,0-1.47-.09-2.21h0c1.27-.1,1.75.87,1.83,1.76a2.69,2.69,0,0,1-.9,2.07c-.67.5-1.46.41-2.42.94a6,6,0,0,1-.71.26c-1,.35-2.73.41-3.34-.31-.15-.18-.7-.44-.69-.6-.72-.5-1.25-.82-2-1.32Z"/><path class="cls-2" d="M580.32,533l-.19.1a4.14,4.14,0,0,1-.3.5c-.37.47-.76.92-1.14,1.38a6.11,6.11,0,0,1-.55-1.93,6.51,6.51,0,0,1,.68-2.32c.09-.19,1.09-.19,1.1-.14C580.11,531.4,580.2,532.21,580.32,533Z"/><path class="cls-2" d="M587.79,530.69a7.78,7.78,0,0,0-1.11-1.49c-.69-.71-2.23-2.46-3.55-3.93-.58-.66-1.08-1.24-1.36-1.6.45.16-1.19-3.69,2.57,1.32,1.1,1.47,2.49,2.6,3,3.44.43.67,3.51,4.9.44,2.26Z"/></g><g id="Waves"><path class="cls-2" d="M626,447.27l-1.15,1.7a311.71,311.71,0,0,0-19.73,33.13c-1.51,2.91-3.43,3.18-5.87.95a171.58,171.58,0,0,1-25.52-29.49c-.24-.35-.52-.68-.88-1.16-1.26,2.05-2.44,4-3.64,5.9Q562,470,554.69,481.6a3.46,3.46,0,0,1-3.2,2,3.38,3.38,0,0,1-2.84-2.08,225.77,225.77,0,0,1-14.23-29.16c-.18-.45-.39-.89-.66-1.52-2.66,1.9-5.33,3.61-7.76,5.6-6.24,5.11-12.39,10.35-18.57,15.54-.27.22-.5.48-.78.69a2.08,2.08,0,0,1-2.95-.08,2,2,0,0,1,0-3c2.14-2.13,4.24-4.33,6.57-6.24,7.46-6.13,15-12.16,22.56-18.17,2.15-1.7,3.64-1.24,4.87,1.4s2.27,5.49,3.59,8.14c3.1,6.18,6.33,12.31,9.51,18.45.22.42.51.81.88,1.38.37-.56.67-1,1-1.42,5.7-9.1,11.37-18.21,17.13-27.27a5.22,5.22,0,0,1,2.52-2.06c1.56-.51,2.66.48,3.56,1.77,3.5,5,6.81,10.24,10.69,15C591,466,596,471,600.79,476.26a2,2,0,0,0,.39.3c3.27-5.68,6.38-11.42,9.81-17,3.82-6.18,7.9-12.21,11.94-18.26,1.72-2.59,3.71-2.64,5.81-.34q14,15.39,28,30.76c.57.62,1.09,1.28,1.65,1.91,1.39,1.59,2.34,1.67,3.83.14a38.4,38.4,0,0,0,3.72-4.24c5.32-7.35,11.78-13.62,18.61-19.53,2.24-1.94,4.78-3.53,7.83-2.59a12,12,0,0,1,5,3c4.61,4.83,9,9.89,13.47,14.86.66.74,1.35,1.45,2,2.21a2.11,2.11,0,0,1-.1,3.26c-1,.87-2.08.82-3.13-.3q-6.43-6.9-12.83-13.85c-.74-.8-1.44-1.63-2.22-2.39-2-2-4.1-2.15-6.41-.47a29.43,29.43,0,0,0-2.76,2.48,163.45,163.45,0,0,0-18.5,21.26,12.29,12.29,0,0,1-3.19,2.86,5.75,5.75,0,0,1-7.31-.41,88,88,0,0,1-7.22-7.23c-7.61-8.34-15.15-16.75-22.72-25.13A2.49,2.49,0,0,0,626,447.27Z"/></g><g id="Perez_s" data-name="Perez's"><path class="cls-2" d="M430.21,320.5c-1.25,10.83-2.41,21.68-3.77,32.49-2.93,23.3-6,46.59-9,69.89-.25,2-.31,4-.56,6.05-.35,2.81-1.71,4.26-4.12,4.54-3.16.38-5.36-1.34-5.12-4.5.49-6.33,1.12-12.67,1.95-19,2.38-18.08,5.06-36.13,7.3-54.23,1.67-13.53,2.92-27.11,4.21-40.68.48-5-.07-5.2-4.91-3.85-3.75,1-7.62,1.67-11.46,2.38-1.42.27-3-.17-3.11-1.71a4.19,4.19,0,0,1,1.57-3.06,37.14,37.14,0,0,1,14.63-6.58c8.81-2.06,17.75-3.47,26.83-3.08,11.77.5,22.06,4.71,30,13.5,10.28,11.38,12.2,24.4,5.94,38.35-8.38,18.7-23.06,29.39-43.2,32.63a21.56,21.56,0,0,1-7-.55,2.74,2.74,0,0,1-2.54-2.89c.14-1.81,1.78-1.75,3-2.05,9.83-2.38,19.08-6,26.85-12.7,7.95-6.83,13.87-15.05,16.14-25.4,2-8.94.85-17.48-5.33-24.68a21.55,21.55,0,0,0-6.69-5.24,45.36,45.36,0,0,0-29.22-3.9,15.43,15.43,0,0,0-2.41.69c-2.86,1.05-2.94,1.53-1.35,4.09a7,7,0,0,1,1,3.13c.15,2.09.4,3.35.4,5.45C430.23,319.84,430.22,320.3,430.21,320.5Z"/><path class="cls-2" d="M574.74,350.75c.94-1.58,1.91-3.15,2.81-4.75,3.44-6.1,7.54-11.65,13.49-15.53a17.76,17.76,0,0,1,11.49-3.27,5.63,5.63,0,0,1,1.24.2c1.49.45,3.13.91,3.32,2.76s-1.45,2.46-2.77,3A43.17,43.17,0,0,0,591,340.93c-6.68,6-10.62,13.75-13.84,22a91.75,91.75,0,0,0-5.85,28c-.4,6.21-.66,12.43-.9,18.65-.16,3.85-2.19,5.87-6,6-1.88.07-3.08-.73-3.25-2.5a63.15,63.15,0,0,1-.14-6.88c0-1.75.2-3.49.34-5.92-.88,1.05-1.38,1.63-1.86,2.22-7.71,9.43-17.18,16-29.47,17.81-6.28.94-12.44.46-18.22-2.48-6.13-3.11-9.44-8.28-10.85-14.86-4.62-21.42.19-40.89,12.38-58.73a34.92,34.92,0,0,1,6.53-6.78c8.62-7.25,20.17-3.23,22.39,7.86,2.09,10.52-1.54,19.45-8.67,27a27.09,27.09,0,0,1-18.71,8.82c-5.59.34-6.26,1.07-6.48,6.66-.25,6.37.63,12.57,3.77,18.25,4.06,7.36,9.14,9.57,17.35,7.5,9.94-2.51,17.48-8.7,23.83-16.33,3.34-4,5.93-8.62,8.81-13a4,4,0,0,0,.45-1.79q1.43-17.25,2.81-34.5c.28-3.48.48-7,.9-10.44.11-.9,1-2.46,1.43-2.44a9.83,9.83,0,0,1,4.82,1.22c.88.58,1.31,2.3,1.38,3.53.17,3.55.06,7.12.06,10.68Zm-39.15-2.85c0-3.17-.46-5.43-2.81-6.68s-4.46-.23-6.43,1.13a14.33,14.33,0,0,0-1.14.92c-9.4,7.81-12.87,18.66-15.34,30-.42,1.89.25,2.43,2.2,2.06a26.4,26.4,0,0,0,12.65-6.66A31.83,31.83,0,0,0,535.59,347.9Z"/><path class="cls-2" d="M669,398.07c-3,2-5.86,4.21-8.94,5.92-8,4.38-16.47,6.37-25.5,4.7-9.21-1.71-16-7.14-18.13-18.36-4.08-21.18.74-40.34,12.88-57.85a34.31,34.31,0,0,1,6.58-6.72c8.33-6.8,19.37-3.09,22,7.39,2.39,9.74-.69,18.27-6.76,25.79a28.65,28.65,0,0,1-20.76,10.86c-6,.51-5.88.84-6.12,6.23-.29,6.6.56,13,3.86,18.85,3.79,6.72,9.07,9.21,16.55,7.35a37.47,37.47,0,0,0,9.51-3.72c9.71-5.56,17-13.6,22.35-23.36.3-.55.49-1.28,1-1.6a5.66,5.66,0,0,1,2.77-1.26c1.33,0,2,1,2.11,2.41a2.52,2.52,0,0,0,.56,1.48,11,11,0,0,1,.58-1.2q13.5-21.11,27-42.23a6.88,6.88,0,0,0,.44-2.47,9.92,9.92,0,0,0-2.3-.08c-4.81.89-9.58,2.09-14.42,2.74-5.59.75-10.9,0-15.1-4.43-1.15-1.2-1.83-2.34-.89-3.86.84-1.37,2.08-1.27,3.51-.87,8.93,2.51,17.77,1.4,26.53-.92,3.71-1,7.32-2.31,11-3.56,2.91-1,4.59-.73,6,1.16,1.58,2.05,1.4,3.72-.26,6.34-5,7.85-9.44,16.06-14.91,23.55-8.27,11.32-15.59,23.2-22.69,35.26a10.16,10.16,0,0,0-.69,2.25,7.23,7.23,0,0,0,2.19.21,28.69,28.69,0,0,1,17.47,1.8,18.15,18.15,0,0,0,18.51-1.94c1.58-1.1,2.45-.58,2.53,1.38a7.54,7.54,0,0,1-2.52,6.2c-5.73,5.15-12.25,6.36-19.26,3.26-7.53-3.34-14.75-3.24-21.93.81-2.19,1.24-4.45,2.36-6.65,3.59-4,2.22-6.87.86-7.81-3.71C669.12,399,669.09,398.53,669,398.07Zm-17.53-62.4c-.22-2.4-.55-4.64-2.83-5.86a5.21,5.21,0,0,0-6.23,1,52.48,52.48,0,0,0-7.83,8.09c-4.72,6.64-7.11,14.34-8.81,22.24-.57,2.64,0,3.17,2.65,2.58a26.24,26.24,0,0,0,11.92-6.3A32.34,32.34,0,0,0,651.5,335.67Z"/><path class="cls-2" d="M746.54,270.25c-.36-1.07-1.06-2,.13-3a2.7,2.7,0,0,1,3.47-.23c3.83,2.43,5.52,6.09,6.18,10.44,1,6.35-1.1,12-3.78,17.51-1.22,2.51-2.61,4.93-4,7.33-1.2,2-2.85,2.53-4.56,1.6-2.07-1.11-2.54-2.61-1.5-4.92C745.09,293.16,753,283,746.54,270.25Z"/><path class="cls-2" d="M807.25,363.74c.11-4.8-2.69-8.86-7.62-11.77-5.7-3.38-11.91-5.08-18.36-6.23-7.23-1.29-11.55-6.48-11.09-13,.25-3.75,2.12-6.77,4.65-9.39,4.58-4.76,10.36-7.59,16.44-9.82,3.86-1.42,7.84-2.55,11.81-3.69a4.86,4.86,0,0,1,6.27,5.14,3.56,3.56,0,0,1-2.12,2.2c-3.47,1.28-7.06,2.25-10.55,3.47-6.27,2.19-12.19,5-16.53,10.29-.27.32-.56.63-.8,1-1.43,2-1.18,3.13,1.2,3.95,2.7.94,5.48,1.68,8.26,2.39,7,1.81,13.54,4.48,18.9,9.54,7.63,7.21,11.38,21.43,4.38,31.9a20.65,20.65,0,0,1-4.06,4.76c-6.43,5.13-13.4,9.23-22,9.45a22.86,22.86,0,0,1-12-2.59c-5-2.74-6.87-7.33-7.71-12.56a19.1,19.1,0,0,1,.77-10.13c.4-1.06.94-2.12,2.21-1.59a3.61,3.61,0,0,1,1.53,2c.9,2.55,1.4,5.28,2.51,7.73,2.42,5.33,6.77,7.56,12.56,7.12,7.37-.54,13.16-3.93,17.86-9.44C806.16,371.72,807.26,368.57,807.25,363.74Z"/></g><g id="Border_Superior" data-name="Border Superior"><path class="cls-2" d="M810.07,280.72c-1,0-2.81-.39-3.63-3A232.56,232.56,0,0,0,793,243.43c-.2-.38-4.42-8.35-6.26-11.6-.13-.24-.47-.79-.54-.9a282.93,282.93,0,0,0-17.6-25.26,205.57,205.57,0,0,0-75.74-58.88,198.58,198.58,0,0,0-50.66-15.52,236.33,236.33,0,0,0-25.62-2.58c-3.85-.2-7.69-.31-11.43-.31-4,0-8,.12-11.86.36a199.75,199.75,0,0,0-46.87,8.6,209.32,209.32,0,0,0-133.54,124.6c-.54,1.39-1.07,2.75-1.6,4.16-.67,1.76-1.07,3.09-1.59,4.77-.29,1-.62,2-1,3.28a29.26,29.26,0,0,0-1,3.58,3.31,3.31,0,0,1-3.39,3,6.92,6.92,0,0,1-1.58-.22l-2-.46.49-2c8.9-36,30.14-71.09,59.82-98.79a211.12,211.12,0,0,1,119.67-55.86,229.38,229.38,0,0,1,27.18-1.64A210.74,210.74,0,0,1,727.73,159c28.58,19.64,53,46.82,66.95,74.58l.06.13c2.48,4.44,5.71,10.73,6.56,12.43,5.16,10.33,8.79,21.49,11.8,31.15a2.9,2.9,0,0,1,.1,1.14v1.43l-1.36.53a5.45,5.45,0,0,1-1.77.32Z"/></g><g id="Bar-Restaurant"><path class="cls-2" d="M566.83,99c-3,.52-5.37,1-7.79,1.36-.25,0-.62-.14-.76,0-1.49,1.32-3.19,1.27-4.94.79a12,12,0,0,1-2.28-1,.94.94,0,0,1,0-.85,1.43,1.43,0,0,1,1-.38c1.37.2,1.52-.31,1.28-1.54-.53-2.84-.89-5.7-1.32-8.56,0-.25,0-.52-.08-.77-.41-2.11-.92-4.2-1.21-6.33a4.63,4.63,0,0,0-3.34-3.92,10.23,10.23,0,0,1-1.94-1.13c2.64-1.27,4.76-2.54,7.12-1.27.52-.41,1-1.05,1.6-1.21,3-.79,6.1-1.44,9.14-2.2a2.26,2.26,0,0,1,2.58,2.26,2.83,2.83,0,0,0-.08,1.11c.41,1.7.89,3.37,1.35,5.08-2.51.48-2.64.29-4.21-5.53l-11,2c.49,2.52.92,4.75,1.46,7.57l4.92-.54c-.16-.6-.53-1.17-.38-1.52a7.74,7.74,0,0,1,1.28-1.67c.47.4,1.21.73,1.35,1.22.51,1.9.77,3.86,1.24,5.76.15.58.77,1,1,1.59a2.17,2.17,0,0,1,.06,1.4c0,.14-.71.12-1.1.16-.2,0-.41-.06-.61,0-1.65.25-2.36-.48-2.12-2.12a11.07,11.07,0,0,0,0-1.81l-4.76.75c.63,3.62,1.24,7.14,1.79,10.35,2.88-.62,5.58-1.29,8.31-1.76,1.37-.24,2-.71,1.74-2.15-.2-1.08-.31-2.18-.46-3.27,1.89-.55,2.63-.25,3.09,1.63a52,52,0,0,1,1,5.71,1.52,1.52,0,0,1-2.17,1.38A4.14,4.14,0,0,1,566.83,99Z"/><path class="cls-2" d="M764.06,140.1c2.05-2.54,3.86-4.8,5.69-7,1.33-1.61,2.71-3.19,4.06-4.79.86-1,2.12-2,.41-3.37a1.29,1.29,0,0,1-.13-1.22,1.49,1.49,0,0,1,1.35-.22,62.41,62.41,0,0,1,5.49,3.74c.27.2.2,1.35-.12,1.67a1.82,1.82,0,0,1-1.73.29c-2.25-1.45-2.71-1.27-4,1.06a23.5,23.5,0,0,1-3.49,4.7,41.56,41.56,0,0,0-6,7.71,16.67,16.67,0,0,1-2.06,2.55c-.21.23-.84.45-.94.34-.38-.38-.9-.92-.87-1.36.16-2.44.48-4.86.71-7.29.29-3.1.47-6.21.85-9.3A52.82,52.82,0,0,0,764,121c-1.15,1.55-2.28,3.11-3.46,4.64-2.13,2.76-4.35,5.45-6.4,8.26-.59.81-1.54,1.85-.18,3,.36.3.25,1.16.35,1.76-.48-.08-1-.35-1.43-.23-3,.88-3.59-2.55-5.75-3.18-.23-.07-.43-1-.28-1.34a1.43,1.43,0,0,1,1.17-.68,21.9,21.9,0,0,1,2.92.82L763.26,118a19.94,19.94,0,0,1-2.58-2.08,1.65,1.65,0,0,1,.14-2.68c.43-.26,1.66.31,2.18.84.79.79,1.2,1.77,2.6,2,.56.1,1.15,1.88,1.11,2.87a70.73,70.73,0,0,1-.81,7.67c-.34,2.36-.87,4.7-1.2,7.06C764.42,135.71,764.29,137.71,764.06,140.1Z"/><path class="cls-2" d="M435.33,164.67c-2.46-2.62-4.91-5.25-7.4-7.85-1.43-1.5-2.91-2.95-4.38-4.41a11.79,11.79,0,0,0-2.14-1.93c-.38-.22-1.12.14-1.68.3a7.38,7.38,0,0,1-1.93.63,1.79,1.79,0,0,1-1.24-1,1.64,1.64,0,0,1,.31-1.37,7,7,0,0,1,2.09-2.18c3.41-1.65,5.31-5.6,9.39-6.12a11.39,11.39,0,0,1,3.82.12c3.71.83,4.33,5.75,2,8.4a4.1,4.1,0,0,0-.32.85,11.2,11.2,0,0,1,2.4-1.42c4.38-1.09,8.19,1.86,8.72,6.33a6.28,6.28,0,0,1-2.21,6c-2.19,1.91-4.1,4.14-6.3,6.06-.47.41-1.62,0-2.46,0l.72-2.2Zm-5.2-9.52,7.71,7.67c.61-.63,1.29-1.24,1.88-1.94,1.2-1.42,3-2.44,2.76-4.78-.19-1.87-.4-4-2.09-4.72a7.32,7.32,0,0,0-5.19-.16C433.38,151.94,432,153.66,430.13,155.15Zm-1.79-1.65c1.31-1.64,2.57-3.16,3.75-4.73s1-4-.08-4.93a4.25,4.25,0,0,0-5.21-.05c-1.28,1.21-2.57,2.4-4.18,3.9Z"/><path class="cls-2" d="M526.6,106.69c-2.44-2.26-2.65-5-3.25-7.6-.88-3.81-2.23-7.51-3.39-11.26a2.72,2.72,0,0,0-.41-.63c-2.34,1.08-3.12.94-4-.87l2.13-.81,6.17-2.29a8.62,8.62,0,0,1,7.77.46c3.16,1.88,3.08,7.16-.07,9-.28.16-.53.36-.83.55,1.73,2.77,4.5,4.21,7,5.93,1,.67,1.88,1.45,3.1,2.39H544c.32,1.71-.24,2.46-1.75,2.73a14.1,14.1,0,0,0-3.39,1c-1.1.5-2.14.49-2.67-.46-.23-.41.56-1.39.95-2.24-1.47-1.17-3.29-2.58-5.07-4a9.57,9.57,0,0,1-1.22-1.4c-1.58-1.92-3.5-2.05-5.54-.85.55,2.44,1,5.13,1.82,7.71.24.75,1.42,1.27,2.27,1.72.47.25,1.4,0,1.65.27a3.41,3.41,0,0,1,.4,1.84,63.64,63.64,0,0,1-6.5,1.76c-.45.1-1.06-.56-1.6-.88a11.6,11.6,0,0,1,1.37-1.58C525,106.89,525.58,106.92,526.6,106.69Zm3.95-15c.35-1.59.69-2.76.85-4a2.54,2.54,0,0,0-.34-1.87,3.39,3.39,0,0,0-2.31-1.13c-2.21.34-4.37,1-6.68,1.62-.22,2.38,1.07,4.4,2,6.49a1.39,1.39,0,0,0,1.23.44C527.24,92.75,529.12,92.12,530.55,91.67Z"/><path class="cls-2" d="M702.21,98.19c-1.2,2.45-2.55,4.88-3.56,7.44a3.41,3.41,0,0,0,.79,2.66c.76,1,1.67,1.74.36,2.91a42.08,42.08,0,0,1-4.11-1.36A12.47,12.47,0,0,1,692.9,108a1.33,1.33,0,0,1-.26-1.29,1.57,1.57,0,0,1,1.28-.58,6.56,6.56,0,0,1,1.68.61l8.13-19c-1.51-.49-3.36-.69-2.66-3.24l2.28.8c2,.72,4,1.51,6,2.14a8.53,8.53,0,0,1,5.81,5.46c1.19,3.29-2.3,7.32-5.78,6.73a7.58,7.58,0,0,0-1.17,0,19.7,19.7,0,0,0,2.1,9.74c.35.77.05,1.83.05,2.77l2.67,2.49c-.84,1.24-1.74,1.59-3.12.82-1.16-.65-2.52-.94-3.65-1.63-.61-.37-.92-1.23-1.37-1.87l2-.65c.18,0,.37,0,.27,0-.38-2.75-.72-5.47-1.14-8.18-.18-1.15-.23-2.5-.88-3.35S703.17,98.65,702.21,98.19Zm7.82.23c-.29-2,1.65-1.77,2.35-2.69.39-.52,1-1.13,1-1.65a3.36,3.36,0,0,0-1-2.34c-1.92-1.17-4-2-6.57-3.26L703,95.9Z"/><path class="cls-2" d="M480.37,128.88c-1.32-2.53-2.53-4.89-3.79-7.22-1.85-3.43-3.73-6.85-5.61-10.27a6.45,6.45,0,0,0-.41-.61c-2.61,1.6-3,1.6-4.22,0,.53-.35,1.05-.71,1.58-1,2-1.23,4-2.41,5.91-3.67a8.39,8.39,0,0,1,7.7-1.08c3.36,1.19,4.39,6.31,1.77,8.71l-.88.83a43.07,43.07,0,0,0,4.21,3,29.29,29.29,0,0,0,3.81,1.25c1.18.45,2.3,1,3.81,1.75l3.07-.45c.46,1.37.28,2.33-1.17,2.93-1.16.48-2.2,1.25-3.38,1.67a9,9,0,0,1-2.45.22l.45-2.49-10-5.45-2.94,1.46c1.14,2.43,2.13,4.91,3.45,7.2a3.81,3.81,0,0,0,2.62,1.26c1.2.14,2.5-.25,2.67,1.46a39,39,0,0,1-3.84,2.57,11.62,11.62,0,0,1-3.26.92,1.2,1.2,0,0,1-1-.71,1.69,1.69,0,0,1,.39-1.35A6.41,6.41,0,0,1,480.37,128.88ZM482,112.94a40.41,40.41,0,0,0,.14-4.08,2.46,2.46,0,0,0-.8-1.74,3.46,3.46,0,0,0-2.47-.59c-2.09.79-4.07,1.89-6.56,3.1,1.31,2.16,2.63,4.33,4.09,6.75Z"/><path class="cls-2" d="M464.74,139.85l2.19-2c-1.85-1.23-4-2.61-6.13-4.09-1.45-1-2.48.2-3.5.7a12.18,12.18,0,0,0-2.92,2.52c-.34.34-.74.94-.66,1.32.6,2.75,1.31,5.47,2,8.39.6-.63.92-1.26,1.37-1.37a5.29,5.29,0,0,1,1.9.21c-.2.47-.27,1.08-.61,1.4a50.52,50.52,0,0,1-4.62,3.91,1.38,1.38,0,0,1-1.84-2.06,2.74,2.74,0,0,0,.92-3.16c-.87-3.6-1.9-7.17-2.83-10.76a10.21,10.21,0,0,1,0-2c-1.54-1.11-3.63-8.28-2.62-10.8,1.19.67,2.42,1.24,3.52,2,2.3,1.61,4.53,3.35,6.81,5a6.24,6.24,0,0,0,1.4.48,10.05,10.05,0,0,1,1.82.74c1.44.9,2.83,1.87,4.22,2.83a5.35,5.35,0,0,1,1.3,1,3,3,0,0,0,4.23.81,7.25,7.25,0,0,1,2.07-.41,12.84,12.84,0,0,1-.76,2.24,10.6,10.6,0,0,1-4.47,4C466.31,141.45,465.51,141.25,464.74,139.85Zm-15.07-14.13,3,9.59,3.91-4.35Z"/><path class="cls-2" d="M648.16,95.06l2.92.28a60.64,60.64,0,0,0-1.64-7.45c-.28-.86-1.76-1.56-2.82-1.88a14.46,14.46,0,0,0-3.85-.27c-.44,0-1.12.06-1.29.34-1.59,2.5-3.09,5-4.7,7.71a6,6,0,0,1,2.21-.07c.47.19.72.89,1.06,1.37a4,4,0,0,1-1.42.57,47.4,47.4,0,0,1-5.84-.47c-.6-.1-1.07-.94-1.61-1.44.59-.44,1.15-.92,1.77-1.31.87-.56,2.14-.83,2.63-1.6,2-3.19,3.79-6.52,5.7-9.78a7.49,7.49,0,0,1,1.3-1.27c-.36-1.49,3.62-8.58,5.75-9.57A33.73,33.73,0,0,1,649.47,74c.51,2.78.83,5.59,1.31,8.37.08.52.56,1,.79,1.47a8.28,8.28,0,0,1,.66,1.71c.36,1.65.68,3.3,1,5a6.42,6.42,0,0,1,.1,1.85,3.18,3.18,0,0,0,2.26,3.33c.73.23,1.93.88,1.88,1.22-.14,1.17-1.22.93-2.19,1.12a11.89,11.89,0,0,1-5.81-.41C648.22,97.3,647.65,96.71,648.16,95.06ZM647.53,75l-.37,0c-1.38,2.63-2.77,5.26-4.32,8.2h5.71C648.2,80.35,647.87,77.67,647.53,75Z"/><path class="cls-2" d="M734,124.93l2.65,1.28a70.16,70.16,0,0,0,1.12-7.74c0-.81-1.17-1.87-2-2.5a13.66,13.66,0,0,0-3.37-1.57,2.12,2.12,0,0,0-1.64,0c-2.24,1.62-4.39,3.36-6.83,5.26.79.21,1.47.19,1.72.51a7.26,7.26,0,0,1,.76,1.92,4.92,4.92,0,0,1-1.68-.06c-1.85-.79-3.69-1.62-5.45-2.59a1.75,1.75,0,0,1-.59-1.58c.15-.48,1.09-1.18,1.37-1,3.28,1.42,5.08-1.11,7.14-2.66,2.25-1.69,4.3-3.65,6.43-5.49l.49.59c1.87-3.71,5.27-5.5,8.39-7.63l.76.4c-.23,1.6-.4,3.21-.7,4.79-.49,2.57-1.89,5.29-1.41,7.64.64,3.14-1.67,5.68-.8,8.7.26.89-.89,2.15-.74,3.15s1.22,1.61,1.82,2.45c.27.36.64,1,.5,1.22-.28.39-1,.85-1.34.74-2.23-.68-4.67-1-6.32-2.89a8.89,8.89,0,0,1-1.06-2.36ZM740.56,106l-.44-.06-6.9,6.12,5.5,1.79C739.31,111.34,739.94,108.68,740.56,106Z"/><path class="cls-2" d="M671.58,77.64l-2.64-2.86c1.47-1.16,1.42-1.09,2.75-.16.57.4,1.47.31,2.08.67A13,13,0,0,1,675.7,77,13.45,13.45,0,0,0,674,78.07a2.83,2.83,0,0,0-.94,1.27c-1.24,4.73-2.5,9.47-3.58,14.25-.33,1.49-.35,3.14,1.17,4.31a7.55,7.55,0,0,1,1.19,1.52c1.76,2.3,4.23,2.3,6,0a32.47,32.47,0,0,0,2.41-3.46,25.74,25.74,0,0,0,1.83-4c.71-1.91,1.21-3.89,1.93-5.8a6,6,0,0,0-.45-5.73A9,9,0,0,1,683,78.8,8.6,8.6,0,0,1,689.74,80a6.93,6.93,0,0,1,1.31,1.68,13.32,13.32,0,0,1-1.9.65,5.18,5.18,0,0,1-1.29,0c-.78,2-1.58,3.83-2.21,5.71-.75,2.24-1.06,4.68-2.12,6.76a45.72,45.72,0,0,1-4.47,6.25,6.28,6.28,0,0,1-1.79,1.93,4.45,4.45,0,0,1-5.11-.58,34.31,34.31,0,0,1-3.08-2.83c-1.7-1.75-2.28-5.8-1.28-8.09.17-.41,0-1,.07-1.43.49-2.85.87-5.72,1.6-8.51A18.13,18.13,0,0,1,671.58,77.64Z"/><path class="cls-2" d="M789.24,134.65c1.45,1.64,2.82,3.39,4.42,4.9,1.07,1,2.65,1.5,3.67,2.54,1.15,1.19,1.83,2.83,2.9,4.12a35.25,35.25,0,0,0,3.46,3.16c-.12,2.17-2,4-4.69,5.62,0-.64,0-1.28,0-1.92a1.91,1.91,0,0,1,.3-.69c.92-1.75,1.1-3.37-.6-4.83a31.65,31.65,0,0,1-2.32-2.45c-2.53,2.57-5.12,5.17-7.68,7.79-2.26,2.32-4.49,4.66-6.81,7.07.76,1,2.56,1.53,1.58,3.27-2.7,0-5.68-2.64-5.75-4.9-2.07,0-1.28-1.41-1.41-2.83l3.57,2.06,3.57-3c.14-.12.34-.19.47-.32,2.44-2.54,4.86-5.11,7.33-7.63,1-1.07,2.15-2.06,3.51-3.35l-4.8-4.82c-2.06,1.17-3.62,2.08-5.21,2.93a3.17,3.17,0,0,1-1.13.13c0-.48-.19-1.14,0-1.38,1.06-1.06,2.28-1.93,3.35-3C787.89,136.35,788.61,135.38,789.24,134.65Z"/><path class="cls-2" d="M615.5,91.83c1.21-.11,2.7-.47,3.13,1.56-2,.85-3.83,1.68-5.94.59-1.34-.69-3.49.82-4.33-1.78l3.86-1c.42-6.44.87-13.24,1.34-20.51h-7.07c-.71,2.1-1.27,3.84-1.9,5.55a1.11,1.11,0,0,1-.78.65,1.07,1.07,0,0,1-.78-.69,24.07,24.07,0,0,1-.07-3.89c.11-1.32.45-2.62.75-4.2a20.38,20.38,0,0,0,10.63,0c2.16,1.4,7.18,1.77,9.14.48,1.8,2.26,1.83,4.8,1.18,8A8.44,8.44,0,0,1,623,75c-.48-.83-.5-2-1.14-2.62a6.1,6.1,0,0,0-2.9-1.13,27.58,27.58,0,0,0-3.71-.28c1.54,3.37-.39,6.63.1,10.06S615.5,88.1,615.5,91.83Z"/><path class="cls-2" d="M591,78a32.14,32.14,0,0,1-1.61-3.5c-.54-1.72-1.46-2.92-3.39-2.82-1.4.08-2.76-.49-4.2.6-1.61,1.21-1.44,2.54-1.1,4,.85,3.78,4.25,4.79,7.08,6.49a21.59,21.59,0,0,1,5.18,4.16c1,1.18,2.86,2.55,1.8,4.54-1.21,2.27-3.48,3.28-5.79,4.2-2.53,1-4.45,0-6.28-1.61a6.86,6.86,0,0,0-.91-.5,12.61,12.61,0,0,1-.77,1.82c-.24.39-.69.93-1,.91a1.72,1.72,0,0,1-1.14-.88c-1-2-.51-4-.07-6,.23-1,1.39-.78,2.31.14a35.22,35.22,0,0,0,4.54,4c1.36,1,3.72.17,5.45-1.73a3.12,3.12,0,0,0,.47-3.94,8.67,8.67,0,0,0-2.72-2.37c-2.15-1.36-4.44-2.52-6.59-3.87-3.06-1.92-4.68-7.37-3.1-10.1.88-1.53,4-2.45,6.29-2.08,1.26.21,2.55,1.5,4,.12a4.92,4.92,0,0,1,2.16,1.74C592.49,73.24,592.41,75.32,591,78Z"/><path class="cls-2" d="M499.19,110.17a28.22,28.22,0,0,1,3.36-2.17c2.67-1.27,5.4-2.39,8.12-3.57a2.64,2.64,0,0,1,1.08-.42,24.63,24.63,0,0,1,2.54.36c-.47.77-.76,1.93-1.45,2.26-3.26,1.53-6.6,2.94-10,4.17-1.05.39-2.36.06-3.56.06Z"/></g></g></g></svg>