<svg xmlns="http://www.w3.org/2000/svg" viewBox="0 0 418.8 486.51"><g id="Capa_2" data-name="Capa 2"><g id="Capa_1-2" data-name="Capa 1"><path d="M161.79,233.75c-4.2-3.77-7.46-6.85-10.88-9.74-18.38-15.5-30.83-34.54-37.26-58-8.48-30.94-4.1-60.13,9.35-88.54,2.38-5,6.25-5.87,11.84-2.7C155,86.18,175.1,97.65,195.25,109c4.05,2.29,8.25,4.33,13.27,7,.57-3.32,1.31-5.64,1.32-8q.16-45.91.14-91.83c0-2.25-.28-4.51-.44-6.76-.49-7,1.45-9.28,8-9.42,7.56-.17,9.38,1.91,9.32,9.42-.23,28.14-.27,56.29-.42,84.43,0,8.2.21,16.45-.45,24.61-.68,8.47,5.85,10.94,11.07,13.87,28.41,16,57.05,31.5,85.56,47.27,2.47,1.37,5.21,3,6.66,5.24,1.11,1.71,1.37,5.34.28,6.87-5.94,8.24-12.17,16.32-18.82,24-3.7,4.27-8.48,7.59-12.69,11.43-1.87,1.71-3.55,3.64-5.29,5.44.86.91,1.17,1.47,1.38,1.43a215.18,215.18,0,0,0,54.68-16c9.32-4.17,18.5-8.88,29.24-8.62,18.24.44,35.25,13.29,39.24,30,5,20.91-2.55,39.84-20.32,48.67-9.31,4.63-19.25,8-29.06,11.59-4.28,1.55-6.48,3.69-4.68,8.15,5.88,14.61,5.91,29.6,3.52,44.87-1.21,7.73-.71,8,7.13,7.83,4.52-.12,9-.36,13.55-.42s6.88,2.08,6.87,6.74c-.12,29.57.12,59.16-.45,88.72-.32,16.5-14.21,30.28-31.17,30.61-30.19.58-60.4.18-90.6.2q-105.4,0-210.81.12c-22.22,0-36.37-14.66-36.13-36.92.27-25.88,0-51.76,0-77.64,0-1.84.27-3.67.43-5.51.49-5.4,3.22-7.31,8.73-6.6a195.12,195.12,0,0,0,20.23,1.27c7.64.17,8.92-2.23,6.73-9.32-1.35-4.39-1.1-9.25-2-13.81-.52-2.65-1.89-5.13-2.88-7.68-2.31,1.05-4.66,2-6.92,3.16-7.7,3.94-14.06,10.7-23.78,10.26-10.9-.5-20.52-6.91-24.38-16.88-3.19-8.24-.36-20.66,7.52-26.93C26.28,286,43.36,271.33,62.2,259.54a149.83,149.83,0,0,1,70.69-22.9c8-.5,15.94-.88,23.9-1.4C157.93,235.16,159,234.59,161.79,233.75Zm49,143.84v0q-51.78,0-103.54,0c-19.1,0-38.21.23-57.31.18-6,0-8.22,2.32-8.13,8.51.32,21.77.07,43.54.18,65.32.06,10.47,8,18.16,18.38,18.23,2.87,0,5.75-.07,8.62-.07q144.23,0,288.43.05c12.45,0,19.92-7.4,19.95-19.85.05-21.57-.12-43.15.08-64.71.06-5.69-1.49-7.82-7.67-7.79C316.74,377.7,263.74,377.59,210.75,377.59Zm3.6-16.58v.11H337.63c4.33,0,7.93-.81,10-5.45,6.45-14.51,5.69-28.67-1.14-42.8-1.87-3.89-4.68-5.53-8.84-5.1-4.7.49-9.39,1.05-14.09,1.5-24.61,2.35-48.66-3.31-73-4.88-30.49-2-61.12-2.05-91.69-2.64-6.5-.13-8.93-1.43-9.38-7.51-.52-7.15.86-8.89,8.11-9,10.68-.17,21.37.2,32-.05,30.25-.69,60.39.37,90.24,5.73,38.74,6.95,75-.39,109.5-18.5,9.23-4.83,12.49-12.6,12.46-22.27,0-14.95-17.73-28-31.1-22.9-7.1,2.69-14.18,5.47-21.06,8.65a166.57,166.57,0,0,1-69.12,15.4c-40,.37-80.11.31-120.17.28-29.2,0-57.4,4.84-83,19.23C64.59,278,52.9,287.16,41,295.79a182.61,182.61,0,0,0-19.43,16c-2.26,2.17-4.4,6.83-3.53,9.26.93,2.59,5.29,4.57,8.52,5.48,1.78.5,4.44-1.54,6.53-2.75C48.31,315,63.3,305.66,78.8,297.32c14.69-7.9,31-10.71,47.42-12,8-.61,12.45,5.58,8.47,12.24-1.56,2.61-6.25,4.34-9.69,4.67A115.25,115.25,0,0,0,84.31,313.6,11.61,11.61,0,0,0,79,319.07a44.79,44.79,0,0,0-.27,33.62c2.18,5.7,6.38,8.32,12.36,8.32ZM231.78,234c14.14.19,28.64-4.91,42.77-12,11.31-5.68,19.69-14.6,28.46-23.22,2.78-2.73,5.54-5.08,1.22-9-5.65-5.12-9.59-6.16-13.15-2.22-11.05,12.22-23.72,21.89-39.69,26.87a82.17,82.17,0,0,1-47.28.92,83.41,83.41,0,0,1-40.21-24.8c-7-7.69-6.91-10.86,2.25-15.62,5.19-2.7,7.92.83,10.86,4,8.82,9.51,19.18,16.7,31.82,20,24.14,6.22,45.35.1,64-16,3.67-3.16,4.09-9.84.57-11.77-9.5-5.18-19.19-10-28.65-15.3Q208,135.34,171.39,114.61c-5.81-3.3-9-2.47-9.82,4.24a159.12,159.12,0,0,0-.91,23.71c.25,7.27-2.12,7.8-11.87,10-5.91,1.35-5.33-4-5.46-7.34-.48-12.06-1.69-24.18,3.39-35.82,2.11-4.84-1.42-10.88-6.34-12.21-5.17-1.4-8.37.85-9.84,7.21-1.57,6.79-3.69,13.57-4.28,20.47A100.43,100.43,0,0,0,231.78,234Z"/><path d="M285.71,428.49c-.14,6.4-2.79,8.7-9.89,8.58-5.76-.09-8.23-3-8.13-9.72.1-6.51,2.4-9,8.2-8.78C283.72,418.83,285.87,421,285.71,428.49Z"/><path d="M126.35,419.59c-.06,7.27-2.58,9.37-11,9.21-5.87-.12-6.89-4-6.85-8.75.05-7.36,1.86-9.28,8.83-9.25C124.94,410.82,126.4,412.24,126.35,419.59Z"/><path d="M335.86,419.94c-.12,7-2.85,9.19-10.77,8.84-5-.23-7.14-3.08-7-9.47.14-6.74,2.12-8.83,8.22-8.67C334.14,410.85,336,412.65,335.86,419.94Z"/><path d="M76.58,444.88c-7.54-.11-10.4-2.44-10.18-8.28.26-6.6,4.23-10,11.38-9.76,4.7.17,6.8,3.26,6.64,9.8S82.62,445,76.58,444.88Z"/><path d="M193.26,445.09c-6.8,0-9.55-2.23-9.41-7.51.19-7.34,3.1-10.6,9.56-10.75,5.42-.12,8.3,3.3,8.23,9.75S199.4,445.13,193.26,445.09Z"/><path d="M190.38,142.69c.49-.06,1.1-.15,1.72-.2,9.77-.72,13.26,3.62,9.69,12.84-.8,2.06-3.88,4.16-6.18,4.52-4.19.66-8.58.15-12.87-.12-5.73-.35-7.08-2.79-7.09-10.56,0-5.14,2.55-7,7.23-6.91C185.34,142.33,187.8,142.54,190.38,142.69Z"/><path d="M226.47,172.26c0,1.23,0,2.46,0,3.68.15,8.7-1.78,10.38-10.38,9.8-4.88-.33-7-2.35-6.56-7.39a78.38,78.38,0,0,0-.11-10.39c-.27-6.51,2.2-9.7,7.51-9.53,8.26.26,10.07,2.09,9.48,9.53-.11,1.43-.14,2.86-.21,4.29Z"/></g></g></svg>