<svg xmlns="http://www.w3.org/2000/svg" viewBox="0 0 469.94 281.71"><g id="Capa_2" data-name="Capa 2"><g id="Capa_1-2" data-name="Capa 1"><path d="M203.18,44.71c-1.55-5.5-3-10.48-4.34-15.51a38.24,38.24,0,0,1-1.05-6.29c-.37-4.22,2.63-6.62,6.48-4.8,5,2.35,9.68,5.24,14.49,7.92.72.4,1.4.9,1.88,1.21,1.05-3.43,1.8-6.72,3.06-9.8s4.26-3.89,7.2-2c1.38.88,2.66,1.9,4.22,3,4-4.12,7.9-8.23,11.95-12.15a59.13,59.13,0,0,1,6-4.65c1.48-1.11,2.93-2.31,5-1.2a5.63,5.63,0,0,1,3.14,5.46c0,6.9.41,13.83-1.73,20.56a3.13,3.13,0,0,0,.11,1c1.54-.16,3-.43,4.56-.46,4.63-.1,6.55,2.77,4.62,7-1.31,2.9-2.9,5.69-4.36,8.53-.25.49-.48,1-.81,1.68,3.55.31,6.82.52,10.07.88,14.19,1.54,28.42,2.77,42.54,4.76a335.12,335.12,0,0,1,84.84,23.17c19.8,8.43,38.4,19,53.13,35.17,8.91,9.79,15,21.07,15.68,34.47.62,11.88-3.57,22.48-10.6,32a96.12,96.12,0,0,1-25,23,8.81,8.81,0,0,0-3.31,3.5c-5.5,13.13-15.38,22.34-26.82,30.08-19.25,13-40.7,21-63.06,26.7-10.51,2.67-21.13,5.08-31.81,6.93-9.84,1.71-19.8,2.9-29.75,3.63-14,1-28,1.81-42.08,2-11.89.14-23.82-.46-35.68-1.29-11.43-.81-22.88-1.9-34.2-3.64-23.76-3.64-47.06-9.2-69.43-18.27-13-5.27-25.49-11.49-36.66-20.08-9.13-7-17-15.11-21.57-25.93a7.35,7.35,0,0,0-2.65-2.92c-11.43-7.63-22-16.16-29.41-28C.61,158.85-2,146.57,1.63,133.15c4.12-15.22,14.16-26.1,25.93-35.64C42,85.86,58.39,77.81,75.48,70.93a313.49,313.49,0,0,1,45.58-14.29c12.8-3,25.8-5.25,38.79-7.3,11.12-1.75,22.35-2.79,33.54-4.06C196.57,44.93,199.78,44.9,203.18,44.71ZM92.33,118.07a18.73,18.73,0,0,0-1.42,2.09c-3.85,7.61-7.64,15.24-11.49,22.84a10.44,10.44,0,0,0-.19,9.8c2.48,4.92,4.84,10,7.93,14.49,3.6,5.28,7.86,10.14,13.72,13.37,1-1,1.79-1.93,2.71-2.8a15.23,15.23,0,0,1,21.09-.47c3.77,3.27,5.67,7.58,6.74,12.25.39,1.75,1,2.05,2.64,2.23,4.09.44,8.07.8,11.79,3.4a151.71,151.71,0,0,0,17.32,10.11c10.35,5.35,21,9.93,33,10,10.66,0,21.08-1.08,31.17-4.71a8.06,8.06,0,0,1,4.15.16c6.31,1.43,12.54,3.2,18.88,4.43,13,2.53,24.29-1.69,34.44-9.69,2.41-1.9,4.93-3.65,7.39-5.49a12.14,12.14,0,0,0,2.32-1.93c2.15-2.69,3.71-6.08,6.35-8.08,9.9-7.48,21.29-9.51,33.4-7.57,9.39,1.5,14,7.87,12.6,17.2-.51,3.38-1.41,6.71-2.13,10.07,14.12-3.64,24.06-15.33,25-29.41.35-5.12,3.26-6.9,7.93-4.72,2.73,1.27,5.42,1.89,8.42.91,5.57-1.82,8.77-5.59,7.48-9.78a59.79,59.79,0,0,0-4.47-10.34c-2.05-3.9-4.82-7.45-6.68-11.42-2.68-5.73-4.81-11.7-7.35-18-6.58,11-12.59,14.26-20.42,11.65-7.47-2.49-11.42-8.75-10.72-17,.67-7.85,5.9-11.83,18.1-13.52a127,127,0,0,0-29.89-27.25c-1.17,3.45-2,6.47.32,9.62a4.47,4.47,0,0,1-.91,6.47c-2.15,1.64-4.34,1.34-6.33-1.15a12.72,12.72,0,0,1-2.33-4.29,20.38,20.38,0,0,1,.58-13.13c.7-1.85.46-2.81-1.34-3.62C315.08,71.62,308.22,68,301,65.23a179.2,179.2,0,0,0-37.93-9.42c-4.34-.63-8.81-1.71-13.06.88a6.91,6.91,0,0,1-4,.72c-2-.15-3,.74-4.14,2.27-3.32,4.54-7,8.77-13.31,8.8a84.25,84.25,0,0,1-11.35-.5,27.29,27.29,0,0,1-20.31-12.61c-30.28,4.14-58.06,14.33-81.31,35.2a8.12,8.12,0,0,0,.58.81c.22.19.48.32.71.51,6.65,5.66,8.79,12.81,7,21.23-.62,2.82-3.43,4.73-5.82,4.07s-3.77-3.18-3.09-6c1.53-6.24-.39-10.46-6.63-13.94L97.64,110c1.48,1.64,3,2.82,3.78,4.36.69,1.29.47,3,.86,4.53,1.64,6.19,3.55,12.17,10.49,14.68a4.39,4.39,0,0,1,2.33,5.63,4.81,4.81,0,0,1-5.88,2.55,19.37,19.37,0,0,1-11.84-10.52C95.37,127.1,94.05,122.63,92.33,118.07Zm50.59-56.58-.16-.46c-7.68,1.75-15.39,3.36-23,5.28C97.69,71.85,76.22,79,56.09,89.74c-14,7.48-27.16,16.13-37,28.86-9.7,12.5-13.46,26.06-6.67,41.27,4.65,10.44,12.47,18.28,21.32,25C47.62,195.53,63.3,203,79.61,209.16a330.75,330.75,0,0,0,48.69,14.05c10,2.12,20.12,4,30.26,5.45,9.11,1.35,18.29,2.32,27.47,3,13.61,1,27.25,2.2,40.88,2.22,17.55,0,35.12-.8,52.65-1.69a270.18,270.18,0,0,0,27.81-2.9c14.32-2.23,28.7-4.4,42.78-7.76a351.14,351.14,0,0,0,42.12-12.62c11.2-4.21,21.89-9.95,32.34-15.85,11.69-6.59,22-15.08,29.38-26.56,7.52-11.66,9-24,3.56-36.87-4.65-11-12.8-19.23-22-26.45-13.38-10.53-28.46-18.05-44.2-24.34a313.41,313.41,0,0,0-45.06-14C337.2,62.67,328,61,318.75,59.28c-3.7-.72-7.45-1.19-11.18-1.78A2.49,2.49,0,0,0,309,58.67a151.76,151.76,0,0,1,31.69,17.18,128.4,128.4,0,0,1,25.66,23.28c9,10.72,16.61,22.25,21.63,35.38,2.18,5.69,4.5,11.26,8.16,16.26a42,42,0,0,1,4.83,9.28c4.37,10.92.77,19.9-10.07,24.14-3.81,1.49-8.19,1.54-12.71,2.32a41,41,0,0,1-14.52,23.42,44.51,44.51,0,0,1-20.3,9.45c-2.9.53-6.31.39-8.57,1.92-8.59,5.8-17.31,6.91-26.58,2.19a30.49,30.49,0,0,1-11.84-11c-1.91-3-2-2.84-4.73-.84a105.7,105.7,0,0,1-11.13,7.44,41.49,41.49,0,0,1-17.63,5.52A79.52,79.52,0,0,1,233,220.73a11.36,11.36,0,0,0-5.32-.65c-5.89,1-11.66,2.89-17.58,3.62-8.51,1-17.13,1.42-25.6-.54-15.81-3.66-29.82-11.29-43.24-20-3.33-2.17-6.71-1.74-10-2.55-1.45,4-3.25,7.25-6.68,9.36-5.77,3.55-11.37,2-16.92-.54-8.24-3.78-11.44-9.62-10.36-18.43a2.91,2.91,0,0,0-1-2.31c-11-7.26-18.62-17.29-24.13-29-3.1-6.61-4.85-13.49-.92-20.55,1-1.86,1.76-3.89,2.63-5.83C86.76,104.78,106.23,82.2,133.5,66.6,136.6,64.83,139.78,63.19,142.92,61.49ZM415.53,209.65l-.58-.71c-.75.35-1.51.69-2.26,1.05a289.35,289.35,0,0,1-47.9,17.36A405.82,405.82,0,0,1,313.11,238c-19.9,2.76-39.91,5-60.05,4.83-20.3-.12-40.63-.28-60.91-1.32-12.9-.66-25.77-2.6-38.57-4.57-12.37-1.92-24.7-4.28-36.91-7.06a294.2,294.2,0,0,1-52.26-17.05c-2.87-1.25-5.71-2.56-8.57-3.85l-.5.7c3.61,3.25,7.07,6.69,10.85,9.72,13.88,11.12,30,18.14,46.56,23.88a309.59,309.59,0,0,0,52.06,12.67,387.74,387.74,0,0,0,58.74,5.5c17.17.14,34.39-.37,51.5-1.72,15.1-1.19,30.15-3.49,45.08-6.13a246.15,246.15,0,0,0,46.17-13.21c13.71-5.32,26.81-11.63,38.37-20.8C408.5,216.5,411.92,213,415.53,209.65Zm-88.85-19.18-.24-.6c-5.34,1.53-10.92,2.51-16,4.73-9.6,4.22-10.42,10.47-2.75,17.59,3.74,3.47,8,5.8,13.4,5.12,9.37-1.19,15.21-9.27,16.85-17.38,1-5.12-.43-7.41-5.26-8.57A60.6,60.6,0,0,0,326.68,190.47ZM210.11,56c5.1,3.15,10.5,3.86,16.1,3.54a9.07,9.07,0,0,0,4.2-.88c7.56-4.9,7.77-15.7.57-21.45a40.27,40.27,0,0,1-1.85,4.56,4.37,4.37,0,0,1-6.49,1.56,13.79,13.79,0,0,1-2.5-3.19c-2.45-3.77-8.22-8.51-12-9.56,2.15,5.83,4.21,11.45,6.3,17,1.42,3.8,1,5.24-2.46,7.22C211.42,55.16,210.86,55.52,210.11,56ZM122.87,194.71l.74-.3c-1.26-3.08-2.19-6.36-3.87-9.19-2-3.39-6.88-3.77-9.68-1.22-6.74,6.13-5.07,15,3.4,18.05l.82.28c5.06,1.55,8-.51,8.51-5.87C122.84,195.88,122.85,195.29,122.87,194.71ZM238,28.83l8.83,19.35c5-1.41,6.82-6.34,10.27-10.78a28,28,0,0,0-3.82.3c-2.34.58-4.7.17-5.53-2a7.74,7.74,0,0,1,.52-5.65,29.89,29.89,0,0,0,3.22-15.88Zm127.62,95a6.4,6.4,0,0,0-6.07-6.52,6.46,6.46,0,1,0-.48,12.9A6.42,6.42,0,0,0,365.62,123.83Z"/><path d="M368.08,281.71a17.05,17.05,0,0,1-4.25-.7,3.89,3.89,0,0,1-2.22-4.87c.56-2.19,2.28-3.06,4.52-3.44,6.07-1,12.24-1.79,18.12-3.51,9.9-2.91,18-8.89,24.95-16.44,2.23-2.43,4.71-2.78,6.81-.81,1.8,1.68,1.68,4.58-.23,6.74-10.69,12.08-24.12,19.23-39.86,22.19C373.45,281.34,370.91,281.42,368.08,281.71Z"/><path d="M83.49,50.77c.1,2.74-2.14,4.78-5.72,4.87a60.82,60.82,0,0,0-24.15,5.44c-5,2.33-9.57,5.79-14.38,8.63-1.61,1-3.5,2.28-5.1,2.09-1.38-.16-3.11-2-3.6-3.53-.37-1.13.58-3.2,1.59-4.19C40,56.47,49.6,52,60,49.35a166.65,166.65,0,0,1,16.82-3C80.59,45.83,83.39,47.84,83.49,50.77Z"/><path d="M256,114c.53,7.72-6,14.41-14,14.35a14.18,14.18,0,0,1,0-28.36C250.92,100,256.55,107.81,256,114Zm-13.81-4.89A5.06,5.06,0,0,0,237,114a4.88,4.88,0,0,0,4.9,5.07,5.08,5.08,0,0,0,5.22-4.85A5.25,5.25,0,0,0,242.15,109.1Z"/><path d="M159.19,163.57c7.42-.63,14.75,6.8,14.14,15.08a14.18,14.18,0,0,1-28.3-1.82A14.07,14.07,0,0,1,159.19,163.57Zm-.07,18.92a5.06,5.06,0,0,0,5.23-5.06,5.78,5.78,0,0,0-4.91-5,5.41,5.41,0,0,0-5.27,5.09A4.75,4.75,0,0,0,159.12,182.49Z"/><path d="M147.92,87.56a12.58,12.58,0,0,1,13-12.46,12.77,12.77,0,0,1,12.34,14c-.34,6-6.54,11.88-12.74,11.77A12.93,12.93,0,0,1,147.92,87.56Zm12.62,3.94a3.77,3.77,0,0,0,3.79-3.63,3.93,3.93,0,0,0-3.88-3.61c-2.23.12-3.28,1.56-3.52,3.56A3.5,3.5,0,0,0,160.54,91.5Z"/><path d="M311.75,134.24c-1.16-1.11-2.8-2.08-3.49-3.5-1-2-.24-3.86,1.7-5.28,6.36-4.64,12.78-9.21,18.89-14.16,3.95-3.21,8-6.52,9.92-11.58a4.44,4.44,0,0,1,8.27,3.11c-.92,4.42-3.87,7.66-7.08,10.44-6.22,5.41-12.72,10.5-19.16,15.65a57.63,57.63,0,0,1-5.51,3.77A28.43,28.43,0,0,1,311.75,134.24Z"/><path d="M222,142.3c3,.68,6.07,1.17,9,2.1s3.61,3,2.68,6c-.57,1.83-3.31,3.12-5.53,2.4-9.95-3.23-17.29,1.25-23.88,8a21.1,21.1,0,0,1-2.18,2.34,4.45,4.45,0,0,1-6.36-6.1C201.8,149.22,210.94,142.83,222,142.3Z"/><path d="M282.48,141c1.68.38,3.83.26,4.9,1.27a6.56,6.56,0,0,1,1.49,4.86c-.23,2-1.91,3.1-4.24,3.11-4.82,0-9.66.48-13.23,4.17a29.73,29.73,0,0,0-4.32,6.42c-1.52,2.75-3.41,3.88-5.76,3-2.84-1.09-3.7-3.15-2.64-6.39C261.77,148,271.54,141.36,282.48,141Z"/><path d="M200.91,185.29a33.64,33.64,0,0,1,20.36,8.65c1.8,1.57,1.81,3.79.1,5.74a4.86,4.86,0,0,1-6.34.72c-2.83-1.7-5.6-3.51-8.56-4.93a9.24,9.24,0,0,0-8.4-.09,4.37,4.37,0,0,1-5.79-2.25,4.44,4.44,0,0,1,2.14-5.93A60.72,60.72,0,0,1,200.91,185.29Z"/><path d="M268.61,179.88c4.63.16,6.63,1.37,6.76,4.31.11,2.66-1.7,4.44-4.35,4.71a48.76,48.76,0,0,0-10,1.6c-2,.65-3.81,2.45-5.19,4.15-1.76,2.17-4,3.23-6.24,2.09-2.38-1.22-3.11-3.84-1.79-6.52,3-6.13,8.59-8.35,14.78-9.54C264.57,180.31,266.6,180.14,268.61,179.88Z"/><path d="M222.51,70.38c4.55.47,8.8,1.69,11.86,5.57,1.73,2.2,1.26,4.23-.47,6s-4,2-5.69.23c-4.13-4.1-8.41-2.82-12.8-.75a29.74,29.74,0,0,1-3,1.63A4.25,4.25,0,0,1,206.92,81a4,4,0,0,1,1.21-5.63A26.5,26.5,0,0,1,222.51,70.38Z"/><path d="M316.37,151.6c3.16,1.71,6.45,2.75,8.69,4.89a58,58,0,0,1,7.82,10.09,4.41,4.41,0,0,1-1.32,6.54c-2.35,1.34-4.55.56-6.4-2s-3.81-5.13-5.79-7.63c-1.2-1.51-2.72-1.65-4.68-1.45a6.72,6.72,0,0,1-4.68-1.71,3.41,3.41,0,0,1,.15-5.19C311.84,153.7,314,152.89,316.37,151.6Z"/><path d="M145,145.69c-.3-7.07,8.39-15.55,14.17-17.73a4.2,4.2,0,0,1,5.62,2.35c.94,2.15.18,4.14-1.77,5.61s-4.49,2.91-6.07,4.89a14.51,14.51,0,0,0-2.9,6.66c-.51,3.56-1.69,5.59-4.45,5.61s-4.49-2.08-4.6-5.54C144.94,147.15,145,146.76,145,145.69Z"/><path d="M377.65,158.42c-.25-.12-1.3-.56-2.27-1.12-3.54-2-5.52-1.6-7.83,1.83-.65,1-1.19,2-1.86,2.94-1.55,2.2-3.6,2.71-5.81,1.43s-3-3.06-1.95-5.61c4.17-10.52,14.62-13.83,23.28-7.34,1.67,1.25,2.37,2.75,1.66,4.74S380.88,158.62,377.65,158.42Z"/><path d="M294.45,118c-4-.76-8.05-1.17-11.88-2.38-2.6-.81-5.18-2.44-4.93-6,.22-3.25,3.93-5.35,6.57-3.41a13.19,13.19,0,0,0,8.47,2.3q4.26-.08,8.5,0c2.84,0,4.55,1.6,4.62,4.13a4.57,4.57,0,0,1-4.25,4.65,3.75,3.75,0,0,1-.58,0h-6.44Z"/><path d="M109.69,161.26c-2.38.24-4.91.11-5.47-2.58-.34-1.64.08-4.35,1.19-5.18A9.68,9.68,0,0,1,111.7,152c7.1.77,12.4,4.78,16.5,10.42a4.49,4.49,0,0,1-1.2,6.6c-1.82,1.18-4.5.49-6.12-1.52C118,164,114.74,161,109.69,161.26Z"/><path d="M200.49,113.06c1.65.24,3.39.38,5.08.77,2.57.59,3.68,2.38,3.43,5a3.77,3.77,0,0,1-4.2,3.79c-2.51,0-5-.17-7.52,0A6.19,6.19,0,0,0,192,126a4.29,4.29,0,0,1-6,1.81,4.73,4.73,0,0,1-1.74-6.07c1.85-4.57,5.67-6.7,10.09-7.89A43.91,43.91,0,0,1,200.49,113.06Z"/><path d="M149,108.69c-.54,1.4-.72,3.25-1.73,4.08a6.75,6.75,0,0,1-4.64,1.31c-2-.25-3-1.92-3-4.08.13-4.5-1-8.11-5.86-9.81-2.35-.83-3.09-3.79-2.07-5.92a4.59,4.59,0,0,1,5.87-2.21C144.29,94.28,148.59,100.7,149,108.69Z"/><path d="M300,72.16c.09,4,2.56,6.45,5.59,8.56,3.3,2.29,4.05,5.14,1.59,7.42a5.39,5.39,0,0,1-4.33,1.27c-6.33-1.89-12.17-10.8-11.69-17.26.32-4.38,3.84-6.73,7-4.46,1.2.86,1.71,2.67,2.53,4Z"/><path d="M275.39,74.85c-1.37,6-3.27,12.26-9.25,16.24-2.82,1.88-5.67,1.54-7.21-.66s-.75-4.7,2.21-6.78c3.57-2.51,4.37-6.46,5.37-10.3a4.43,4.43,0,0,1,5.19-3.53C274.17,70.22,275.32,71.84,275.39,74.85Z"/><path d="M180.18,76.38c.39-6.66,3.36-11.32,8.61-14.44,2.18-1.29,4.38-.6,5.89,1.46s1,3.84-.6,5.5c-.82.82-1.81,1.48-2.59,2.33-1.68,1.83-2.81,3.72-2,6.49,1,3.13-.34,5.59-2.74,6.12-3.22.72-5-.5-5.93-4.22C180.53,78.42,180.34,77.18,180.18,76.38Z"/><path d="M75.5,180.1c-1.18,3-2,6.19-3.63,8.87-2.67,4.32-7.42,5-11.67,3.81-6.33-1.79-12.13-5.1-15-11.54-3.14-7,1.69-15.67,9.91-18.09,11.82-3.46,18.69,5.25,19.58,14.29a22.81,22.81,0,0,1,0,2.34Zm-9.61-1.18c-.38-2.42-.81-5.68-3.94-7.23-2.7-1.33-5.08.16-7.09,2-2.38,2.19-2.4,3.9.12,6a30,30,0,0,0,5.29,3.58C64,185.26,65.92,183.92,65.89,178.92Z"/></g></g></svg>