<svg xmlns="http://www.w3.org/2000/svg" viewBox="0 0 390.72 295.62"><defs><style>.cls-1{fill:#757575;}</style></defs><g id="Capa_2" data-name="Capa 2"><g id="icon"><path class="cls-1" d="M376.46,93.29c-17-19.84-34.79-18.65-54.86-8.11a51.22,51.22,0,0,0-1.21-12.6,18.27,18.27,0,0,0-3.66-7.38c21.55-17.28,1.79-55.21-24.29-46.55-3.33-8.8-13-15.48-22-17.08-11.68-2.08-20,3.87-28.27,10.82-17.34-25.54-64.19-8.33-62.71,22-15.19,0-21.06,15.62-10,24.92a13.48,13.48,0,0,0-5.37,9.31c0,.08,0,.15,0,.23a3,3,0,0,0-.13.7c.43,67-1.24,134.06,1.34,201,.21,5.41-.75,12.24,3.6,16.35,6.81,6.44,23.19,5.47,32,6.41a427.23,427.23,0,0,0,99.3-1.11c22.13-2.83,17.1-15.41,17.67-35.9,0-1.05.07-2.1.1-3.16,12.21,6.9,31.06,7.57,42.39.91,25.23-14.84,27.54-50.34,29.14-76.33C391,152.73,394.07,113.86,376.46,93.29ZM171,70c3.18-12.62,61.14-7,72.67-6.9,17.68.06,44.53-4.3,61,2.65,10.6,4.47,10,18,9.08,29.88a550.63,550.63,0,0,0-82.93-2.12c-19.89,1-40-1.76-59.79.4C171.06,86,171.06,78,171,70Zm149.22,60.92a3,3,0,0,0,2.28-.49c9.23-6.11,24.76-5.23,28.79,5.87,2.48,6.82,2.24,17.57,2.37,24.9.18,9.76-1.58,21.07-2.94,30.88-1.22,8.82-2.29,19.7-12.18,22.54a26.92,26.92,0,0,1-19.34-2c.55-18.29,1-36.58,1.08-54.87C320.33,148.8,320.28,139.87,320.23,130.93ZM182.53,41.57a3.57,3.57,0,0,0,4.33-4.32c-5.72-27,39.2-42.25,51.4-17.71,1.08,2.17,3.92,2.07,5.52.71,6-5.08,12.68-11.84,21.11-12.21,9-.4,20.39,7.09,21.78,16.3.36,2.38,3.37,3,5.17,2.1,21.76-11.22,35.87,22,19,34.2-5.7-2.8-13-3.29-19.78-3.77-26-1.82-52.49-.87-78.57-.6-8.63.09-23.92-2.86-35.06-.44C172.54,51.65,172.1,39.49,182.53,41.57ZM306.07,284.3c-4.35,3.43-23.37,2.74-29.76,3.2q-12,.86-24,1.06a424.78,424.78,0,0,1-48-2c-7.88-.78-19.73.5-26.28-3.44-8.35-5-5.76-14.84-6-23.06-1.3-53-.92-106.11-1-159.17,21.74-2.75,44.62.27,66.51-.69a516.93,516.93,0,0,1,75.68,2.41c-.07,1.24-.13,2.45-.14,3.58-.07,15,.13,30,.13,45,0,30.46-1.18,60.91-2,91.35C310.93,253.3,315.21,277.08,306.07,284.3ZM382.8,171.15c-.81,20.49-1.6,45-12.59,62.91-9.89,16.14-36,24.49-52,10.76l.75-24.61c9.62,3.73,23.49,3.6,31.22-3,4.38-3.75,6-9.86,6.93-15.24a235.25,235.25,0,0,0,3.73-37.81c.09-10.34,1.05-31.2-7-39s-24.44-6.7-33.62-1.45c0-3.7,0-7.41,0-11.12,0-5.7.72-12.46,1.15-19.22C332,87.11,342.48,81.26,354.91,86c10.15,3.84,18.07,12.68,22,22.45C384.39,126.86,383.57,151.51,382.8,171.15Z"/><path class="cls-1" d="M240.16,114.63c-9.7,3.76-9,23.57-9.64,31.3-1.59,18.85-2.81,37.77-2.93,56.69,0,8.74-4.41,73.28,17.09,64.88,8.19-3.2,6.51-16.65,6.85-23.4,1.14-22.21,2.29-44.43,3.21-66.65C255,170.3,259.77,107,240.16,114.63Zm7.4,66c-1,22.56.8,47.93-3.38,70.09a7.7,7.7,0,0,1-2.17,7.06c-1.63,4.22-2.7,3.87-3.18-1-3-4.51-3-15.82-3.35-20.18-1-11.26-.85-22.62-.86-33.92.14-20.6,1.28-41.36,3.38-61.86.46-4.44-1.05-16.79,6.77-15,2.5.57,3,15.13,3.18,17.8C249,155.82,248.11,168.36,247.56,180.62Z"/><path class="cls-1" d="M197.63,114.63c-9.7,3.76-9,23.57-9.65,31.3-1.58,18.85-2.8,37.77-2.93,56.69,0,8.74-4.4,73.28,17.09,64.88,8.2-3.2,6.51-16.65,6.86-23.4,1.13-22.21,2.28-44.43,3.21-66.65C212.5,170.3,217.24,107,197.63,114.63Zm7.4,66c-1,22.56.8,47.93-3.39,70.09a7.72,7.72,0,0,1-2.16,7.06q-2.46,6.33-3.19-1c-3-4.51-2.95-15.82-3.34-20.18-1-11.26-.86-22.62-.86-33.92.13-20.6,1.27-41.36,3.38-61.86.46-4.44-1.06-16.79,6.77-15,2.5.57,2.95,15.13,3.17,17.8C206.43,155.82,205.57,168.36,205,180.62Z"/><path class="cls-1" d="M282.7,117.21c-9.7,3.76-9,23.57-9.65,31.29-1.58,18.86-2.81,37.78-2.93,56.7,0,8.74-4.4,73.28,17.09,64.88,8.2-3.21,6.51-16.65,6.86-23.4,1.13-22.21,2.28-44.43,3.21-66.65C297.57,172.88,302.31,109.61,282.7,117.21Zm7.4,66c-1,22.56.8,47.92-3.39,70.09a7.7,7.7,0,0,1-2.16,7q-2.46,6.35-3.19-1c-3-4.51-2.95-15.82-3.34-20.18-1-11.27-.86-22.62-.86-33.92.13-20.61,1.27-41.36,3.38-61.86.46-4.44-1.06-16.79,6.77-15,2.5.57,2.95,15.13,3.17,17.8C291.5,158.39,290.64,170.94,290.1,183.2Z"/><path class="cls-1" d="M350,92.13c-4.36-1.27-6.22,5.52-1.87,6.78,11.25,3.27,15.18,13.5,17.18,23.93.85,4.44,7.64,2.56,6.79-1.87C369.57,107.94,363.68,96.11,350,92.13Z"/><path class="cls-1" d="M336.12,92.36c-4.53,0-4.53,7,0,7S340.66,92.36,336.12,92.36Z"/><path class="cls-1" d="M110.51,217.67c.17-19,.8-38,.52-57-.14-9.19-.93-18.51-4.3-27.16-3.55-9.11-12.43-13.69-15.6-20.32C86.2,102.9,86.4,85.42,84.57,74.25,82.43,61.12,80,47.91,78.74,34.64c1.35-1.57,3.73-2.86,4.8-4.89,1.42-2.71,0-5.45-1.6-7.92.78.05,1.63.12,2.66.21,2.45.23,3.77-2.42,3.39-4.45-.88-4.65-2.48-11.31-6.52-14.28C75.71-.93,64,.71,57.38.57,50.5.43,37.47-1.3,31.05,2.26c-5,2.77-7,9.79-8.27,15a3.27,3.27,0,0,0,.62,2.93,3.14,3.14,0,0,0,3.18,1.43h.15c.13,0,.24,0,.38,0a14.28,14.28,0,0,1,1.58-.32c-1.3,2.86-2.92,6.14-1.5,9a13.36,13.36,0,0,0,2.69,3.21c.58.57,1.19,1.11,1.77,1.68l.23.26c-2.27,24.42-7.29,48.77-11.45,72.91C18.93,117,13.2,118.35,8.67,126.3c-5.31,9.34-7,20.44-7.5,31-1.59,36.95-1.51,75-.07,111.93,1.1,28.35,26.52,26.29,48.49,25.81,18.49-.41,56.63,6.4,60.4-19.73C112.65,256.89,110.34,236.29,110.51,217.67ZM81.79,103a318.52,318.52,0,0,1-53.49.85c2.37-13.75,4.93-27.57,7.11-41.43,13.34,1.5,26.51.52,39.82-.87C77,72.46,79,83.37,80.8,94.24,81.23,96.83,81.48,99.86,81.79,103ZM44.07,22.76c3.33-.06,4.92-1.13,6.65-.92,2.61.3,4.86,1.7,7.52,1.52a26.26,26.26,0,0,0,6.36-2.23c.69.31,2.42.78,2.82,1a15.91,15.91,0,0,0,3.86,1.64,5.08,5.08,0,0,0,3.11-.37,19.4,19.4,0,0,0,2.31,3.41l.11.21c-.13.16-.26.33-.34.41-.42.4-.86.77-1.31,1.14-.09,0-.17,0-.26,0-12.76,2.36-26.28,2-39.11.53h0a20.48,20.48,0,0,0-1.93-1.68s0-.05,0-.08c.12-.36.24-.7.38-1,.61-1.58,1.3-3.13,1.91-4.72A30.2,30.2,0,0,0,44.07,22.76ZM38.8,36.37A141.71,141.71,0,0,0,71.86,36c.61,6.2,1.41,12.39,2.32,18.57-12.6,1.3-25.07,2.14-37.7.85C37.39,49.08,38.19,42.73,38.8,36.37ZM57.38,7.61c4.88.09,11.72-.58,16.39.77a8.67,8.67,0,0,1,6.21,6,10,10,0,0,0-3.65.09,11.38,11.38,0,0,0-2.94,1.78,3.52,3.52,0,0,0-.67.54C70.43,16,67.81,14,65.34,13.9s-6.76,2.48-8,2.51c-.93,0-5-1.88-7.17-2s-6.1,1.51-7.29,1.42-4.83-2.47-7-2.74a15.92,15.92,0,0,0-3.62.11C37.44,6.15,47.8,7.42,57.38,7.61Zm46.43,172.73q-.28,32.16-.58,64.32c-.08,8.25.45,16.79-.23,25-1.32,16.16-15.65,17.74-30,17.9-15.27.16-34.95,3.91-49.64-.12C8.42,283.38,8.13,274.13,8.13,262.31c0-34-.83-68,0-102a87.7,87.7,0,0,1,1.74-16.86c2.37-10.74,8.6-15.86,14.48-24.08,1.77-2.48,2.43-5.5,2.89-8.61a319.07,319.07,0,0,0,55.46-.87,29.22,29.22,0,0,0,2,7c.47,1,.41,1.91,1.14,2.89,3.12,4.19,7.77,4.78,11.08,9.55,2.7,3.87,4.14,8.62,5.25,13.15C105.12,154.63,103.92,168,103.81,180.34Z"/><path class="cls-1" d="M54.51,156.28a2.84,2.84,0,0,0-.67.14,2.28,2.28,0,0,0-.27,0c-48.77,6.91-48.34,111.4,4.78,104C109.2,253.39,106.53,155.81,54.51,156.28Zm2.85,96.85C13.41,257.44,15,170,54.78,163.33,98,163.3,99.11,249,57.36,253.13Z"/><path class="cls-1" d="M23.11,159.86a36.56,36.56,0,0,1,10.54-20.47c3.23-3.19-1.75-8.16-5-5A42.88,42.88,0,0,0,16.32,158C15.59,162.42,22.37,164.33,23.11,159.86Z"/><path class="cls-1" d="M36.84,132c4.52,0,4.53-7,0-7S32.3,132,36.84,132Z"/></g></g></svg>