<svg xmlns="http://www.w3.org/2000/svg" viewBox="0 0 474.17 188.51"><defs><style>.cls-1{fill:#757575;}</style></defs><g id="Capa_2" data-name="Capa 2"><g id="Capa_1-2" data-name="Capa 1"><path class="cls-1" d="M141.14,0c7.71.63,17.12.93,26.37,2.29C177.66,3.78,187.72,6,197.72,8.35c17.68,4.1,35.28,8.59,52.94,12.75,13.56,3.2,27.14,6.31,40.78,9.13,7.33,1.52,14.79,2.5,22.22,3.48s14.85,1.74,22.29,2.47c3.34.33,6.71.44,10.08.5,11.64.18,23.3.06,34.93.51A136.21,136.21,0,0,1,411,42a122.78,122.78,0,0,1,44.44,21.77A54.71,54.71,0,0,1,470,80.08c4.57,8.26,5.12,17,2.87,26.11a11.05,11.05,0,0,0-.31,2.69c0,10.39-.27,20.79.09,31.16.17,4.76-1.9,8.1-4.69,11.38-10.83,12.69-25.1,20.18-40.18,26.37a145,145,0,0,1-35.28,9.35,156,156,0,0,1-30.83,1.06,186.1,186.1,0,0,1-26.7-3.55c-11.45-2.39-22.65-5.93-34.06-8.57-9.27-2.13-18.66-3.73-28-5.44-7.18-1.31-14.38-2.56-21.61-3.58-8.74-1.23-17.34-3.6-26.31-3.19a87.67,87.67,0,0,0-17.56,2.43,151.87,151.87,0,0,1-15.18,2.63c-6.28.92-12.57,1.72-18.87,2.44-4.86.56-9.73,1-14.61,1.31-8.12.41-16.24.81-24.36.87a213.25,213.25,0,0,1-34.66-2.83C78.33,167.35,58.3,160,39.23,149.93a91.62,91.62,0,0,1-24.49-18.18C8.72,125.3,4.27,118,3,109.14c-.6-4.15-.61-8.38-1-12.57C1.42,89.27.71,82,.13,74.66a37.55,37.55,0,0,1,3-18.08C8.05,45,16.53,36.63,26.63,29.67A129.91,129.91,0,0,1,63.25,12.35C73.51,9.27,83.93,6.57,94.43,4.43c8-1.63,16.29-2.3,24.47-3.08C125.73.7,132.6.5,141.14,0ZM369.42,149.72a134.15,134.15,0,0,0,31.5-3.34,139,139,0,0,0,33.71-12.44c9.2-4.8,17.75-10.46,24.66-18.41a28.67,28.67,0,0,0-1.36-39,96.49,96.49,0,0,0-27-19.06,122.88,122.88,0,0,0-42.12-11.82c-8.5-.82-17.06-1.17-25.59-1.27-11.92-.13-23.84.1-35.7-1.32-7.5-.9-15.06-1.37-22.48-2.66-13.05-2.26-26.1-4.67-39-7.63-20.38-4.68-40.6-10-61-14.81-18-4.24-36-8.85-54.75-9.6a252.91,252.91,0,0,0-36.94,1.11c-8.34.89-16.63,2.46-24.87,4.11C69.85,17.28,52,23.19,35.6,33c-9.67,5.81-18.39,12.81-23.71,23.12S6.11,76.76,12,87.05c4,7,9.84,12.32,16.23,17,10,7.4,21.18,12.76,32.72,17.31,14.06,5.54,28.45,9.93,43.57,11.35,9.25.87,18.52,1.7,27.8,2,7,.22,14-.37,21-.76,5.51-.31,11-.79,16.52-1.37,5.19-.54,10.37-1.22,15.54-2,5.84-.87,11.65-2,17.48-2.88s11.48-1.86,17.24-2.54c10.24-1.21,20.12,1.58,30.1,3q15.66,2.29,31.2,5.4c10.74,2.17,21.51,4.36,32,7.38C331.6,146.22,350,149.78,369.42,149.72ZM465,121.25l-.53-.31a5.18,5.18,0,0,1-.77,1.19c-4.67,4-9.14,8.23-14.1,11.79-8.23,5.91-17.4,10.11-26.85,13.77a136.49,136.49,0,0,1-43,9.38c-8.24.39-16.52-.07-24.78-.34-11-.38-21.68-2.67-32.3-5.28-12.24-3-24.41-6.29-36.68-9.15-6.61-1.55-13.35-2.52-20.05-3.66s-13.32-2.13-20-3.23c-5.21-.86-10.38-2.23-15.63-2.57a80.18,80.18,0,0,0-26.55,2.63,21.39,21.39,0,0,1-2.86.61c-10.75,1.44-21.49,3-32.28,4.21-8.9,1-17.84,1.69-26.79,2a219.17,219.17,0,0,1-45.17-2.79,186,186,0,0,1-30.94-8.09,193.42,193.42,0,0,1-29.64-13.2,99.47,99.47,0,0,1-19.32-13.55c-2.23-2.06-4.22-4.37-6.33-6.56l-.75.37c.5,4.13.65,8.33,1.58,12.36,2,8.71,7.79,15,14.29,20.64C33.18,138.06,41.88,143,51,147.27c20.48,9.7,41.93,16,64.53,17.76a257.86,257.86,0,0,0,30.45.63c11.7-.48,23.4-1.69,35-3.1,9.37-1.13,18.64-3.06,28-4.53,2.53-.39,5.23,0,7.69-.61,7.93-2,15.84-1.34,23.71-.13,10.5,1.62,21,3.49,31.43,5.36,9.43,1.68,18.91,3.21,28.25,5.34,12.15,2.78,24.16,6.21,36.29,9.13a158.3,158.3,0,0,0,45.42,3.17,147.69,147.69,0,0,0,16.42-1.78,141.29,141.29,0,0,0,40.54-14.22,84.25,84.25,0,0,0,21.45-15.55c3.2-3.31,5.79-6.79,4.85-11.8a20.35,20.35,0,0,1,0-3.58Z"/><path class="cls-1" d="M150.85,21.39c-.75,1.28-1.07,2.33-1.78,3C144,29,138.77,33.62,133.61,38.23l-25.69,23q-10.1,9-20.21,18c-1.43,1.28-3.19,1.9-4.8,1A5.07,5.07,0,0,1,80.78,77a4,4,0,0,1,1.29-3c5-4.58,10.13-9,15.2-13.54,4.44-4,8.82-8,13.27-11.94q12.39-11,24.83-22c2.83-2.51,5.59-5.1,8.43-7.59,1.3-1.15,2.95-1.62,4.43-.59A16.13,16.13,0,0,1,150.85,21.39Z"/><path class="cls-1" d="M345,56a16.47,16.47,0,0,1-2.12,3.29c-6.23,5.63-12.55,11.18-18.83,16.76q-6.57,5.85-13.14,11.73L286,110c-1.67,1.49-3.32,3-5.06,4.4a3.75,3.75,0,0,1-5.39-.48,4.1,4.1,0,0,1,.75-5.6q12.48-11.07,24.94-22.19c8.32-7.39,16.69-14.73,25-22.13,3.76-3.34,7.43-6.79,11.19-10.14,1.27-1.13,2.79-2.21,4.49-1.07A21.4,21.4,0,0,1,345,56Z"/><path class="cls-1" d="M413.68,59.94c-.8,1.34-1.17,2.46-1.94,3.16-5.23,4.74-10.56,9.39-15.84,14.08-6.07,5.4-12.11,10.83-18.18,16.22-5.66,5-11.35,10-17,15-3.29,2.93-6.54,5.91-9.83,8.86-1.42,1.27-2.88,2.45-5,1.55-2.62-1.11-3.37-4.13-1.3-6.12,3.12-3,6.37-5.89,9.61-8.78,4.7-4.19,9.44-8.33,14.15-12.51Q380.18,80.89,392,70.34c4.86-4.32,9.74-8.62,14.57-13a3.57,3.57,0,0,1,4.6-.54C412.21,57.5,412.81,58.82,413.68,59.94Z"/><path class="cls-1" d="M142.15,87.48c.74-1.39,1-2.55,1.78-3.23,4.33-4,8.77-7.82,13.16-11.73q8.39-7.45,16.77-14.93Q186,46.85,198,36.14c2.56-2.28,5.05-4.64,7.61-6.92a3.89,3.89,0,0,1,5.77.13c1.46,1.63,1.26,3.77-.55,5.56-.8.79-1.61,1.57-2.45,2.31-4.35,3.85-8.73,7.66-13.07,11.52q-8.94,7.95-17.84,15.94L160.1,80.19c-3.65,3.25-7.3,6.51-11,9.71-1.23,1.07-2.78,1.59-4.22.57A19.13,19.13,0,0,1,142.15,87.48Z"/><path class="cls-1" d="M282.37,45.54a6.33,6.33,0,0,1-1.12,1.9c-5,4.57-10.08,9.07-15.12,13.59-4.43,4-8.85,8-13.29,11.92Q242,82.67,231.08,92.35c-3.92,3.49-7.82,7-11.81,10.42-2.13,1.83-4.22,1.71-5.68-.08s-1.09-4.25,1-6c5.93-5.22,11.81-10.51,17.72-15.75q12.39-11,24.81-22C263.05,53.62,269,48.25,275,43a7.27,7.27,0,0,1,3.41-1.69C280.6,41,282.43,42.83,282.37,45.54Z"/><path class="cls-1" d="M79,19.89a16.13,16.13,0,0,1-1.5,12.69,32.55,32.55,0,0,1-9.79,10.47C62.1,47.1,56.41,51,51,55.23c-4.19,3.23-7.69,7.07-8.69,12.62a15.44,15.44,0,0,0,1.32,8.73c2.73,6.76,7.92,11.14,14.18,14.48a87.11,87.11,0,0,0,26.14,8.69c8.2,1.44,16.54,2.08,24.83,3.08,3.46.41,6.93.78,10.37,1.31.57.09,1,.89,1.54,1.37-.57.5-1.12,1.42-1.69,1.44a140.58,140.58,0,0,1-14.66,0c-11.23-.88-22.13-3.6-32.92-6.74a65.43,65.43,0,0,1-18.93-8.59c-5.83-4-10.68-8.88-12.42-16a19.39,19.39,0,0,1,5.79-19.48c3.75-3.58,8.3-6.32,12.5-9.43s8.64-6,12.55-9.39c4.81-4.22,6.94-9.95,7.42-16.29,0-.41.08-.82.12-1.22Z"/><path class="cls-1" d="M432.51,67.5c.57-.11,1.3-.51,1.7-.3,3.22,1.67,6.45,3.31,8.5,6.53,2.36,3.7,2.35,7.46.55,11.33-2.83,6.1-8,9.91-13.57,13-8.3,4.54-15.3,10.54-22,17.08-6.56,6.37-13.49,12.42-22,16.2-3.62,1.61-7.43,2.6-11.33,1.35a20.35,20.35,0,0,1-5-2.8c-.56-.38-.75-1.32-1.11-2a10,10,0,0,1,2.42-.19c2.05.33,4.05,1.12,6.1,1.22,5.44.24,10.27-1.8,14.56-4.9a95.48,95.48,0,0,0,12.37-10c7.13-7.22,15.22-13.09,23.64-18.63,4.26-2.81,8.36-5.84,11.55-9.94,4.38-5.64,3.68-10.7-2.21-14.76-1.31-.9-2.7-1.7-4-2.55Z"/></g></g></svg>