<svg xmlns="http://www.w3.org/2000/svg" viewBox="0 0 477.73 437.68"><g id="Capa_2" data-name="Capa 2"><g id="Capa_1-2" data-name="Capa 1"><path d="M341.59,108.11c.77,0,1.29,0,1.81,0A45.14,45.14,0,0,1,361.89,110c5.5,1.74,10.8,4.14,16.25,6a58.85,58.85,0,0,0,8.41,2.13c2.29.43,3.82-.73,5-2.8,2.76-5,4.18-10.46,5.37-16,.51-2.37.52-4.86,1.14-7.2,2.3-8.6,9.72-13.79,18.65-13.54a23,23,0,0,1,10.41,2.88c1.18.62,2.68.63,4,1,1.79.52,3.51,1.33,5.33,1.68,6.41,1.26,10.35,5.38,11.23,11.9.3,2.26.79,4.5,1.13,6.76a15.86,15.86,0,0,1,.29,3.87c-.65,6-1.49,11.94-2.13,17.91-.34,3.18-.48,6.39-.62,9.59a2.7,2.7,0,0,0,2.22,3,18.07,18.07,0,0,1,10.87,8.22c1.18,1.84,1.51,4.29,1.9,6.53a4.27,4.27,0,0,0,3.68,3.85c8.94,1.45,11.58,6,12.25,14a123.59,123.59,0,0,1,.21,19.43c-.4,5.42-1.78,10.79-3.07,16.09a148,148,0,0,1-4.91,17.11c-2.76,7.31-6.11,14.41-9.31,21.55s-6.46,14.13-9.8,21.14c-1.83,3.85-4,7.55-5.82,11.42-2.62,5.58-5,11.27-7.56,16.89-2.28,5.06-4.71,10.06-6.87,15.17-2.28,5.39-4.32,10.89-6.46,16.34-1.14,2.89-2.42,5.73-3.38,8.68-1.7,5.19-3.24,10.43-4.79,15.67-2.3,7.78-3.14,16-6.72,23.38-3.07,6.33-7.22,11.95-13.08,15.94-7,4.75-14.05,9.49-21.46,13.53a103.42,103.42,0,0,1-18.49,7.67c-3.64,1.14-7.8.76-11.73.78-2.09,0-3,1.18-3.85,2.68-1.75,3.12-3.36,6.32-5.21,9.37a33.68,33.68,0,0,1-15.64,13.68,15.06,15.06,0,0,1-5.3,1.26c-8.7.29-17.06-.85-24.31-6.32-4.63-3.51-6.4-8.32-6.18-13.85.07-1.76,1.27-3.54,2.17-5.18,1.74-3.14,3.61-6.2,5.47-9.26a20.05,20.05,0,0,1,1.84-2.29c1.15-1.37,1-3.11-.66-3.8a30.3,30.3,0,0,0-6.47-2c-4.29-.71-8.66-1.66-12.94-1.45a21.42,21.42,0,0,1-9.27-1.87c-2.61-1.05-5-2.6-7.58-3.74-7.91-3.49-9.42-4.09-16.76,3.05-4,3.88-7.47,8.26-11.37,12.24a30.38,30.38,0,0,1-6,4.6,5.61,5.61,0,0,1-3.75.51,38.67,38.67,0,0,1-11.56-4.11c-4.65-2.78-9.41-5.39-14-8.21s-6.8-7.08-7-12.39c-.1-2.6.1-5.21-.11-7.8a4.49,4.49,0,0,0-1.44-2.79c-4-3.31-8-6.61-12.22-9.61a21.31,21.31,0,0,0-6.25-2.71c-2.75-.83-5.61-1.31-8.42-1.93-.22-.05-.46,0-.69,0-1.6-.21-3.79-1.19-4.7-.49a16.56,16.56,0,0,0-4.81,5.92c-1.55,3.32-3.34,6.35-6.77,7.66a25.47,25.47,0,0,1-9.1,2,128.16,128.16,0,0,1-16.33-1.56,54.54,54.54,0,0,1-8.8-2.38c-5.62-1.8-6.84-4-5.07-9.71,1.52-4.95,3.44-9.77,5.19-14.64.64-1.79,1.35-3.57,2-5.38.8-2.41-.09-3.29-2.49-3.89A83.27,83.27,0,0,1,87.65,330c-3.33-1.7-7.14-2.51-10.8-3.48-7.09-1.87-11.78,1.77-15.82,7a13.58,13.58,0,0,1-4.2,3.8c-4.59,2.42-9.29,4.72-14.73,4.35a106.48,106.48,0,0,1-11.61-1,26.86,26.86,0,0,1-12.8-6,39,39,0,0,1-5.15-5.44c-1.9-2.44-1.87-5.29-.83-8.08,1.46-3.91,3.06-7.78,4.63-11.65.61-1.51-.08-2.37-1.21-3.31-3.75-3.13-7.57-6.21-11-9.63A13.24,13.24,0,0,1,.84,291c-1.41-4.93-.95-9.77.69-14.77,4.22-12.85,12.43-23,21.14-32.91C31,233.9,40.07,225,47,214.41a153.06,153.06,0,0,0,8.51-15.63c4-8.2,8.15-16.39,11.68-24.82a173.93,173.93,0,0,0,6.89-20.31,97.36,97.36,0,0,0,3.66-18.12c.62-7.54.1-15.06-5.64-21.22-5-5.33-6.44-12.11-7.07-19.22-.48-5.48.62-10.76,1.24-16.11.53-4.47,3.41-7.68,7.15-9.56,5.51-2.76,11.4-4.75,17-7.26,1.74-.77,3.19-2.17,4.8-3.24,2.32-1.56,4.6-3.21,7-4.58a44,44,0,0,1,7.44-3.45c4.81-1.6,6.91-5.48,8.21-9.74,1.58-5.15,2.45-10.5,3.78-15.72S124.34,15.1,126,10c1.5-4.56,5.87-5.93,9.82-7.06C140.5,1.64,145.42,1.2,150.2.24a16.63,16.63,0,0,1,8.76,1c3.72,1.26,5.8,4.1,6.83,7.73a16.58,16.58,0,0,1,.29,8.32c-.77,3.54-.42,7.31-.77,11-.43,4.47-1.07,8.91-1.63,13.36C163,47,162.79,52.4,166,57.24a1.83,1.83,0,0,0,1.29.69,7.25,7.25,0,0,0,2.26-.3A30.24,30.24,0,0,1,189.72,59c4,1.67,8.06,3.29,11.05,6.68,1.11,1.24,1.95.13,2.25-.71a64.19,64.19,0,0,0,2.71-8.9c1.54-8-.46-15.8-1.48-23.64-.86-6.63,1.44-10.44,7.47-13.67,6.83-3.66,13.81-3.11,20.95-2A31,31,0,0,1,238,17.91c5.92,2.05,7.94,7,8.31,12.57.55,8.16.64,16.35.73,24.54,0,4.11-.4,8.22-.49,12.34-.12,5.3,1.59,7.66,6.88,9.29,2.84.88,5.8,1.3,8.66,2.11,4.92,1.4,9.85,2.83,13.33,7,2,2.44,4.16,4.78,6.31,7.11,1.58,1.72,3.25,1.86,4.52,0,1.73-2.55,3.68-5.26,4.35-8.17.89-3.88.56-8,.89-12,.39-4.76-.14-9.64,1.86-14.2,2.26-5.11,6.9-7.17,11.73-8.21a83.48,83.48,0,0,1,16.39-1.76c3.64-.06,7.33,1,10.94,1.8,4.61,1.07,7.14,4.35,8.51,8.72a44.69,44.69,0,0,1,2.43,14.86c-.18,6-.19,12.08-.51,18.1-.18,3.48-.91,6.93-1.24,10.41C341.44,104.25,341.59,106.15,341.59,108.11Zm-96.72,74.43a7.19,7.19,0,0,1-.44-1.55c0-7.56-.12-15.12,0-22.67.1-4.88.89-9.75.82-14.62-.07-5.15.48-10.36-1.11-15.48-.59-1.9-1.13-2.34-3.09-2.21-2.36.16-5.1.29-7.08-.73-4.72-2.44-9-5.66-13.62-8.37a21.24,21.24,0,0,0-6.06-2.37,32.44,32.44,0,0,0-6.17-.41c-4.32-.13-7-2.92-9.73-5.75-.85-.88-1.82-2.06-2.87-2.23a57.32,57.32,0,0,0-8.89-.58,2.67,2.67,0,0,0-2,1.58c-1,6.9-1.84,13.83-2.7,20.75-.07.53.06,1.08,0,1.61-.68,5.18-1.33,10.36-2.11,15.52a27.58,27.58,0,0,1-1.33,4.56,9.18,9.18,0,0,1-.92,1.6,4.84,4.84,0,0,1-.83-3c.43-4.75,1-9.49,1.43-14.23.42-4.15.76-8.3,1.23-12.44.27-2.35,1-4.65,1.08-7,.19-4,0-8.11.11-12.17a2.28,2.28,0,0,0-1.76-2.53,35,35,0,0,1-5.05-2.11,35.14,35.14,0,0,0-19.85-3.51c-9.49.88-18.9,2.68-28.35,4.11a15,15,0,0,0-9.57,5.75,74.57,74.57,0,0,1-6.2,7.37,39,39,0,0,1-14.64,9.15,2,2,0,0,0-1,1.45c-.6,9.13-1,18.27-1.72,27.4-.42,5.6-.69,11.28-1.89,16.74-1.46,6.6-3.71,13-5.82,19.48-1.78,5.42-3.95,10.7-5.8,16.1s-3.39,10.75-6.57,15.52c-1.9,2.86-3.57,5.87-5.36,8.8-5.6,9.17-11.53,17.93-21.07,23.72-5.42,3.29-10.26,7.52-13.42,13.24-.61,1.1-.65,2.53-1.32,3.56-.48.73-1.59,1-2.42,1.53-.3-.76-1-1.62-.84-2.25A22,22,0,0,1,29.69,262c2.82-5.67,7.14-10,12.19-13.71,3.63-2.67,7.6-5.16,10.43-8.56a166.69,166.69,0,0,0,13.62-18.92c4.11-6.65,8.16-13.46,9.89-21.26a18.93,18.93,0,0,0,.08-3.77c-.88.8-2.05,1.44-2.6,2.42a117.14,117.14,0,0,1-20.73,27.83c-4,3.92-8.58,7.35-12.79,11.12A173.63,173.63,0,0,0,15.53,264.6a31.89,31.89,0,0,0-3,5.63,2.1,2.1,0,0,0,.24,1.89c.27.29,1.27.17,1.8-.08a11.28,11.28,0,0,1,8.24-.34c5.36,1.59,10.66,3.14,16.41,1.57a7.59,7.59,0,0,1,5.42,1A16,16,0,0,0,53,276.86c2.14,0,4.29.06,6.43-.06a10.41,10.41,0,0,1,9.72,4.94c1.77,2.56,4,4.71,7.26,5.21,2.78.43,5.62.46,8.43.67,5.32.38,10.64.7,16,1.17,6.08.53,12.14,1.26,18.22,1.77a4.89,4.89,0,0,0,3.39-.7c2.47-2.25,4.65-4.82,7-7.24,6-6.32,12.07-12.58,18-18.95,3.38-3.63,6.72-7.32,9.8-11.2,2.21-2.8,3.87-6,6-8.9.6-.83,1.93-1.12,2.92-1.65a16.75,16.75,0,0,1-.43,2.85,6.92,6.92,0,0,1-1.22,1.92c-3,4-5.77,8.21-9,12-6.29,7.26-12.92,14.22-19.28,21.43-2.07,2.34-3.73,5.05-5.78,7.86a13.42,13.42,0,0,0,2.51.65c5.43.16,9.23,2.93,12.47,7.1a12.48,12.48,0,0,0,5.32,3.82A134.71,134.71,0,0,0,165.29,304a32.38,32.38,0,0,0,13.17.62c4.57-.76,9.2-.62,12.74,3.47a42,42,0,0,0,7.31,6.93,30,30,0,0,0,8.35,4c4.48,1.4,8.49,3.4,11.7,6.87,2.84,3.08,5.48,6.37,8.52,9.24a25.27,25.27,0,0,0,11.65,6.59c5.43,1.24,10.17-.31,14.57-3.63s12.44-5.27,18.43-.69c4.43,3.39,9,6.56,13.58,9.78a18.94,18.94,0,0,0,15.41,3.4,16.94,16.94,0,0,1,5.67.18c2.27.32,4.09,0,5.33-2.15a20.78,20.78,0,0,1,1.52-2c5.87-7.82,12-15.44,17.53-23.51,3.9-5.71,7-12,10.28-18.1,2.67-5,5.3-10,7.56-15.12s4.11-10.78,6.28-16.12a22.51,22.51,0,0,1,2.61-3.85l1,.38c-.31,1.44-.69,2.88-.93,4.33-1.39,8.7-5.52,16.38-9.22,24.19a130.43,130.43,0,0,1-7.59,13.49c-5.62,8.91-11.39,17.72-17.21,26.5-2.95,4.45-6.19,8.71-9.22,13.13-1.94,2.83-.39,6,3,6.32a34.05,34.05,0,0,0,5.05,0c5-.3,8.88,1.94,12,5.61a21.2,21.2,0,0,1,3.26,4.69c1.43,3.09,3.19,5.12,7,3.89a5.1,5.1,0,0,1,1.6.05c5.88,0,11.79.35,17.63-.07C369,372,374,370.77,379,370a5.57,5.57,0,0,1,2.84.42c3.7,1.59,6.33,4.45,8.64,7.63,1.42,2,2.22,2,3.29-.24a32.45,32.45,0,0,0,2.31-6.38c.61-2.63.82-5.36,1.2-8l-.84-.23c-3.1,1.56-2.44,6.39-6.52,7.69.23-1,.32-1.73.55-2.39,1.59-4.49,3.24-9,4.79-13.46q4.74-13.69,9.38-27.44c.63-1.85,1.61-2.51,3.43-1.57,1,.51,1.88.56,2.48-.65,2.34-4.78,4.84-9.49,7-14.34,2.65-5.83,5.2-11.71,7.49-17.69,1.77-4.6,3.63-9.29,4.45-14.11a50.26,50.26,0,0,1,7.13-18.87c5.14-8,9.5-16.17,12.24-25.35,2.39-8,5.75-15.71,8.72-23.53.68-1.82,1.9-2.08,3.64-.92,2,1.34,2.55,1.17,3.39-1.17,1-2.71,2.28-5.36,2.81-8.15.68-3.6.74-7.32,1.07-11l-.78-.31a8.82,8.82,0,0,0-1.72.83c-3.6,2.77-7.09,5.69-10.8,8.28a8.16,8.16,0,0,1-4.49,1.12c-4.43,0-8.87-.21-13.28-.61-3.14-.29-6.47-.08-8.44-3.74-1.09-2-3.52-2.71-6.06-2.39-3.74.48-6-.89-7.5-4.29a17.23,17.23,0,0,1-1.17-2.74c-.42-1.67-1.33-1.71-2.74-1.23a32.79,32.79,0,0,1-5.5,1.46c-2.78.45-5.66.9-7.93-1.55s-4.52-4.5-6.47-7c-3-3.84-6.7-5.39-11.47-4.34-6.9,1.53-13.46.38-19.84-2.42-4.52-2-9-4.1-13.66-5.75a13.32,13.32,0,0,0-7-.69c-4.65,1-9.13,2.79-13.71,4.12a2.09,2.09,0,0,0-1.73,2.27c-.09,2.66-.29,5.32-.45,8-.33,5.62-.58,11.25-1,16.87-.54,6.92-1.22,13.84-1.84,20.76-.54,6.08-.6,12.26-1.78,18.22-1.14,5.76-.61,11.68-2.43,17.38-1,3.16-.72,6.73-1,10.22l3.3-.83a20.45,20.45,0,0,1-.59,3.37c-1.84,5.16-3.41,10.44-5.74,15.37a144.1,144.1,0,0,1-8.49,14.81c-1.78,2.83-4.37,5.17-6,8.05-2.44,4.28-4.37,8.84-6.5,13.29-.82,1.72-1.72,3.31-4.41,3.35a18,18,0,0,1,.89-3c2.87-5.71,6-11.31,8.69-17.09,3.11-6.59,5.69-13.44,8.88-20,3.88-8,5.93-16.53,7.82-25.09,1-4.62,1.19-9.43,1.59-14.17.88-10.26,1.62-20.54,2.48-30.8.68-8.21,1.43-16.41,2.19-24.6a32,32,0,0,1,.85-5.89c1.06-3.63-.1-6.95-1-10.34a2.34,2.34,0,0,0-1-1.2c-2-1.26-4.28-2.27-6.19-3.72-4.6-3.51-9.23-5-15.27-3.43-5.48,1.44-10.86-.1-15.06-4.61-3.33-3.58-6.9-7-10.5-10.25A7.22,7.22,0,0,0,268,144a12.48,12.48,0,0,1-6.55-3c-1.9-1.52-3.58-3.33-5.47-4.86a18,18,0,0,0-4.22-2.66,2.64,2.64,0,0,0-2.33.9c-.85,1.14,0,4.94,1.23,5.68,5.94,3.53,8.07,9.55,9.23,15.62,1.67,8.72.42,17.5-1.35,26.16A6,6,0,0,1,258,183c-2.7-5.49-.68-11.08-2.66-16.37a12,12,0,0,0-1.75,3.32c-.61,1.53-.81,3.95-1.86,4.41-2.43,1.05-3.57,2.81-4.64,4.91A35.22,35.22,0,0,1,244.87,182.54ZM93,78c-1.58.93-2.56,1.51-3.56,2.08a55.85,55.85,0,0,0-6,3.53,3.17,3.17,0,0,0-.09,5,28.83,28.83,0,0,0,5.57,4.29,3.29,3.29,0,0,1,1.83,3.72,31,31,0,0,0,0,6.81c.77,5.49,4.82,7.28,9.7,4.46.46-.26.85-.66,1.33-.89a31.89,31.89,0,0,1,4.54-2.07,15.89,15.89,0,0,0,8.52-5.42c2.47-3.26,6-4.8,9.73-5.56,6.49-1.33,13.05-2.47,19.63-3.21C150,90.12,156,89.51,161.82,90c7.6.62,14.41,4.16,21.21,7.53a33.42,33.42,0,0,0,11.17,3.62c4.11.41,6.87,1.9,9.05,5.25,1.67,2.57,4,4.12,7.37,3.57a8.77,8.77,0,0,1,2.75.08c5.74.95,10.56,3.8,15,7.42a18.45,18.45,0,0,0,12.81,4.64c2.34-.08,5.15.3,7,1.57,3.52,2.45,6.48,5.69,9.67,8.6s6,5.54,10.17,6.74a19.26,19.26,0,0,1,7.36,3.82c3.69,3.29,6.76,7.25,10.3,10.72a11.94,11.94,0,0,0,11.44,3.1,37.31,37.31,0,0,1,7.26-1,11.41,11.41,0,0,1,7.87,3.2c6.37,5.66,13.39,7.4,21.5,3.68,7.17-3.29,14.08-1.77,20.86,1.68,6,3.07,12.06,6.35,19.14,6.21,2.36,0,4.72-.28,7.07-.51,3.77-.37,7.62-.74,10.71,1.92a68.19,68.19,0,0,1,6.65,6.94c3.34,3.83,7.34,4.85,12,2.84a42.26,42.26,0,0,1,4-1.79,2.32,2.32,0,0,1,2.11.54,23.87,23.87,0,0,1,3.06,5.85c.65,2.14,1.82,2.48,3.73,2.39,4.36-.19,8.08,1.11,10.82,4.79a4.71,4.71,0,0,0,3,1.75c4.72.41,9.46.68,14.19.74a8.13,8.13,0,0,0,4.2-1.3c4.31-2.77,6.78-7.17,9.49-11.32A20.25,20.25,0,0,0,468.25,173c.16-3.14-1.2-6-4.13-7.09a37.08,37.08,0,0,0-4.14-1.22,8,8,0,0,1-5.76-4.49c-.87-2-1.2-4.26-2-6.31-.62-1.57-1.3-3.38-2.52-4.42-3.72-3.16-7.77-5.91-11.56-9-1.47-1.21-2.73-1-4.41-.65-3.71.8-7.55,1.87-11.26,1.65-9.53-.58-18.28-4-26.33-9.07-3.84-2.4-7.58-4.75-12.06-5.83-7.76-1.88-15.45-4-23.18-6-1.91-.49-3.91-.72-5.76-1.36-6.68-2.3-13.55-2.74-20.52-2.35a5.94,5.94,0,0,1-2,0c-6-1.93-12.11-1.1-18.15-.29a19.73,19.73,0,0,1-13.24-2.48,82.93,82.93,0,0,1-9.24-6.74c-2.64-2.14-5.26-4-8.78-4.56-4.92-.8-9-3.66-12.18-7.25-5.21-5.88-11.39-9.83-19-11.37a121.21,121.21,0,0,0-12.14-1.79,17.34,17.34,0,0,0-6.22.45c-6.12,1.72-12.16,3-18.37.38-3.44-1.47-7-2.63-10.42-4.14a28.4,28.4,0,0,1-11.3-8.64,11.89,11.89,0,0,0-7.63-4.67,42.74,42.74,0,0,0-19,1.42c-2.29.68-3.82.35-5.29-1.72-3.22-4.55-4.21-4.52-9.7-3.06-8.43,2.25-16.77,2.39-24.48-2.64-1.34-.87-2.6-1.86-4-2.63a5.45,5.45,0,0,0-2.55-.74c-5.63,0-9.7,2.78-12.53,7.48-3.92,6.5-10.13,8.75-17.19,9.75-3.45.49-7.06,1-10.19,2.34-4.3,1.91-7.41,3.67-6.19,10,.59,3.12,1.48,6.19,2.3,9.26,1.18,4.42,4.34,7,8.27,8.91,1.25.6,1.73,0,1.67-1.22a28.91,28.91,0,0,0-.42-5,5.38,5.38,0,0,0-1.73-2.42C83.13,94,81,92.9,79.66,91.12c-2.59-3.58-2.15-7.21.72-10.69,1.82-2.21,6.84-4.52,9.58-3.87A20,20,0,0,1,93,78ZM352,398.17c1.3-.54,2.71-1.09,4.11-1.7,6.27-2.74,12.55-5.47,18.79-8.26,3.47-1.55,6.92-3.13,10.27-4.91a2.89,2.89,0,0,0,1.13-2.53,17.39,17.39,0,0,0-3.08-5.27,5.33,5.33,0,0,0-3.81-1.38c-3.65.26-7.26,1.07-10.91,1.42-5.08.48-10.18.78-15.28,1.08-3.54.21-7.09.31-10.64.4a6.25,6.25,0,0,1-2.45-.26c-2.21-.85-4.27-1.85-5.48-4.19a56.55,56.55,0,0,0-3.95-6.17,8.79,8.79,0,0,0-8.64-4.08c-1.59.17-3.18.79-4.74.71a8.46,8.46,0,0,1-4.4-1.33c-2.55-1.92-4.76-4.28-7.21-6.35a3.72,3.72,0,0,0-2.24-.63c-4.12,0-8.28.49-12.35.07a14.5,14.5,0,0,1-6.74-3c-3.88-2.94-7.4-6.37-11.13-9.51-4.5-3.79-9.7-3.7-14.91-2.11a31.27,31.27,0,0,0-7.64,3.62c-6.87,4.38-13.48,2.11-19.75-1a38.05,38.05,0,0,1-14.12-12.44c-2.8-3.91-6.43-6.92-11.72-7.17a14.9,14.9,0,0,1-5.92-1.51,20.58,20.58,0,0,1-7.75-7.61c-3.23-5-7.74-6.63-13.56-5.75a38.59,38.59,0,0,1-12.22.24c-5.19-.92-10.18-2.95-15.24-4.56-3.83-1.23-7.28-3-9.44-6.67s-5.59-5-9.76-4.44a97.2,97.2,0,0,1-13.14,1.34c-5,0-10-1-15-1.31-7.78-.49-15.57-.74-23.35-1.17a19.32,19.32,0,0,1-4.9-.88A21.73,21.73,0,0,1,64.39,283c-2-2.55-4.19-3.53-7.35-2.52a15.74,15.74,0,0,1-12.22-1.38,13.19,13.19,0,0,0-9.2-1.42,16.64,16.64,0,0,1-6.55.16c-3.26-.7-6.37-2.1-9.59-3a3.18,3.18,0,0,0-2.68.41c-3,3-6,6-7.48,10.22-1,3-.43,5.18,1.72,7,3,2.48,6.19,4.7,9.34,7a2.58,2.58,0,0,0,1.73.36c2-.27,4.08-.57,6.09-1a37,37,0,0,1,19.63.49c7,2.18,12.58,6.22,17.57,11.23,4.32,4.34,8.82,8.11,15.19,8.89A25,25,0,0,1,85,320.51c5.36,1.68,10.6,3.92,16.08,4.92s11.12.71,16.69,1.13c4.18.31,8.35.77,12.5,1.33a23.27,23.27,0,0,1,4.59,1.39c3.29,1.2,6.5,2.68,9.85,3.65,5.11,1.48,9.18,4,11,9.29a13.39,13.39,0,0,0,10.88,9.38,24.62,24.62,0,0,1,11.11,4.94c2,1.56,3.58,3.75,5.64,5.27,1.54,1.12,3.59,2.31,5.33,2.2s3.31-1.7,4.63-3c2.29-2.23,4.12-5,6.5-7.08,3.53-3.16,7.48-5.31,12.53-3.27,4.87,2,10,3.34,14.66,5.73a62.1,62.1,0,0,1,11.38,8c3.76,3.19,7,7,10.61,10.36,4.81,4.49,11.1,6.05,17.13,7.79s12.27,2.81,18.45,4a53.27,53.27,0,0,0,19.58.31c6.85-1.22,13.2-.38,19.12,3.37,4.44,2.82,8.93,5.58,13.35,8.44,1.81,1.18,3.24,1.17,4.87-.42s3.74-2.51,6.25-1.25A21.54,21.54,0,0,0,352,398.17Zm-16.11-317c0-5.68,0-5.42-5.32-5.9a98.62,98.62,0,0,1-14.38-2.44c-4-1-7.7-2.72-11.59-4a2.71,2.71,0,0,0-2.28.82,7.29,7.29,0,0,0-1.29,2.87c-1.86,7-3.72,14.1-5.49,21.17-2.34,9.28-4.52,6.74,3.91,13.76,8,6.65,18.14,7.46,26.68,2.38a4.32,4.32,0,0,0,1.75-1.94c1.44-3.66,2.66-7.41,4.08-11.08C334,91.66,336.11,86.51,335.92,81.16Zm-101.86,298,.8.36c1.94-1.68,3.94-3.3,5.79-5.08a2,2,0,0,0,0-1.86c-3.6-1.76-5.77-5.1-8.64-7.66-5.21-4.65-11.61-6.95-18.1-9.07-3.31-1.08-5.47-.55-7.68,2.15a61,61,0,0,0-12,22.9c-.51,1.89-.3,3.3,1.2,4.46,4.87,3.77,9.78,7.5,14.66,11.26a2.18,2.18,0,0,0,3.1-.17,21.2,21.2,0,0,0,2.38-2.14c5.67-6.88,11.28-13.8,17-20.67a18.8,18.8,0,0,1,2.3-2.05l.7.48Q234.79,375.65,234.06,379.2Zm-9-298.51c1.35-.2,2.71-.38,4.07-.59,2.91-.45,4.93-1.88,5.52-5,.92-4.81,2.47-9.59,2.68-14.43.32-7.13,2.29-14.16,1.17-21.4-.32-2-.59-2.87-2.83-2.53-3.31.5-6.66.79-10,1-3.5.18-7,.1-10.51.16-1.51,0-2.29.75-2,2.33,1,5.74,1.53,11.51.48,17.29-.93,5.13-2,10.24-3.09,15.34-.34,1.57-.8,3.25,1,4C215.86,78.64,220.17,80.7,225.09,80.69Zm182,20.71a4.25,4.25,0,0,0-.41.74,9,9,0,0,0-.24,1.12,47.91,47.91,0,0,1-6.87,18.93c-.75,1.15-1.68,2.18-2.43,3.33s-1.12,2.27.52,3a79.84,79.84,0,0,1,7.43,3.47c6.24,3.68,13.08,5,20.15,5.47,1.59.11,3.15.08,3.71-1.85,2.65-9,5.82-17.85,6.12-27.36.05-1.49-.37-2.45-1.86-2.61-3.71-.41-7.42-.73-11.14-1.09a45.74,45.74,0,0,1-5.88-.59C413.17,103.29,410.23,102.31,407.09,101.4ZM131.91,365.68c4.72.18,7.35-3.08,9.58-6.57,3.16-4.93,6-10.05,8.93-15.13a2,2,0,0,0-.08-1.84c-1.83-1.59-3.6-3.55-5.77-4.4-5.53-2.18-11.23-3.94-16.93-5.67-4.89-1.49-5.16-1.48-7.26,3.21-3.65,8.11-7,16.35-10.36,24.59a2.81,2.81,0,0,0,.92,2.56,13.81,13.81,0,0,0,5.25,2.13C121.41,365.13,126.66,365.33,131.91,365.68ZM307.55,391c-1.33,3.84-2.12,7.56-3.85,10.79-3.07,5.76-6.63,11.27-10.15,16.78a3.47,3.47,0,0,0,.17,4.59,8.42,8.42,0,0,0,3.07,2.63c3,1.09,6.27,1.67,9.33,2.72a5.28,5.28,0,0,0,5.18-.72c3.42-2.5,6.91-4.93,10.19-7.6,5.38-4.37,8.26-10.51,11.11-16.59a2.81,2.81,0,0,0-.83-2.57c-3.94-2.63-8-5.07-12-7.55C315.9,391.12,311.86,389.78,307.55,391ZM140.46,60c3.65-.62,8-1.17,12.2-2.13,2.17-.49,1.65-2.7,1.51-4.27,0-.43-1.38-1-2.16-1.07-2.11-.16-2.63-.8-2.18-3,.51-2.51,1-5,1.38-7.56.37-2.71.25-5.53.92-8.16.82-3.19,1-6.94,5-8.41.56-.21.78-1.34,1.16-2.05a8.06,8.06,0,0,0-2.08-1.07C149.62,21.14,143,20,136.42,19a2.12,2.12,0,0,0-1.78,1c-1.34,5.38-2.48,10.81-3.78,16.21-1.05,4.34-2.48,8.6-3.28,13-.34,1.85-.21,4.59.92,5.77C131.45,58,135.46,59.52,140.46,60ZM41.3,333.47c.46,0,.92,0,1.38,0,1.57-.06,3.13,0,1.81-2.42a3.51,3.51,0,0,1,.38-3c1.93-2.82,4.12-5.45,6.15-8.2s3.92-5.28,5.71-8c1.29-2,.89-2.88-1.23-4-3-1.56-6-3.37-9.15-4.66-3.65-1.51-7.5-3-11.51-2.33-3.08.5-6.31,1.24-7.72,4.84a136.38,136.38,0,0,1-5.34,12.56c-2.94,5.75-1.4,5.38,2,8.42A26.78,26.78,0,0,0,41.3,333.47Zm288-262,.16-.38c1.35-.2,2.7-.41,4.05-.58,1.51-.2,2.22-.83,1.59-2.46-.71-1.84-1-3.92-2-5.55s-2.44-3.32-4.06-3.82c-6.3-2-12.82-2.86-19.31-.91-1.14.34-2.67,1.88-2.68,2.88,0,1.84-.22,4.3,2.18,5.23a74.18,74.18,0,0,0,7.52,2.46C320.9,69.43,325.11,70.39,329.3,71.43Zm98.32,30.23a67.91,67.91,0,0,0,7.87-1.73c3.5-1.19,3.8-3.09,1-5.54a9.75,9.75,0,0,0-3.85-1.84c-2.42-.63-5.06-.61-7.37-1.49-4.55-1.75-8.65-.14-12.9,1-2,.53-2.51,2-1.78,3.47s2,3.24,3.4,3.6C418.35,100.26,422.9,100.83,427.62,101.66ZM225.36,34.18l0-.46a17.77,17.77,0,0,0,3.65,0,61.52,61.52,0,0,0,7.46-2c1.27-.43,1.87-1.61.53-2.62A21.6,21.6,0,0,0,232,26,22.47,22.47,0,0,0,219,25.33c-1.46.33-2.93,1.94-3.77,3.33-1.16,1.91,0,4.05,2.26,4.47C220.06,33.61,222.72,33.84,225.36,34.18ZM157.47,17.37a8.72,8.72,0,0,0-6.83-8.17c-3.63-.67-6.92.29-10.31,1.24a5.53,5.53,0,0,0-4,4C143.26,16.72,149.9,19.47,157.47,17.37ZM48.28,331.13a8.92,8.92,0,0,0,7.4-3.44c2.56-2.9,5.16-5.77,7.48-8.86.63-.84.54-2.45.28-3.6-.08-.36-1.85-.6-2.75-.42a4.15,4.15,0,0,0-2.17,1.53q-4.6,6-9,12A14.55,14.55,0,0,0,48.28,331.13ZM81.7,178.77c-2.54,1.52-1.74,3.89-2.36,6.11C82,183.66,82.86,181.29,81.7,178.77Z"/><path d="M406.66,213.54a10.81,10.81,0,0,1,.87-2.31,18.47,18.47,0,0,1,2-2.21c.58.81,1.2,1.59,1.71,2.44.16.28,0,.75,0,1.13-.42,6.16-.89,12.32-1.25,18.48-.2,3.34-.08,6.7-.36,10-.41,4.9-1,9.79-1.6,14.67a10,10,0,0,1-.84,2.21c-.42-.2-.67-.26-.67-.32-.13-4.29-1.22-8.59.4-12.84a4.09,4.09,0,0,0,.18-2.88c-1.41-2.75-.83-5.5-.59-8.32a19.51,19.51,0,0,0-.45-4l-.92,0a47.5,47.5,0,0,0-1.55,6c-.75,5.83-1,11.71-2,17.5-1.05,6.37-2.53,12.67-4,19a152.42,152.42,0,0,1-4.1,15.22c-2.38,6.82-5.16,13.49-7.94,20.16q-4.38,10.56-9.1,21c-3.95,8.68-7.89,17.38-13.94,24.88-1.32,1.64-2.7,3.23-4.05,4.84l-1.23-.84c.81-1.84,1.46-3.76,2.44-5.49,3.52-6.17,7.39-12.13,10.65-18.42,2.8-5.4,4.94-11.14,7.36-16.73,2.31-5.31,4.67-10.6,6.87-16,1.7-4.16,3.34-8.35,4.72-12.61,1.82-5.61,3.64-11.25,4.94-17,1.55-6.83,2.57-13.77,3.77-20.68,1-5.69,2-11.39,2.76-17.11.4-2.94.37-6,.48-8.92.18-5,.29-10.1.5-15.15a9.42,9.42,0,0,1,.62-3.13c.25-.58,1.17-1.37,1.58-1.26a2.53,2.53,0,0,1,1.59,1.57,16.86,16.86,0,0,1,0,3.41c0,1.17.1,2.34.16,3.51Z"/><path d="M129.91,121.35a26.91,26.91,0,0,1,.86,5.48c-.09,2.56-.78,5.1-1.06,7.66-.57,5.28-1.05,10.56-1.56,15.85a8.52,8.52,0,0,1-.16,2.5c-1.74,4-1.16,8.24-1.77,12.35-.71,4.71-1.51,9.42-2.61,14.05-1.79,7.55-3.59,15.12-5.89,22.53A175.05,175.05,0,0,1,111,219.21a271.85,271.85,0,0,1-18.91,36c-2.27,3.62-4.48,7.27-6.73,10.91-.24.39-.44.94-.8,1.09-1.12.45-2.79,1.38-3.35,1-1.26-1-.17-2.16.58-3.31,3.26-5,6.53-10,9.49-15.13,3.64-6.36,7.14-12.81,10.39-19.37,2.68-5.39,5-10.95,7.31-16.53,2.44-6.07,4.87-12.16,6.78-18.41,2-6.47,3.33-13.13,5-19.71.33-1.33.75-2.65,1-4,.91-6.06,1.83-12.12,2.62-18.2.75-5.79,1.19-11.63,2-17.41.72-4.95,1.82-9.85,2.75-14.76Z"/><path d="M194.23,123.09c.51,1,.92,1.48.91,1.91-.15,3.71.06,7.51-.7,11.11-1.21,5.71-3.08,11.29-4.68,16.92-1.2,4.2-2.47,8.37-3.57,12.58-.52,2-.63,4.17-1.1,6.21-.3,1.3-1,2.5-1.37,3.79-1.27,4.45-2.45,8.93-3.71,13.38-1.49,5.25-2.91,10.52-4.6,15.71a74.71,74.71,0,0,1-3.63,8.56c-2.21,4.68-4.32,9.43-6.89,13.9a78.57,78.57,0,0,1-7.33,10.43c-5.67,6.92-11.57,13.64-17.37,20.44-3.52,4.14-7,8.26-10.51,12.43-.73.87-1.1,2.09-1.93,2.82a10.7,10.7,0,0,1-2.86,1.31c0-1-.4-2.14,0-2.9a24,24,0,0,1,3.18-4.46c7.65-8.94,15.5-17.72,23-26.8A186.82,186.82,0,0,0,165.53,221c2.7-4.31,3.95-9.55,5.68-14.44q3.19-9,6.08-18.16c1.61-5.07,3.08-10.18,4.5-15.3,1.14-4.13,2.1-8.3,3.14-12.45,1.58-6.32,3.2-12.63,4.74-19,1.3-5.31,2.51-10.63,3.78-15.95C193.61,125,193.86,124.34,194.23,123.09Z"/><path d="M187.54,304.64c0-2.68,1.25-4.32,2.47-5.9,3.79-4.88,7.81-9.58,11.41-14.6,4.75-6.63,9.62-13.25,13.64-20.33a250.92,250.92,0,0,0,11.38-23.66c2.54-5.85,4.42-12,6.56-18,.33-.93.48-1.92.73-2.88,1-4,2.09-7.92,3.06-11.91s1.75-8,2.8-12c.94-3.51,2.09-7,3.25-10.43.21-.61.89-1.06,1.45-1.69,1.63,2.76.67,5.19.08,7.58-1.31,5.31-2.69,10.6-4.07,15.9-2,7.57-3.75,15.19-6,22.68a101.12,101.12,0,0,1-6.23,16.84c-5.67,11.11-11.77,22-18,32.81-5.41,9.32-12.72,17.16-20.67,24.38A15.93,15.93,0,0,1,187.54,304.64Z"/><path d="M237.86,154.37c-.63,7.18-1.2,14-1.85,20.87-.54,5.68-1.1,11.37-1.8,17-.33,2.69-1,5.34-1.52,8-.9,4.84-1.61,9.73-2.72,14.52a57.94,57.94,0,0,1-3.44,11.11,222.32,222.32,0,0,1-10.57,21c-5.71,9.65-12,19-18.07,28.4-.17.25-.25.63-.48.77a14.66,14.66,0,0,1-1.7.8c-.11-.55-.48-1.21-.29-1.63a53.49,53.49,0,0,1,3.28-6.77c5.85-9.39,12-18.61,17.69-28.09a74.84,74.84,0,0,0,9.28-23c1.53-7.22,3.44-14.39,4.41-21.69,1.32-10,1.95-20,2.82-30,.52-6.07.91-12.15,1.43-18.22a5.57,5.57,0,0,1,1-1.83c.54.54,1.44,1,1.56,1.65C237.34,149.68,237.58,152.2,237.86,154.37Z"/><path d="M254.28,301.51a20,20,0,0,1,1.53-3.69c2.41-3.6,5.23-6.94,7.39-10.67,2.26-3.92,3.92-8.17,5.85-12.28.68-1.44,1.53-2.82,2.07-4.31,2.68-7.37,5.52-14.7,6.46-22.58.16-1.4,1.05-2.71,1.31-4.11,1.43-7.53,2.75-15.09,4.16-22.62,1.05-5.66,2.24-11.29,3.26-16.94.84-4.67,1.55-9.35,2.28-14,.36-2.25.65-4.52.93-6.79.62-4.91,1.12-9.84,1.87-14.73.18-1.15,1.2-2.17,1.83-3.24l.7.27a5.1,5.1,0,0,1,.55,1.39,65.24,65.24,0,0,1-2.21,24c-1.67,6.08-2.74,12.33-4.05,18.51-.55,2.6-1.11,5.21-1.55,7.83-.49,2.92-.77,5.88-1.28,8.79-.94,5.39-1.91,10.77-3,16.13-1.22,5.89-2.44,11.79-4,17.6A72.17,72.17,0,0,1,274.57,271c-2.17,4.92-4.68,9.71-7.15,14.51a41.77,41.77,0,0,1-2.8,4.14c-2.1,3.08-4.17,6.18-6.32,9.22-.83,1.18-1.87,2.21-2.82,3.31Z"/><path d="M319.8,258.9a33.67,33.67,0,0,1,.76-3.59c2-5.83,4.29-11.55,5.89-17.47,1.67-6.22,2.64-12.63,4-19,.66-3.16,1.42-6.3,2.11-9.46.12-.57,0-1.19.13-1.78.23-1.63.48-3.27.75-4.9a10.86,10.86,0,0,0,.39-1.54c.17-6.77.3-13.55.44-20.32a5.3,5.3,0,0,1,0-.69c.22-1.32,0-3.15,1.91-3.15s1.7,1.79,1.61,3c-.36,4.73-.88,9.44-1.32,14.17-.09.9-.05,1.82-.13,2.73-.15,1.57-.35,3.15-.51,4.72-.31,2.87-.61,5.73-.91,8.6a111.69,111.69,0,0,1-3.21,18.85c-1.51,5.33-2.35,10.87-4.16,16.08-1.69,4.86-4.26,9.42-6.45,14.11Z"/><path d="M368.73,266.18c-.62,2.64-1.05,4.64-1.57,6.62-.66,2.53-1.35,5.05-2.12,7.54A4.25,4.25,0,0,1,364,282a10.78,10.78,0,0,0-3.47,7c-.42,6.09-3.36,11.31-5.77,16.65s-5.29,10.31-8.15,15.35c-2.11,3.71-4.46,7.3-6.85,10.83-.44.65-1.61.8-2.44,1.17,0-.9-.41-2,0-2.68,1-2,2.47-3.68,3.44-5.65,5.52-11.21,10.93-22.48,16.41-33.71.84-1.71,2.11-3.23,2.78-5,1.16-3.08,2-6.27,3-9.41.64-2,1.4-4,2-6a20,20,0,0,0,.6-3.79c.1-1.26.1-2.77,1.72-2.65C367.81,264.24,368.36,265.69,368.73,266.18Z"/><path d="M358,267.07a23.13,23.13,0,0,1,.17-3.12c1.14-6.06,3-12.08,3.33-18.18.39-6.57,1.29-13.09,1.8-19.63.35-4.44-.46-8.93.92-13.46,1.11-3.68.37-7.88.77-11.82a22.21,22.21,0,0,1,1.71-5.39c.15-.38.78-.57,1.18-.85a9,9,0,0,1,.81,1.26,2.11,2.11,0,0,1,0,.9c-.49,7.9-.9,15.8-1.53,23.68-.32,4-1.12,7.95-1.54,11.93-.36,3.38-.49,6.78-.71,10.17a6.41,6.41,0,0,1-.1,1.82c-1.47,3.71-1.69,7.55-1.88,11.5-.14,2.89-1.19,5.77-2.06,8.58a11.49,11.49,0,0,1-2,2.88Z"/><path d="M425.62,268.75c-1-3.61-.14-6.71,1.14-9.72,1.87-4.4,3.87-8.75,5.69-13.17,3.07-7.47,6-15,9.07-22.48,1.8-4.43,3.64-8.86,5.62-13.21.37-.81,1.5-1.26,2.28-1.88.33.9,1.15,2,.92,2.69a131.22,131.22,0,0,1-5,14.41,205.38,205.38,0,0,1-10.48,21.06c-3.19,5.4-4.2,11.35-6.2,17.06C428,265.38,426.65,267,425.62,268.75Z"/><path d="M132.23,156.8a16.46,16.46,0,0,1-.39-3.46c.32-3.39.83-6.76,1.24-10.15.34-2.87.59-5.76,1-8.62.62-4.65,1.3-9.29,2-13.92a12,12,0,0,1,.83-2.22l.91-.07c.4,1.52,1.26,3.1,1.1,4.56-.87,7.8-2.1,15.56-3,23.36a23.17,23.17,0,0,1-1.64,7.18c-.5,1.09-.82,2.26-1.22,3.39Z"/><path d="M246.92,221.8c.64-3.69,1.22-7.39,1.92-11.07.35-1.85.85-3.67,1.36-5.48.75-2.64,1.67-5.22,2.33-7.88.91-3.61,1.61-7.27,2.49-10.89a6.45,6.45,0,0,1,1.13-1.77c.51.61,1.48,1.26,1.43,1.83a74.08,74.08,0,0,1-1.16,7.84c-.54,2.76-1.21,5.49-1.89,8.21-.54,2.14-1.22,4.23-1.81,6.35s-1.07,4.51-1.84,6.68S249,220,248,222.11Z"/><path d="M401,278.93c.32-1.39.6-2.8,1-4.2.74-2.73,1.6-5.43,2.29-8.18.25-1,0-2.14.28-3.16.13-.57.74-1,1.13-1.52.43.39,1.09.71,1.24,1.19a5.77,5.77,0,0,1,.26,2.66q-1.51,7.77-3.25,15.5c-.14.62-.88,1.11-1.35,1.66a8.12,8.12,0,0,1-1.24-1.67A9.79,9.79,0,0,1,401,278.93Z"/><path d="M263.84,305a23.12,23.12,0,0,1-2.33,4.54c-1.55,1.88-3.55,3.39-5.24,5.18-1.14,1.21-2,2.69-3.11,3.91-1.33,1.43-2.83,2.71-4.26,4.06l-.89-.9c4.13-6.51,9.88-11.63,15.08-17.21Z"/><path d="M159.05,202.4c-.77-3.66.45-6.52,2.24-9.19a2.23,2.23,0,0,1,1.48-.6c.43.65,1.13,1.6.92,2.14C162.68,197.45,162.07,200.45,159.05,202.4Z"/><path d="M420.61,281c-1.67-2.75-.57-6.31,3.11-10.07C425,273.94,423.39,279.28,420.61,281Z"/><path d="M246.57,226.13c.56,4-.2,6.38-3.14,9.64A8.2,8.2,0,0,1,246.57,226.13Z"/><path d="M130.76,169.34a5.28,5.28,0,0,1-.41-6.93,15,15,0,0,1,2.33-1.83c0,1,0,2.09-.11,3.13a19.12,19.12,0,0,1-.54,3.56A8.7,8.7,0,0,1,130.76,169.34Z"/><path d="M168.14,181.52c-.58,2.13-1.1,4.27-1.79,6.36a1.7,1.7,0,0,1-1.38.91c-.4,0-.86-.78-1-1.29C163.37,185.59,165.36,182,168.14,181.52Z"/><path d="M170,169.48l3.45-9.26C175.86,161.81,174.08,167.4,170,169.48Z"/><path d="M154,211.25c.45-2.94,1.46-5.26,4-6.69A5.12,5.12,0,0,1,154,211.25Z"/><path d="M397.72,298.69a18.47,18.47,0,0,1-.43,4.12c-.25.71-1.14,1.25-1.85,1.7-.21.13-1.12-.3-1.11-.45a4.31,4.31,0,0,1,.44-2.26A27.83,27.83,0,0,1,397.72,298.69Z"/><path d="M258.4,125.67a29.44,29.44,0,0,1-3.06-1.83q-11.53-8.82-23-17.73a8.58,8.58,0,0,1-1.52-2.42c1.11-.15,2.39-.72,3.29-.34a20,20,0,0,1,4.39,2.88c5,3.85,10.13,7.62,15,11.69,2,1.68,3.45,4,5.1,6.11.24.3.19.81.28,1.23Z"/><path d="M138.12,80.75a29.26,29.26,0,0,1-4.5,1.25c-7.2.82-14.42,1.53-21.63,2.24a2.35,2.35,0,0,1-1.73-.32,3.15,3.15,0,0,1-.79-2.09c0-.41.88-1.07,1.4-1.1,6.38-.42,12.76-.81,19.15-1,2.68-.1,5.36.17,8,.28Z"/><path d="M381.69,149c-3.8,1.22-15-.43-16.06-2.3C370.25,143.75,380.71,145.41,381.69,149Z"/><path d="M333.92,141.75c.58-2,1-2.48,2.61-2,3.09.87,6.33,1.16,9.48,1.85a11.22,11.22,0,0,1,2.68,1.43c-.92.53-1.84,1.53-2.75,1.51a31,31,0,0,1-6.23-1C337.82,143.09,336,142.4,333.92,141.75Z"/><path d="M107.13,313.44a3.07,3.07,0,0,1-3.41,2.9,106.52,106.52,0,0,1-11.28-.92,14.87,14.87,0,0,1-4.23-1.61c-.47-.22-.74-.85-1.1-1.3.46-.33.94-1,1.38-.93,2.32.16,4.84,0,6.9.89,2.88,1.23,5.61.9,8.48.66A17.69,17.69,0,0,1,107.13,313.44Z"/><path d="M110.31,307c5.54,1.45,10,4,14.78,6.88C119.91,315.74,112.29,312,110.31,307Z"/></g></g></svg>