<svg xmlns="http://www.w3.org/2000/svg" viewBox="0 0 1351.13 790.34"><defs><style>.cls-1{fill:#757575;}</style></defs><g id="Capa_2" data-name="Capa 2"><g id="Logo_Horizontal" data-name="Logo Horizontal"><g id="Copa_cubiertos" data-name="Copa &amp; cubiertos"><g id="Cuchillo"><path class="cls-1" d="M956,386.25c-1.07,13.33-2.16,37.48-3.25,67.3q25.05-.94,50.13-.85V59.17c0-64.46-39.75-45.81-50-.91-17.64,77.18-29.33,232.88-29.11,307C923.82,384.51,957.08,372.73,956,386.25Z"/><path class="cls-1" d="M946.58,656.67c-1.3,43.41-2.48,78.6-3.48,92.85-3.73,53.48,59.78,52.08,59.78,9.38V656.74Q974.73,656,946.58,656.67Z"/></g><g id="Tenedor"><path class="cls-1" d="M396.35,296.64c.82,20.93-3.28,116-7.4,214q25.23-.24,50.35-1.5c-7.8-97.8-15.47-192.45-15.83-212.46-.2-10.75,16.37-8.58,35.91-36.87,11.73-17,15.2-28.83,13.29-100.85-1.45-54.41-7.62-124-14.09-142.91s-13.42-21.17-13.42,8.47c0,23,0,139.92,0,152.87s-15.35,16.43-15.35,1.49V14c0-12-13.6-12.43-13.6.1V178.81c0,14-12.61,11.48-12.61,0V13.52C403.58,2,389.12,2,389.12,13V177.84c0,10-12.47,16.44-14.57,0s-.41-139.5,0-150.95C376-13,365.82-1.64,360.62,17.05c-4.69,16.81-14.93,93.82-14.93,142.37,0,53,3,83.31,15,103.49C376.33,289.08,395.88,284.44,396.35,296.64Z"/><path class="cls-1" d="M381.61,711.05c-.39,19.26-.37,33,.2,38.86,5.54,55.82,72.35,49.67,74.1-1.76.21-6.06-.44-20.48-1.69-40.61C430.08,709.26,405.89,710.49,381.61,711.05Z"/></g><g id="Copa"><path class="cls-1" d="M684.53,482.35c2.23-8.7,4.89-17.51,8.07-26.51-29.81,6.16-47.63,6.48-74-2.25A352.5,352.5,0,0,1,629.15,490Q656.87,486.28,684.53,482.35Z"/><path class="cls-1" d="M677.61,690.22c-.07-2.69-.14-5.33-.22-8q-18.66,2.47-37.35,5c0,1.26,0,2.5,0,3.72,0,74-107.66,67.06-107.66,95.26,27.54.08,196,.41,242,0C774.37,754.21,679.77,774.7,677.61,690.22Z"/><path class="cls-1" d="M648.29,462.58h0c-53.75,0-95.51-16-124.12-47.66-31.85-35.19-45.86-89.87-39.45-154,4.07-40.72,15.5-65.47,26.56-89.41C527.79,135.79,543.4,102,535.78,14.41a9,9,0,0,1,17.9-1.56c8,92.38-9.31,129.92-26.09,166.23-10.92,23.63-21.23,45.94-25,83.66-5.9,59,6.49,108.74,34.89,140.12,25.07,27.7,62.35,41.75,110.8,41.75,54.77,0,96-15.37,122.68-45.69,27.61-31.42,38.81-79.64,31.53-135.79-4.72-36.41-13.91-59.21-22.8-81.26-15.37-38.13-29.89-74.15-22.15-169a9,9,0,0,1,17.91,1.46c-7.4,90.59,6.35,124.69,20.91,160.79,9.31,23.1,18.94,47,23.95,85.67,8,61.35-4.78,114.6-35.85,150C754.26,445.15,708.44,462.58,648.29,462.58Z"/><path class="cls-1" d="M750,119.42c7.66,55.62,31.18,63.74,42,147.65,11.19,86.28-23.43,168.16-143.15,168.16C537,435.23,504.56,352.73,513.14,267c4.53-45.31,18.63-79.84,28.13-93.36C600.82,178.56,728.7,138.34,750,119.42Z"/></g><g id="Ribbon"><path class="cls-1" d="M154.6,672.92c355,90,701.92-95.11,1041.92-3.85V493.6c-329.44-99-688.89,95-1041.92,4.2Z"/><path class="cls-1" d="M156.58,487.58c19.6,6.1,66.69,17.45,87.84,18.93l-.87-37S167.52,484.87,156.58,487.58Z"/><path class="cls-1" d="M145.16,615.13l-.08-135.79s87.17-17,98.19-19.95c-41.8-4.94-128-16.15-187.63-38l32.45,96.88S45.51,547.26,0,578.32C50.78,599.54,118.77,606.44,145.16,615.13Z"/><path class="cls-1" d="M1194.55,680.68c-19.6-6.09-66.69-17.44-87.84-18.93l.87,37S1183.6,683.39,1194.55,680.68Z"/><path class="cls-1" d="M1206,553.13l.09,135.79s-87.17,17-98.19,20c41.8,5,128,16.15,187.62,38L1263,650s42.58-29,88.09-60.07C1300.35,568.73,1232.36,561.82,1206,553.13Z"/></g></g></g></g></svg>