<svg xmlns="http://www.w3.org/2000/svg" viewBox="0 0 454.45 314.53"><g id="Capa_2" data-name="Capa 2"><g id="Capa_1-2" data-name="Capa 1"><path d="M329.72,25.15c1-.81,2-1.67,3.1-2.41,2.61-1.76,5.19-3.59,7.91-5.16,4.39-2.52,8.8-5,13.37-7.18a41.74,41.74,0,0,1,10.59-3.72A140,140,0,0,1,383,5a44.53,44.53,0,0,1,24,6.44A51.81,51.81,0,0,1,422.08,25c5.66,7.44,11,15.11,16.33,22.8,5.64,8.19,9.95,17.18,11.53,27,1.24,7.65.74,15.59,1,23.39.23,6.83-2.06,13.18-3.79,19.63a1.88,1.88,0,0,1-.25.7c-2.23,2.54-.93,5.09.14,7.49a87.74,87.74,0,0,1,6.2,21.86A84,84,0,0,1,448.6,193c-2.22,5.56-5.92,10.67-9.61,15.49-5.22,6.81-12.05,12.08-19.08,16.93a99.64,99.64,0,0,1-13.3,7.4c-4.79,2.31-9.76,4.28-14.72,6.21-2,.79-4.24,1-6.32,1.61a4.58,4.58,0,0,0-2.44,1.5,100.47,100.47,0,0,1-15.83,19.25c-5.2,4.78-11,8.87-16.54,13.32a76.41,76.41,0,0,1-19.67,11.36c-9.19,3.68-18.57,6.89-28,10a82.11,82.11,0,0,1-12.32,2.94c-6.22,1.08-12.49,1.85-18.75,2.7-4.52.61-9.05,1.22-13.59,1.65-2.84.28-5.72.27-8.59.28a1.16,1.16,0,0,1-.46-2.26,14,14,0,0,1,3-.48c5.29-.53,10.58-1,15.86-1.56,4.86-.52,9.77-.86,14.56-1.79,6.19-1.19,12.31-2.76,18.4-4.41a150.25,150.25,0,0,0,15.19-4.76c6.14-2.4,12.18-5.1,18.05-8.07a101.69,101.69,0,0,0,23-15.49c4.18-3.82,8.08-7.94,11.94-12.09a99,99,0,0,0,14-19.9c2.38-4.3,4.19-8.92,6.28-13.4,5.58-12,9.05-24.72,11.75-37.57,2.31-11,.92-21.74-6.63-30.88a17.76,17.76,0,0,0-1.67-1.5c-.18.42-.23.82-.46,1a11.15,11.15,0,0,1-1.46,1c-.18-.6-.71-1.39-.49-1.77.9-1.63-.12-2.12-1.23-2.92-5.59-4-11.94-4.4-18.42-3.89a73.31,73.31,0,0,0-11.64,1.64c-6.2,1.51-12.3,3.43-18.42,5.27-5.5,1.66-11,3.26-16.42,5.21-6.59,2.38-13.06,5.12-19.58,7.68-3.44,1.35-6.91,2.63-10.34,4-2.24.89-4.49,1.78-6.65,2.84-6.51,3.22-13.21,6.13-19.4,9.89-7.36,4.47-14.79,9.1-21.22,14.76a93.72,93.72,0,0,0-15.51,17.91A47.34,47.34,0,0,0,224,235.5c-.27,3.71-.52,7.3.95,10.81a1.2,1.2,0,0,1,0,.75c-1.4,5.73,2.45,9.77,4.66,14.31,2.58,5.3,5.41,10.49,8,15.8,2.76,5.69,5.46,11.41,8,17.21,1.82,4.22,1.9,8.59-2,11.56-2.05,1.56-3.89,3.68-6.2,4.56a53.79,53.79,0,0,1-14.58,3.8c-13.5,1.23-25.81-2.82-38.1-7.11-4.8-1.68-9.26-4.33-13.87-6.53l-10.41-5q-11.52-5.55-23.05-11.11a328.57,328.57,0,0,1-41.44-23.92c-5.61-3.78-10.66-8.38-16-12.6a116.84,116.84,0,0,1-19.72-20.22c-3.33-4.29-6.37-8.79-9.82-13a56.25,56.25,0,0,0-7.15-7,177.26,177.26,0,0,1-31.59-34.34,67.9,67.9,0,0,1-9.36-19.37A63.54,63.54,0,0,1,.12,139a183.76,183.76,0,0,1,.4-20,45,45,0,0,1,5.19-17.2,58.45,58.45,0,0,1,11.11-15C26.1,77.5,37.44,71,48.13,63.61c5.1-3.52,10.13-7.19,14.86-11.19,3.48-3,6.39-6.59,9.63-9.84a28.48,28.48,0,0,1,16.06-8.5c4-.6,8-.86,12-1.36a5.12,5.12,0,0,0,2.51-.94c4.3-3.54,8.45-7.27,12.8-10.75,5.87-4.68,11.64-9.53,17.88-13.67A39.51,39.51,0,0,1,150.64,1a27.65,27.65,0,0,1,9.63.6c4.6,1.08,9,2.84,13.54,4.32a2.5,2.5,0,0,1,1.13.51c2.62,3,5.61,2,8.72,1a146,146,0,0,1,14.08-4,134.18,134.18,0,0,1,15.07-2.1c7-.64,14-1.22,21.06-1.34a147.9,147.9,0,0,1,15.58,1c4.63.41,9.26.9,13.86,1.62,3.86.61,7.65,1.66,11.5,2.41,12,2.31,23.36,6.55,34.68,10.89,6.46,2.48,12.55,6,18.8,9,.6.29,1.17.63,1.75.95Zm59.47,35.53c2.42-1,4.86-2,7.26-3.11,6.5-2.86,13-5.72,20.07-6.88a6.8,6.8,0,0,1,2.39.49c-.56.81-.93,2-1.7,2.35-3.37,1.62-6.87,3-10.3,4.48-3.08,1.35-6.18,2.68-9.2,4.17a34.48,34.48,0,0,0-3.92,2.59l.06.88c16.09.79,29.69,8.6,43.87,15a6.54,6.54,0,0,1-3.88.34c-3.93-1.4-7.77-3-11.63-4.63-2-.83-3.9-2.12-6-2.56-7.57-1.61-15-4.06-22.87-4-4,0-8,0-12.83,0,2,3.41,3.68,6,5.1,8.83a87.28,87.28,0,0,1,8.4,23.06c1,5.17,1.43,10.46,2.14,15.69a67.46,67.46,0,0,1-1.45,24.92,2.9,2.9,0,0,0,1.2,3.44c4.78,3.62,7.27,8.81,9.46,14.41a15.42,15.42,0,0,1,2.12-1c.74-.23,1.69,0,2.3-.36A76.58,76.58,0,0,0,432.3,138c6.47-8.95,10.46-19,13.08-29.35,2.88-11.42,3.27-23.2-.64-34.7-1.29-3.8-2.06-7.85-3.89-11.37-3.42-6.6-7.25-13-11.25-19.29-5.46-8.56-11.39-16.81-19-23.66A43.55,43.55,0,0,0,387.19,8.93c-10.54-1.55-20.84.13-30.7,3.71a90.27,90.27,0,0,0-24.86,13.88c18.65,10.9,35.25,24,47.7,41.71,3.41-2.31,6.6-4.45,9.76-6.64.19-.13.13-.63.19-1ZM221.74,246.62l.53.11c0-1,0-2,0-3-.16-2.71-.87-5.5-.44-8.11,1-6.35,2.2-12.7,4.94-18.63s5.71-12,10.1-17c5.32-6,11-11.72,17.91-16,6.45-4.06,12.81-8.27,19.43-12,5-2.84,10.26-5.16,15.49-7.54,6.84-3.11,13.64-6.34,20.65-9,8.5-3.22,17.18-6,25.82-8.79,5.58-1.82,11.23-3.4,16.86-5,3-.88,6-2.1,9-2.42,5.08-.53,10.23-.49,15.35-.63A21,21,0,0,1,390,141.87c1.4.93,2.4,1,2.65-.92a77.93,77.93,0,0,0,.93-8.72c.17-9.65.08-19.23-2.29-28.74a100,100,0,0,0-8.68-23c-7.32-13.73-17.72-25-29.8-34.66a178.63,178.63,0,0,0-26-16.82,204,204,0,0,0-36.29-15.23c-6.49-2.07-13.21-3.48-19.88-4.93-4.48-1-9-1.65-13.59-2.19-6.3-.75-12.62-1.53-18.95-1.76-5.93-.22-11.91.12-17.85.46a108.77,108.77,0,0,0-13.85,1.48c-6.56,1.24-13.11,2.73-19.53,4.56a143.84,143.84,0,0,0-18.67,6.43c-5.82,2.57-11.29,6-16.81,9.25a96.62,96.62,0,0,0-20.51,16.38,164.3,164.3,0,0,0-15,17.49,136.84,136.84,0,0,0-11.08,18.77A121.24,121.24,0,0,0,97.23,98a171.7,171.7,0,0,0-4.51,19.75,71.24,71.24,0,0,0-1.07,11.67c-.07,4.23.19,8.48.53,12.7a80.52,80.52,0,0,0,1.41,9.9c.81,3.83,2,7.58,2.92,11.4.16.66-.32,1.48-.5,2.23-.57-.48-1.51-.87-1.67-1.47-1.52-5.88-3.39-11.72-4.23-17.71a122.47,122.47,0,0,1-1-19.25,100.06,100.06,0,0,1,1.75-19,132.08,132.08,0,0,1,16.7-42.13,135.85,135.85,0,0,1,19.15-24.73,123.18,123.18,0,0,1,21.2-17.55A137.9,137.9,0,0,1,170.21,12.3c1.78-.71,3.48-1.65,5.53-2.64A26.1,26.1,0,0,1,171,7.83c-5.17-3.33-11.11-3.4-16.82-3.64-6.54-.27-12.67,2.25-17.82,6.1-8,6-15.76,12.46-23.4,19C101.81,38.79,90.83,48.52,79.8,58.19c-7.24,6.35-14.62,12.56-21.58,19.2-6.37,6.09-12,12.84-15.06,21.38a33.4,33.4,0,0,0-1.88,16.8c1.17,7.48,4.39,14.11,8.28,20.38,6.86,11.08,15.75,20.44,25.58,28.92a7.26,7.26,0,0,0,3.46,1.77c6.39.87,12.83,1.4,19.21,2.3,7.64,1.07,15.32,2.07,22.85,3.7,8.24,1.79,16.37,4.13,24.48,6.46a93.56,93.56,0,0,1,26.19,12,121,121,0,0,1,12.94,9.83c5.6,4.92,11,10.09,16.2,15.45a101.72,101.72,0,0,1,8.13,10.28c2.17,2.93,4.2,6,6.21,9C217.17,239.28,219.43,243,221.74,246.62Zm22.86,52a20.32,20.32,0,0,0-.86-3.6c-3.28-7.35-6.43-14.78-10.06-22-4.77-9.44-9.85-18.73-15-28-1.84-3.28-4.59-6.05-6.42-9.33a69.72,69.72,0,0,0-11.29-15c-4.75-4.81-9.21-9.92-14.09-14.58a106.07,106.07,0,0,0-11.69-9.55c-2.8-2-6.29-3-9.07-5.06-4.52-3.27-9.61-5.05-14.8-6.72-3.74-1.2-7.46-2.46-11.22-3.59-3.51-1.06-7-2.11-10.6-2.94-4.22-1-8.49-1.7-12.74-2.53-1-.19-2-.38-3-.51-2-.25-4-.39-6-.7-3.11-.48-6.2-1.24-9.32-1.56s-6.39-.2-9.58-.42c-7-.48-14-1.07-21-1.58-2.48-.19-5-.25-7.47-.41-5-.31-10.07-.92-15,.69-2.19.72-3.86,2.27-3.89,4.71,0,2.84-.2,5.84.6,8.49A115.7,115.7,0,0,0,52,207.9a139.88,139.88,0,0,0,24.13,31A199.33,199.33,0,0,0,116,269.17c12.7,7.39,25.85,14,38.87,20.82,6.22,3.25,12.6,6.21,19,9.19,5.46,2.56,10.93,5.12,16.52,7.41A75.27,75.27,0,0,0,220,312a36.82,36.82,0,0,0,8.31-1c3-.75,5.87-2.13,8.84-3.09C240.51,306.85,244.17,302.29,244.6,298.64ZM98.68,36l-.19-.83c-2.56.44-5.15.73-7.65,1.37a44.51,44.51,0,0,0-8.21,2.67c-3.64,1.73-6.32,4.59-8.95,7.75-7.51,9-17.07,15.77-26.54,22.6-8.31,6-16.72,11.89-24.57,18.44a47.41,47.41,0,0,0-16,25.47c-2.1,8.49-1.84,17.11-1.58,25.79.36,11.49,4,21.82,9.87,31.47,7.93,13.06,18.54,23.92,29.23,34.68a5,5,0,0,0,1.2.58,18.6,18.6,0,0,0-.63-1.89C40.8,196,37,187.91,36.36,178.78A12.09,12.09,0,0,1,41,168.1c3.45-2.68,8-2.73,12.3-2.68,5.17.06,10.34.58,15.51.82a31.21,31.21,0,0,0,4.09-.42c-1.41-1.1-2.28-1.73-3.09-2.42a124.79,124.79,0,0,1-19.67-20.64c-6.29-8.6-11.78-17.48-13.34-28.42-1.16-8.14.94-15.55,4.3-22.53,2.17-4.51,5.71-8.44,9-12.32A124.32,124.32,0,0,1,61.76,67.14c8.58-7.67,17.46-15,26.25-22.44C91.52,41.73,95.12,38.88,98.68,36Zm307.59,126.7c0,.37.09,1,.1,1.69.1,5.69,1.23,11.61,0,17a292.28,292.28,0,0,1-9.48,32.75c-2.53,7.29-5.45,14.56-9.85,21.06-.32.47,0,1.35,0,2a7.55,7.55,0,0,0,1.79-.15c.71-.22,1.32-.75,2-1,9-2.63,16.77-7.66,24.48-12.64a91.48,91.48,0,0,0,19.13-16.91,53.43,53.43,0,0,0,9.92-16.23,87.34,87.34,0,0,0,4.56-19,99.42,99.42,0,0,0-.86-31.33c-.87-5-2.38-9.84-3.76-15.38a90.6,90.6,0,0,1-12.91,19.87,71.89,71.89,0,0,1-17.94,15.13C411.43,160.89,409,161.57,406.27,162.68Z"/><path d="M273,288.79c1.42-1,2.91-1.91,4.23-3a45.41,45.41,0,0,0,6.3-5.66A69.27,69.27,0,0,0,290.66,270c2.71-4.87,5-10,7.3-15.07,5.36-12.07,7.32-25,9.4-37.91,1.34-8.36,2.87-16.68,4.5-25,1.08-5.5,2.43-11,3.81-16.4.21-.83,1.24-1.45,1.88-2.17.25.88.82,1.8.69,2.61-1.15,7.44-2.52,14.86-3.65,22.3-1.93,12.75-3.17,25.62-5.78,38.22-1.68,8.11-4.91,16-8.1,23.68a68.72,68.72,0,0,1-19,25.79,29.11,29.11,0,0,1-5.46,3.56c-.79.43-1.93.2-2.91.27C273.23,289.51,273.1,289.15,273,288.79Z"/><path d="M377.6,215.05a5.15,5.15,0,0,1-1.25,5.33c-2.49,2.54-5.12,5-7.65,7.46-4.82,4.77-10.66,8-16.6,11.07-5.07,2.57-10.4,4.63-15.66,6.81-4.23,1.75-8.62,3.13-12.75,5.08s-7.59,4.62-9.65,8.82c-.86,1.76-2.14,2.44-3.79,1.12-1.38-1.1-1.2-2.23-.24-3.88,5.09-8.72,14-11.09,22.59-14.08,4.95-1.71,9.83-3.65,14.76-5.43a57.18,57.18,0,0,0,17.34-9.79c2.88-2.39,5.55-5,8.26-7.63C374.43,218.52,375.78,217,377.6,215.05Z"/><path d="M377.73,164.45a15.07,15.07,0,0,1-3.11,2.54c-5.19,2.36-8.9,6.47-12.22,10.78-8.46,11-17.77,20.9-30.23,27.46-3.26,1.71-6.29,3.86-9.42,5.84-1.55,1-3.17,1.15-4.11-.56s.09-2.62,1.64-3.53c7.65-4.46,15.34-8.86,22.73-13.72,3.38-2.23,6.22-5.35,9.06-8.31,4.5-4.68,8.61-9.76,13.25-14.29,2.65-2.59,6-4.49,9.12-6.57a8.14,8.14,0,0,1,2.74-.57Z"/><path d="M255.09,219a8.64,8.64,0,0,1,2,1.84c3,5.61,6.15,11.2,11,15.43a46.81,46.81,0,0,0,8.4,6c7.39,3.95,11.33,10,11.88,18.26.18,2.65.38,5.31.4,8a9.8,9.8,0,0,1-.67,3.41c-.48,1.32-1.51,2.64-3,1.77a4.31,4.31,0,0,1-1.52-3.19c-.07-3.42.25-6.84.33-10.26.17-7.55-4.12-12.33-10.19-15.79s-10.48-8.56-14.1-14.38c-1.68-2.7-3.13-5.55-4.63-8.36a12.38,12.38,0,0,1-.71-2Z"/><path d="M274.34,191.91c1.77,13.65,9.94,21.1,23,24.3,0,.66.16,1.55.12,2.43-.06,1.48-.87,2.11-2.35,1.76-6.42-1.51-11.53-5.09-15.82-10-3.72-4.25-5.69-9.32-6.81-14.74-.23-1.14.35-2.44.55-3.67Z"/><path d="M252.07,32.12c-2.4,2.66-4.86,5.26-7.17,8a27.45,27.45,0,0,0-4,5.41c-2.11,4.26-4,8.61-5.74,13-2.77,7.26-5,14.73-8,21.89a141.32,141.32,0,0,1-8.32,16.25c-8.21,14.19-16.16,28.49-18.11,45.14a89.06,89.06,0,0,0,2.29,33.09,86.21,86.21,0,0,0,12.51,27.16,6.42,6.42,0,0,1,.57,1.75l-.73.55a46.16,46.16,0,0,1-3.84-4.09A83.25,83.25,0,0,1,196.89,166c-2.87-15.26-1.25-30.07,4-44.68,3.45-9.57,9.13-17.86,13.82-26.73,3.4-6.41,6.56-13,9.52-19.57,3.82-8.51,7.05-17.3,11.08-25.7a50.22,50.22,0,0,1,13.86-17.49c.63-.5,1.84-.29,2.78-.41Z"/><path d="M311.17,75.33c-.2,1.81-.36,2.88-2.22,3.11a49.37,49.37,0,0,0-6.26,1.47c-3,.77-6,1.44-8.85,2.44-3.14,1.08-6.15,2.51-9.23,3.76a65.09,65.09,0,0,0-19.2,12.1,86.38,86.38,0,0,0-12.81,15c-4.73,6.89-8.59,14.36-12.92,21.53-5.48,9.07-11.4,17.82-18.94,25.37-1.43,1.43-3,1-4.22,0s-.43-2.16.47-3.18c3.95-4.42,8.09-8.7,11.71-13.37,2.83-3.66,5-7.82,7.47-11.75,3.73-5.94,7.18-12.1,11.31-17.75a150.08,150.08,0,0,1,13.24-15.69c5.49-5.68,12.21-9.8,19.42-13.06,3.19-1.44,6.34-3,9.6-4.2,3-1.14,6.18-2,9.32-2.88C302.9,77.26,306.79,76.39,311.17,75.33Z"/><path d="M126.63,70.1l2.22.76c-1.92,6.54.74,12.79,7.24,16.85,4.62,2.89,9.44,5.46,14,8.42a78.93,78.93,0,0,1,27,28.77c3.16,5.83,5.3,12.22,7.87,18.36.75,1.81.2,3.24-1.68,3.76s-2.72-1-3.08-2.49a76.85,76.85,0,0,0-21.06-37c-6-6-13-10.63-20.21-14.89-4.46-2.62-8.57-5.7-11.18-10.29C125.61,78.64,124.7,74.65,126.63,70.1Z"/><path d="M241.23,80.59c-3.16-3.31-3.19-4-.37-6.48,4.62-4.1,8.91-8.71,14-12,5.9-3.83,12.5-6.61,18.91-9.6a47.94,47.94,0,0,1,9.57-3.3c5.64-1.29,11.35-2.36,17.08-3.14a54.2,54.2,0,0,1,9.62,0c.55,0,1.07,1,1.6,1.47-.67.39-1.32,1.07-2,1.12-2.81.21-5.65.11-8.45.33-3,.24-6,.62-9,1.12a36.57,36.57,0,0,0-6.82,1.6c-4.68,1.73-9.24,3.79-13.88,5.62C262.12,61,254.4,67.11,247.23,74,245.16,76.05,243.32,78.3,241.23,80.59Z"/><path d="M199.51,93.25c-1,.89-1.91,2.39-3,2.53-1.86.24-2.7-1.28-2.74-3.15a62.46,62.46,0,0,0-3.55-20.7,85.81,85.81,0,0,0-5.07-10.6C181.76,55,181.78,48.55,183.83,42c.25-.8,1.62-1.26,2.48-1.87.08,1,.49,2.06.19,2.88-2,5.45-2.1,10.63.84,15.9A119.79,119.79,0,0,1,195.23,75c1.69,4.52,2.17,9.49,3.16,14.27.24,1.14.4,2.3.6,3.46Z"/><path d="M177.76,286.1c-.9-6.9,1.56-12.86,4.89-18.35a101.91,101.91,0,0,1,10.59-14.66,48.65,48.65,0,0,0,8.33-13.25,35.8,35.8,0,0,1,2.4-5.55,4.35,4.35,0,0,1,.29,1.53c-1.25,5.43-2.86,10.68-6.43,15.16a54.36,54.36,0,0,0-3.42,5.72c-3.32,5.44-6.89,10.74-9.93,16.34-2.12,3.9-2.35,8.29-1.52,12.74a4.05,4.05,0,0,1-1.12,3.18c-1.16,1.08-2.81,1.66-4.36.45-6.84-5.36-13.76-10.56-19.45-17.31-7.36-8.73-13.48-18.12-17.38-28.87a102.11,102.11,0,0,1-5.46-27.46,6.41,6.41,0,0,1,1-3.32C141.25,242.09,155.33,266.41,177.76,286.1Z"/><path d="M63,191.71c.8,3.3,1.38,6.68,2.45,9.9,1.8,5.4,5.47,9.54,9.93,12.91A70,70,0,0,0,96.8,225.28c8.37,2.65,16.64,5.63,25,8.43,1.19.4,2.43.64,3.65.93,1.54.36,2.46,1.19,2,2.87s-1.39,2.45-3.21,1.84c-4.53-1.53-9.09-3-13.61-4.51C108,234,105.49,233,103,232c-7.19-3.16-14.5-6.1-21.45-9.72a38.73,38.73,0,0,1-17.47-17.43c-1.57-3.24-2.1-7-2.88-10.58-.18-.83.56-1.86.87-2.81Z"/><path d="M172.89,207.11c.68,2,1.7,3.89,2,5.91.83,6-1.33,11.6-3.64,17-1.78,4.14-4.15,8-6.08,12.09s-3.66,8.12-5.33,12.24c-.77,1.89-2.09,1.73-3.47,1.26-1.55-.52-1.73-1.81-1-3.07,2.09-3.57,4.32-7.05,6.41-10.61,2-3.38,4-6.73,5.73-10.25a88.78,88.78,0,0,0,4.94-11.81,14.64,14.64,0,0,0-.66-10.9c-.2-.44,0-1.07,0-1.61Z"/><path d="M115.63,258.75c1.45.21,2.36.11,3,.48a46.28,46.28,0,0,1,6.35,3.82c4,3.05,8.68,4.11,13.29,5.36A55.37,55.37,0,0,0,148.42,270a2.53,2.53,0,0,1,2.44,3.1c-.14,1.42-1.43,2.14-3.23,1.56-5.62-1.79-11.55-2.87-16.89-5.26-5.1-2.29-9.63-5.85-14.38-8.9C116.05,260.26,116,259.66,115.63,258.75Z"/><path d="M389.28,60.63c-2.5.19-3.33-1-3.32-3.45.05-9.74-.1-19.49-.13-29.24,0-3.54,1.79-6.14,4.84-8.49l1.39,1.66c-.13.43-.13.65-.24.73-3.09,2.26-3.45,5.62-3.32,9,.15,4.18.64,8.36,1,12.53.44,4.65,1.08,9.27,1.34,13.93.06,1.09-1.08,2.25-1.68,3.38Z"/></g></g></svg>