<svg xmlns="http://www.w3.org/2000/svg" viewBox="0 0 436.39 404.4"><defs><style>.cls-1{fill:#757575;}</style></defs><g id="Capa_2" data-name="Capa 2"><g id="Capa_1-2" data-name="Capa 1"><path class="cls-1" d="M436.39,228.56c-2.27,10.66-8.86,17.39-18.89,21.2a5.7,5.7,0,0,0-2.82,3.62c-1.58,6.76-4.09,13-10.29,19.09,1.36.71,2.74,1,3.6,1.92,11.36,11.44,12.83,28,3.93,41.29a11.9,11.9,0,0,0-1.8,5.89A85.89,85.89,0,0,1,341,402.63a93.69,93.69,0,0,1-18.18,1.59c-68,.1-136.09-.27-204.12.18-43.08.29-78.83-31.12-85.84-70.23-.2-1.11-.39-2.23-.51-3.36-.69-6.85-1.79-13.25-5.36-19.65-6.68-11.94-3.33-27.65,6.41-37.3,1.11-1.09,2.28-2.11,3.27-3-2.88-4.81-7-9.2-8.2-14.27-1.94-8.26-6-12.23-14.13-15C1.66,237.3-3,224,1.9,211c4.61-12.39,12.94-22,23.2-29.86,4.59-3.53,6.47-7.08,6.4-13-.64-52,21.06-93.21,61.23-125.21,29.62-23.6,63.68-36.61,101.14-41.12,39.64-4.76,78.07,0,114.43,16.54,46.41,21.1,80.24,54.32,95.88,104.07,5.93,18.86,6.4,38.26,5.92,57.75a7.06,7.06,0,0,0,2.8,6.11c9.6,8.4,18.05,17.69,21.94,30.26.54,1.75,1,3.51,1.55,5.27ZM46.45,173.67H395.33c1.82-47.74-16.13-86.44-52.06-116.75-29.82-25.15-65-37.83-103.53-41.26-33.59-3-66.33,1.34-97.5,14.76-40.4,17.41-70.84,45-87.24,86.65C47.86,135.2,45.81,154.09,46.45,173.67ZM47.14,329c.39,2,.69,4.11,1.2,6.13,8.32,32.75,35.75,54.19,70.08,54.26q102.46.22,204.93,0c27.63-.09,48.76-12.34,62.87-36.21A60.45,60.45,0,0,0,394.43,329Zm168.92-140q-86.28,0-172.56,0c-1.81,0-4.12-.29-5.36.65-9.11,6.9-17.58,14.53-21.9,25.5-3,7.76-.18,12.46,8.06,14.34a38.68,38.68,0,0,0,21.84-1.27c9.56-3.42,18.79-7.8,28.06-12a10.59,10.59,0,0,1,9.66.13c6.4,2.89,12.92,6,19.72,7.42,18.14,3.88,36.19,2.9,53.5-4.21,11.4-4.68,11.28-5,20.16,3.64.41.39.8.81,1.23,1.18,10.09,8.85,21.35,14.38,35.27,12.77s25.83-6.5,31.55-20.76c3.26-8.14,6.36-9.18,14.43-5.79,24.27,10.19,48.69,11.11,73.12.6,4.17-1.79,7.51-1.49,10.9,1.55a104.85,104.85,0,0,0,30.54,19.07c11.33,4.63,23.11,7.18,35.35,4.36,11.5-2.65,14.47-9.31,9.15-19.88-4.7-9.37-12.41-16-20.17-22.77-4.05-3.52-8.13-4.66-13.39-4.65C328.83,189,272.45,188.94,216.06,188.94Zm4.22,125.75H381.77c1.7,0,3.41.05,5.11-.1a17.36,17.36,0,0,0,12.81-27.08c-4.19-6.11-9.83-6.89-17-6.39-40.09,2.78-80.22,4.89-120.33,7.38a8,8,0,0,0-5.2,2.7c-11.21,14.05-28.89,17.25-44.11,7.7-4.57-2.86-9-5.92-13.63-8.71a11.65,11.65,0,0,0-5.07-1.78c-22.4-1.3-44.81-2.34-67.21-3.73-24.07-1.49-48.12-3.3-72.19-4.93a11.15,11.15,0,0,0-3.76.44C43.22,282.52,38.7,289.42,39,298.5c.3,8.24,5.25,14.21,13.41,15.79a37.61,37.61,0,0,0,7.21.39Q140,314.71,220.28,314.69Zm49.37-42c2.35,0,3.87.08,5.38,0Q303.5,271,332,269.31q25.05-1.53,50.11-3.15c9.17-.6,16.25-6.41,16.73-13.22-7.24-1.46-14.53-2.55-21.61-4.44-14.06-3.74-26.1-11.48-37.73-19.95-1.31-1-3.52-2-4.75-1.56-11.42,4.39-23.28,5.94-35.4,6.33a5.47,5.47,0,0,0-3.82,2C286.94,247.46,278.56,259.75,269.65,272.73ZM147.5,238.58a17,17,0,0,0,1.65,1.43c24.09,15.53,48.14,31.13,72.32,46.51,8.74,5.56,18.24,3.28,24.2-5.33,7.67-11.08,15.26-22.22,22.89-33.34,3.52-5.12,7-10.25,10.69-15.57l-21.69-5.84a74.83,74.83,0,0,1-5.06,7.27c-14.76,16.86-33.84,20.87-54.89,17.38-11.47-1.9-20.9-8.44-29.53-16.09-1.12-1-3.08-2.06-4.27-1.74C158.41,234.73,153.14,236.69,147.5,238.58Zm22.09,33.57.27-.95c-14.16-9.12-28.38-18.15-42.45-27.41a19.49,19.49,0,0,0-10.69-3.32,88.22,88.22,0,0,1-35-7.91,8.84,8.84,0,0,0-6.18.1c-8.17,3.12-16.16,6.75-24.34,9.88C48,243.78,44.4,244.19,41,245c.88,11.58,10.21,20.42,22.47,21.18,23.5,1.45,47,2.76,70.51,4.09C145.86,270.91,157.73,271.52,169.59,272.15Z"/><path class="cls-1" d="M105.82,90.33a7.78,7.78,0,1,1-8-7.57A7.66,7.66,0,0,1,105.82,90.33Z"/><path class="cls-1" d="M127.45,118.32a7.9,7.9,0,1,1,7.81-8A8.15,8.15,0,0,1,127.45,118.32Z"/><path class="cls-1" d="M327.91,123a7.79,7.79,0,1,1-.06-15.57,7.79,7.79,0,1,1,.06,15.57Z"/><path class="cls-1" d="M197.1,55.2a8.14,8.14,0,0,1-7.78-8,7.9,7.9,0,1,1,15.79.23A8.14,8.14,0,0,1,197.1,55.2Z"/><path class="cls-1" d="M228.91,55.8a7.92,7.92,0,0,1-8.08-7.58,7.88,7.88,0,0,1,15.75-.39A7.82,7.82,0,0,1,228.91,55.8Z"/><path class="cls-1" d="M270.21,89.68a7.8,7.8,0,1,1-15.59.35,7.8,7.8,0,1,1,15.59-.35Z"/><path class="cls-1" d="M368.87,106.79A7.9,7.9,0,1,1,361,98.94,7.91,7.91,0,0,1,368.87,106.79Z"/><path class="cls-1" d="M188.37,112.13a8,8,0,0,1-7.85,7.85,7.89,7.89,0,0,1-7.79-7.89,7.82,7.82,0,1,1,15.64,0Z"/><path class="cls-1" d="M96,122.21a7.9,7.9,0,1,1-8-7.75A8.16,8.16,0,0,1,96,122.21Z"/><path class="cls-1" d="M154,139.23a7.78,7.78,0,1,1,8.31-7.22A7.71,7.71,0,0,1,154,139.23Z"/><path class="cls-1" d="M294.84,131.61a8,8,0,0,1-7.92,7.8,7.9,7.9,0,0,1-7.82-7.85,8,8,0,0,1,7.87-7.82A8.08,8.08,0,0,1,294.84,131.61Z"/><path class="cls-1" d="M155.11,57a7.8,7.8,0,1,1,15.6-.43,7.9,7.9,0,0,1-7.57,8.11A8,8,0,0,1,155.11,57Z"/><path class="cls-1" d="M236.91,81.48a8.21,8.21,0,0,1-8,7.82,7.89,7.89,0,0,1,.13-15.77A8.19,8.19,0,0,1,236.91,81.48Z"/><path class="cls-1" d="M295.69,90.6a7.89,7.89,0,0,1-.19,15.78,7.89,7.89,0,0,1,.19-15.78Z"/><path class="cls-1" d="M220.8,115.21a7.78,7.78,0,1,1-7.45-8.17A7.89,7.89,0,0,1,220.8,115.21Z"/><path class="cls-1" d="M246.4,106.79a8,8,0,0,1,7.7,8,7.89,7.89,0,0,1-7.9,7.76,7.81,7.81,0,0,1-7.67-8A7.91,7.91,0,0,1,246.4,106.79Z"/><path class="cls-1" d="M262.41,64.09a7.74,7.74,0,0,1-7.68-7.93,7.78,7.78,0,0,1,15.55.21A7.76,7.76,0,0,1,262.41,64.09Z"/><path class="cls-1" d="M138,65.33a8.15,8.15,0,0,1-8,7.75,7.88,7.88,0,0,1,.25-15.75A8.2,8.2,0,0,1,138,65.33Z"/><path class="cls-1" d="M288,64.59a7.78,7.78,0,1,1,7.34,8.18A7.73,7.73,0,0,1,288,64.59Z"/><path class="cls-1" d="M327.15,66.48A7.78,7.78,0,1,1,327.22,82a7.78,7.78,0,0,1-.07-15.56Z"/><path class="cls-1" d="M187.49,74.05a7.65,7.65,0,0,1,7.77,7.76,7.78,7.78,0,1,1-15.56,0A7.68,7.68,0,0,1,187.49,74.05Z"/><path class="cls-1" d="M153.81,98.6a8.08,8.08,0,0,1-8-7.73,8.16,8.16,0,0,1,7.77-8,8.08,8.08,0,0,1,8,7.76A8,8,0,0,1,153.81,98.6Z"/></g></g></svg>