<svg xmlns="http://www.w3.org/2000/svg" viewBox="0 0 1094.6 834.03"><defs><style>.cls-1{fill:#757575;}</style></defs><g id="Capa_2" data-name="Capa 2"><g id="Layer_1" data-name="Layer 1"><path class="cls-1" d="M770.25,761.88c-1.76,1.42-3.49,2.87-5.26,4.26-13.19,10.38-26.92,19.72-42.54,26.32-16.46,6.95-32.53,14.84-48.72,22.41-9.86,4.61-20.25,7.63-30.58,10.89-3.61,1.14-7.07.82-8.72-3.16-1.54-3.71.51-6.36,3.59-8.17a204.61,204.61,0,0,1,30.13-14.51,240.73,240.73,0,0,0,83.91-54.68c11.69-11.62,20.86-25.16,30.69-38.22-.4-.4-.79-.8-1.18-1.21-1,1.28-2,2.58-3.06,3.82-13.25,15.35-29.68,26.71-46.79,37.24-28.34,17.45-57.85,33-85.83,51-1.93,1.24-3.92,2.4-5.95,3.48-3,1.62-6.09,1.84-8.41-1.15-2.17-2.8-1.35-5.67.83-8.05,3-3.26,6.16-6.36,9.31-9.47,20.3-20.11,42.53-38.09,63.44-57.52,22.37-20.79,46.6-39.41,69-60.11a153.69,153.69,0,0,0,14.58-14.63c1-1.17,2.48-2.1,2.47-4-.4.07-.79,0-1,.18-19.3,19.6-42.61,34.43-63,52.76-22.56,20.3-46.52,39-68.1,60.44-6.08,6-13.56,10.3-20.68,15-21.5,14.22-42.67,28.88-62,46a63.75,63.75,0,0,0-8.79,9.27c-3,4-6.4,5-9.1,2.66-3.56-3.12-2.32-6.53.08-9.6,12.65-16.14,25.1-32.41,39.4-47.21,30.61-31.66,64.26-60,96.46-90a583.22,583.22,0,0,1,60.38-49.68c7.38-5.22,14.79-10.67,20.52-17.59C796,594,818.89,571,831.28,540.32c5.23-12.91,11.47-25.41,17.24-38.1.41-.89,1.19-1.91,1-2.71-1.53-7.68,3.81-13.31,5.61-20,1.5-5.54,4-10.53,6.34-15.65a10.53,10.53,0,0,0-.33-9.51c-7.4-14.59-4.58-28.66,2.27-42.46,3.08-6.2,7.29-11.69,11.34-17.27,3-4.11,3.44-8.14,1.31-12.88-3.7-8.23-7-16.63-6.61-25.95.11-2.56-1.72-4.14-3.59-5.56-11.9-9.09-15.37-21.14-12.26-35.39.48-2.19.57-3.48-1.88-4.61a50.13,50.13,0,0,1-24.93-24.82,6.63,6.63,0,0,0-6.32-4.31,85,85,0,0,0-15.22.78,113.57,113.57,0,0,1-38.65-1.72c-5.77-1.32-10.86-.17-16,2.8-11.63,6.73-23.15,13.75-35.92,18.25a8.86,8.86,0,0,0-4.36,3.82c-24.72,37-52.12,72-77.67,108.42-3.48,5-6.32,10.36-9.5,15.52-1.92,3.12-1.55,5,2.4,5.83,14.31,2.91,27.5,9.81,42.12,11.71a44.16,44.16,0,0,1,13.95,4.66c3.06,1.54,5.61,3.75,5.2,7.6-.43,4.13-3.52,5.78-7.12,6.36a85.42,85.42,0,0,1-21.58,1.12c-16.34-1.57-32.41-4.94-48.51-8.09a30.46,30.46,0,0,1-12.7-6.28c-5.53-4.29-6.94-10.18-5.56-16.76,2-9.73,6.33-18.6,10.93-27.32a59.2,59.2,0,0,0,4.94-10.78q-3.21,3.51-6.43,7c-6.75,7.4-12.9,15.29-19,23.2-5.27,6.79-6.73,14.11-5.71,22.6,2.23,18.61,6,36.91,9.76,55.23,3.2,15.75,4.88,31.78,8.92,47.38.75,2.93.45,5.7-2.35,7.37-3,1.81-5.66.56-8-1.7s-4.46-4.48-5.68-7.37c-9.67-23.12-21.21-45.56-26-70.47a221.08,221.08,0,0,1-4.09-36.65A35.63,35.63,0,0,1,554,424c7.66-12.7,17.32-23.89,26.52-35.44,8.46-10.62,17-21.15,25.24-32.12-1.41,1.22-2.88,2.37-4.23,3.66a754.12,754.12,0,0,1-63.17,53.3c-21.88,16.67-23,18.89-24.48,46.38a369.63,369.63,0,0,0-.3,43.78c1.79,28.2,0,56.42.33,84.64,0,3.59-.85,6.87-5,7.19-4.45.34-5.48-3.13-6.35-6.7-10.2-42.06-12.81-84.88-13-128,0-6.73-.1-13.46-.41-20.18a34.26,34.26,0,0,1,9.32-25.65c12.09-13.2,25-25.61,38.14-37.71q35-32.1,70.11-64.1c.8-.73,1.48-1.59,2.32-2.51-4.21-2.59-7.66-2.37-11.39.68-4.33,3.54-8.45,7.27-12.51,11.1Q549.51,356,511.51,386.94c-20.92,17-43.86,30.64-69.16,39.95-26.09,9.59-49.92,23.2-72.7,38.88q-23.11,15.92-46.19,31.85c-2.62,1.79-5.68,3.77-8.25.41-2.43-3.17.19-5.63,2.43-7.51C354,460.1,389.07,428,432.45,407.27c7.55-3.61,15.09-7.24,22.71-10.68C469.7,390,481.35,379.5,493,368.88c-1.34.78-2.68,1.53-4,2.34-26.59,16.31-53.76,31.58-81.7,45.45a377.93,377.93,0,0,0-39,22,37.27,37.27,0,0,1-5,3.07c-10.31,4.6-18.41,11.72-26.55,19.59-10.82,10.45-24.78,17.09-38,24.31-31.52,17.23-63.09,34.36-93.15,54.1-.55.36-1.08.75-1.64,1.09-3.45,2.07-7,2.67-9.64-1s-1.05-6.88,2.1-9.4a77.73,77.73,0,0,1,6.85-4.79c32.59-20.63,60.36-47.35,90.13-71.53a6.39,6.39,0,0,0,.9-1.19c-1.19-.68-1.9.25-2.63.7-52,32.11-107.63,56.69-164.09,79.58a391.75,391.75,0,0,0-40.08,18.79c-2.59,1.4-5.19,2.86-8.37,2.12-5.45-1.26-7.25-6.29-3.5-10.39a71.25,71.25,0,0,1,6.93-6.28c21.83-18.24,41.21-39,61.31-59,.8-.79,1.45-1.72,2.9-3.47-10.09,0-14.07-9.44-22.22-12.05a7.13,7.13,0,0,1-4.49-5.57c-.85-4.65-2.93-3.34-5.6-1.67-16,10-32.66,18.89-49.43,27.53a377,377,0,0,1-45.22,19.31c-7.12,2.56-12.86,1.68-18.14-3.63-2.16-2.16-2.2-4.38-.53-6.59,19.82-26.11,37.6-53.87,61.72-76.5a25.32,25.32,0,0,1,2.52-2.35c2.38-1.67,3-3.13,1-5.9-2.35-3.25-.75-6.62,1.55-9.45A63.34,63.34,0,0,1,80.42,387c9.84-7.11,19.69-14.21,29.61-21.21,2-1.45,3.49-2.33,1.46-5.21-2.63-3.73-.82-7.21,2.12-10.07,5.21-5.05,11.23-9.06,17.2-13.12A200.05,200.05,0,0,0,155.53,318c1.54-1.46,2.36-2.76,2-5.08-1.74-11.18-.13-14.6,10-19.61,22.06-10.9,43.84-22.35,65.48-34.06,15.59-8.45,30.36-18.2,45.32-27.68,10.13-6.42,20.7-12.32,30.92-18.71,18.94-11.84,37-25,55.11-38q31.46-22.47,64.14-43.07A105.41,105.41,0,0,1,439,126.38c31.95-15.33,63.87-30.75,98.39-39.72a155.29,155.29,0,0,1,25.72-4.17c10.78-.93,15.93,5.44,13.17,16-.77,2.94-2.47,5.66-2.42,8.87,1.78.16,2.62-1,3.6-1.77C602.9,85.58,630.3,68.36,657,50.2c25.72-17.48,54.9-27,85.66-31.56a69.82,69.82,0,0,1,14.74-.13c3.29.2,6.2,1.21,7.86,4.23,1.37,2.49,2.88,1.73,4.86.89C796.86,12.29,824.66,5,853.39.83c22.91-3.34,43,3.77,62.33,14.76a20.06,20.06,0,0,0,8.73,2.68c29.18,2.23,57.62,7.07,82.56,24.1,10.33,7.05,19.3,15.35,25.66,26.11,8.17,13.82,15.82,27.79,21,43.22,5.6,16.59,13.34,32.45,19.89,48.73,13,32.26,20.59,65.67,21,100.57.17,14-.6,28.24-5.38,41.29-3.65,9.95-3.48,19.59-3.77,29.61-1.17,40.27-13.59,76.94-36.07,110.28-9.44,14-19.28,27.76-28.07,42.21a62.05,62.05,0,0,0-6.46,13.75c-4.11,13.18-9.52,25.85-15,38.5-5.22,12.06-12.87,22.15-23.71,29.55-18.76,12.79-33.38,29.91-48.86,46.13A114.07,114.07,0,0,1,917,622.16c-6.67,5.45-14.14,7.21-22.59,5.61-4.66-.88-9.42-1.26-14.12-2-2.69-.41-4.1.67-4.37,3.28-.33,3.26-.77,6.52-.82,9.79a66,66,0,0,1-7.17,28.89A290,290,0,0,1,842,709.5c-19.06,25.85-39.82,50-64.13,71.11-5.59,4.84-11.11,9.74-17.79,13.08-3.92,2-7.93,4-11.6-.26-2.55-2.95-1.49-6.62,3-11.1C758,775.85,764.68,769.55,770.25,761.88ZM355.42,347.64c14.41-7.05,27.43-.62,40.48,4.41a4.28,4.28,0,0,0,4.77-.62,94.8,94.8,0,0,1,8.54-5.78,4.69,4.69,0,0,1,6.53,1.58c1.47,2.17,1.31,4.91-.69,6.26-3.77,2.53-4.31,6.33-5.68,10.1-3.81,10.46-8.15,20.74-12.35,31.06a23.29,23.29,0,0,1-2.44,4.24,2.22,2.22,0,0,1-1.62.88c-1,0-1-1-1.15-1.84-.31-2.55.63-4.83,1.55-7.12,3.78-9.33,7.54-18.67,11.63-28.83-3.92,1.36-5.95,4.7-9.22,4.2-3.07-.47-4,1.13-5,3.36q-8,17.7-16.12,35.34c-.68,1.49-1.36,3-2.14,4.42-.47.85-1.11,1.73-2.31,1.29-.9-.32-1-1.23-1.08-2-.36-2.55.5-4.87,1.53-7.11,5.11-11.18,10.08-22.43,15.48-33.47,1.55-3.18.84-5.15-1.28-7.29-4.49-4.55-18.69-5.94-24.13-2.54-2.48,1.55-1.5,3-.16,4.31a56.71,56.71,0,0,1,8.09,9.67c1.32-2.58,2.38-4.79,3.57-6.92.94-1.67,1.86-4.07,4.31-2.85s.93,3.4.15,5.11q-8.76,19.23-17.59,38.44a35.39,35.39,0,0,1-2.12,3.87c-.43.71-1.19,1.51-2,1.13a3,3,0,0,1-1.13-2c-.44-2.89.8-5.47,1.89-8,2.17-5,4.45-10,7.2-16.2-7.38,4.26-13.39,7.63-14.81,15.64-.62,3.49-2.41,6.77-3.7,10.14-1.77,4.59-3.51,9.19-5.38,13.73-.54,1.32-1.41,3.28-2.93,2.84-1.8-.51-1.71-2.72-1.3-4.26.7-2.68,1.79-5.26,2.68-7.89,1.9-5.6,4.6-10.94,6-17.12-6.91,2.85-11.5,6.89-13.39,13.91-1.4,5.2-3.71,10.16-5.69,15.18-.46,1.18-1,2.71-2.68,2.39-1.83-.35-2.07-2-1.84-3.51a26.23,26.23,0,0,1,1.33-4.71c1.42-3.93,2.93-7.83,4.52-12.05-8.8,2.41-9.29,2.84-12,10.25-1,2.62-1.77,5.31-3,7.82-1.28,2.71-.64,3.43,2.31,4,6.72,1.23,9,6.58,5.56,12.57a52.39,52.39,0,0,1-4.26,6c-7.41,9.55-16.77,17.06-26,24.7-1.37,1.13-3.08,2.05-4.06,4.28,12.9-5.14,23.36-13.26,34.83-19.61A44.66,44.66,0,0,0,334,446.27a32,32,0,0,1,13.87-10.66,46.11,46.11,0,0,0,7.51-3.65c24.45-16.13,51.09-28.24,76.7-42.24,27.06-14.79,54-29.83,78.16-49.29a146.67,146.67,0,0,1,31.15-18.74c13.13-6,26.34-11.72,39.89-16.79,11.85-4.42,23.15-10.5,30.56-21.4,3.85-5.67,6.93-11.89,10.08-18a166,166,0,0,0,18.69-82.05c-.19-6.58-2.23-8.73-8.89-10.29-14.06-3.28-28-6.82-41.42-12.37-28-11.61-33-38.63-28-56.73,3.29-11.87,3.32-11.89-9.28-9.89-37.66,6-71.21,23.23-105.48,38.5-1.1.48-2.06.75-1.83,2.77.95,8.43-3.54,15-8.21,22.95-1.13-8.72,3-15,4.32-22.48A725.29,725.29,0,0,0,366.7,186c8,3,9,2.53,11.77-4.58.66-1.7,1-4.49,3.73-3.42,2.55,1,1.48,3.42.66,5.11-2.32,4.74-.5,5.88,4.23,6.55,6,.85,12.26,1.05,18.13,4.05-2.38,2.51-5.05,2.6-7.61,2.3a127.31,127.31,0,0,1-14.55-2.31c-3-.71-4.11.29-4.94,2.92a75.22,75.22,0,0,1-3.4,8.69c-.48,1.07-1.11,2.78-2.75,2.17-1.43-.53-1.4-2.25-1.09-3.45.78-3,1.79-5.95,2.81-8.88.6-1.74.43-2.56-1.68-3-11.09-2.39-11.08-2.45-20.58,4.3-3.47,2.47-7,4.93-10.42,7.42-2.41,1.74-4.78,3.52-7.72,5.7a13.73,13.73,0,0,0,2.42.46c4.37-.4,10,3,12.19-4.12.27-.89,1.62-1,2.61-.55a2,2,0,0,1,1.11,2.49c-1.09,3.35,1.13,3.35,3.34,3.6,7.83.85,15.66,1.62,23.45,2.7,2.86.4,6.18.29,8.25,3.38-3.94,2.42-7.89,1.28-11.73.89-7.34-.75-14.68-1.56-22-2.51-2.88-.37-4.4.42-5.44,3.34-2,5.69-3.31,11.68-6.28,17-1.28,2.29.59,2.06,1.73,2.2,3.82.44,7.69.58,11.57,2.67-3.89,2.64-7.77,2.29-11.66,1.85-7.33-.82-14.67-1.59-22-2.51-2.67-.34-4.21.32-5.06,3.12-1.53,5-3.35,9.94-5.26,14.82-1.06,2.7-.66,3.66,2.46,4,7.5.72,15,1.8,22.43,2.85,2.64.37,5.35.79,7.34,3.34a25.19,25.19,0,0,1-7.61.49c-6-.58-12-1.49-18.07-2.06-8.5-.79-8.47-.7-11.53,7.19-.54,1.39-.72,3.88-2.79,3.38-1.63-.4-1.28-2.7-1.57-4.3-.49-2.68,2.91-5.81.15-7.66-2.05-1.37-5.39-.82-8.15-1.13a17.68,17.68,0,0,1-2.44-.3c-4.54-1.14-6.94.67-8.07,5.14A62.54,62.54,0,0,1,279,279.43c-1.55,3.45-.17,4.09,3,4.44,11.4,1.25,22.78,2.7,34.15,4.26,1.71.23,4-.11,5.17,2-2.4,2.29-5.11,2.12-7.94,1.74-10.56-1.4-21.14-2.65-31.69-4.12-3.68-.52-6.36-.12-7.17,4.18a6.74,6.74,0,0,1-2.75,4.33c-1.58-1.5-2.14-3.24-1.65-4.72,1.47-4.47-.58-5.37-4.44-5.14a19.35,19.35,0,0,1-4.89-.54c-2.85-.55-4.49.37-5.57,3.22-2,5.36-4.42,10.57-6.68,15.9.68,1.06,2.58-.21,3.27,1.76a31.59,31.59,0,0,1-18,3.14c-5.38-.53-7.75,1.59-9.26,6.23-.83,2.55-1.64,5.39-4.66,6.5-2.34-3.52-.62-6.7.7-9.85.74-1.76,1.64-3.29-1-4.26-1.33-.48-2.2-1.57-1.55-3.1a2.18,2.18,0,0,1,2.91-1.15c3,1,4-.9,5.13-3.09q3-5.91,6.41-11.62c1-1.64,2.34-3.77,4.64-2.18,2,1.37.61,3.18-.3,4.76-1.95,3.41-3.88,6.84-5.74,10.31-.47.87-1.53,2.54.3,2.64,4.23.23,8.5-.06,12.75-.22.75,0,.94-.79.95-1.48.07-5.47,3.05-10,5-14.8,1-2.46.47-3.24-2.08-3.14a54.61,54.61,0,0,1-6.89-.06c-5.36-.48-9.4,1.43-13.55,5-15.11,13.2-28.64,27.94-42.9,42q-51.91,51.07-106.22,99.66c-1.29,1.17-3,2.08-3.21,4.23,23.07-18.68,51.06-30.65,71.09-53.29a73,73,0,0,1,8.11-7.16c22-18.34,47.12-31.52,72.51-44.27,4.89-2.46,10.08-2.55,15.39-2,3.24.34,6.52,1.14,9.77.24,6.43-1.78,8.47-1,10.62,5.41,2.45,7.31,4.14,14.88,6.77,22.11,6.27,17.27,3.94,32.47-9.7,45.44a33.77,33.77,0,0,0-4.7,6.3c-.81,1.26-2.35,2.33-1.73,4.64a52.61,52.61,0,0,0,5.8-3.86c12.95-11.27,28.3-9.34,43.11-6.76,5.21.91,9.12.47,13.33-1.55,12.92-6.2,24.44-14.7,36.37-22.53,5.53-3.63,5.45-3.75.81-8.44-8.21-8.31-7.55-15.85,1.95-22.53l.78-.57ZM614.7,300.29a122,122,0,0,0,59.4-4.94c7.21-2.42,14.39-4.43,22.13-3.48a36.07,36.07,0,0,0,23.71-4.74c9.83-6,21.37-8.95,28.15-20.14,7.07-11.69,16.47-21.84,23.25-34,21.72-38.81,32.22-79.8,26.17-124.29-2.75-20.19-7.45-39.67-23-54.65-3.48-3.36-6.08-7.74-8.68-11.89-1.61-2.57-5.07-3.11-6-6.3-2.5-8.72-2.76-7.17-10.69-7.26a48.4,48.4,0,0,0-8.32.68C724.58,32,709,36.88,693.63,42.79,672.37,51,654.44,64.56,636,77.4a13.06,13.06,0,0,0-5,6.33c-5.34,13.74-11,27.36-17.37,40.66-1.58,3.29-3.32,6.68-8.86,7.18A469.87,469.87,0,0,0,624.3,85.92c-4.49,2.36-8.51,5.13-12.67,7.65a17.67,17.67,0,0,0-7.65,9.08C599.7,113.27,595.64,124,589.87,134c-1.35,2.34-3.25,5.74-6.18,3.92-2.12-1.32.69-4,1.71-5.84a183.35,183.35,0,0,0,11.86-27.44c-7.47,4.76-14.36,10.14-21.26,15.53-2.94,2.3-2.87,4.37-2.1,7.54,2.93,11.94,11.57,18.24,22,22.86A164.61,164.61,0,0,0,635,161.93c12,2.07,17.64,8.62,18.31,22.38,1.21,24.78-3.76,48.6-12.95,71.53C634,271.69,626.1,286.73,614.7,300.29Zm61.87,465.45a49.67,49.67,0,0,0,12.22-6.37c11.26-7.38,22.87-14.16,34.49-20.94,5.1-3,10-6.25,15-9.38,17.34-10.86,31-25.71,44.34-40.88,18.26-20.69,36.85-41.08,48.68-66.46a10,10,0,0,1,1.64-2.44c1.86-2,4.17-2.7,6.67-1.48a5.16,5.16,0,0,1,2.84,6.2,30.81,30.81,0,0,1-2.14,5.48c-15.61,35.32-36.1,67.67-59.52,98.27-8.59,11.23-17.3,22.29-27.93,31.7-.6.53-1.89.89-1.26,2.41a145.7,145.7,0,0,0,20.85-18.06c20-20.74,38.77-42.37,51.83-68.38a34.31,34.31,0,0,1,8.52-11.35c2.48-2,5.34-2.66,8.2-.77,2.69,1.78,3.11,4.48,2.47,7.42a17.17,17.17,0,0,1-1.08,3.27c-4.75,11-9.49,22-15.3,32.48-.74,1.34-2.18,2.49-1.55,5,4.79-6.17,9.68-11.71,13.7-17.82,9.38-14.23,19.74-28.24,22.55-45.48,1.4-8.56,4.54-17.92-1.85-26.26a5.33,5.33,0,0,1-.49-3.34c.64-8.26-5-13.15-9.85-18.42-1.32-1.43-2.74-.4-4.09.07-3.09,1.07-6.13,2.35-9.28,3.24a4.92,4.92,0,0,1-5-8.06c1.54-1.87,3.8-2.5,5.93-3.33,3-1.17,5.94-2.09,8-5.22a4.51,4.51,0,0,1,7.64-.32c5.37,8.13,14.62,13.54,16.85,23.83.55,2.51,1.84,3.65,4.49,3.29,6.79-.95,13.48.13,20,1.7,7.07,1.69,13,.29,18-4.82,7.93-8.06,15.87-16.11,23.63-24.33s15.32-17,25.13-22.65c18.53-10.7,28.68-27.31,35.64-46.62.74-2.06,1.09-3.28-1.76-3.61a41,41,0,0,1-15.64-5.66,58.79,58.79,0,0,0-29.92-8.36c-4.21,0-8.42-1.2-12.64-1.81-1.09-.16-2.7-1.11-3.23-.13-2,3.66-6.52,3.95-9.31,7.1,6.6,3.26,13.81,3.76,20.29,7.2-2.86,3-5.75,2.69-8.62,1.85-5.18-1.52-10.33-3.17-15.48-4.81-1.57-.5-3.16-1.24-4.76-.42-4.92,2.52-9.8,5.13-14.67,7.69,1,2,4.18,2.13,3.24,4.19-.81,1.74-3.26.75-5,.76a1.12,1.12,0,0,1-.49-.07c-5.13-2.4-8.6.81-12.48,3.42,7,4.38,13.79,6.27,20.86.59,2.14-1.73,4.82-2.79,7.26-4.13,1.57-.86,3.43-2.2,4.78-.14,1.52,2.33-.56,3.57-2.26,4.58-3.6,2.14-7.27,4.16-11.31,6.46,2.7,2.23,6.22,2.55,7.87,5.81-4,1.53-7.55.26-11.07-.9-1.7-.57-3.36-1.66-5.18-.74-6.64,3.36-13.25,6.79-20.75,10.65,7.83,3.29,14.39,7.71,21.84,1.8a7.38,7.38,0,0,1,2.26-1,2.29,2.29,0,0,1,3,1,2.17,2.17,0,0,1-.88,3c-1.31.94-2.72,1.73-4.24,2.68,2.85,2,6.72,1.11,8.95,4.13-3.6,3.24-7.39,1.44-11.14.67-2.17-.45-4.17-2-6.62-.77-6.43,3.23-12.92,6.34-20.42,10,8.09,2.1,13.88,10.45,22.46,3.5a2.48,2.48,0,0,1,3.83.9c.93,2-.54,3.08-2.06,3.82-7.22,3.51-14.42,7.08-21.75,10.36a8.35,8.35,0,0,1-8.14-.31c1.77-2.7,4.55-3.43,6.92-4.7s5.13-2,7.25-3.91c-12.49-7.31-17.64-7.36-25.87-.23,1.62,1.41,4.17,1.51,5.73,3.78-7.44,4.07-14.15-4-22.2.39,5.56-4.39,1.47-5.24-.64-6.75a6.4,6.4,0,0,1-2.18-2c-2.36-4.79-5.11-2-6.43.23-6.79,11.54-16,21.15-24,31.77a180.19,180.19,0,0,1-38.61,38.39,665.83,665.83,0,0,0-64.76,53.65c-28.41,26.54-58.33,51.46-85.58,79.27-1.24,1.27-2.42,2.6-3.63,3.9a151.65,151.65,0,0,0,16.07-10c10.33-7,21-13.32,30.24-21.92q47.83-44.71,99.13-85.44c18.11-14.32,36-29.08,49.32-48.45a15.8,15.8,0,0,1,4.29-4c2.49-1.66,5.25-2,7.85-.17a6.37,6.37,0,0,1,2.58,7,53.71,53.71,0,0,1-2.29,7.51,111.23,111.23,0,0,1-31.45,45.2q-48.51,42.84-97.24,85.43C684.3,758.33,680.46,761.08,676.57,765.74ZM768.1,268.87a89.29,89.29,0,0,0,26.47,2.67c10.93-.68,21.85-3,32.84-.64,2,.42,3.21-.74,4.11-2.1,7-10.65,17.72-18.09,24.33-29.37,7.36-12.56,15.67-24.62,23.21-37.13a269.77,269.77,0,0,0,38-116.38,55,55,0,0,0,.19-10.8c-1.74-15.81-3.76-31.6-5.61-47.4A5.18,5.18,0,0,0,908.12,23c-7.14-2.89-14.23-5.93-21.3-9a49,49,0,0,0-20.65-3.75c-19,.35-37.36,4.75-55.58,9.79-2.54.7-3.06,1.74-2,4.16C812,32,815,40,818.63,47.74c11.21,24.09,17.19,49.24,15,75.89-1.88,22.4-11.49,42.61-19.4,63.23-3.75,9.76-3,19.72-3.67,29.75,2.53-3.71,4.34-7.69,6.6-11.4,5.89-9.66,8.84-20,8-31.34a43.12,43.12,0,0,1,.61-7.83c.18-1.56.87-3,2.71-2.9s2.32,1.64,2.26,3.26c-.09,2.6-.25,5.2-.38,7.8a20.67,20.67,0,0,0,3.43-6.35c7.7-21.12,13.33-42.85,19.05-64.55.49-1.88.49-5.13,3.37-4.51,3.38.72,1.7,3.71,1.18,5.72-3.08,11.9-5.58,24-9.65,35.56A65.44,65.44,0,0,0,845,173.34c.22,1.34-.2,2.91,1.36,4.16a315.79,315.79,0,0,0,11.23-32.57c1.1-3.78,2.11-7.58,3.23-11.35.43-1.45,1.16-3,3-2.53s1.57,2.26,1.33,3.74c-.13.8-.44,1.57-.64,2.37-3.93,15.42-8.28,30.8-15.1,45.16-4.5,9.47-1.28,18.39-.91,27.74,5.65-13.18,15.85-24.35,16.08-39.6,0-1.94.21-4.78,2.47-4.73,3.37.06,3.57-2.15,4.38-4.17a330.78,330.78,0,0,0,11.76-34.92c.3-1.11.61-2.22,1-3.29.48-1.33,1.33-2.47,2.9-1.93s1.61,1.92,1.33,3.29-.6,2.56-.95,3.82a322.62,322.62,0,0,1-16,45.41,34.53,34.53,0,0,0-3.2,14.25c0,3-.19,6.07-2.43,9l-2.64-4.52c-3.75,7.42-7.21,14.23-10.65,21-2.06,4.07-4.69,7.89-4.16,12.86.16,1.54-.61,4.11-2.27,3.73-3-.7-3.15,1.46-4.09,2.89-1.8,2.74-3.37,5.64-5.26,8.3-1.5,2.1-3.39,3.87-6.89,3.52,2-5.89,5.42-10.63,8.71-15.15,6.37-8.75,4.27-17.95,2.88-27.38-1.74,2.62-2.83,5.5-4.4,8.1a59.19,59.19,0,0,0-8.67,36.56,47.67,47.67,0,0,1-.58,8.82c-.12,1.18-.75,2.32-2.11,2.34s-1.93-1.24-2.16-2.33a22.13,22.13,0,0,1-.39-4.39c0-3.51,0-7,0-11.46-1.95,2.29-3.1,3.82-4.44,5.14-.94.93-2.24,1.62-3.51.58s-.22-2.14.22-3.1a16.92,16.92,0,0,1,2-3.4c8-10.34,6.52-22.34,6-34.25-3.78,6.32-7,12.91-10.64,19.2A26.88,26.88,0,0,0,809,238.69c.08,6.23-.47,12.46-.82,18.68-.09,1.44-.27,3.43-2,3.55-2,.15-2.28-2-2.6-3.53a19.63,19.63,0,0,1-.21-3.92c0-3.35,0-6.69,0-11-4.14,4.77-5.43,10.86-11.39,12.6-.9-2.26,0-3.93.82-5.48,2.3-4.16,4.4-8.49,7.21-12.29,6.41-8.68,3.77-18.64,4.67-28.21C792.44,228.74,783.76,250.4,768.1,268.87ZM898,230.35a9.73,9.73,0,0,0,1.43-1.2c23.21-30.18,46.2-60.51,62-95.52,2.29-5.08,4.45-10.21,6.75-15.29.61-1.33,1.47-2.84,3.33-2,1.53.73,1.18,2.18.75,3.45-.37,1.09-.87,2.13-1.29,3.19-11.6,29.54-28.08,56.26-46.94,81.62a14.24,14.24,0,0,0-2.76,4.59c-2.71,9.78-5.51,19.53-8.25,29.3-.31,1.14-1.19,2.32,0,3.71a159.67,159.67,0,0,0,16.85-21.83c.94-1.49,1.82-3.85,3.87-3.11,3,1.08,2.85-1.17,3.45-2.58,1.79-4.22,3.41-8.51,5.19-12.74.6-1.43,1.76-2.62,3.45-2,2.06.72,1.79,2.49,1.22,4.13-.42,1.24-1,2.43-1.47,3.65-3.71,9.18-7.07,18.48-10.36,29.17,21.37-21.49,38.68-44.5,54.38-68.81,1.36-2.12,1.43-7.45,5.17-5.44s.16,5.61-1.32,8A398.48,398.48,0,0,1,946,232.7a36.65,36.65,0,0,1-9.27,7.24c-3.94,2.13-5.56,1.35-5.68-3.28-.08-3.07.68-6.17,1.16-10-3.86,4.86-7.22,9-10.53,13.29-6,7.62-14.35,13.59-15.84,24.25-.35,2.46-2.38,4.07-3.85.32-1-2.41-2-.77-2.92-.26-1.34.72-3.1,1.69-4.05.53-1.17-1.43.36-3,1.36-4.19,2.33-2.75,5.85-5,7-8.17,3.37-9.67,5.82-19.66,8.88-30.37a15.26,15.26,0,0,0-2,1.39c-11.08,12.46-20.68,25.68-23.46,42.78-.84,5.14-2.8,10.1-4.4,15.09-.46,1.45-.93,3.73-3,3.22-1.81-.45-1.68-2.7-1.54-4.27a34.32,34.32,0,0,1,1.25-6.24c2-7.26,3.77-14.65,6.49-21.64,1.09-2.79-2.1-4.78.19-7.45,6-7,5.9-16.38,8.56-22.87-4.55,4.11-10.17,9.08-15.68,14.16-2.3,2.12-6.6,3.53-3.23,8.11.42.59-.41,2.17-.77,3.25-1,2.95-2,5.88-3,8.84-.26.81-1.1,2.22.3,2.39,8.35,1,2.84,5.06,1.11,6.83-6.18,6.35-9.43,14-11.79,22.3-.72,2.53-1.54,7.07-4.18,6.25-3.12-1-1.12-5-.65-7.83.24-1.45,2.31-3.49.34-4.31-4-1.68-1.12-3.7-.21-4.69,8.63-9.43,8.68-22.19,14.16-33.65a11.41,11.41,0,0,0-1.88.84c-11.58,10.27-21.22,22.31-31.2,34-1.33,1.57-.47,2.7.23,4a41.29,41.29,0,0,0,17.36,16.92,7.66,7.66,0,0,0,7.52.32c15.39-7.79,31.77-13.67,44.27-26.61,9-9.31,19.74-16.79,30.23-24.39A129.34,129.34,0,0,0,967,219a140.65,140.65,0,0,1,41.17-38.95c13-7.95,21.54-20,26.17-34.61,3.49-11.07,5.35-22.34,4.15-33.95-.37-3.53,1.16-7.1-.81-10.61-3.36-6-6.39-12.21-9.58-18.31-14.21-27.22-38-41.16-66.79-48.14-3.83-.93-4.8,0-4.57,3.84,1,15.55,1,31.2.61,46.71-.61,28.14-8.27,54.7-24.88,78a173.23,173.23,0,0,0-16.44,27.93c-3.52,7.61-7.49,15-13.79,20.79-.58.53-1.47,1.46-1.33,1.93C902.77,219.54,898.16,224.22,898,230.35Zm44.69,159.24c12.76-.5,25.52-1,38.29-1.44,2.12-.06,5.78-1.19,6,1.18.33,3.08-3.39,3.26-5.94,3.66a30.25,30.25,0,0,1-3.43.24c-12.3.56-24.59,1.19-36.88,1.6a8.26,8.26,0,0,0-6.74,3.08c-9.1,10.78-18.39,21.4-27.58,32.12-.77.9-2.19,1.6-1.68,3.29,5.58,0,11.15-.11,16.71.05a7.72,7.72,0,0,0,6.75-3.18c5.28-6.5,10.25-13.22,15.06-20.07,1.36-1.93,2.27-5.86,5.58-3.87,3,1.8-.14,4.29-.76,6.45-.07.27.12.61.22,1.09,11.57.32,23.16-2.61,35.81-.91-3.34,3.86-6.78,4.46-10.4,4.73-9.49.68-19,1.43-28.46,2.08-1.18.08-2.28,0-3.07,1.07l-8.71,11.62c9.39,1.07,18.27-1.44,27.76.77-3.08,3.09-5.94,3.13-8.65,3.59-10.29,1.74-21.47-1.78-30.91,5.21-.66.49-2.42.48-1.84-1,1.54-4-1.56-2.65-3-2.68-4.76-.12-9.52.13-14.28,0a6.22,6.22,0,0,0-5.4,2.65c-5.19,6.27-10.52,12.43-15.72,18.55,5.57,1.09,10.87-.6,16.31-1.32A81,81,0,0,1,934.22,462c9.55,3.22,18.49,2.77,28,.57,15.53-3.6,29.65-.86,41.38,10.73,1.28,1.26,2.93,2.17,4.13,3.49,2.5,2.75,3.73,1.5,5.39-1,7.47-11.39,15-22.77,22.76-33.92a270.85,270.85,0,0,0,23-40.1c8-17,11.89-35,14.31-53.5.25-1.94.86-4.15-2.71-3.18-9,2.45-18.25,1.95-27.41,1.37-10.87-.7-21.24.63-31.09,5.56-6.22,3.11-13,5.6-19.85,5.08-17.69-1.35-35.33,0-52.95-.2-15.79-.19-31.13,1-46.27,4.69-11.82,2.92-12.88.22-6.88,13.46,4.95,10.92,3.7,20.14-3.42,29.32A130.2,130.2,0,0,0,874,417.55a34.24,34.24,0,0,0-4.16,12c-.21,1.26-.8,2.73,1.24,3,8.32,1.16,16.69,1,25.06.84a1.94,1.94,0,0,0,1.32-.53c4-4.57,8-9.18,12.51-14.44-9.54-.84-17.92-2.63-23.17,6.79a8,8,0,0,1-7.51,4c1-3.47,2.94-5.87,4.9-8.28,1.15-1.41,2.63-2.75-.41-3.81a1.88,1.88,0,0,1-.9-2.53,2.89,2.89,0,0,1,2.68-1.81c2-.31,4.47.8,6.1-1,4.41-4.95,8.67-10,13.44-15.57-3.73-.26-6.51-.25-9.21-.72-2.09-.36-4.39-2-2-3.93,4.12-3.41,7-7.94,11.19-11.27,1-.79,2.6-1.58,2.06-3.63-.81-.08-1.59-.16-2.38-.22-3.93-.27-7.86-.45-11.77-.83-1.53-.14-3-.93-2.83-2.77s1.65-2.31,3.26-2.25c2.13.09,4.27.17,6.38.42,8.18.95,16.19,1.53,20.66-7.58a1.85,1.85,0,0,1,.32-.37c1-1,2.08-1.9,3.41-.89,1.56,1.19.8,2.58,0,3.92-1,1.71-3.06,2.83-3.3,5,4.62,1.27,7.85-.28,10.41-3.89,1.41-2,3.14-3.78,4.75-5.64,1.12-1.3,2.36-2.58,4.11-1.05,1.44,1.27.71,2.75-.17,4-1.49,2.06-3.11,4-4.68,6,7.05-.45,14.78,4,19.9-4.11,1.06-1.66,4-1.83,3.91.7-.05,2.71-1.11,6.84-3,7.83C949.86,378.14,947.06,384.22,942.72,389.59Zm121.44-224.28c-5.93,10.75-12.85,19.5-19.52,28.41a32.91,32.91,0,0,1-21.18,13.19,34.24,34.24,0,0,0-12.63,5.26,83.34,83.34,0,0,0-16.75,14.38C982,240,968.33,251.31,952.27,259.67a192.18,192.18,0,0,0-19.2,12c-20.2,13.78-40.72,27-63.1,37.1a5,5,0,0,0-2.92,2.45c-5.15,11.46-3.28,22.86,5.52,29.39,3.76,2.79,6.82,6.14,8,10.85.23.9.42,2.31,1.71,1.94,6.12-1.74,13.21-1.36,18.27-5.07A50.38,50.38,0,0,1,915.42,341c15.39-4.88,31.34-7.12,47.31-8.82,14-1.5,27-4.58,37.26-15.35,4-4.21,9.62-6.11,15.34-7.34,10.35-2.23,20.83-2.3,31.34-2.08,7.87.16,15.76.51,23.59-.5,4.62-.59,7.78-3.05,8.82-7.82a185.85,185.85,0,0,0,4.09-24.24c2.44-29.38-2.65-57.84-10.59-85.94A173.82,173.82,0,0,0,1064.16,165.31ZM296.1,414.09c-8-1.77-8-1.77-11,5.31-1.91,4.53-3.79,9.07-5.77,13.56-.66,1.49-1.71,3.56-3.37,3-2.14-.67-1.45-3.07-1-4.74a49.66,49.66,0,0,1,2.28-6c1.64-4.05,3.29-8.09,5-12.32-5-1-7.81.56-9.76,4.85-4.32,9.55-9,18.95-13.58,28.36-.68,1.39-1.51,3.51-3.47,2.69-1.66-.69-1.64-2.8-1.06-4.39,1-2.76,2.18-5.47,3.4-8.14,2.47-5.38,5-10.72,8.11-17.35-8.95,5.35-16.53,9.86-23.17,15.78-1.1,1-2.38,1.87-2.42,3.54-.13,6.57-4.62,10.91-8.67,14.89-15.46,15.18-32.35,28.72-49.91,41.43-1.38,1-3.14,1.64-4.26,4.27l7.22-3.12c41-17.86,79.7-40,118.11-62.65,1-.57,2.12-.88,2.05-2.4-.19-4.1,2.23-7.48,3.15-11.27.32-1.31,2.91-3.69-.38-4.08-2.12-.26-5.36-3.24-6.93,1.39-1.68,5-3.74,9.79-5.65,14.66-.59,1.51-1.06,3.52-3.24,2.87-1.93-.57-1.88-2.51-1.59-4.16a20.67,20.67,0,0,1,1.11-3.75C292.9,422.3,294.5,418.22,296.1,414.09ZM234.52,269.73a17.17,17.17,0,0,0-2.5.79c-19.94,11-40.21,21.43-60.6,31.59-4.23,2.11-5.28,5.12-3.77,9.22,2.13,5.76.3,9.92-4.22,13.84a248.2,248.2,0,0,1-21.84,17.53c-5.68,3.9-11.28,7.91-17,11.78-2.14,1.46-2.82,2.53-.62,4.82,3.21,3.32,2.47,7-.78,9.92a64.25,64.25,0,0,1-6.7,5c-12.35,8.65-24.92,17-36.8,26.3-2.29,1.79-3.2,3-.45,5.55,3.33,3.08,2.88,7.14-.34,10.43-.89.9-1.85,1.73-2.78,2.59C131.09,372,181.19,319.83,234.52,269.73ZM638.3,313.06c-7.29-.26-13.46-2.95-20.41,3.87-24.81,24.32-51,47.18-76.56,70.8-11.9,11-23.56,22.33-34.53,34.31-4.49,4.91-7,10.59-6.85,17.38.43,20,.52,40,1.25,60,.37,10.12.5,20.32,2.35,31.06,0-6.13.22-11.54,0-16.93a519.4,519.4,0,0,1,1-66.83c1.24-15.06,7.77-26.47,19.73-35.15C561.88,384.25,595.32,352,629.84,321,632.72,318.42,635.48,315.71,638.3,313.06Zm3.09,139.5c-7.21-5.13-15.61-5.7-23.21-8.7-7.11-2.81-9.13-7.39-6.41-14.48a75.88,75.88,0,0,1,6.84-13.06c5.59-8.9,11.75-17.4,18-25.87,19.82-27,40.17-53.54,59-81.24,1.21-1.77,4-3.64,2.76-5.68-1.09-1.77-4.25-.84-6.5-1.12-1.76-.21-3.26,0-3.47,2.32s-1.54,4-2.79,5.69c-11.27,15.41-19.24,33-33.49,46.53-8.11,7.69-14.25,17.55-20.83,26.76-10.89,15.25-20.73,31.15-26.89,49-2.76,8-1.91,10.88,6,13.12C620.47,448.75,631,450.38,641.39,452.56Zm-64.58,62.81c-.14-.79-.26-1.59-.41-2.38-3.8-20.29-8.32-40.43-10.88-61-1.47-11.78.64-22,8-31.34,7-8.89,14.13-17.65,21.71-26.07q34.22-38,68.3-76.15c3-3.39,5.89-6.93,9.78-11.51-8,2.05-14.18,2.65-19.26,9.22-24.88,32.15-52.33,62.23-77.14,94.45-4.31,5.59-8.44,11.28-12.31,17.19A27.83,27.83,0,0,0,559.9,445c.36,7.71,1.09,15.37,2.14,23C564.33,484.65,568.79,500.65,576.81,515.37ZM199.3,454.76c7.44-.35,9.48-5.32,12.36-10.16,13.3-22.38,23.35-46.41,35.46-69.38a1.42,1.42,0,0,0-.17-2c-1.47-.21-3.24-.52-5-.68-4.38-.42-8.52,2.81-9.26,8.4-.57,4.28,4.13,1.08,5.62,2.9a4.91,4.91,0,0,1,.47.9,7.12,7.12,0,0,1-5.56,2.63c-3.76.08-5.69,2-7.36,5.24-2.49,4.75-4.56,9.93-8.69,13.55a6.59,6.59,0,0,0-2.47,6.49c1.63,0,3.22-2.24,4.77-.21,1.41,1.85,0,3.4-.79,4.95-.59,1.17-1.31,2.27-1.94,3.41C210.67,431.79,204.67,442.82,199.3,454.76Zm-79.93,62,1.41,1.56c24.35-14.75,49.75-27.91,72.44-47.82-11.59,2.9-21.94,5-32.57,5.3-1.31,0-1.9,1.1-2.59,2a132.5,132.5,0,0,1-13.63,14.79C136.14,500.71,127.73,508.71,119.37,516.75ZM565.86,324.44c-11.94,5.38-24.05,10.28-35.19,17.24-1.2.75-1.94,1.39-1.31,3.11,1.41,3.85-.7,6.58-3.39,9-4.13,3.74-8.5,7.26-12.36,11.27C493.23,386.28,470,403.33,442.43,414a50.83,50.83,0,0,0-4.87,2.37c-1.58.8-3.12,1.67-4.69,2.5a3.12,3.12,0,0,0,2.61,0c19.53-7.5,38.12-16.77,55.09-29.12,26.45-19.25,50.17-41.74,74.7-63.27A1.52,1.52,0,0,0,565.86,324.44ZM265.67,258a82.34,82.34,0,0,1,8.64.69c4.37.86,8,.85,9.27-4.59.38-1.58,1.73-3.08,3.69-2.18s1.31,2.7.78,4.29c-.38,1.14-1.7,3,0,3.32A152,152,0,0,0,303.58,261c1,.06,1.27-1.34,1.6-2.25,1.86-5.24,3.7-10.48,5.57-15.71.61-1.71.92-3-1.62-3.52-5.11-1.1-11.3,2.24-15.36-3.54a5.12,5.12,0,0,0-1.68.81C283.25,243.19,274.78,250,265.67,258ZM203.53,434.26c-3.25,1.39-5.68,4.54-9,4.88-8.8.89-11.46,7.43-14.26,14.09a25.09,25.09,0,0,1-1.9,4c-.89,1.39-1.54,4-3.64,3-1.55-.76-1.45-3.19-.72-5,1.36-3.33,2.87-6.6,4.27-9.91.37-.85,1.19-1.73.4-2.7s-10.21-.54-10.86.63c-3.82,7-7.58,14-11.76,21.76,11.22.22,21.37-1.75,31.41-4.65,4.3-1.24,8.5-2.26,7.84-8.4-.18-1.71,1.3-3.64,2.15-5.4C199.43,442.43,201.5,438.35,203.53,434.26ZM339.6,237.83c-1.88-3.68-1.41-6.66-.37-9.65,1.18-3.4,2.26-6.83,3.55-10.18.85-2.2.14-2.93-2-3.05-8.41-.47-16.88-1.91-23.88,5-2.39,2.36-5.72,3.75-8.59,5.65-3.87,2.58-7.69,5.21-12.68,8.59,6.32.46,11.14.76,16,1.19,2,.17,2.49-1.1,3-2.51,1.17-2.88,2.27-5.79,3.59-8.6.85-1.81,1.52-4.74,4.26-3.63s1.14,3.55.36,5.45c-.93,2.27-1.86,4.54-2.86,6.77-.84,1.9-.64,3,1.76,3.21C327.38,236.55,333.05,237.17,339.6,237.83Zm-187,191.3c-2.18,8.19-6.94,12.07-15.51,9.21-4.19-1.4-6.11,1.69-7.17,4.79-1.23,3.59-1.48,8.86,1.27,10.45,4.64,2.69,8.1,6.51,12.33,9.44,2.05,1.43,5.75,3.55,7.77.19,4.12-6.86,7.44-14.2,11.35-21.2,2-3.52-1.32-3.66-2.73-5-2.26-2.17-3.06,0-4,1.47-2.59,4.17-5,8.43-7.66,12.6-1.25,2-2.33,4.28-5.19,5.12-.87-3.18.07-5.73,1.48-8.13,2.74-4.66,5.58-9.27,8.37-13.9C153.83,432.69,155.51,431.26,152.59,429.13Zm62.63,19.29c5.66-1.29,10.47-5.28,10-8.73A12.32,12.32,0,0,1,228,430.1C238.11,417,245.38,402,256.2,389.31c7.38-8.61,7.73-15.87,2.74-26.51-1.47,1-1.71,2.72-2.46,4.12-8.32,15.62-14.92,32.06-22.85,47.86C227.93,426.12,221.47,437.07,215.22,448.42Zm713.62,46.93c-16.32-6.53-31.79-14.08-49-16.48-2.58-.35-5.24,0-7.86-.19-2.86-.17-3.56,1.9-4.27,3.91-1.05,3,1.85,2,2.94,2.59,1.83,1.05,4,1.49,5.84,2.54,3.84,2.21,7.27,1.94,10.89-.63,1.79-1.26,4.26-4.15,6.33-1.34,2.32,3.14-1.53,4.22-3.25,5.89-.17.17-.13.56-.25,1.14,4.37,1.54,8.42,5.08,13.41.81,1.62-1.39,4-4.62,6.14-2,2.52,3.05-1.75,4.06-3.24,5.87a1.79,1.79,0,0,0-.22.64C914.36,504.25,921.39,501,928.84,495.35Zm-689.93-215c12.87,2.46,13.65,2.07,18.35-8.17.48-1,1-2.08,1.51-3.09.84-1.6,1.75-3.63,4-2.6s1.24,3.05.57,4.7c-1.41,3.44-3.52,6.6-4.23,10.43,3.79.38,7.37.67,10.93,1.12a2.67,2.67,0,0,0,3.3-2c2-5.68,4.09-11.32,6.24-17.24-5.82-.95-11.45-.41-16.76-2.21-.55-.18-1.54.42-2.12.9C253.62,268,246.61,273.86,238.91,280.31Zm634.16,245c-3.8-1.65-6.5-3.92-10.3-3.14-1.12.23-4.07.65-2.87-1.36s-1.1-7.27,3.6-5.79,6.8-1.65,10.13-3.18c-2.52-2.09-5.79-2.16-7.8-4.58-1.55-1.88-7.73-1.15-8.73,1-3.69,8-7.2,16.13-10.89,24.16-1,2.07-.33,2.86,1.65,3.55,2.25.78,4.23,1.22,6.52-.13C860.27,532.41,866.3,529.15,873.07,525.35ZM27.37,488c2.4.9,3.75-.31,5.19-.87,13.77-5.35,26.85-12.14,39.87-19.06,4.17-2.21,9.23-3.54,7-10.28-.4-1.21-.25-2-1.7-2.1-2.6-.19-4.75,0-5.87,3a59.9,59.9,0,0,1-4.12,8.35c-.87,1.55-2.28,3.56-4.17,2.48s-.76-3.24-.12-4.9c.93-2.42,2.75-4.52,3.1-7.83Zm902-92H914.39c-1.14,0-2.31,0-3.16.95q-6.5,7.49-13,15l.51,1.32c4.68,0,9.35-.06,14,.05a3.42,3.42,0,0,0,2.87-1.48C920,406.71,924.41,401.65,929.32,396ZM838.91,170.1c-7.61,13.63-11.65,28.27-9.39,44.46C837.52,200.58,844.51,186.6,838.91,170.1Zm53.86,268.52c-7.37-.37-13.74-.46-20-1.09-3.5-.35-3.9,1-3.31,3.8,1.32,6.21,5.69,11.47,5.61,18.12,0,1,.67,1.43,1.66,1.16.6-.17,1.34-.36,1.17-1.22-.7-3.48,2-5.25,3.77-7.44C885.06,447.65,888.67,443.5,892.77,438.62Zm-709.88-44.5c-3.85.52-8.65.25-11.63,4.73-.73,1.09-1.62,2.15-.7,3.55s2.37,2.12,3.81,1.44c8.84-4.24,15.68-2.48,20.63,6.27a3.12,3.12,0,0,0,4.74.88c1.67-1.23,1.87-2.86,1.16-4.8C198.24,399,191.47,394.21,182.89,394.12ZM850.43,560c3.28,1.39,5.79,2.53,8.36,3.52,2,.79,3.9,2.26,6.42.94,6-3.15,12.21-6.09,18.61-9.25-2.87-2.06-5.9-2.73-8.74-3.78-1.89-.7-3.7-2.39-6-1.22C863.09,553.3,857.08,556.47,850.43,560Zm7.42-20.67c4.35,2,8.45,5.3,11.94,4.09,7.37-2.56,14.15-6.8,22-10.79-3.2-1.27-5.13-2.16-7.15-2.8-2.38-.77-4.53-2.82-7.39-1.21C871,532.1,864.71,535.52,857.85,539.29Zm87.28-162.6c-14.93-1.17-22.34,2.64-27,13.6C930.36,392.72,939.53,388.5,945.13,376.69Zm-740.6-12.52c13.4,2.85,13.4,2.85,19.73-8.66.31-.58.6-1.16,1-1.72,1.47-2.35.54-2.93-1.92-3.17C212,349.49,207.93,352.37,204.53,364.17ZM864.37,546.76c-5.44-1-9.13-5-13.18-3.32-9,3.69-16.83,9-18.87,20.07,2.49-1.44,5.75-1.2,5-5.76-.39-2.37,2.29-2.93,4.29-1.62a3.87,3.87,0,0,0,4.48.33C851.66,553.43,857.29,550.5,864.37,546.76Zm46.86-384.65c9.15-10.11,23.52-15.73,26.63-31C928.36,140.88,915.14,147.49,911.23,162.11Zm35.63-81.62c-7.09,8.42-14,16.47-20.68,24.64-1.76,2.13-2,4.79-1.52,8.35,7-7.83,13.11-15.25,19.88-22C947.84,88.13,948.34,85,946.86,80.49Zm-18.23-1c10.94-9.65,19.21-24.34,17.45-31.33-5.13,6.79-9.92,13.58-15.2,20C927.93,71.68,927.7,75.24,928.63,79.48Zm-60,424.36c10.56,5.89,12.75,5.53,24.4-4C884,494.66,879.25,495.43,868.63,503.84Zm-673-122.75c4.3.25,8,.44,11.69.69a2.69,2.69,0,0,0,2.89-1.39c1.56-3.17,5.08-6.11,4.33-9.38-.39-1.7-5.33-.53-8.17-1-1-.16-2-.17-2.93-.27a2.82,2.82,0,0,0-3.11,1.8C198.88,374.59,197.35,377.61,195.63,381.09Zm-112.24,81c2.24-1.22,4.33-2.17,6.2-3.44,3.91-2.67,10.55-3.3,8.26-10.87-.3-1,.92-2.37,1.36-3.6.87-2.42,2.69-4.47,2.93-7.16-5.93-.73-10.61,4.49-12.59,13.9,2,.71,4.57-.21,6.35,1.82C91.69,455.76,83.84,453.35,83.39,462.1Zm147.29-95.55c1.53-.3,3.86,1,5.2-1.64,1.52-3.06,3.22-6,4.89-9,.81-1.45.6-2.28-1.08-2.94-5.28-2.08-7.71-1.27-10.53,3.76L227,360.54C223.86,366.22,223.87,366.22,230.68,366.55Zm786.9-45.47c-4.31.16-7,1.36-9.05,4.3-3.5,5.1-7.18,10.1-10.69,15.2-1.3,1.89-3.05,3.6-3.51,6.18,2.62.37,4.81.17,6.17-1.7C1006.12,337.33,1011.61,329.5,1017.58,321.08Zm-132,189.47c10.3,7.66,16.09-2.29,24.17-4.53C899.28,497.78,893.31,506.91,885.61,510.55ZM240.18,367.1c10.31,1.43,10.09,1.31,13.84-5.69,2.13-4,1.61-5.37-3-6.2-3.15-.57-4.82-.17-6.11,2.77S242,363.72,240.18,367.1ZM834.53,568.71c10.68,7.09,7.5,7.4,21.15-.07C847.13,562.47,844.2,562.44,834.53,568.71Zm223.12-249.53c-3.48-.23-6.41-1.7-8.26.69-4,5.12-7.47,10.6-11.73,16.76,2.85-.15,5,1,6.65-.95C1048.68,330.45,1052.89,325.09,1057.65,319.18ZM221,382.48c4.34.19,10.07-5.09,10.28-9.38.07-1.47-.88-1.43-1.84-1.64-6.4-1.42-8.23-.57-11.62,5.5C214.83,382.21,214.83,382.21,221,382.48Zm789-41.33c10.95-3.55,14.28-13.91,21.36-21.76-3.16-.45-5.49-1.1-7.11,1.21C1019.43,327.43,1014.71,334.3,1010,341.15Zm-874.56,92c9.27,1.25,9.35,1.29,12.92-5.72.82-1.61,3.62-4.06.62-5.24-2.39-.94-6.16-2.39-8.33,1.17C138.77,426.36,137.27,429.58,135.4,433.12ZM945.7,33.68c-6.3,8.68-12.19,16.87-18.18,25-1.42,1.93-1,3.53.36,5.54C934,56.33,940,48.63,945.14,40.28A6.65,6.65,0,0,0,945.7,33.68Zm125.38,284.91c-4.37-1-6.85.37-8.95,3.5-2.64,3.93-5.85,7.46-8.69,11.24-.79,1-2.9,2.23-1.64,3.44a3.54,3.54,0,0,0,4.86-.56A157.61,157.61,0,0,0,1071.08,318.59ZM922.39,376.78c-11.77-1.14-13.8,9.61-20.67,13.66,3.33-.06,6.69,2,9.41-1.06C914.58,385.46,918.09,381.59,922.39,376.78ZM927.9,95.13c1-1.27,1.61-2.17,2.29-3,4.8-6.2,10.49-11.7,14-18.89,1.13-2.32,3.93-3.9,1.64-7.11-5.63,7.28-11.25,14.49-16.8,21.74A7.13,7.13,0,0,0,927.9,95.13Zm-105,12.47c-5.22,8.35-12.81,15.61-12.08,26.47C815.18,125.39,824,118.68,822.86,107.6ZM214.92,402.07a83.42,83.42,0,0,0,4.33-7.27c1-2.25,4.25-4.67,2.56-6.75-1.55-1.9-5.25-.71-8-.95-.32,0-.75-.08-1,.09-2,1.66-4.32,3.49-2.39,6.34C212.13,396,213.11,398.75,214.92,402.07Zm-19.39-32.44c-10.24-.77-10.56-.5-13.16,10.39C191.17,381.61,191.77,381.14,195.53,369.63ZM926,52.67c5-7.12,9.49-13.51,14-19.87,1.66-2.34.19-2.65-1.71-2.92s-2.59.95-3.41,2.2c-2.6,4-5.07,8-7.92,11.79C925.08,46.36,924.7,48.77,926,52.67ZM102.15,449.92l.8.82c3.48-2.1,6.94-4.23,10.45-6.27,2.63-1.52,1.63-4.42,2.47-6.6.41-1.08-1.68-1.05-2.74-1.16-2.48-.26-4.81-.48-6,2.64C105.67,443,103.82,446.41,102.15,449.92Zm940.6-131c-1.93-.7-3.91-1-5.26.85-4,5.49-7.86,11.09-11.87,16.78C1030.7,337.18,1038.61,328.88,1042.75,318.88Zm-931,112.34c7.86,2,9,1.11,12.35-10.13C116.32,419.65,115.52,420.31,111.71,431.22ZM797.58,27.06c-.16-1.42-.09-2.57-1.46-2.6s-1.73,1.19-2.14,2.27q-3.09,8.23-6.24,16.42c-.7,1.82-1.55,3.59-2.22,5.42-.43,1.16-.3,2.43,1,2.87s1.52-1,1.86-1.74q3.71-8.51,7.25-17.07C796.44,30.69,797,28.66,797.58,27.06Zm4.5,8.32-1.44-.3C797.77,41.47,795,47.9,792,54.25c-1.22,2.62-.56,4.35,2.28,6C796.47,51.69,802.91,44.6,802.08,35.38Zm19.38,93.1c-3.85,8.4-12.48,14.47-11.75,24.93C814.34,145.4,821.93,138.84,821.46,128.48ZM147.71,398.62c-5.15,3.82-10.81,7-12.91,13.27-.4,1.22-2.37,2.83-.5,3.66,1.67.74,4.25,1.33,5.57-1.3Q143.8,406.44,147.71,398.62Zm817.05,91.71c2.54,1,4.32,2,6.23-.24,3.49-4.12,7.22-8,10.77-12.11.66-.76,2-1.77,1-2.84s-2.41-.52-3.46.55C974.55,480.46,969.83,485.21,964.76,490.33ZM876.09,493c-4-1.73-7.61-4.7-10.61-4.18-2.83.49-2.18,5.64-3.19,8.69-.33,1-1.51,1.82-.74,3.52ZM946.27,97.83c-1.68,1.76-2.58,2.67-3.44,3.61-5.38,5.92-10.67,11.92-16.15,17.74-4.42,4.69-4.53,4.59-4.5,8.19C930.32,120,945.52,102,946.27,97.83Zm10.31,379.56c-8.65-1.52-11.21,5.73-17,10.64C950,490,951.26,480.8,956.58,477.39ZM1052.47,138c-2.64,13.14-7,25.78-10,38.74C1046,174.31,1053.07,146.67,1052.47,138Zm-244-33.62c3.92-8,10.8-14.7,9.94-24.55C816.07,88.44,807.46,94.51,808.46,104.42Zm169.23,391.2c.38-.12,1-.13,1.26-.43a125.66,125.66,0,0,0,12.21-14c.73-1,.3-1.85-.64-2.46s-1.76-.32-2.51.55q-5.75,6.66-11.58,13.25C974.84,494.37,975.94,495.06,977.69,495.62ZM810.05,55.89c-1.91,8.58-8.61,14.56-7.73,23.23,4-4.54,5.92-10,8.58-15.19C812.31,61.18,812.69,59.29,810.05,55.89ZM971.34,474c-8.21,2.22-11.77,9.84-18.22,15C957.5,489.62,965.85,482.68,971.34,474ZM124.81,432.16c5.49.75,5.54.78,9.39-7.07.56-1.14,2.92-2.75.41-3.89-1.84-.85-4.15-.94-5.32,1.77C128,425.94,126.46,428.81,124.81,432.16Zm110.49-85.5c2.79.5,5.16,1,7.55,1.32,3.45.4,3.28-3,4.6-4.75.57-.76.3-1.36-.65-1.85C242.51,339.14,237.42,341.29,235.3,346.66ZM943.45,114.12l-1.26-1Q932.07,124.74,922,136.35C929.86,129.59,939.18,124.09,943.45,114.12ZM781.36,45.17c2.43-6.16,5.35-11.55,6.65-17.83C782,29.08,777.51,40.45,781.36,45.17Zm212.42,291.4c-5.62,1.73-11.41,3.23-13,10.14C990.11,349.6,989.7,340.16,993.78,336.57ZM872.52,518.74c6.42,4,7.77,3.91,14.35-1.4C880.51,513.29,879.59,513.38,872.52,518.74ZM809.33,116.41c8.46-9.22,13.09-18.76,11.33-23C817,101.41,811.88,108.29,809.33,116.41Zm-3.64-25.08a56.73,56.73,0,0,0,9.54-22.28C812.51,76.7,804.5,82.16,805.69,91.33Zm86.68,111.55c5.71-5.07,11.92-9.71,14.75-17.22C901.76,191,894.4,194.7,892.37,202.88ZM805.57,46.37c-2.66,6.41-5.23,12.58-7.78,18.75-.41,1-.56,2.15.37,2.68,1.38.78,1.54-.8,1.88-1.5,2.43-5.18,4.79-10.39,7.12-15.62C807.89,49.05,806.82,47.91,805.57,46.37Zm268.21,278.17L1064.7,336C1075.24,335.85,1075.59,335.41,1073.78,324.54ZM920.67,161.82c-5.26,6-13.64,9.08-16.38,17.49C910.45,174.14,917.09,169.42,920.67,161.82Zm63.51,336.72.38.29C989,494.88,993.47,491,997.9,487a1.48,1.48,0,1,0-2.13-2.06C991.88,489.44,988,494,984.18,498.54Zm-55.13-14.41c5.94,4.15,7.23-1.88,10.1-3.85.89-.61,3.13-1.65,1.5-3.25a3.16,3.16,0,0,0-4.44.29C933.89,479.55,931.55,481.76,929.05,484.13Zm-116.95-322c-7.81,4.74-5.56,12.64-7.45,19.08C808.25,175.39,810.27,169,812.1,162.15ZM75.56,451c7.87.46,9.17-.69,11.86-10.31C83.12,444.09,78.56,446.08,75.56,451Zm844.16,21.28c-4.58-2.63-7.4-.94-10,2-1.19,1.37-1,2,.65,2.79C915.65,479.66,916.5,474.52,919.72,472.26Zm11.15,2c-4.93-3.54-6.54,1.16-9,3.56-.75.74-2.62,1.58-1.24,3s2.91,1.32,4.28-.23C926.85,478.43,929.44,476.86,930.87,474.27Zm-775-80.86,11.19-7.84C160.7,383.31,156.14,386.42,155.89,393.41Zm849,97.56-1.42-1.34q-5.46,5.6-10.92,11.21c-.48.49-.83,1.18,0,1.56.53.24,1.46.41,1.81.12A73.6,73.6,0,0,0,1004.89,491ZM168.37,379.4c7.08,1.25,9.67-.84,10.18-7.57A51.52,51.52,0,0,0,168.37,379.4Zm820-163.31c5.33-3.51,7.73-8,8.66-13.67C991,206.36,990.32,207.47,988.4,216.09ZM930.63,28.87c-3.26.2-6.14-1.38-7.1.53-1.11,2.19-.51,5.22,1.26,8.14C926.69,34.73,928.29,32.35,930.63,28.87ZM1003,203.6c6-1.75,5.79-6.49,7.36-11C1004.46,194.44,1004.59,199.17,1003,203.6Zm18.28-19.06c-4.5,3-4.34,7-5.8,10.14-.4.84-1,2.07.17,2.51s2.14-.41,2.51-1.7C1019.08,192.24,1020,189,1021.28,184.54ZM191.47,364c5.22,1,8.88.78,9.22-5.45A33.33,33.33,0,0,0,191.47,364Zm61.91-20.94c-.95,2.27-3.81,3.87-2.71,6.32.46,1,4,2.1,4.66.91C256.55,348,254.63,345.49,253.38,343.05Zm717.36-110.3c4.12-1.73,6.8-4.63,6.88-9.29ZM149.23,407.52c-2,1.94-2.71,4.33-3.83,6.45-.47.9-1.49,2.14.52,2.55,1.34.26,2.6.27,2.7-1.69C148.74,412.48,149,410.15,149.23,407.52Zm747.15,63.83c5.66,3.37,5.92,3.33,8.13-.68C901.92,470,899.45,470.43,896.38,471.35Zm135.48-280.44c5.61-1.95,2.74-5.82,2.41-9.67C1033.28,184.77,1031.6,187.53,1031.86,190.91ZM976.48,341.84c-2.69-.62-4.73-.29-5.85,2.3-.45,1.05.12,1.45,1.07,1.62C974.79,346.32,975.44,344,976.48,341.84Z"/><path class="cls-1" d="M564.41,227.77c5.43-2.06,10.34-1.41,15.18-.93,3,.3,4.69-.31,5.87-3.45,4-10.72,4.18-10.59-7.53-11.76-4.06-.41-8.2-.48-12.14-1.8a4.57,4.57,0,0,1-3-1.93c3.07-2,6.49-1.91,9.83-1.73,4.26.24,8.64.18,12.7,1.25,5,1.32,7.23-.54,8.4-5.06a24.33,24.33,0,0,1,2.13-5c.93-1.8,1.66-4.62,4.41-3.3,2.34,1.13,1.05,3.41.31,5.21-1.24,3-2.51,6-3.75,9,.58.34.83.6,1.11.64,5,.69,10.72,3.13,14.88,1.54,4.35-1.67,4.26-8.64,6.66-13,.94-1.72,1.65-3.57,2.62-5.28.77-1.36,1.95-2.4,3.63-1.52s1.47,2.45.87,3.87c-1.78,4.23-3.5,8.49-5.52,12.61-1.81,3.67-2.11,6.09,3.15,6.07a19.63,19.63,0,0,1,5.29,1c1.71.49,3.86,1,3.19,3.47-.55,2-2.35,1.83-4.08,1.44-2.23-.52-4.53-.78-6.74-1.37-3.35-.89-5.68-.31-6.46,3.54a18.74,18.74,0,0,1-1.7,4.6c-1.67,3.25-1.55,5.19,2.88,4.84,1.59-.13,3.09.64,3,2.46a2.38,2.38,0,0,1-3.19,2.22c-6.11-1.58-7.42,2.44-8.81,6.94-2.51,8.13-5.29,16.19-8,24.25-1,2.88-1.75,5.88-4.39,8.57-1.89-5.2-.71-9.77.76-14.17.92-2.75.15-3.55-2.43-3.59-1,0-2-.3-2.93-.29-3.9.07-9.08-3-11.3-.33-3.13,3.83-4,9.53-5.75,14.46-.92,2.6,1.42,2.14,2.58,2.28,4.72.54,9.47.86,14.2,1.29,1.61.14,3.72,0,3.58,2.33s-2.23,2.09-3.83,2c-5.07-.33-10.15-.63-15.19-1.25-2.8-.35-4.27.47-4.94,3.22a37.11,37.11,0,0,1-2.15,6c-.48,1.1-.82,3-2.47,2.47-1.36-.4-1.32-2.11-1.34-3.43a16.28,16.28,0,0,0,0-2c-.36-2.37,2.86-5,.53-6.73-1.7-1.25-4.73-.65-7.17-.91-12.36-1.35-12.37-1.35-17,10.12-1,2.42-1.89,4.87-2.81,7.28.38.28.6.56.87.63,1.93.48,5.24-.5,5.21,2.29,0,3.25-3.4,2.47-5.46,2.18-2.88-.41-4,1.69-6,4.11-.38-3.88-2.19-5-5.16-4.63a25.87,25.87,0,0,1-3.93-.08c-12.34-.26-12.34-.26-16.62,11.64-.55,1.53-1.09,3.07-1.64,4.59,1.83,1.55,6.15.16,5.54,3.64-.65,3.68-4.31,1.89-6.65,1.77-6.05-.31-12.1-.81-18.12-1.55-2.76-.34-4.23.29-5.09,3.05-1.85,5.92-4,11.76-6.12,18.06,1.68,0,2.8,0,3.92,0,1.69,0,3.61.09,3.58,2.33,0,2.06-1.87,2.42-3.55,2.65-2.62.37-5.74-.75-7.44,2.47a1.27,1.27,0,0,1-1.19.29c-7-5-14.76-.56-22.06-1.81-2.11-.36-2.66,1.38-3.2,3-2.14,6.54-4.24,13.09-6.55,19.57-.77,2.15-1.32,6-3.91,5.25-2.21-.61-1.4-4.43-.78-6.67,1.66-6,3.62-11.9,5.63-17.79.83-2.46.55-3.45-2.36-3.56-3.64-.14-7.36-.41-11.24-2.26,4.36-2.79,8.85-2.52,13.15-2.7,2.52-.1,4-.84,4.62-3.33,1.75-7.2,5.06-13.88,7-21.11,1.35-5.05,4.22-10.39,6.67-15.48,1.26-2.62,1.33-4.31-2.43-4a8.23,8.23,0,0,1-6.19-1.58c1.72-2.24,4.24-2.53,6.59-2.32,4.28.39,6-1.69,7.25-5.47a150.32,150.32,0,0,1,5.6-14.16c1.27-2.93,2.5-5.54-4.12-5.58,9.26-3.44,17-2.19,24.69-1.78,3.75.2,7.93,2,9.64-3.52a2.11,2.11,0,0,1,2.51-1.12c1.35.29,1.76,1.31,1.73,2.59a13.28,13.28,0,0,0,.05,2.74c4.51.67,9,1.33,13.6,1.63,2.72.18,2.47-2.61,3.3-4.22,1-1.88,1.69-3.91,2.66-5.8.65-1.26,1.79-2.06,3.25-1.42s1.7,1.89,1.33,3.32c-.08.31-.24.61-.31.93-.58,2.65-3.76,5.56-2,7.56,1.38,1.54,5.25.82,8,1.16,9.68,1.21,9.75,1.25,13.38-7.76,1.2-3,3-5.78,3.36-9.12-18.32-3.09-36.93-3.21-56-8.46,8-2.59,14.66-1,21.26-.35q16.88,1.63,33.68,4c2.95.42,4.16-.5,5.07-3a35.52,35.52,0,0,1,2.58-5.3c.66-1.18,1.67-2.21,3.19-1.54s1.39,1.89,1.22,3.33c-.31,2.59-4.29,4.94-1.61,7.29,1.64,1.43,5,.83,7.61,1.2,9.5,1.37,9.53,1.39,12.73-7.43,1.16-3.2,3.67-7,2.75-9.57-1-2.71-5.9-1-9-2C569.69,230,567,229.91,564.41,227.77ZM458.29,340.2c10.64-.19,10.64-.19,14.09-10.32.26-.77.51-1.55.78-2.32,3.3-9.5,3.3-9.5-6.92-9.89s-10.26-.4-13.78,9.06c-.45,1.22-.93,2.44-1.38,3.67C447.42,340.4,447.43,340.4,458.29,340.2Zm17.79-47.65a18.69,18.69,0,0,1,3.43,0c4.65.88,7.15-.88,8.35-5.56a78.74,78.74,0,0,1,4.61-12.4c1.28-2.9.82-3.92-2.46-4.38-15-2.08-15-2.16-20.54,11.94C465.51,292.25,465.51,292.25,476.08,292.55ZM522.44,294c9.47.68,9.47.68,12.83-7.65l1.82-4.55c2.79-6.9,2.79-6.9-4.43-7.71-11.68-1.29-11.71-1.31-16,9.8-1.17,3-4.18,6.66-2.86,9S519.76,293.32,522.44,294Zm42.4-21.45c1.7.41,2.9-.05,3.55-2.08,1.39-4.35,3-8.62,4.54-12.93.56-1.56.25-2.36-1.61-2.55-4.87-.49-9.73-1.13-14.58-1.78-1.77-.24-2.7.52-3.33,2.08-1.72,4.24-3.44,8.47-5.32,12.63-1,2.28-.67,3.11,2,3.26C555,271.47,559.81,272.09,564.84,272.57Zm31.06-19.19c2.51,1.15,2.65-.67,3.12-2,1.61-4.62,3.06-9.3,4.86-13.85,1-2.48.21-2.89-2.13-3.29-14.07-2.44-14.06-2.51-19,11a27.3,27.3,0,0,1-1.17,3.21c-1.14,2.21-.58,3.23,1.92,3.48C587.76,252.32,592,252.9,595.9,253.38ZM491.18,292.55c4.85.29,9.09.47,13.31.81a3.18,3.18,0,0,0,3.69-2.38c2-5.21,4.06-10.37,6.08-15.56.39-1,1.33-2.5-.44-2.76-4.53-.66-9.1-1-13.67-1.37-.92-.08-1.26.95-1.54,1.69C496.16,279.37,493.75,285.77,491.18,292.55Zm-23.45,20.18c10.44.44,10.44.44,14-9.32.39-1.07.72-2.17,1.2-3.2,1.27-2.72.06-3.49-2.51-3.47a67.68,67.68,0,0,1-9.77-.21c-5.23-.73-7.68,1.24-9.33,6.35C458.22,312.44,457.85,312.31,467.73,312.73Zm29-15.32c-2.36,1.08-6.34-2.41-8.15,2.19-1.44,3.64-2.72,7.34-4,11-.43,1.2-1.11,2.72,1,2.92,4.55.4,9.31,1.6,13.59.65,2.43-.54,1.74-5.5,3.16-8.21a2.88,2.88,0,0,0,.19-.45C505.51,297.6,505.51,297.6,496.77,297.41Zm106.65-68c2.37.55,3.67-.14,4.26-2.35a53.29,53.29,0,0,1,1.89-5.06c2.21-5.86,2.21-5.86-4-6.93-11.16-1.91-11-1.84-15,8.8-1.34,3.53-.1,4.22,2.9,4.47C596.85,228.65,600.26,229.08,603.42,229.43Z"/><path class="cls-1" d="M341.52,317.4c2.68.77,2.16,2.72,1.4,4.62-2.34,5.76-4.79,11.47-7.12,17.23-5.34,13.19-10.61,26.41-15.94,39.6-.83,2-1.69,5.58-3.84,4.87-2.58-.86-1.44-4.41-.62-6.5,7.55-19,15.27-37.93,23-56.87C338.92,319,339.63,317.66,341.52,317.4Z"/><path class="cls-1" d="M416.84,341.79a48.12,48.12,0,0,1,1.61-5.27q9.26-21.93,18.61-43.81a25,25,0,0,1,1.28-2.66c.76-1.31,1.72-2.65,3.46-1.91s1.47,2.41.92,3.82c-.89,2.29-2,4.5-2.92,6.76q-8.91,21-17.81,42a14.57,14.57,0,0,1-1,2.23c-.68,1-1,2.84-2.57,2.53S417.32,343.37,416.84,341.79Z"/><path class="cls-1" d="M300.37,377.27a32.23,32.23,0,0,1,1-3.4q7.76-21,15.57-41.9c.34-.92.73-1.83,1.14-2.72.66-1.44,1.7-2.64,3.4-2.09s1.64,2.21,1.26,3.72a12.09,12.09,0,0,1-.51,1.38q-8.31,22.32-16.64,44.64a12.22,12.22,0,0,1-.94,2.26c-.65,1-1,2.81-2.69,2.28C300.55,381,300.32,379.52,300.37,377.27Z"/><path class="cls-1" d="M355.58,347.51c-5,.3-3.68-3.27-3-5.57,1.79-5.76,4-11.39,6.2-17,2.05-5.33,4.22-10.62,6.39-15.91.69-1.68,1.55-3.68,3.8-2.87s1.57,3,.93,4.62c-4.81,12.31-9.68,24.6-14.52,36.9Z"/><path class="cls-1" d="M285.78,374.86c2.57-8.43,5.24-17.33,8-26.19a2.46,2.46,0,0,1,3.05-1.85c1.8.54,1.92,2.11,1.46,3.62q-4,13.11-8.05,26.19c-.37,1.18-.95,2.78-2.58,2.39S286,376.85,285.78,374.86Z"/><path class="cls-1" d="M380.23,329.75A130.9,130.9,0,0,1,388.14,307a2.18,2.18,0,0,1,3.27-1.11c1.6.92,1.47,2.45,1,3.9-1.57,4.45-3.26,8.87-4.83,13.33-.91,2.62-1.67,5.28-2.52,7.92-.45,1.39-.93,3.32-2.6,3.06C380.57,333.82,380.56,331.71,380.23,329.75Z"/><path class="cls-1" d="M407.7,315.07A85.18,85.18,0,0,1,414.82,298c.68-1.19,1.82-2.06,3.28-1.42,1.8.78,1.64,2.39,1,3.77a147.85,147.85,0,0,0-6.75,16.32c-.43,1.2-.91,2.86-2.5,2.54C407.82,318.75,407.84,316.83,407.7,315.07Z"/><path class="cls-1" d="M399.93,179.61a98.2,98.2,0,0,1,7-16,1.89,1.89,0,0,1,2.57-.76,1.92,1.92,0,0,1,1.05,2.48c-2.42,5.88-4.93,11.72-7.47,17.54-.31.7-1.06,1.51-1.93.87C400.05,182.93,399.75,181.62,399.93,179.61Z"/><path class="cls-1" d="M768.19,209.46c5.18-12.08,7.35-23.57,9.08-35.26-12.21,1-13.62,2.66-17,20,.23.15.47.43.7.43,2.23-.06,5.34-3,6.44.4,1.16,3.55-2.94,3.72-5.16,4.4-3.21,1-4.86,2.75-5.49,6a86.86,86.86,0,0,1-2.57,8.79,1.63,1.63,0,0,0,1.85.67c1.94-.23,4.71-2,5.31,1.13.52,2.8-2.67,3.08-4.54,3.41-3.74.66-5.35,2.76-6.5,6.23-2.41,7.28-4.41,14.74-8,21.57a13.7,13.7,0,0,1-1,1.7c-1.14,1.6-2.36,3.68-4.55,3.15-2.86-.7.73-3.11-1.18-4.84-14,3.84-28.33,7.79-42.67,11.66-2.23.6-2.41,2.38-3,4.06-.9,2.62-1.36,5.44-3.22,7.65-.91,1.08-2.1,1.8-3.45,1.06s-.73-2-.46-3.09c.54-2.19,1.87-4.18,1.75-7-4.81.6-9.47,2.58-15,1.25,4.09-3.8,8.8-5.12,13.39-6.34,3.15-.84,4.65-2.44,5.29-5.5.7-3.36,1.73-6.65,2.69-10,.67-2.34-.11-3.24-2.36-2.37-4.09,1.58-8.52,1.88-12.51,4.06-2.39,1.3-5.5-1-8.79-.59,9-3.76,6.81-12.5,9-19.16,1.63-4.95,2.18-10.25,3.34-15.36.4-1.72,1-3.9,3.39-3.35s1.92,2.57,1.51,4.43c-2,9.07-3.87,18.16-6,28,4.6-1.31,8.61-2.54,12.66-3.57,2.06-.52,2.36-2.13,2.71-3.67,2.31-10.39,5-20.72,6.71-31.22,2.7-17,4.83-34,2.64-51.28-.2-1.55,0-3.15,1.85-3.51s2.59,1.09,2.84,2.64a53.84,53.84,0,0,1,.75,6.33,209.32,209.32,0,0,1-1.12,33.4c-.31,2.67-.45,3.9,3.1,2.86,12.64-3.72,12.49-3.59,14.06-16.77,1.93-16.14,2.88-32.33,3.83-48.54.11-1.84-.43-4.64,2.4-4.46,2.55.16,2.27,2.84,2.18,4.76-.88,17.86-1.68,35.71-4.25,53.43-.27,1.91-1,3.83,0,6,3.76-1.11,7.48-2.35,11.28-3.27,2.27-.55,2.8-2.07,2.88-4,.19-4.58.3-9.17.42-13.76,0-1.82-.15-4.06,2.21-4.29,2.75-.26,3,2.26,3,4.15.16,4.89.06,9.79.06,15.19,2.89-.84,5.91-1.82,9-2.59,2.35-.58,2.28-2.45,2.63-4.19,3.69-18,5.13-36.34,6.57-54.64.18-2.26-.74-6,2.67-5.86,3.59.15,2.12,3.89,2,6-1,17-2.38,34-5.49,50.81-1,5.25-.79,5,4.38,4.05,6.42-1.13,8.85-4.57,9.28-10.82.68-10.13,2-20.22,3-30.33.07-.65.05-1.32.18-2,.36-1.64.81-3.51,2.93-3.27s2.22,2.11,2.08,3.82c-.5,6.38-.86,12.77-1.6,19.12a414.73,414.73,0,0,1-8.2,48.9C777,201.46,775.66,206.89,768.19,209.46Zm-34.25,17c-.22-.16-.35-.34-.46-.32-.64.09-1.28.26-1.92.36-7.87,1.15-14.28,3.67-15,13.24A7.51,7.51,0,0,1,710,247c-.26-5.49,3.56-9.89,3.48-15.44-4.77,1.36-9.15,2.62-13.55,3.84-1.13.32-2.42.57-2.76,1.77-1.51,5.24-2.88,10.52-4.43,16.28l37.84-10.06c2.06-.55,4.08-1.22,6.15-1.7,1.69-.39,3.08-1,3.71-2.78,1.82-5.18,3.69-10.35,5.61-15.72-4.61-.47-6.27,1.69-7,5.4-.45,2.22-1.79,5.17-4.23,4.63-2.74-.59-.91-3.49-.87-5.42C734,227.33,733.94,226.87,733.94,226.48ZM722.2,190c-2.93.85-4.78,1.76-6.68,1.87-7.88.46-10.14,5-11,12.3-1,8.8-3.57,17.42-5.56,26.6,5-1.42,9.33-2.71,13.73-3.88,1.55-.42,2.71-1,3-2.74C717.81,213.13,719.91,202.08,722.2,190Zm19.42-5.3c-14.1,2.17-14.1,2.17-16.34,15.66-.11.64-.3,1.27-.41,1.91-1.32,7.28-2.64,14.55-4,22.27,4.34-1.16,8-2.08,11.58-3.11,3.14-.91,6.34-7.59,5.49-12.78-.57-3.49-4.12-.68-6-1.84a3.76,3.76,0,0,1-.62-.7c1.2-1.93,3.37-2.33,5.22-3.23,1.25-.62,2.75-.8,3-2.74C740.26,195.05,741.62,190,741.62,184.73Zm3.45,15.48c3.62-1.85,8-.75,9.42-5.1,1.33-4.19,2.34-8.49,3.44-12.75.23-.9.61-2-.45-2.62-1.24-.72-10,3.07-10.17,4.49C746.52,189.34,745.86,194.47,745.07,200.21Zm6.62,3.18c-8.48,2.18-10.11,4.9-9.4,15.1C748.87,217.14,749.77,215.71,751.69,203.39Z"/><path class="cls-1" d="M665.07,175.93c-.17-3.41-.4-7.67-.59-11.92-.06-1.31-.2-2.93,1.47-3.21,2-.33,2.37,1.31,2.62,2.83,1.52,9.13,1.28,18.33.39,27.46-2.88,29.72-12.19,57.91-21,86.2a14.65,14.65,0,0,1-1.16,2.7c-.89,1.6-2.14,3.67-4,2.81-2.08-.94-.67-3.14-.16-4.72,8.13-25.43,16.14-50.88,20.44-77.32A187.8,187.8,0,0,0,665.07,175.93Z"/><path class="cls-1" d="M626.68,124.16c-1-2.41.41-4.26,1.25-6.09,6.24-13.7,12.59-27.36,18.92-41a14.53,14.53,0,0,1,1.42-2.56,2.1,2.1,0,0,1,2.57-.93,2.25,2.25,0,0,1,1.31,2.85,17.28,17.28,0,0,1-1.07,2.74c-5.83,12.63-11.64,25.27-17.54,37.87C632.1,120.07,630.64,123.29,626.68,124.16Z"/><path class="cls-1" d="M658,101c-1.52.17-1.6-.9-1.43-1.89a12.72,12.72,0,0,1,1-3.24q7.62-15.62,15.35-31.19c.84-1.67,1.71-4.27,4.13-3.15,2.79,1.29,1.07,3.6.17,5.43q-7.11,14.51-14.29,29C661.85,98.14,660.71,100.36,658,101Z"/><path class="cls-1" d="M690.94,65.59c3.22-6.2,6.36-12.34,9.59-18.43a2,2,0,0,1,2.55-.87,2.17,2.17,0,0,1,1.32,1.89c.59,4-8,16.8-12,17.89C692.17,66.13,691.84,65.89,690.94,65.59Z"/><path class="cls-1" d="M856.86,226.73c-.29-2.1.79-3.23,1.49-4.44,20.61-35.59,33.9-74.1,45.4-113.34.63-2.14.38-6.09,3.67-5.25s1.28,4.24.7,6.37a553.45,553.45,0,0,1-37.74,100.64C865.35,220.93,862.68,223.78,856.86,226.73Z"/><path class="cls-1" d="M949.3,191c.06-2.33,1.54-3.72,2.84-5.09,11.55-12.23,20.65-26.24,29.53-40.42a24.93,24.93,0,0,1,2.2-3.24,2.22,2.22,0,0,1,3.09-.51,2.39,2.39,0,0,1,1,3,12.13,12.13,0,0,1-1.08,2.2c-8.26,13.6-17,26.86-27.58,38.81C956.68,188.71,954,191.65,949.3,191Z"/><path class="cls-1" d="M973.41,443.68c-5.61,0-9.54.08-13.47,0-1.65-.05-3.53-.48-3.55-2.59s1.73-2.58,3.49-2.55a258.57,258.57,0,0,0,28-1c1.56-.14,4-.36,4.23,1.39.33,2.09-2.19,2.59-3.8,3.13C982.91,443.86,977.24,443.16,973.41,443.68Z"/><path class="cls-1" d="M988.25,369.3c2,0,3.94-.06,5.9,0,1.12.05,2.56.18,2.71,1.54s-1.15,1.9-2.2,2.33a11.28,11.28,0,0,1-3.27,1q-11.49,1.06-23,2c-1.83.15-4,.25-4.16-2.22-.13-2.06,1.82-2.51,3.49-2.67C974.57,370.56,981.41,369.94,988.25,369.3Z"/><path class="cls-1" d="M922,290.27c4.09-2.64,7.37-4.77,10.67-6.86a22.51,22.51,0,0,1,3.85-2.16c1.12-.43,2.69-1.13,3.48.35.61,1.13-.44,2.19-1.27,3a46.39,46.39,0,0,1-13,8.8c-7,3.05-10.51,8.4-12.72,16.91,8.86-6.23,19.72-7,24.55-17.53,4.08-8.93,9-17.47,13.56-26.19.45-.87.83-1.79,1.35-2.62.92-1.5,1.79-3.66,4-2.64s1.18,3,.43,4.67c-.83,1.79-1.77,3.52-2.67,5.26l-11.46,22.15c2.31.32,3.68-1,5.14-1.76,17.78-9.5,35.51-19.09,53.31-28.56,3.67-1.95,7.44-3.91,12.54-3.64-3.16,3.82-6.87,5.82-10.59,7.81-11.7,6.28-23.38,12.58-35.12,18.79a9,9,0,0,0-4.45,4.85c-2.7,6.44-5.77,12.73-9.33,20.47l17.34-9.26c-3.35,6.26-7.74,9.34-12.42,12.22-9.91,6.09-21.12,9-31.8,13.21a16.38,16.38,0,0,0-5.81,3.48c-1.63,1.58-3.3,6.1-6.62,1.33-.26-.38-2.4.43-3.61.84-6,2-13,2.79-14.78,10.79-.12.57-.76,1-1.22,1.51-1.06,1.1-2.61,2.35-3.82,1.6-1.4-.88-.49-2.67.14-4l10.35-22c-4.81,1-8.57,2.06-10.16,6.78a35.31,35.31,0,0,1-3.29,6.56c-.67,1.12-1.86,2.1-3.31,1.38s-1.13-2.22-.77-3.48c.43-1.51,1-3,1.73-5.15-4.33,1.55-8,2.84-11.6,4.15-1.5.55-3.07.86-3.66-1-.48-1.57.9-2.34,2.12-2.84,3.19-1.31,6.31-2.95,9.63-3.69,7-1.54,8.81-6.85,10.6-13.05-6.26,2.13-12,4.29-17.9,6-2.44.71-6.46,2.54-7.26-.93s3.66-2.66,5.87-3.34a189.93,189.93,0,0,0,20.14-7.85c2.63-1.16,3.23-3.47,4.22-5.69,1.86-4.17,3.17-4.38,5.46-.66.66,1.08,1.09.95,1.75.61,4-2,8.76-3.16,10.16-8.43a24.93,24.93,0,0,1,2-4.5c.72-1.47,1.48-3.3,3.53-2.65,2.43.78,1.76,2.72,1.14,4.5A25,25,0,0,0,922,290.27Zm35,2.81c-15.67,3.94-24.23,14.52-29.28,29.31,6-2.36,11.76-4.63,17.51-6.84a4.24,4.24,0,0,0,2.39-2.33C950.74,306.58,953.83,299.93,957,293.08Zm-52.83,37.06c13.89-2.6,20.88-9,24.47-22.72C918.38,312.87,905.65,315.22,904.19,330.14Zm-7.12-13.22c8.49-1,10.6-7.34,12.76-14C901.34,304.09,898.72,310,897.07,316.92Z"/><path class="cls-1" d="M1004.48,245.29c-1.94,4.92-5.27,7.35-8.78,9.4q-14,8.19-28.18,16c-1.83,1-4.48,4.12-6.15.76-1.45-2.91,2.27-3.84,4.21-5,9.32-5.46,18.76-10.72,28.1-16.15C996.89,248.47,999.94,246.33,1004.48,245.29Z"/></g></g></svg>