<svg xmlns="http://www.w3.org/2000/svg" viewBox="0 0 477.35 357.51"><defs><style>.cls-1{fill:#757575;}</style></defs><g id="Capa_2" data-name="Capa 2"><g id="Capa_1-2" data-name="Capa 1"><path class="cls-1" d="M172.45,151.29a8.85,8.85,0,0,0,1.59-2.15c.75-2.27,1.76-3.95,4.55-3.69a2.39,2.39,0,0,0,1.56-.92,17.63,17.63,0,0,1,9-5.84c2-.55,3.92-1.58,5.95-2.12,6.58-1.74,13.22-1,19.73.23,7.19,1.36,14.24,3.45,21.39,5.08,11.26,2.57,22.66,4.05,34.23,3.27,11.11-.74,22-2.89,31.47-9,9.14-5.9,17.26-13.13,21.83-23.33,3.48-7.79,2.31-15.25-3.48-21.59-2.38-2.6-5.43-4.58-8.18-6.84l-1-.83.27-.55a20,20,0,0,1,3.84,1.64c4.88,3.4,9.11,7.39,11.43,13.07a1.81,1.81,0,0,0,1.58.67,42.12,42.12,0,0,1,17,0c1,.23,2,.54,3.05.83.83.23,1.18,0,1.52-.89a34.92,34.92,0,0,1,3.08-6.47,7.5,7.5,0,0,1,9.89-2.44,6.14,6.14,0,0,1-1,.36c-5.29,1-8,3.71-8.79,9.07a48.1,48.1,0,0,1-5.14,15.82c-1.21,2.24-2.71,4.34-4.19,6.7,1.66.89,3.27,1.84,5,2.58.32.15,1.2-.36,1.47-.79a39.25,39.25,0,0,0,5-11.58,40.43,40.43,0,0,1,1.44-4.89c.48-1.27,1.21-2.63,2.92-2.18s1.68,2,1.42,3.34a55.24,55.24,0,0,1-6.3,17.1c-.35.61-.84,1.78-.61,2a17.14,17.14,0,0,0,3.31,2.23c.11.07.67-.4.85-.72,2.7-4.82,5.17-9.74,6.44-15.18a39.05,39.05,0,0,1,1.51-4.86c.47-1.25,1.41-2.19,2.85-1.76a2.15,2.15,0,0,1,1.34,2.89c-1.09,4-2.08,7.94-3.52,11.77-1.29,3.44-3.13,6.67-4.67,10-.21.45-.31,1.27,0,1.55a41.89,41.89,0,0,0,3.22,3c.57-1,1-1.73,1.41-2.5,3.2-6.34,6.39-12.68,7.79-19.74a6.67,6.67,0,0,1,1.29-2.85c.52-.61,1.69-1.31,2.24-1.11a2.82,2.82,0,0,1,1.51,2.17,16.2,16.2,0,0,1-1,5.16c-2.22,5.86-4.59,11.66-7,17.46-.6,1.45-1.52,2.77-2.23,4.19-.21.42-.44,1.1-.25,1.42.84,1.45,1.83,2.8,2.91,4.42a12.75,12.75,0,0,0,1.31-1.62c5.32-9.81,10.23-19.82,12.81-30.76a39.47,39.47,0,0,0,1.47-10.57c-.23-5.34-3.89-8.45-8.69-10.19a22.18,22.18,0,0,0-5-1.14c-1.65-.18-1.77-.86-1.26-2.2a171.41,171.41,0,0,1,13.47-28.22,110.37,110.37,0,0,1,19.57-24.52,65.57,65.57,0,0,1,28-15.6,44,44,0,0,0,10.88-4.76c3.28-1.91,3-4.55-.33-6.46a24.91,24.91,0,0,0-18-2.76c-9.66,2-16.64,8-22.63,15.42-1.66,2.07-3.21,4.23-5.09,6.18a19.38,19.38,0,0,1,1-2.16c4.41-7.25,9.18-14.26,16.34-19.09S431.11-1.18,439.88.61c5.43,1.11,10.18,3.64,13.44,8.32,2.49,3.57,2,7.46-1.67,9.84a32,32,0,0,1-9.47,4.4A75.14,75.14,0,0,0,416.46,35.4a97.61,97.61,0,0,0-30.52,36.23c-2.44,4.87-4.36,10-6.63,14.93-.64,1.39-.09,1.71,1.09,2,6.94,1.77,11,6,11.65,13.07A29.43,29.43,0,0,1,391,111.89c-2,7.1-4.5,14.06-6.81,21.07-.4,1.21-1.45,2.6-1.13,3.55s2,1.36,3.08,2c8.77,5.21,13.79,12.83,14.74,23,.05.46.1.93.18,1.39,0,.16.16.3.13.25a48,48,0,0,1,6.45-.75c5.43.09,8.79,4,8.24,9.39-.14,1.34-.44,2.66-.69,4-.79,4.18-.09,7.91,3.08,11a9.76,9.76,0,0,0,6.08,2.43c8,.92,14.31-2.19,19.53-8,1.24-1.37,2.35-2.86,3.8-4.63-.49,3.08-2.11,5.13-3.76,7-4.76,5.52-11,7.78-18.16,7.55-1,0-1.82-.16-1.42,1.33,3.07,11.43-.93,20.47-9.65,27.8a40.6,40.6,0,0,1-14,7.9c.85-.59,1.69-1.2,2.57-1.76C411.55,221.16,417.31,214,419,204a29.68,29.68,0,0,0-.7-13.25,3.76,3.76,0,0,0-1.46-1.85c-3.74-2.59-4.9-6.26-4.56-10.57.11-1.46.42-2.92.43-4.37a1.81,1.81,0,0,0-1.06-1.35,4.79,4.79,0,0,0-5.85,4.32,2.05,2.05,0,0,0,.21,1.18c4.46,7.18,1.1,13.57-4.73,17.06a56.92,56.92,0,0,1-8.9,4.09c-7.4,2.87-13.76,6.83-16.78,14.68a1.55,1.55,0,0,1-.29.43c-.07.08-.2.1-.44.22-.53-1.79.18-3.34.85-4.83,2.29-5.13,6.49-8.4,11.23-11,4.05-2.21,8.34-4,12.35-6.27a11.18,11.18,0,0,0,5.16-6.89c1.19-4.15-1.65-6.92-5.93-6.52a1.88,1.88,0,0,0-1.21,1c-4.31,9.53-11.28,16.6-20.14,21.93-1.21.73-2.51,1.28-3.77,1.9a.79.79,0,0,1-.75,0c2.38-1.73,4.85-3.35,7.12-5.22,9-7.42,15-16.87,17-28.37,1.89-10.63-2-20.14-11.58-26.59a24.89,24.89,0,0,0-3.29-2c-.5-.24-1.24,0-1.87.06.29.52.46,1.26.91,1.54,5.93,3.73,10.45,8.65,12.12,15.56.79,3.24.7,6.71.94,10.08a2.16,2.16,0,0,1-.65,1.46c-.34-2.52-.56-5.07-1-7.56-1.44-7.36-5.26-13.08-11.9-16.79-1.83-1-2.09-1-3.13.79a6.9,6.9,0,0,1-.74,1.2,2.62,2.62,0,0,0-.36,3.48,14.46,14.46,0,0,1,1.54,4.47,3.29,3.29,0,0,0,2.72,2.87c.77-3.11-.75-5.78-1.57-8.65,1.47-.32,1.74.83,2.05,1.65,2.3,6.26,2.17,12.39-1.07,18.35-4,7.26-10.39,11.66-17.53,15.18-9.28,4.58-19.25,5.81-29.44,5.62A121.21,121.21,0,0,1,296,184.13a74.36,74.36,0,0,0-20.42-3.5c-14.49-.69-28.34,2.24-41.77,7.46-2.23.87-4.34,2.06-6.54,3a35.38,35.38,0,0,1-6.14,2A84.85,84.85,0,0,1,236.7,184c5.44-2.52,11-4.74,16.23-7l-14.43-2.74c-.5,2-1,4.27-1.62,6.48-.49,1.75-1.92,2.6-3.52,3.16a1.7,1.7,0,0,1-1.27-.13c-.15-.09,0-.74,0-1.12a4.32,4.32,0,0,1,.48-.93c2-3.46,1-6.52-2.72-7.89a3.19,3.19,0,0,1-2.5-3A5,5,0,0,0,224,166.5a11.23,11.23,0,0,1-1.24-.68c.77-.88,1.47-1.63,2.12-2.43,2.09-2.59,2-3.8-.36-6.08a3.19,3.19,0,0,1-.74-1.17c-3.16-8.33-9.57-12.26-18.65-11.41l-1.22.15c-2.62.3-5,.58-7.7-.84-4.44-2.34-9.07-.29-11.59,4.33.28.32.61.64.88,1,.58.84.64,1.71-.31,2.28s-2,.54-2.36-.58c-.63-2.12-2.53-1.59-3.77-1.68-.88-.06-2.24,1.1-2.7,2-.83,1.72-1.53,3.27-3.68,3.59-.21,0-.5,1.08-.38,1.55,1.7,6.67,5.38,12.17,10.21,17A58,58,0,0,0,195,182.83c.8.45,1.52,1,2.69,1.86-.86.12-1.26.31-1.54.2C186,181,176.74,175.7,170.71,166.18c-5.41-8.55-5.72-17.5-1.49-26.68,3.91-8.48,9.87-15,18.52-18.66a41.69,41.69,0,0,1,18.95-3c2.52.14,5,.23,7.56.36.2,0,.4.17.71.75a25.24,25.24,0,0,1-3.66.87c-3.55.33-7.14.35-10.67.82a58.4,58.4,0,0,0-7.1,1.85l.06.43c3-.18,6-.53,9.06-.51a67.49,67.49,0,0,1,9.1.7,54.81,54.81,0,0,1,9,2.18c-4-.45-8-1.06-12.05-1.31a57.25,57.25,0,0,0-21.21,2.27,16,16,0,0,0-8.43,6.9c.78-.4,1.57-.79,2.33-1.21,6.45-3.52,13.47-4.7,20.68-5,8.2-.36,16.26.74,24.31,2.23,15.5,2.88,30.86,2.35,45.87-2.76,8.95-3,17.13-7.43,23.09-15.1,5.69-7.34,8.24-15.45,5.93-24.72a3.66,3.66,0,0,1,.07-.73,4.2,4.2,0,0,1,.76.68,22.54,22.54,0,0,1,3.48,11.12c.15,3.27.81,6.51.93,9.78.34,9-3.32,16.28-10.07,22.06-6.4,5.49-14.07,8-22.22,9.43a105.61,105.61,0,0,1-19.43,1.63,120.88,120.88,0,0,1-29.54-4.23c-2.83-.74-5.59-1.77-8.37-2.69a11,11,0,0,1-1.57-.86,4.91,4.91,0,0,1,1.21-.16A141.37,141.37,0,0,0,252,138.38c12,.33,23.72-1,34.51-6.7,6.27-3.29,11.69-7.68,14.92-14.22a12.5,12.5,0,0,0,1.59-7.63,14.9,14.9,0,0,0-1,1.49c-3.62,6.94-9.41,11.59-16.2,15.11-13.64,7.06-28.33,8.35-43.31,7.32a167.1,167.1,0,0,1-16.89-2.43c-9.69-1.68-19.4-2.84-29.24-1.78-6.73.73-13.09,2.48-18.74,6.47a9.82,9.82,0,0,0-3.8,5.49c-.81,2.69-1.41,5.44-2,8.18a4.25,4.25,0,0,0,.11,1.31Zm169.87,34.46c.13-.39.21-.5.2-.6-.07-1.13.05-2.23,1.4-2.45s1.62.73,1.86,1.81c.07.29.91.64,1.34.58a50,50,0,0,0,22.36-8.84c4.8-3.42,8.88-7.48,10.61-13.39.36-1.23.34-2.18-1.2-2.22-1.95,0-2.38-1.24-2.71-2.87-.91-4.44-3.53-7.61-7.89-8.84a40.25,40.25,0,0,0-8.15-1.06,3.24,3.24,0,0,1-2.34-1.14,16.33,16.33,0,0,0-4.37-3.39c-5.13-2.35-10.07-.8-14.94,1.17a4.54,4.54,0,0,1-2.61.32c-1.79-.43-3.49-1.45-5.29-1.65-5.17-.59-9.92.45-13,5.12-.86,1.33-1,3.17-1.29,4.81-.27,1.44,1.24,1.45,1.92,2.15a2,2,0,0,1,.45,1.71,1.93,1.93,0,0,1-1.37,1.07,2.51,2.51,0,0,1-1.67-.64c-.35-.28-.42-.89-.62-1.34a6.2,6.2,0,0,0-4.65,6.71,17.69,17.69,0,0,0,1.05,4.42,3.68,3.68,0,0,1,0,3.34,7.48,7.48,0,0,0-.51,1.49c-1.78,6.52,4.11,12,9.19,13.27C327.36,187.14,334.88,186.56,342.32,185.75Zm-146.75-48,0,.75a30.48,30.48,0,0,0,4.78,1.29c1.3.14,2.66-.4,4-.46,4.79-.24,9.4.39,13.34,3.43a18.27,18.27,0,0,0,8.09,3.52c4.86.87,9.75,1.6,14.51,2.86a106.59,106.59,0,0,0,33.29,3.66,67.62,67.62,0,0,0,27.06-7c2.37-1.2,4.62-2.63,6.93-4l.36.5c-1.77,1.4-3.45,2.94-5.33,4.17-6.41,4.18-13.59,6.22-21.08,7.38a107.24,107.24,0,0,1-29,.54c-7.2-.85-14.32-2.49-21.48-3.75-.76-.14-1.55-.17-2.32-.25l-.42.56c.92,1.08,1.64,2.77,2.79,3.15a114,114,0,0,0,15.4,4.31c6.79,1.21,13.72,1.71,20.58,2.53.83.1,1.65.25,2.47.38-13.44,1.63-26.24-1.55-39-5.24-.33,1.83.7,2.26,1.7,2.6,2.06.69,4.11,1.4,6.21,2,9.22,2.45,18.55,4,28.17,3.66,10.89-.44,21.24-2.79,30.84-8.09,1.76-1,3.5-2,5.24-3a8,8,0,0,1-2.36,2.48,71.23,71.23,0,0,1-20.5,9,74.74,74.74,0,0,1-20.72,2.46A90.87,90.87,0,0,1,232,162.52c-.68-.22-1.44-.76-1.87.41s.17,1.54,1.07,1.81a3,3,0,0,1,2.27,3c0,1.12.63,1.44,1.54,1.79a63.67,63.67,0,0,0,17.6,4.09,71.34,71.34,0,0,0,13,.4c7.94-.77,15.78-1.35,23.62.64a3,3,0,0,0,2-.17c3.53-2.06,7-4.2,10.5-6.35,1.51-.93,2.24-2.14,1.3-3.94a3.63,3.63,0,0,1-.19-1.56c-.08-3.79,1.85-6.48,4.87-8.43a4.63,4.63,0,0,0,2.2-3.63,15.38,15.38,0,0,1,2.29-6.15c3.34-4.86,8.35-6.56,14.07-6.47,1.31,0,2.61.15,3.92.23l.7-.91a6.31,6.31,0,0,1-1.65-.65c-4.27-3.32-9.24-4.41-14.49-4.71a5.66,5.66,0,0,0-4.35,1.85c-7.33,6.85-16.15,10.78-25.86,12.75-10.88,2.2-21.82,1.84-32.78.54-9.92-1.18-19.29-4.5-28.86-7a82.08,82.08,0,0,0-21-3.13A46.21,46.21,0,0,0,195.57,137.74Zm150.8-30c2-2.36,1.87-3.16-.75-4.37-1.12-.51-2.28-.92-3.44-1.33a33.87,33.87,0,0,0-12.84-1.65c-1.31,0-2,.43-1.68,2a15.49,15.49,0,0,1,0,4.56c-.68,6.35-3.8,11.62-7.54,16.58-1.32,1.75-2.78,3.39-4.37,5.33,1,.31,1.75.56,2.51.77,5,1.41,9.76,3.37,13.53,7.15.89.89,1.63,2.38,2.64,2.59s2.33-.79,3.51-1.26l.17,0c1-.3,1.26-1,.54-1.69a80.74,80.74,0,0,0-6-5.59,39.09,39.09,0,0,0-4.84-2.92,1.94,1.94,0,0,1,1.25-.06,27.27,27.27,0,0,1,12,7.38c1.56,1.66,2.57,1.8,4.86.53-3.5-6.5-10-9.17-15.87-12.71a23.78,23.78,0,0,1,2.94.88,41.87,41.87,0,0,1,15.06,8.85c1.66,1.46,3.17,3.12,4.84,4.57a59.75,59.75,0,0,0,4.83,3.73,14.93,14.93,0,0,0,2.57,1.12c.12-.67.22-.86.17-1A9.31,9.31,0,0,0,360,140c-2.89-5.95-7.5-10.19-13-13.67a68.86,68.86,0,0,1-9.45-7.22,8.16,8.16,0,0,1-3-6.55c1.46,1.83,2.77,3.53,4.13,5.2.72.87,1.48.86,2.15-.1,1.2-1.73,2.49-3.41,3.58-5.2,1.34-2.19,1.2-2.83-1.29-3.63-2.65-.85-5.45-1.27-8.18-1.87l-1.5-.31.1-.52C338,105,342.19,106.22,346.37,107.72Zm-51.72,68.36c2,2.3,14.83,7.76,17.5,7.33a36,36,0,0,1-3-2.74,10.24,10.24,0,0,1-2.41-8.19,6.22,6.22,0,0,0-.55-2,13,13,0,0,0-1.66.57c-.78.39-1.48.94-2.26,1.33C299.76,173.61,297.19,174.84,294.65,176.08Zm117.54-5.49a3.94,3.94,0,0,0-4.12-2.76c-3.11.1-7.7,4.29-8,7.41,0,.3.69,1,.8.93a4.29,4.29,0,0,0,1.84-1.24c1.18-2,2.5-3.81,4.84-4.28A24,24,0,0,1,412.19,170.59Z"/><path class="cls-1" d="M252.38,347.35c-28.55-.27-51.45-2.17-74.11-6.54a331.1,331.1,0,0,1-45.73-12.11,248.84,248.84,0,0,1-51.45-24.25c-12.56-7.91-24.13-17.05-34-28.19-7.94-8.94-14.37-18.82-18.35-30.18A64.07,64.07,0,0,1,25,225.56c0-2.56.75-3.11,3.09-2.16a4.64,4.64,0,0,1,3.2,4.11c1.48,11.09,5.81,21.11,12,30.31,11.28,16.66,26.46,29.05,43.39,39.52a235.39,235.39,0,0,0,39,19.07,300.17,300.17,0,0,0,35.08,11,333.62,333.62,0,0,0,62.55,9.69c12.17.69,24.39.69,36.59.63a283.79,283.79,0,0,0,45.54-4c11.61-2,23.17-4.33,34.64-7a265,265,0,0,0,43.18-14.34,239.34,239.34,0,0,0,29.64-15,163.77,163.77,0,0,0,33.86-26.2c9.75-10,17.67-21.3,22-34.79a58.56,58.56,0,0,0,.69-34.33c-.07-.29-.25-.6-.18-.85a14.19,14.19,0,0,1,.67-1.67c.48.32,1.25.53,1.41,1a83.93,83.93,0,0,1,2.82,8.51,60,60,0,0,1-1.34,33.84,83.93,83.93,0,0,1-13.17,24.53c-8.7,11.55-19.35,21-31.06,29.39a202.43,202.43,0,0,1-38.18,21.6c-9.63,4.11-19.37,8.05-29.28,11.43a306.36,306.36,0,0,1-38.41,10.09,342.33,342.33,0,0,1-39.5,5.75C271.18,346.63,259,347,252.38,347.35Z"/><path class="cls-1" d="M158,128.79a62.46,62.46,0,0,1,2.79-5.69c5.54-8.83,13.86-13.38,23.85-15.27,13.75-2.59,27.09-.27,40.35,3.28,7,1.86,13.92,3.83,21,5.1,8.6,1.54,17.37,1.79,25.78-1.08C280.9,112,287.7,106.06,291,96.7c.64-1.87,0-4.19.67-6s2.44-3.09,3.33-4.81c1.67-3.25.56-6.27-1.42-9a1.51,1.51,0,0,0-.85-.58c-2.08-.42-3-1.7-3.34-3.76a5.63,5.63,0,0,0-3.77-4.14,19.78,19.78,0,0,1-8.46-5.71c-2.64-3.17-6.51-3.79-10.5-2.5a8.82,8.82,0,0,1-7.61-.64,5.84,5.84,0,0,0-5.73-.21,4.32,4.32,0,0,1-2.35.19c-3.81-.51-6.15.74-7.75,4.25-1,2.15-2.06,2.65-4.38,2-3.21-.88-5,.07-6.19,3.12a4.55,4.55,0,0,1-3.93,3.29,3.75,3.75,0,0,0-3.79,3.5,21.61,21.61,0,0,0-.19,4,3.52,3.52,0,0,1-2,3.44c-2.68,1.38-3.29,2.9-2.15,5.74a17.27,17.27,0,0,0,1.75,3c1.12,1.7,1.13,2.22-.45,3.33a3.12,3.12,0,0,0-1.59,3.43,4.1,4.1,0,0,0,3.07,3.31c3.65.81,7.33,1.5,11.23,2.29-.12-1.73.48-3.06,2.44-3.27,1.52-.15,3,.21,3.59,1.64.36.85-.09,2-.21,3.42a2.44,2.44,0,0,0,.76.35c8.87,2,17.75,2.76,26.63.1a24.2,24.2,0,0,0,15.14-12.29,5.39,5.39,0,0,1,1.31-1.58,12.29,12.29,0,0,1-1.44,9.09,18.37,18.37,0,0,1-11.06,8.39,44,44,0,0,1-22.58,1.25,83.47,83.47,0,0,1-12.78-4.3c-8.57-3.43-17.3-5.12-26.5-3.31a8.17,8.17,0,0,1-1.11.08l-.16-.58,5.72-1.82a9.07,9.07,0,0,1-1.14-2.64,10.06,10.06,0,0,1,.74-3,41.88,41.88,0,0,0-16.13,3.46l4.9,2.73-.2.68a18.15,18.15,0,0,1-3.06-.56,86.17,86.17,0,0,0-22.75-5.24c-12.43-1-24.27.93-34.84,8-4.59,3.06-7.67,7.51-10,12.52a29.61,29.61,0,0,0-.48,24.09c.38,1,.7,2,1,3l-.45.25a63.12,63.12,0,0,1-3.19-5.58c-.91-2-1.4-4.22-2.26-6.27-.23-.56-1.19-1.29-1.69-1.21-6.52,1.1-12.61,3.24-17.37,8.11-9.84,10.07-5.85,25.87,7.72,30.48a52.37,52.37,0,0,1,18.34,10.18c5.56,4.94,9.19,10.93,9.66,18.53a11.22,11.22,0,0,1-.26,3.34c-.62-3.44-1.07-6.89-3.69-9.66-1.74,10.34-7.37,16.62-18.42,17.74,4.94,2.79,11.86,1,17-3.72a12.65,12.65,0,0,1-5.7,7.29,14.11,14.11,0,0,1-10.54,1.66,22.87,22.87,0,0,1-15.13-10.33,9.36,9.36,0,0,1-.51-1.18l2.88,2c5.8,3.94,11.58,3.49,17.31-.12s8.4-8.52,7.48-15.14a15.94,15.94,0,0,0-8.81-12.07c-4-2.13-8.41-3.52-12.63-5.23l-6.33-2.55-.32.39c1.87,1.44,3.68,3,5.64,4.29,1.8,1.2,3.86,2,5.65,3.22,4.51,3.06,7.42,7.11,7.36,12.85a10.49,10.49,0,0,1-11.24,10.29,20.9,20.9,0,0,1-10.54-4.07A93.11,93.11,0,0,1,87.52,184.9c-6-6.53-13.4-9.51-22.13-8.25-4,.58-7.94,2.29-12,3.7a14.83,14.83,0,0,1,1.35-1c6.73-4,13.85-5.71,21.58-3.63,4.75,1.28,8.68,4,12.34,7.21,3.94,3.49,8,6.87,12.13,10.15a15.17,15.17,0,0,0,4.38,2.16c2.87,1,4.3.44,6-2.07,1.84-2.76,1.45-8.91-.8-11.27-.12,0-.27,0-.33.06-3.75,4.2-7,5-12.4,2.81a32.16,32.16,0,0,1-12.52-9.51c.55.31,1.09.64,1.66.92,3.59,1.83,7.12,3.83,10.83,5.38a8.93,8.93,0,0,0,5.31.38c3.48-.9,4.06-5.25,1.27-8.37a14.17,14.17,0,0,0-2.65-2.3c-6.53-4.42-9.19-11.36-7-19.05,2.67-9.52,8.78-16.29,17.34-20.95a31.26,31.26,0,0,1,12.38-3.7c1.09-.1,1.62-.42,1.58-1.75-.25-7.34,2.2-14,6-20.11,6.16-10.11,15.88-14,27.06-15a77.79,77.79,0,0,1,11.41.3,3.76,3.76,0,0,0,3-1,27.28,27.28,0,0,1,21.19-7.19c3.38.29,6.69,1.22,10,1.83a13.54,13.54,0,0,0,7.8-.49c1.34-.56,2.43-1.7,3.71-2.45,3.23-1.9,3.38-4.58,2.78-8s1-4.79,4.62-4.78a3.88,3.88,0,0,0,3.75-3.12,21,21,0,0,1,.39-2.07c.65-2,1.85-2.88,3.86-2.34s3.27,0,4.14-2c1.33-3,3.58-4.82,7.14-4.7a4.38,4.38,0,0,0,2.67-1.14c2.39-2.06,4.35-2.38,6.94-.73,2.44,1.55,4.75,2.1,7.54.55a7.14,7.14,0,0,1,8.4.67,6.06,6.06,0,0,0,5.16,1.15c3.78-.81,6.53.45,8.42,3.81.6,1.08,1.17,2.17,1.86,3.18a4.74,4.74,0,0,0,4.4,2.35,4.45,4.45,0,0,1,4.85,4.14,2.38,2.38,0,0,0,1.51,2.1c.67.31,1.53,1.15,1.53,1.75,0,1.67.94,2.82,1.64,4.14,2.39,4.56,1.69,9.21-1.89,13.56a4.27,4.27,0,0,0-1.12,2.28c-.15,6-3.15,10.57-7.2,14.6-6.35,6.3-14.07,9.72-22.89,11-12.68,1.84-25.1.3-37.28-3.1-8.88-2.48-17.79-4.36-27-4.41-14.48-.08-27.64,3.47-38,14.43-.88.93-1.64,2-2.48,3-.36.41-.79.75-1.18,1.13Zm37.47-39.45c-2.62,1.9-6.11,2.57-8.14,5.76A41.35,41.35,0,0,1,192.21,97a4,4,0,0,0,4.24-.18c5.82-3.08,11.92-5.2,18.67-4.6a3.33,3.33,0,0,0,1-.23c-.55-2.11-1.08-4.11-1.66-6.33-3.56,1.83-7.34,2.07-11.17,1.79-1.86-.14-3.72-.52-5.58-.62-5.53-.28-10.6,1-14.7,4.94a5.35,5.35,0,0,0-.8,1.7,18,18,0,0,0,2.5.32c.32,0,.62-.51.94-.75A16,16,0,0,1,195.44,89.34Z"/><path class="cls-1" d="M368,223.74c-5.79,12.13-15.3,19-28.81,20.18a22.82,22.82,0,0,1-.24,2.91,23.51,23.51,0,0,1-.94,2.79c8.49.51,16.29-1,23.37-5.5,7.24-4.6,11.73-11.33,14.69-19.22,1.52-4.05,3.41-8,6.85-10.67a31.16,31.16,0,0,1,6.94-3.57,4.85,4.85,0,0,1,2.74.16c-7.29,2-10.5,7.58-13.1,14.49,2.36-.59,4.27-1,6.14-1.55,5.45-1.56,10.69-3.58,15.11-7.27,4.89-4.08,5.77-8.09,3.13-13.89a1.83,1.83,0,0,1-.12-1.29c.5-1.17,1.13-2.29,1.74-3.47a3.06,3.06,0,0,1,.74,3.15,3.23,3.23,0,0,0,.13,2.26c2.55,4.21,2.14,8.26-.38,12.27a25.37,25.37,0,0,1-10,8.7c-3.56,1.87-6,4-7.34,8.14a43.35,43.35,0,0,1-13.08,19.51,40.23,40.23,0,0,1-21.13,9.65c-2.37.34-4.78.47-7.17.65a3.48,3.48,0,0,1-1.73-.37c19.73-2.37,32.55-13.18,39.13-31.94a21,21,0,0,1-2.83,1c-3.67.74-5.59,3.23-7.6,6.24-9.11,13.72-22.16,19.46-38.47,18a10,10,0,0,0-2.09-.19,2.09,2.09,0,0,0-1.47.83,8.79,8.79,0,0,1-8.65,5.76,3.36,3.36,0,0,0-2.75,1.46c-3.18,3.79-7.51,4.52-12.14,4.08-2.25-.21-4.39-.61-6.71.11-3,.92-5.69-.63-8.3-2a11.64,11.64,0,0,0-2.87-.75c-.16,0-.44.06-.5,0-1.66-2.21-4.12-.17-6-1.13-.36-.18-1.1.22-1.58.5a86.67,86.67,0,0,1-24.25,9.63c-8.28,1.82-16.67,2.25-24.93-.06a105.86,105.86,0,0,1-10-3.92l.22-.64c.74.23,1.5.42,2.23.7,10.14,3.89,20.45,4.15,31,1.75,8.75-2,16.68-5.79,24.31-10.38,1.16-.7,1.2-1.47.34-2.21a41.56,41.56,0,0,0-4.47-3.34c-1.06-.68-2.1-.43-3.18.42-7.64,6-16.48,8.94-26,10.15a51.09,51.09,0,0,1-21.91-2,41.29,41.29,0,0,1-18.55-11.64c-4.73-5.16-10.75-7.15-17.5-7.23-3.14,0-6.27.38-9.64.6a20.2,20.2,0,0,1,8.49-2.07c8.19-.57,15.24,2.2,21.58,7.36,8.35,6.79,18.23,9.39,28.79,9.95,7.38.39,14.52-.53,21.24-3.82a38.74,38.74,0,0,0,14.74-12.24,61.72,61.72,0,0,1,27.75-22A50.38,50.38,0,0,1,328.58,220c6.77.94,13.27,0,19-4.1a32.8,32.8,0,0,0,4.05-4.11,3.6,3.6,0,0,1,1.45-1c-2.47,6.31-7.52,9.45-14,11.17.69,1.49,1.53,2.5,3.19,2.58,5.07.24,9-2.09,12.52-5.46,1.64-1.58,3.07-3.39,4.76-4.93,2.48-2.26,5.29-3.89,8.6-3.27-1.84,1-4.11,1.79-5.79,3.25s-3.06,3.81-4.58,5.73a21.37,21.37,0,0,1-13,7.81c-1.36.27-2.32.58-2.21,2.25,0,.51-.38,1.06-.75,2,10,.71,16.53-4.66,22.36-11.46-2,4.59-5.52,7.85-9.71,10.39a25.49,25.49,0,0,1-13.7,3.46c.43,1.71.77,3.32,1.26,4.89.09.27.82.55,1.22.5,9.32-1.19,16.54-5.88,22.07-13.34.76-1,1.56-2,2.34-3ZM322.9,223A43.3,43.3,0,0,0,299,230.56a2.2,2.2,0,0,0-.68,1.71c.11,1.68-.68,2.25-2.32,1.76a2.66,2.66,0,0,0-2.11.31A77.14,77.14,0,0,0,281,247.74c-.76,1-.95,2-.06,2.83,1.79,1.74,3.67,3.38,5.5,5.08a6.3,6.3,0,0,0,5.53,1.57,3.36,3.36,0,0,1,2.28.59c2.16,1.61,4.28,2.14,6.87.87a6.48,6.48,0,0,1,3.46-.16c2.31.31,4.57,1,6.88,1.18a4.81,4.81,0,0,0,4.75-2.47c1.12-2.14,2.83-2.63,5-2.75,7.26-.37,11.61-4.72,12.27-12a3.28,3.28,0,0,1,.9-1.95c2.09-1.93,2.25-2.39,1.26-5-.53-1.39-.76-2.67.86-3.66,2.25-1.37,2.67-2.92,1.65-5.36-1.27-3-2.37-3.65-5.63-3.54S326.12,223,322.9,223Z"/><path class="cls-1" d="M204,257.8c-4.65-7.42-12.42-7-19.26-5a41.16,41.16,0,0,1-30.3-2.66,58.63,58.63,0,0,1-14.8-10.64,4.61,4.61,0,0,0-2.1-1.14,57.68,57.68,0,0,1-33.18-19.89c-4.47-5.31-8.14-11.3-12.14-17-4.55-6.49-9.77-12.34-16.59-16.51-3.83-2.34-8-4-12.61-3.82a3.78,3.78,0,0,1-.8-.12l0-.46a19.21,19.21,0,0,1,3.65-.47,28.47,28.47,0,0,1,15.41,5.85c7.22,5.27,12.47,12.27,17.63,19.46,8.82,12.28,19.8,21.92,34.72,26.21a36.85,36.85,0,0,0,17.09.73,4.21,4.21,0,0,0,.67-.19c.1,0,.17-.14.25-.2-1-2.15-1.85-2.61-3.9-2.39a42,42,0,0,1-24.64-4.95,60.06,60.06,0,0,1-8.83-6c10.24,5.92,20.74,10.54,33.5,8.84-1.16-1.43-2-2.54-2.92-3.52a1.68,1.68,0,0,0-1.41-.3c-4.86,1.2-9.43-.16-14-1.51a16.72,16.72,0,0,1-4.49-2c1.15.21,2.3.46,3.46.62,3.76.51,7.53,1,11.3,1.46a2.28,2.28,0,0,0,.52,0c2.3-.27,2.59-.69,1.79-3.34,1.82,2.1,3.3,3.86,4.84,5.55A52.69,52.69,0,0,0,160,235.12c6.8,3.8,13.61,4.67,21,1.26a31.08,31.08,0,0,1,19.43-2.45,19.38,19.38,0,0,1,8.12,3.62,48.67,48.67,0,0,0,27.28,10.17,41,41,0,0,0,11.35-.61c7.06-1.57,12-6.35,16-12.18,3-4.37,4.77-9.24,6.34-14.25,2.11-6.71,5.37-12.78,10.85-17.38,7.75-6.51,16.79-7.69,26.37-5.89,5.41,1,10.7,2.69,16.12,3.62a71,71,0,0,0,32.77-1.63A50.11,50.11,0,0,0,380.31,183c.73-.88,1.34-1.85,2-2.78l.53.3a17.08,17.08,0,0,1-1.49,2.73,54.41,54.41,0,0,1-30.46,19.68,70.7,70.7,0,0,1-37.21-1.07c-6.74-2-13.62-2.58-20.49-.59-2.2.64-4.31,1.64-6.7,2.57,5.23-.23,10.07-.65,14.91-.6a42.14,42.14,0,0,1,14.34,3l0,.56a7.83,7.83,0,0,1-2.33.22,46.69,46.69,0,0,0-18.17-.46A45.63,45.63,0,0,0,277,214.7a13.7,13.7,0,0,0-4.62,6.66c-1.05,2.71-2,5.47-3,8.5a10.32,10.32,0,0,0,1.88-.17,19.77,19.77,0,0,0,10.16-6.64c6.49-8.1,15.13-11.22,25.15-10.82a72.76,72.76,0,0,1,11.95,1.86c5.44,1.14,10.89,2,16.41,1.15a42.75,42.75,0,0,0,6.25-1.91c-1.95,2.57-4.76,3.31-7.62,3.76-6.14.95-12.14-.34-18.19-1.2-9.07-1.28-17.79-.25-25.63,5a31,31,0,0,0-8.38,8.66c-4.54,6.72-10.48,11.57-18.66,13a12.88,12.88,0,0,0-5.58,2.47c-7.34,5.27-15.61,6.39-24.32,5A61.71,61.71,0,0,1,211,241.84c-9-5.3-18.46-5.75-28-1.64a22.66,22.66,0,0,1-19.09-.27,10.71,10.71,0,0,0-6.35-1.08c-3.29.48-6.65.39-10,.56A2.5,2.5,0,0,0,146,240c1.7,1.36,3.31,2.86,5.12,4.06,9.78,6.54,20.48,8.34,32,6.08,4.9-1,9.8-1.21,14.62.41a9.3,9.3,0,0,1,6,5.36A10.84,10.84,0,0,1,204,257.8Z"/><path class="cls-1" d="M158,205.85c9.62,2.23,19.27,4.23,29.19,3.86,0-.34.09-.53.05-.55-2.8-1.68-5.23-4-8.87-4.08a45.4,45.4,0,0,1-14.58-2.78c4.51.07,8.94,1.5,13.57.81A131.92,131.92,0,0,1,157.21,184c.75,3.52,1.71,7,1,10.61-.79-2.36-1.45-4.77-2.38-7.08-3-7.49-8.24-13.11-14.82-17.64-4.56-3.14-9.72-4.9-14.75-7a26.64,26.64,0,0,1-5.63-3.22c-5.58-4.18-6-10.34-1-15.42-.18.41-.36.83-.53,1.24-1.72,4.21-1.16,8.12,2.33,11.05a26.12,26.12,0,0,0,8,4.9c8.19,2.77,15.76,6.37,22,13.1l.16-3a10.76,10.76,0,0,1,1.24,1.32,87.66,87.66,0,0,0,32.92,30.28c15.26,8.24,31.63,11.62,48.87,11.09,5.2-.16,10.39-.68,15.72-1l-2.19,1.52h8.06l.11.39a13.41,13.41,0,0,1-3,1.12c-5.13.52-9.6,2.8-14.18,4.88a54.56,54.56,0,0,1-19.54,4.77c-3.44.21-6.9.13-10.36.2a4.43,4.43,0,0,0-1.73.34c2.54,1.65,4.18,4.31,7.81,4.44a61.53,61.53,0,0,0,29.56-6.08,40.74,40.74,0,0,1-3.39,2.52,44.62,44.62,0,0,1-19.61,6.24,3.62,3.62,0,0,0-1.82.71,30.7,30.7,0,0,0,9.6,2.59c10.67,1,19-3.48,25.47-11.54,3-3.72,5.12-8.1,7.74-12.11,2.17-3.32,4.36-6.64,6.8-9.77a11.5,11.5,0,0,1,3.89-2.62,6.75,6.75,0,0,1,2.41-.18l.1.48c-1,.65-2.05,1.22-3,2-3.47,2.81-5.41,6.68-7.26,10.64-3.61,7.71-8.22,14.69-14.74,20.34-7,6-14.88,7.44-23.68,5.79-8-1.5-14.86-5.26-21.08-10.36-6.95-5.68-16.19-7.1-24.49-1.08-4.76,3.46-10.26,3.17-15.52,1.14-5.69-2.19-10.21-6.09-14.18-10.63l.3-.44c.76.55,1.56,1.06,2.26,1.68a27.63,27.63,0,0,0,10.44,6c6.13,1.82,12.52.54,16.71-3.35l-21-5.59.2-.82c1.54.36,3.08.77,4.63,1.07q9.75,1.91,19.51,3.75a9.46,9.46,0,0,0,1.74-.13c2.39,0,4.85-.42,7.16,0a35.87,35.87,0,0,0,10.84.25c4.14-.47,8.24-1.18,12.35-1.82a2.74,2.74,0,0,0,1.53-.85l-1.89-.42c-5.43-1.22-10.85-2.49-16.3-3.62a29.06,29.06,0,0,0-5.88-.69,93.81,93.81,0,0,1-36.51-7.38c-.1,0-.17-.15-.26-.23Zm80.94,13.29c-3.23,0-6,0-8.82,0a14.56,14.56,0,0,0-3.3.34c-7.4,1.9-14.82,3.58-22.5,3.83a7.23,7.23,0,0,0-1.11.21l-.13.58a9.6,9.6,0,0,0,2.76.8c4.67-.1,9.41.06,14-.65,5.18-.81,10.24-2.43,15.34-3.76C236.35,220.21,237.46,219.69,238.94,219.14Z"/><path class="cls-1" d="M274.51,352.9c2.36-.24,4.74-.43,7.1-.75,11.45-1.52,22.95-2.74,34.33-4.7s22.66-4.48,33.9-7.12c6.55-1.53,13-3.71,19.37-5.72a241.36,241.36,0,0,0,44.08-18.74,178,178,0,0,0,27.12-18.24,131.06,131.06,0,0,0,24.32-25.75,86.88,86.88,0,0,0,11.33-21.58c.22-.65.52-1.29.78-1.93l.51.1c-.46,2.46-.59,5-1.43,7.34-5.49,15.19-14.3,28.27-25.62,39.73S426,316.1,411.93,323.84A224.13,224.13,0,0,1,375.67,340c-9.25,3.16-18.6,6.11-28.05,8.59-9.8,2.56-19.75,4.61-29.68,6.6-11.22,2.24-22.55,3.25-33.94,1.4a71.76,71.76,0,0,1-8.31-2.22,5.28,5.28,0,0,1-1.36-1Z"/><path class="cls-1" d="M194.89,309l-13.74-2.27-.14.48a73.54,73.54,0,0,0,24.08,9.38,49.57,49.57,0,0,0,25.8-2,35.6,35.6,0,0,1-12.32,4.76c-9.45,1.75-18.57.29-27.51-2.91a100.93,100.93,0,0,1-21.31-11.11,24.53,24.53,0,0,0-6.65-2.52c-8.11-2.36-16.25-4.61-24.38-6.87a4,4,0,0,0-1.88-.13,39,39,0,0,1-22.7-1.23c-2.77-1-5.52-2.19-7.47-4.63,7.24,3.73,14.73,5.37,23,3.32-.3-.43-.39-.72-.55-.77-3.05-1-6-2.37-9.17-2.88A16.24,16.24,0,0,1,106.66,277a39.11,39.11,0,0,1,.53-19.49c1.57-5.78-1.59-10.44-8-11a91.32,91.32,0,0,0-11.21.19c-1.55.06-3.1.36-4.74.33a6.38,6.38,0,0,1,1.26-.72c5.86-1.72,11.7-3.25,17.94-2.84,8,.53,10.68,6.17,9.62,12.73a42.3,42.3,0,0,0,.48,17.46c1.71,6.74,7,10.68,13.95,10.53,8.38-.18,15.25-4,21.43-9.12a36.41,36.41,0,0,1,22.41-8.59A44,44,0,0,1,191,270.82a1.61,1.61,0,0,1,.79.69c-6.91-1.63-13.83-2.83-21.5-2.06,8.9,13.92,21.42,22.35,36.35,27.72a44.54,44.54,0,0,1-14.09-4.62c-10-5.13-18.29-12.44-25.49-21-1-1.18-1.85-1.57-3.29-1-1.68.68-3.43,1.18-5.14,1.77-1.27.43-1.58,1-.8,2.33a76.25,76.25,0,0,0,16.29,19.48c.64.56,1.22,1.2,1.82,1.8l-.31.42c-3.62-2.44-7.39-4.69-10.83-7.35-4.4-3.41-8.57-7.12-12.76-10.78-1.11-1-1.72-.67-2.62.22a39.45,39.45,0,0,1-14.67,9.43c-.37.14-.64.57-1,.86a4.61,4.61,0,0,0,1.05.75,274.64,274.64,0,0,0,37.37,10,46.39,46.39,0,0,1,16.49,6,58.27,58.27,0,0,0,6.34,3Z"/><path class="cls-1" d="M125.69,144.69a35.1,35.1,0,0,0,2.58,5.08c3.08,4.3,7.81,6,12.63,7.45,1.43.43,2.92.66,4.38,1l.35-.41c-1.3-2.18-2.29-4.63-3.94-6.49-4-4.55-7.54-9.29-8.73-15.4A26.93,26.93,0,0,1,136.49,116a3.22,3.22,0,0,1,1.1-1.26,10.2,10.2,0,0,1-.42,1.67,32.62,32.62,0,0,0-2.47,16.86,27.28,27.28,0,0,0,4.88,12.48,3.3,3.3,0,0,0,.46.53c.07.06.2.05.48.12-3.1-14.47,3.06-25.26,13.47-34.34-8.58,8.93-13.82,19-10.48,31.84,1.66,6.39,5.19,11.77,9.38,16.73l.56-.14V149.75c1.69.15,2,1,2.06,2.06a42.5,42.5,0,0,0,5.7,17.62,58.89,58.89,0,0,0,18.56,19.64,93.86,93.86,0,0,0,30.57,13.08c5.3,1.31,10.7,2.17,16,3.26a3.24,3.24,0,0,0,3.27-1.08,59.33,59.33,0,0,1,25.84-15.45,77.89,77.89,0,0,1,38.15-1.22c5.84,1.2,11.51,3.24,17.33,4.58s11.82,2.42,17.78,3.35c6.25,1,12.52.37,18.72-.66A41.49,41.49,0,0,0,360,190.84c.55-.28,1.12-.54,1.67-.81l.27.36a11.72,11.72,0,0,1-1.58,1.33,40.69,40.69,0,0,1-15.62,5c-11.13,1.5-22-.05-32.79-2.58-5.42-1.27-10.79-2.87-16.27-3.8-14-2.37-27.83-2-41,4A45.63,45.63,0,0,0,239.46,205c-.28.31-.56.61-.81.94a1.79,1.79,0,0,0-.14.48c2.42,1.06,4.38.7,6-1a37.8,37.8,0,0,1,22.37-11.58c2.2-.34,4.43-.42,6.65-.58a2,2,0,0,1,1.23.44c-9.29,1.7-17.32,5.45-23.29,13.37l5.33.86,0,.64a20.57,20.57,0,0,1-2.29.37,166.27,166.27,0,0,1-27.59-1.12,127.54,127.54,0,0,1-32.3-8.27c-13.25-5.36-25-13-34.2-24-2.89-3.46-5.89-6.79-9-10a5.41,5.41,0,0,0-2.65-1.47c-5.92-1.31-11.8-2.74-16.86-6.27-4.19-2.92-7.14-6.63-6.53-12.18a3.2,3.2,0,0,1,.16-.68C125.54,144.76,125.67,144.71,125.69,144.69Z"/><path class="cls-1" d="M394.94,260.92c-1.37.36-2.73.78-4.12,1.06a49.67,49.67,0,0,0-5.49,1c-3.65,1.21-5.37,4.66-4.57,9a38.78,38.78,0,0,0,1.61,5.56,11.06,11.06,0,0,1-3.19,12.63c-4.17,3.75-9.32,5.36-14.61,6.49-12.63,2.68-25.43,2.43-38.22,1.72a374.64,374.64,0,0,1-42.66-4.93c-5.46-.94-10.85-1.85-16.42-1.43A58.7,58.7,0,0,0,246,297.81c-4.85,2.32-9.25,5.51-14.51,7.06a55.28,55.28,0,0,1-26.6,1.6c-12-2.32-21.79-8.41-30.09-17.1-2.86-3-5.47-6.27-8.05-9.53A18.55,18.55,0,0,1,165,276l.54-.33c.65.7,1.28,1.42,1.93,2.11,10.22,10.77,22.06,19,36.6,22.71a50.72,50.72,0,0,0,28.83-.84c4.83-1.58,9.43-3.83,14.13-5.79a71.21,71.21,0,0,1,21.5-5c7.95-.72,15.64,1.09,23.45,1.9,11,1.14,22,2,33,2.76a151.68,151.68,0,0,0,27.94-.68c6.48-.75,12.89-1.85,18.64-5.25,4.33-2.56,6.33-6.52,5.42-11-.28-1.36-1-2.62-1.37-4-1.68-5.75.69-9.91,6.54-11.51a33.4,33.4,0,0,1,12.67-.74Z"/><path class="cls-1" d="M427.82,257.41l-43.13-2.73a66.51,66.51,0,0,1,8.17-1.21c6.62-.18,13.25-.1,19.87-.08,7.82,0,15.65-.17,23.22-2.26a36.28,36.28,0,0,0,9.8-4.15c5.21-3.32,6.44-8,4.45-14-1.72-5.12-4.85-9.36-8.35-13.34-2.48-2.81-5.1-5.48-7.66-8.22l-.13.51a18.29,18.29,0,0,1-3.49-.39c-.31-.09-.65-1.6-.41-1.8a18.38,18.38,0,0,1,3.17-1.8c.81-3.53,4.24-4.84,7.56-5.88,4.29-1.35,8.75-2.15,13.12-3.26,5.24-1.33,10.41-2.9,14.81-6.21,4.16-3.13,4.47-7,.85-10.78a30.27,30.27,0,0,0-4.13-3.54c-2-1.45-4.2-2.72-6.27-4.41a7.33,7.33,0,0,1,1.9.27c5.1,2.16,10.06,4.58,13.77,8.88,1.79,2.07,2.78,4.52,1.5,7.14a12.11,12.11,0,0,1-3.14,3.91c-4.48,3.7-9.9,5.51-15.35,7.16-3.75,1.13-7.6,1.95-11.4,2.93a14.25,14.25,0,0,0-1.66.59c-5.38,2-6,5.46-1.94,9.54,2.64,2.66,4.93,5.66,7.36,8.51.36.42.69.86,1.26,1.58,1.88-5.46,1.95-10.74,1.91-16.26a3.22,3.22,0,0,1,1.79,3.35c-.51,4.59-1,9.19-1.68,13.75a5.64,5.64,0,0,0,.47,3.5,54.85,54.85,0,0,1,3.39,8.27c2.07,7.2-1,13.36-7.91,16.37-4.79,2.1-9.87,2.87-15,3.54a4.74,4.74,0,0,0-2.44,1.13,149.84,149.84,0,0,1-33.17,22.6c-4,2-8,3.9-12,5.84-.4.19-.84.32-1.48.56a33.24,33.24,0,0,1,.83-4.12,2.87,2.87,0,0,1,1.44-1.34c6.59-3.32,13.41-6.23,19.75-10,6.75-4,13-8.74,19.52-13.18A5.42,5.42,0,0,0,427.82,257.41Z"/><path class="cls-1" d="M78.91,151.34c-4,4.17-9.11,6.33-14.46,8-3.41,1-6.84,2-10.21,3.19-.7.24-1.18,1.14-1.76,1.74a20.69,20.69,0,0,0,2,1.78,7.06,7.06,0,0,0,1.66.57c1.86.66,2.29,2,.71,3.23a50.32,50.32,0,0,1-7.9,5.16c-5.67,2.85-11.43,5.48-16.27,9.68-3.54,3.07-6.66,6.43-7.56,11.31a12.13,12.13,0,0,0,2.31,9.47c3.65,5.24,8.82,8.7,14.31,11.7,10.57,5.77,21.86,9.71,33.38,13,6.76,1.94,13.6,3.63,20.4,5.44.1,0,.17.14.26.22-1.15,1.06-2.17,1.36-4.3.84q-13.07-3.22-26.1-6.58c-1.85-.47-3.68-1.06-5.54-1.6-.16,2.66.21,3.22,2.45,3.76Q73.63,235,85,237.7a1.84,1.84,0,0,1,1,.64c-7.82.7-15.56-.13-23.83-1.4.55,1.14.8,1.87,1.2,2.5,2.11,3.31,4.26,6.59,6.37,9.89a13.2,13.2,0,0,1,.67,1.36,9.07,9.07,0,0,1-1.38.56c-2.13.51-3.57-.2-4.86-2.1-4.34-6.39-7.61-13.19-8.87-20.87a2.36,2.36,0,0,0-1.89-2,135.32,135.32,0,0,1-24.12-10.62A43.85,43.85,0,0,1,19,207.59c-5.52-6.07-5.41-12.5.05-18.69,4.83-5.46,11-8.84,17.36-12.05,3.54-1.8,7.27-3.24,10.91-4.85a9.24,9.24,0,0,0,1.24-.67c2.35-1.54,2.33-2.57-.08-4.08s-2.73-3.73-.29-5.13a36.12,36.12,0,0,1,9.52-3.88c7.08-1.66,14.22-3,20.64-6.69A3.86,3.86,0,0,1,78.91,151.34Z"/><path class="cls-1" d="M305.47,302.92l-15.82-4.32.1-.47c2.07.34,4.14.69,6.21,1,5.51.84,11,1.95,16.54,2.4,3.45.28,7-.47,10.46-.73a39,39,0,0,1,4.19-.18c4.51.12,9,.31,13.54.48a5.76,5.76,0,0,1,.87.19c-5.64,5.19-86.33,14.46-97.58,11.14.66-.4,1.14-.64,1.57-.95,1.56-1.13,3.07-2.31,4.65-3.4a3.79,3.79,0,0,1,1.85-.76c9.55-.42,19.12-.61,28.66-1.23,7.72-.5,15.41-1.51,23.11-2.32a10.76,10.76,0,0,0,1.76-.54Z"/><path class="cls-1" d="M317.9,272.11c-2.36,3.09-5.75,4.62-9.26,5.69-7.58,2.3-15.06,1.58-22.43-1.17a3,3,0,0,0-2.14.16,71.72,71.72,0,0,1-20.6,6.32A75.72,75.72,0,0,1,226.84,280a85.88,85.88,0,0,1-24.79-13.42c-4.61-3.54-9.73-6-15.6-6.23A54.68,54.68,0,0,0,179,261c2.6-1.95,5.58-2.4,8.62-2.4,6.18,0,11.57,2.41,16.34,6.13a78.15,78.15,0,0,0,26.88,13.46,62.32,62.32,0,0,0,22.45,2.38,55.15,55.15,0,0,0,27.18-9.68c3-2.08,2.95-2.11,6.36-.19a36,36,0,0,0,16.71,5A26.94,26.94,0,0,0,317.9,272.11Z"/><path class="cls-1" d="M443.43,150.39a35.94,35.94,0,0,1,1.66,3.91A25.22,25.22,0,0,1,443.57,173c-3.7,7.48-11.74,11.38-19.94,7.34a6.28,6.28,0,0,1-3.38-7.53,10.71,10.71,0,0,1,2.11-4.38c4.18-4.41,3.64-12.79-2.91-16.65A29.33,29.33,0,0,0,409,148.43c-6.12-1-11.85-3-16.29-7.58a13.59,13.59,0,0,1-4.17-8.65c.3.2.49.26.54.38,3.58,9,10.84,12.83,19.94,13.84,5.5.6,11.06.94,15.94,3.84a19.58,19.58,0,0,1,5.11,4.2c3.47,4.21,2.54,10.08-1.88,13.75a13.76,13.76,0,0,0-2.29,2.15,4.41,4.41,0,0,0,2.47,7.07,9,9,0,0,0,7.72-1.26c5.28-3.39,7.73-8.47,8-14.5C444.26,158,443.68,154.37,443.43,150.39Z"/><path class="cls-1" d="M87.88,153.07c-.6-9.27,1-18,7.69-25a23.07,23.07,0,0,1,12.5-6.78,6.33,6.33,0,0,0,5.35-5c3.27-11,9-20.36,19-26.6,6.42-4,13.52-5.47,21-5.25,2.06.06,4.1.24,6.15.39a1.9,1.9,0,0,1,1.34.72,16.87,16.87,0,0,1-2.2.31,46.9,46.9,0,0,0-16.19,2.87,37.59,37.59,0,0,0-19,15.81,49.09,49.09,0,0,0-5.77,14.11c-1,3.86-2,4.57-5.94,5.39-10.59,2.23-19.23,9.34-22.18,20.26C88.91,147.18,88.47,150.15,87.88,153.07Z"/><path class="cls-1" d="M25,218.15c-2.07-.86-4-1.59-5.92-2.47-5.5-2.54-10.84-5.4-15-9.92-5.39-5.84-5.43-12-.17-17.91C8.63,182.51,14.68,179,21,176c4.41-2.15,9-3.92,13.52-5.88a12.91,12.91,0,0,0,1.95-1.17,1.85,1.85,0,0,0,.77-2.58,3.82,3.82,0,0,1,.51-4.15c2.5-3.18,6.18-4.14,9.8-5.15l.22.38c-.67.38-1.34.74-2,1.14A39,39,0,0,0,41.9,161c-2.18,1.71-2.29,4.09-.43,6.11,1.44,1.55,1.41,2.42-.53,3.33-3.49,1.63-7.11,3-10.63,4.55-7,3.13-13.87,6.67-19.23,12.4-6.8,7.28-6.39,14.49.75,21,3.63,3.33,8.07,5.78,12.14,8.62.29.2.61.36.9.56C24.93,217.63,24.93,217.78,25,218.15Z"/><path class="cls-1" d="M64.42,199c6.75-2.74,12.68-.64,18.29,3.22,6.73,4.63,11.84,10.82,16.4,17.48,5.44,8,12,14.7,20.56,19.31a34.31,34.31,0,0,0,15.83,4l.11.43a22.47,22.47,0,0,1-2.44,1c-6.94,2-13.4.52-19.38-3.12-7.86-4.79-13.41-11.78-18.26-19.45-5.18-8.18-10.87-15.91-19.71-20.6A14.8,14.8,0,0,0,66,199.54a9.37,9.37,0,0,1-1.59,0Z"/><path class="cls-1" d="M460.85,8c3.4,3.13,6.74,6.4,7.4,11.27.48,3.6-1.72,6-4.62,7.85-4.49,2.8-9.54,3.91-14.67,4.54A66.8,66.8,0,0,0,420.4,41.8c-4.63,3-8.74,6.83-13.11,10.26-1.89,1.49-3.82,2.92-5.73,4.38l.51.63a16.25,16.25,0,0,1,1.22-2.16c10-13.07,22.9-21.87,39-25.65,5.19-1.22,10.49-2,15.33-4.37A11.19,11.19,0,0,0,463,20.25a6.33,6.33,0,0,0,0-5.75c-.9-2.05-1.75-4.12-2.62-6.19Z"/><path class="cls-1" d="M120,138.76c-1.21.76-2,1.22-2.78,1.74-6.1,4.25-8.53,14.74.15,20.92a33,33,0,0,0,8,4c7.51,2.68,14.41,6.25,19.88,12.2a26.45,26.45,0,0,1,7,16.12,8.16,8.16,0,0,1-.45,2.82A27.1,27.1,0,0,0,147.4,184c-4.33-6.24-10.33-10.32-17.09-13.38-3.57-1.62-7.3-2.88-11-4.29-4.74-1.83-9-4.34-10.8-9.39C106.09,150.15,110.52,139.32,120,138.76Z"/><path class="cls-1" d="M326.09,80.78c-1.7-1.48-3.35-3-5.12-4.43-4.55-3.65-9.88-5-15.59-5.09-2.33,0-3.89-.51-4.8-3.06-1.23-3.48-4.14-5.34-7.81-5.69a6.65,6.65,0,0,1-6.1-4.69,18.07,18.07,0,0,0-17.54-11.47,3.19,3.19,0,0,1-2-.45,9.85,9.85,0,0,0-8.07-2,2.18,2.18,0,0,1-.51,0c-.05,0-.09-.07-.44-.34a12.87,12.87,0,0,1,2.86-.82c5.89-.21,11.75,0,17.23,2.53a20,20,0,0,1,11.08,12.08A2.46,2.46,0,0,0,291,58.64c4.05.51,7.34,2.11,9.62,5.69,1.23,1.94,3.37,2.66,5.55,3.07,5.19,1,10.11,2.63,14.29,6a15.68,15.68,0,0,1,5.24,6.92,3.73,3.73,0,0,1,.15.81Z"/><path class="cls-1" d="M142.61,80c-3.56,1.4-7.25,2.53-10.65,4.24C121.71,89.39,115.3,98,111.17,108.46c-.56,1.42-1.07,2.85-1.59,4.28-1.07,2.93-3.41,4.23-6.28,4.7-1.42.23-1.22-.77-.85-1.57,1.69-3.67,3.22-7.44,5.2-11a53.39,53.39,0,0,1,16.43-18.26,39.93,39.93,0,0,1,16.32-6.54,4.23,4.23,0,0,1,.7-.06c.58,0,1.15.09,1.72.14Z"/><path class="cls-1" d="M440.81,225.33a15.62,15.62,0,0,1,5.65,10c.48,4-2.7,8.21-7.45,10.23-6.63,2.8-13.62,3.77-20.72,4.29l-6,.44-.22-.52a10.2,10.2,0,0,1,1.28-1.19,15.82,15.82,0,0,1,7.83-2.74,110.48,110.48,0,0,0,11.09-1.71c1-.17,1.73-.55,1.78-1.91,0-.65,1.07-1.37,1.8-1.81.21-.12.9.74,1.45.91a2.27,2.27,0,0,0,1.72,0c5.13-3.52,6.14-7.75,3.25-13.37C441.8,227,441.29,226.19,440.81,225.33Z"/><path class="cls-1" d="M104.8,281.49c-6.78-1.95-29.51-18.22-32.36-23.06,1.87,0,3.71,0,5.55,0a1.6,1.6,0,0,1,.86.5,119.93,119.93,0,0,0,21.07,14.93,5.12,5.12,0,0,1,2.53,3A38.28,38.28,0,0,0,104.8,281.49Z"/><path class="cls-1" d="M164.58,144.37c-.34,1.09-.75,2.17-1,3.28-1.83,8.11.35,15.34,5.06,21.92a51.68,51.68,0,0,0,19.21,15.91c6.41,3.24,13.14,5.86,19.73,8.75l2.58,1.11a1.16,1.16,0,0,1,.66.68,5.14,5.14,0,0,1-1.25-.07c-11.09-3.58-21.83-7.93-31.54-14.48-5.94-4-11.29-8.63-14.82-15a22.25,22.25,0,0,1-1.15-19.68A13.68,13.68,0,0,1,164,144Z"/><path class="cls-1" d="M320.47,289.55c.77-.32,1.54-.62,2.3-.95,4.2-1.85,8.62-1.38,13-1.22a95.2,95.2,0,0,0,23.29-1.69,32.72,32.72,0,0,0,7.84-3,6.57,6.57,0,0,0,3.79-6.63,4.67,4.67,0,0,1,.31,6c-2.13,3-5.27,4.39-8.63,5.39-7.61,2.27-15.44,2.83-23.31,2.95-5.34.09-10.67,0-16-.09-.8,0-1.61-.13-2.41-.2Z"/><path class="cls-1" d="M237.27,310.13c6.22-9.64,26.83-17.75,37.35-14.53-1.48.24-2.52.47-3.58.57a39.87,39.87,0,0,0-25.49,12,7.57,7.57,0,0,1-6.51,2.48A10.56,10.56,0,0,1,237.27,310.13Z"/><path class="cls-1" d="M241,40.71c1.48-.43,3-.9,4.45-1.29,8.78-2.24,17.63-3.33,26.63-1.44,6.65,1.4,12.1,4.64,15.88,10.41a4.91,4.91,0,0,1,.79,2.06c-.51-.55-1-1.11-1.53-1.67-5.71-6.45-13.16-8.88-21.49-9.25-5.38-.23-10.6.78-15.84,1.9a42.19,42.19,0,0,1-7.48.41,4.25,4.25,0,0,1-1.41-.52Z"/><path class="cls-1" d="M393.22,127.64c2.56,7,7.52,11,14.74,12,7,.92,13-1.38,18.4-6-.14,2.58-3.66,6.24-7.74,7.81-7.43,2.84-14.46,2-20.64-3.16A12.67,12.67,0,0,1,393.22,127.64Z"/><path class="cls-1" d="M265.35,249.9c-14.78,12.37-36.9,10.53-53.63-.78l.12-.48a30.57,30.57,0,0,1,4.17,1.43c8.68,4.45,17.82,6.9,27.6,6.47a42.91,42.91,0,0,0,19.74-5.66C264,250.51,264.68,250.22,265.35,249.9Z"/><path class="cls-1" d="M102.61,253.61c-1.12-.45-2.21-1-3.35-1.35-6.92-2.18-13.44-.62-19.72,2.36a11.51,11.51,0,0,1-7.8,1.21,5.21,5.21,0,0,1-1.5-1,5.54,5.54,0,0,1,1.35-1.11c6.11-2.26,12.27-4.34,18.86-4.59,3.42-.12,6.83.09,9.88,1.87a20.43,20.43,0,0,1,2.64,2.12Z"/><path class="cls-1" d="M291.9,135.86c2.54-1.54,5.14-3,7.59-4.65,5.18-3.53,9.37-7.92,11.57-14a21.93,21.93,0,0,0,.21-14.31c-.28-.93-.58-1.86-.88-2.79l.52-.21c.7,1.54,1.53,3,2.09,4.63,2.81,7.92,1.29,15-4.36,21.17A36.2,36.2,0,0,1,291.9,135.86Z"/><path class="cls-1" d="M158.18,149.82a11.9,11.9,0,0,1-1.41-1.28c-3.05-4-5.78-8.14-7-13.09s-.65-9.79,3-13.79a7.48,7.48,0,0,1,.75-.74,2.09,2.09,0,0,1,.6-.19,4,4,0,0,1-.28.91c-4.16,7.06-2.39,13.63,1.7,20,1.37,2.14,2.9,4.15,2.73,6.87C158.33,148.74,158.28,149,158.18,149.82Z"/><path class="cls-1" d="M257.8,74.81a32.88,32.88,0,0,1,3.06,1.44,1.38,1.38,0,0,1,.37,1.19c0,.21-.67.48-1,.45-1.94-.21-2.71.85-3.1,2.56s-1.52,2.36-2.92,2A2.83,2.83,0,0,1,252.26,79C252.79,76.84,255.29,75,257.8,74.81Z"/><path class="cls-1" d="M267.51,92.13A11.65,11.65,0,0,1,269,93.9c.62,1.09.1,4.1-.79,5a2.87,2.87,0,0,1-3.54.55A4.2,4.2,0,0,1,263,97.35c-.09-.22,1-.83,1.41-1.35C265.39,94.88,266.27,93.7,267.51,92.13Z"/><path class="cls-1" d="M209,179a21.79,21.79,0,0,0,.37-3.39c-.06-1.2.2-2.12,1.4-2.47a25.41,25.41,0,0,1,3.55-.73c.31,0,.67.33,1,.51-.21.31-.36.83-.62.89-1.54.33-1.49,1.16-1.18,2.46a2.87,2.87,0,0,1-.69,2.45A3.65,3.65,0,0,1,209,179Z"/><path class="cls-1" d="M253.23,99.81a9.64,9.64,0,0,0,.93,1.13c.64.53,1.56,1.09.8,2a8.06,8.06,0,0,1-2.43,1.36c-.12.06-.35-.12-.51-.08-2.28.6-4.08.35-5.21-2.15-.27-.57-1.73-.6-2.77-.92a2.09,2.09,0,0,1,3.08-.74C249.32,101.88,251.3,102.14,253.23,99.81Z"/><path class="cls-1" d="M234,88.07c1.87.88,3.42,1.49,4.85,2.31a2,2,0,0,1,.9,1.63c-.13.75-.61,1.8-1.21,2a3,3,0,0,1-2.68-.24A8.51,8.51,0,0,1,234,88.07Z"/><path class="cls-1" d="M201.11,160.31c-.81.31-3.7-.41-4.19-1.63a2.92,2.92,0,0,1,.45-2.3c.26-.38,1.23-.47,1.84-.4,1.24.15,2.45.49,3.53.72Z"/><path class="cls-1" d="M274.91,82.4a3.16,3.16,0,0,1,3.85-1.55,15.84,15.84,0,0,1,3.52,1.51c.27.15.25.83.36,1.27a9.17,9.17,0,0,1-2.64.61c-.66,0-1.22-.88-1.91-1.13A25.79,25.79,0,0,0,274.91,82.4Z"/><path class="cls-1" d="M192.58,167.57a49.3,49.3,0,0,1,4,3c.26.23.11,1.33-.21,1.66s-1.41.48-1.65.23a25.8,25.8,0,0,1-2.74-3.57C191.89,168.67,192.33,168.11,192.58,167.57Z"/><path class="cls-1" d="M230.72,79.49c-.81-1.28-1.75-2.11-1.68-2.86.05-.58,1.29-1.4,2.08-1.5a1.61,1.61,0,0,1,1.83,2C232.79,77.87,231.79,78.41,230.72,79.49Z"/><path class="cls-1" d="M344.59,280.83c.25-1.54.44-2.83,1.91-2.67a2.54,2.54,0,0,1,1.62,1.58c.27.9-1.28,2.21-2.35,2C345.28,281.69,344.88,281.08,344.59,280.83Z"/><path class="cls-1" d="M181,162.17c-1.5-.66-3-1.27-4.49-2-.39-.21-.53-.91-.78-1.38a4.21,4.21,0,0,1,1.39-.31A4.32,4.32,0,0,1,181,162.17Z"/><path class="cls-1" d="M53.8,202.84l2.34,2.06c-.71.6-1.34,1.48-2.16,1.7-.43.12-1.6-.84-1.67-1.4S53.09,203.89,53.8,202.84Z"/><path class="cls-1" d="M57.84,192.3l-2-2.31c.58-.44,1.12-1.17,1.76-1.26,1.08-.16,2.27.28,2.2,1.59C59.73,190.89,58.74,191.41,57.84,192.3Z"/><path class="cls-1" d="M208.76,288.08c-1.08.88-1.7,1.76-2.43,1.86-.51.07-1.17-.92-1.76-1.44a11.64,11.64,0,0,1,2.18-1.83C207,286.54,207.75,287.35,208.76,288.08Z"/><path class="cls-1" d="M32.8,207.83l-2-2.25c.65-.46,1.35-1.36,1.93-1.29s1.33,1,2,1.55Z"/><path class="cls-1" d="M432.05,230.84a17.91,17.91,0,0,1,2.18,1.77,1.58,1.58,0,0,1,.19,1.43,1.54,1.54,0,0,1-1.25.67,1.73,1.73,0,0,1-1.32-.82,12.47,12.47,0,0,1-.39-2.68Z"/><path class="cls-1" d="M200.79,179.64l1.85,2.09c-.56.48-1.18,1.41-1.66,1.34a2.75,2.75,0,0,1-1.65-1.52C199.2,181.28,200.06,180.56,200.79,179.64Z"/><path class="cls-1" d="M256.94,65.42c-.67-.94-1.37-1.5-1.4-2.1,0-.4,1-1.26,1.41-1.16.68.15,1.22.89,1.82,1.38Z"/><path class="cls-1" d="M276.59,89.83c-.69-.94-1.42-1.51-1.39-2s.83-1,1.3-1.51c.53.5,1.34.94,1.49,1.54C278.1,88.24,277.28,88.89,276.59,89.83Z"/><path class="cls-1" d="M73.17,168.68c1-.63,1.66-1.3,2.16-1.23s1.29.92,1.26,1.37a1.9,1.9,0,0,1-1.37,1.29C74.72,170.15,74.16,169.41,73.17,168.68Z"/><path class="cls-1" d="M342.25,268.4c-1.1.69-1.73,1.4-2.24,1.32s-.93-.94-1.38-1.46c.45-.38.91-1.09,1.34-1.07C340.57,267.21,341.15,267.78,342.25,268.4Z"/><path class="cls-1" d="M129.42,259.15c-.84.81-1,2.53-2.81,2.09a1.27,1.27,0,0,1-.85-.68,1.16,1.16,0,0,1,.51-1c.93-.4,1.91-.66,2.88-1Z"/><path class="cls-1" d="M150.31,249.66c-1,.68-1.51,1.29-2,1.3s-.89-.67-1.34-1.05c.41-.48.75-1.25,1.24-1.35S149.25,249.08,150.31,249.66Z"/><path class="cls-1" d="M133.62,252.07c.63.89,1.24,1.38,1.25,1.89,0,.36-.8,1-1.23,1a1.63,1.63,0,0,1-1.2-1.1C132.38,253.47,133,253,133.62,252.07Z"/><path class="cls-1" d="M262.44,90.89c-.89.68-1.4,1.35-1.78,1.29s-1-.73-1.43-1.13c.39-.42.75-1.14,1.18-1.18S261.46,90.36,262.44,90.89Z"/><path class="cls-1" d="M86.6,215.91c.6.82,1.28,1.39,1.18,1.71a1.94,1.94,0,0,1-1.32,1.13c-.38,0-1.17-.72-1.16-1.1S86,216.71,86.6,215.91Z"/><path class="cls-1" d="M285.92,72.26c-.64.52-1.11,1.16-1.41,1.08-.48-.12-.84-.71-1.26-1.1.41-.4.77-1,1.25-1.13C284.79,71,285.27,71.71,285.92,72.26Z"/><path class="cls-1" d="M42.41,205.31c.61.67,1.24,1.33,1.81,2,0,0-.48.48-.73.74l-1.94-2Z"/><path class="cls-1" d="M213.31,158.56l1.42,1.45c-.44.36-.87,1-1.31,1s-1-.57-1.22-1C212.11,159.75,212.78,159.21,213.31,158.56Z"/><path class="cls-1" d="M217.06,181.81c.59.79,1.16,1.21,1.14,1.61a1.51,1.51,0,0,1-.94,1.14,1.49,1.49,0,0,1-1.16-.88C216.07,183.2,216.57,182.69,217.06,181.81Z"/><path class="cls-1" d="M229.5,94.88c.55.83,1.09,1.3,1,1.66s-.63.91-1,1.36c-.39-.4-1-.77-1.09-1.21S229,95.75,229.5,94.88Z"/><path class="cls-1" d="M261.57,82.69c-.73.51-1.18,1.08-1.56,1s-.74-.68-1.1-1c.37-.35.71-1,1.11-1S260.85,82.19,261.57,82.69Z"/><path class="cls-1" d="M461.31,186.58l1.87-2.08c.28.3.83.64.79.88C463.79,186.46,463,186.84,461.31,186.58Z"/><path class="cls-1" d="M195.56,146.63c.43.85.86,1.31.83,1.74s-.59.68-.91,1c-.35-.37-.94-.73-1-1.12S195,147.43,195.56,146.63Z"/><path class="cls-1" d="M232.84,82.86c-.74.49-1.16,1-1.47.92s-.81-.59-1.21-.91c.33-.31.66-.87,1-.88S232,82.41,232.84,82.86Z"/><path class="cls-1" d="M363.16,273.73c-.6.94-1,1.61-1.48,2.24,0,0-.87-.37-.87-.56C360.81,274.31,361.4,273.71,363.16,273.73Z"/><path class="cls-1" d="M396.6,244.76l-1.08-1.14c.36-.3.72-.83,1.07-.82s.88.47,1.32.74Z"/><path class="cls-1" d="M193.61,279.4h2.09l-.06,1.27-2.09-.28Z"/><path class="cls-1" d="M286.77,283.05a4.4,4.4,0,0,1-1.53.59c-.27,0-.79-.71-.74-1a1.73,1.73,0,0,1,.86-1.24c.38-.13.94.3,1.43.48Z"/><path class="cls-1" d="M189.87,173.07c-.7.41-1.13.85-1.46.79s-.87-.65-.84-1a1.32,1.32,0,0,1,1-.86C188.87,172,189.23,172.55,189.87,173.07Z"/><path class="cls-1" d="M191.93,265.4c-.46-.63-1-1-1-1.38a1.32,1.32,0,0,1,1-.83c.33,0,.77.61.85,1C192.89,264.46,192.38,264.84,191.93,265.4Z"/><path class="cls-1" d="M142.36,269.58h-1.9l0-1.23,2,.35Z"/><path class="cls-1" d="M336.14,158.62c-5.41,1.46-5.53,1.66-4.74,7.59a4.88,4.88,0,0,1-3.53-3.82,4.79,4.79,0,0,1,2.84-4.65A4.57,4.57,0,0,1,336.14,158.62Z"/><path class="cls-1" d="M363.87,157.27a4.54,4.54,0,0,1,4.18,5.49,12.82,12.82,0,0,1-1.68,3.24,1.36,1.36,0,0,1-1.15.52,1.34,1.34,0,0,1-.83-1,4,4,0,0,1,.51-2.44c1.37-1.49,1.26-2.75,0-4.16A12.25,12.25,0,0,1,363.87,157.27Z"/><path class="cls-1" d="M352.65,168.2c-2.24,2.38-2.83,4.76-.15,7.36-2.83-.58-4.43-2.83-3.92-4.9A3.3,3.3,0,0,1,352.65,168.2Z"/><path class="cls-1" d="M329.62,176.62c-1.07.71-1.7,1.47-2.26,1.42s-1.11-.88-1.67-1.37c.52-.49,1-1.34,1.58-1.39S328.51,175.94,329.62,176.62Z"/><path class="cls-1" d="M368.62,171.64c-1,.61-1.56,1.26-2,1.18s-.89-.83-1.34-1.29c.47-.42.91-1.13,1.41-1.17S367.67,171,368.62,171.64Z"/><path class="cls-1" d="M316.39,174c.57.76,1.14,1.2,1.17,1.66s-.74,1.12-1,1.06a2,2,0,0,1-1.24-1.11C315.23,175.34,315.84,174.8,316.39,174Z"/><path class="cls-1" d="M355.32,156.32c-.51-.66-1.06-1.07-1-1.38s.6-.76.93-1.14c.35.31,1,.61,1,.93S355.78,155.59,355.32,156.32Z"/><path class="cls-1" d="M324.33,145.85c.51.76.93,1.13,1,1.53s-.54.92-.71.88c-.41-.11-1-.47-1-.82S323.91,146.64,324.33,145.85Z"/><path class="cls-1" d="M342.94,174.07c-.15-.44-.48-.92-.4-1.3s.58-.71.9-1.05c.22.4.6.8.61,1.21s-.39.8-.61,1.19Z"/><path class="cls-1" d="M315.52,247.16a3.64,3.64,0,0,0-3.57,2.36c-1,2-2.26,2.13-3.72.61.53-1.13,1-2.17,1.53-3.21C310.46,245.42,314.1,245.42,315.52,247.16Z"/><path class="cls-1" d="M309.62,234.07c.19-.26.49-1.17,1.09-1.44s1.37.2,2,.54a7.88,7.88,0,0,1,2,1.61,2.52,2.52,0,0,1,.36,1.56c0,.12-.74.28-1.14.33-.56.07-1.15,0-1.69.08C310.46,237.14,309.59,236.44,309.62,234.07Z"/><path class="cls-1" d="M321.87,231.94c1.58-.42,2.82-.83,4.09-1.06a4,4,0,0,1,1.52.39,6.71,6.71,0,0,1-.67,1.17c-.5.56-1.14,1-1.61,1.57-1.18,1.48-2.34,1.37-3-.39A8,8,0,0,1,321.87,231.94Z"/><path class="cls-1" d="M298.32,249.13c-1.14,1.24-3.76.86-4.17-.87a2.32,2.32,0,0,1,.94-1.89c.75-.5,1,.09,1.31.93S297.65,248.53,298.32,249.13Z"/><path class="cls-1" d="M307.32,247.62c-.82-1.12-1.68-1.79-1.62-2.37a2.42,2.42,0,0,1,1.55-1.64,1.37,1.37,0,0,1,1.71,1.63C308.85,245.93,308.12,246.51,307.32,247.62Z"/><path class="cls-1" d="M288.37,252.44c-.44-.75-.88-1.16-.83-1.52s.57-.65.88-1c.3.34.82.65.85,1S288.84,251.71,288.37,252.44Z"/></g></g></svg>