<svg xmlns="http://www.w3.org/2000/svg" viewBox="0 0 1582.48 451.64"><g id="Capa_2" data-name="Capa 2"><g id="Layer_1" data-name="Layer 1"><path d="M803.14,0a21,21,0,0,0,3.12.45c31.88.14,63.35,4.74,94.93,8.34,38.6,4.4,77.25,8.21,116.06,10.47,22.79,1.33,45.56,3.13,68.33,4.93,4.47.36,9.23.48,12.84,4.06.95.94,2.48.56,3.76.57,55.62.53,110.72,7,165.33,16.71,68.83,12.26,136.39,29.82,201.72,55,32.94,12.72,63.62,29.54,89.43,54.24,7,6.7,13.58,13.77,18.5,22.15,5.16,8.8,7.36,18.1,3,28-3.31,7.41-8.53,12.84-16.31,15.67-11.32,4.11-20.16,11.91-29,19.74-1.24,1.1-.87,1.73.29,2.71,7.84,6.71,8.3,12.93,1.49,20.83-4.76,5.54-11,9.23-17.24,12.72a286.92,286.92,0,0,1-27.8,13.88c-31.45,13.27-62.32,27.88-94.16,40.23-48.51,18.81-96.89,37.93-146.38,54.08-24.12,7.87-48.78,13.41-73.66,18.13-28.33,5.38-56.51,11.66-85.21,14.81-30.76,3.38-61.54,7.22-92.56,6.64-16.93-.32-33.9-.78-50.77-2.62-6.31-.69-12.59-1.72-18.85-2.8-11.07-1.91-22.09,0-33.12.3-36.85,1.15-72.42,10.07-108.1,18.26q-29.43,6.75-58.89,13.33a36.5,36.5,0,0,1-4.53.72c-7.47.74-11.74-3.65-9.32-10.72,4.89-14.27,7-29.65,16.27-42.25a33.41,33.41,0,0,0,3-5.58c1.9-4,.94-6.11-3.42-7.33a30.51,30.51,0,0,0-5.2-.95,36.52,36.52,0,0,1-18.17-7.13c-6.12-4.48-13.32-4.5-20.36-3.56-9.8,1.31-19.5,3.29-29.27,4.79-8.17,1.24-10.26-.05-13-7.64a16,16,0,0,0-5.38-6.84c-3.18-2.62-6.5-5.07-9.67-7.71-1.85-1.54-3.65-1.94-5.78-.64-8.32,5.07-17,5.9-26,1.93a12.66,12.66,0,0,0-5.94-.59,16.74,16.74,0,0,1-13.46-5,30.79,30.79,0,0,0-10.32-6.59c-3.58-1.49-7.2-3.09-9.31-6.67-.62-1-1.36-1-2.37-.6-3,1.24-6.09,2.48-9.18,3.58-7.11,2.51-11.23.55-13.82-6.47a12.35,12.35,0,0,0-15.37-7.37c-8.19,2.58-16.21,5.73-24.63,7.56-9.24,2-12.38.63-17.15-7.43A18.42,18.42,0,0,0,476,326c-2.86-3.56-3.73-3.7-7.54-1.26a30.44,30.44,0,0,1-11.27,4.87c-8.4,1.43-13.55-4.13-11.45-12.34a18.35,18.35,0,0,1,1.34-4c2.66-5,3.57-10.16,1.46-15.63a4.23,4.23,0,0,1-.3-2.43c1.16-3.9-1.15-4.78-4.25-5.87-34.26-12.1-69.83-17.32-105.84-20.21-38.71-3.1-77.15-1.41-115.27,6.41-2.59.53-4.07,2.08-5.7,3.76a501.48,501.48,0,0,1-85.32,70.43C98.92,371.28,65.27,391.49,30,409c-3.27,1.62-6.48,3.36-9.72,5.05-.62.32-1.22.89-1.87.95a27.45,27.45,0,0,0-12.85,4.82c-1.44,1-3.24.26-4.45-1.11a3.87,3.87,0,0,1-.39-4.91,65.16,65.16,0,0,1,4.1-5.3c1.07-1.34,2.48-2.34,2.17-4.52-.25-1.71,1.48-2.13,2.84-2.61,2.36-.84,3.37-2.26,2.33-4.89-1.2-3.07,0-5.74,1.91-8.18,2.32-3,4.95-5.69,6.62-9.13.69-1.44,1.13-2.62,0-4.21-2-2.9-1.34-5.88.7-8.5s4.12-4.84,6.18-7.26c1.7-2,2.69-3.93.88-6.62s-1.39-5.7.44-8.31a50.28,50.28,0,0,1,4.71-5.71c1.84-1.95,3.26-3.75,2.26-6.8-.69-2.14.58-4.16,2.23-5.63,1.94-1.71,4-3.31,6-4.86,2.34-1.75,4.48-3.29,2.16-6.71-1.11-1.63-.41-3.73.77-5.32a22,22,0,0,1,3.31-3.64c2.5-2.13,5-3.85,3.19-8-1-2.21.85-4.54,2.58-6.22,2.53-2.47,5.17-4.8,7.81-7.15,1.09-1,1.58-1.62.33-3.09-2.63-3.1-2.3-6,1-8.49s6.82-4.62,10.26-6.88c1.07-.71,2.27-1.15,1.82-2.94-.71-2.86,1-4.69,3.15-6.15,3-2,6.06-4,9.34-6.18-2.94-1.82-5.71-3.32-8.24-5.16-2.8-2-4.78-4.65-3.53-8.45.54-1.65-.73-2.33-1.56-3.24-2.16-2.36-5.22-5-4.28-8.09,1.36-4.58,1.22-8.05-2.31-11.48-1.64-1.59-2.7-3.83-3.81-5.89-1.7-3.17-2.07-6.36,1.14-8.88,1.87-1.47.29-2.17-.48-3-3.78-4-7.68-8-11.39-12.07a40,40,0,0,1-4.36-6c-1.29-2.12-1.64-4.53-.15-6.69,1.82-2.66,1.18-4.68-.91-6.83-3.85-4-7.6-8-11.26-12.19-2.06-2.33-3.14-5-1.44-8.1.77-1.38-.05-2.24-.8-3.12-2-2.34-4-4.6-6-7-3-3.66-3.18-5.76-.33-9.67,1.08-1.48.16-2.2-.52-3-3-3.5-6-6.94-9-10.39a22.93,22.93,0,0,1-3.81-5.06c-.91-1.91-1.44-4.22.12-5.65,2.59-2.37,1.37-4.12-.08-6.23-2-2.91-3.88-5.9-5.77-8.88-1.66-2.62-2.73-5.32-.41-8.13.83-1,.45-1.68-.37-2.36-1.17-1-2.34-2-3.49-3C4,69.55,3.32,66.9,5.22,65c2.38-2.35,4.7-1.39,6.86.5,1.06.93,2.15,1.83,3.18,2.8,1.8,1.68,3.32,3.28,6.3,1.73,1.93-1,4.06.65,5.94,1.6a533.43,533.43,0,0,1,65.2,39.46c46,32.18,84.38,72,117.44,117.2,2.37,3.23,4.84,6.39,7.09,9.7a5,5,0,0,0,4.71,2.35c13.64-.07,26.89-2.92,40.2-5.37,38.42-7,75.18-19.33,110.74-35.34,3.11-1.41,6.31-2.63,9.44-4s6.6-2.29,8.6-5.67c.94-1.59,3-2.26,4.69-3a159.73,159.73,0,0,0,26-15.56c11.61-8.24,23.42-16.21,35.16-24.27a19.56,19.56,0,0,1,7.38-3.29c8.21-1.57,14.75-6,20.52-11.77,7.66-7.64,15.73-14.86,22.57-23.34,5.59-6.92,10.61-7.66,18.27-3.11A76.5,76.5,0,0,0,544,113.52a12,12,0,0,0,11.59-2.25c6.31-5.11,12-10.94,18.63-15.69,2.65-1.88,3.75-5.13,4.89-8.07,2.4-6.13,7-8.48,13.27-8.56A46.37,46.37,0,0,1,608,81.54c11.61,4,23.39,3.6,35.28,2a12,12,0,0,0,5.36-1.65c8.59-6,16.62-12.51,17.87-24a29.51,29.51,0,0,1,.57-3.49c1.42-6,5.59-8.64,11.6-7,5.14,1.36,9.91,3.74,14.75,5.87,9,4,18,7.69,28,7.85,8.44.13,16.94.63,25-2.89,3.33-1.45,5.69-3.65,6.36-7a44.73,44.73,0,0,1,4.73-13.79c.85-1.48.52-2.25-.91-3-2.29-1.18-4.4-2.73-7.1-2.95-2.28-.19-3.2-2.52-5.2-3.37-6.38-2.74-12.64-5.76-18.9-8.76-3.55-1.7-8.24-2.92-7.46-8.07S723.6,6.54,727.28,6C744,3.5,760.72.25,777.77.41A10,10,0,0,0,779.83,0Zm216,39.93a18.61,18.61,0,0,1,7.22-1.1c5.41.05,10.82,0,16.23-.09a8.88,8.88,0,0,0,5.56-1.51c-9.2,0-17.95.05-26.71,0-2.23,0-1.83,1.62-2.22,2.85a4.36,4.36,0,0,1-2.67,1.55c-.82.22-1.11.54-.84,1.47,1.52,5.28,5.24,6.51,9.31,3C1019.56,45.32,1019.21,45,1019.09,39.93Zm272,304.66c-3.5-1-4.86-4.27-6.72-6.88-1.22-1.72-2-2.38-4.12-1-4.65,3-9.45,5.73-14.33,8.32-2.19,1.17-2,2.17-.91,4,1,1.62,2.75,3.15,2.08,5.62-2.49-.87-3.53-2.82-4.41-4.67-1-2.1-2-2-3.78-.95-4.36,2.56-8.74,5.11-13.27,7.34-3.13,1.54-5.5,3-2.88,6.78,0,.06-.23.33-.46.65-.49-.29-1.2-.47-1.43-.9-1.71-3.2-3.64-1.88-5.94-.64-8.49,4.57-17,9-25.63,13.39-2.2,1.12-4.54,2.27-7.84,1.17,4.18-2,7.84-3.71,11.52-5.42,2.11-1,3.75-1.68,1-4.15a23,23,0,0,1-4.34-6.39c-1.06-2-2-2-3.83-.93-5.4,3.11-10.88,6.07-16.4,9-1.84,1-2.46,1.79-1,3.69a14.41,14.41,0,0,1,3,6.77c-2.63-1.39-4-3.62-5.36-5.8-1-1.65-1.86-1.76-3.62-.91-5.69,2.78-10.82,6.51-16.63,9.13-6.09,2.75-11.81,6.31-17.77,9.38-2.32,1.19-4.67,2.62-7.77,2.22a7.65,7.65,0,0,1,3.25-2.39c5.26-2.86,10.56-5.67,15.84-8.5,8.92-4.8,8.91-4.79,2.19-12.64-.67-.78-1.18-1.45-2.3-.77-3.33,2-6.6,4.1-10,5.9-1.17.61.11,2.83-1.29,2.2-2.26-1-3.28.71-4.67,1.45-3.52,1.88-6.93,4-10.38,6s-7.15,4.09-10.69,6.19c-3.11,1.85-6.12,3.85-9.4,5.47-6.62,3.3-12.89,7.29-19.68,10.29-2.24,1-4.57,2.2-7.58.6,9.43-3.63,17.71-8.58,26.21-13.12,2.4-1.28,2.31-2.19.65-4a102.25,102.25,0,0,1-6.85-8.53c-1.2-1.66-2.13-2-3.94-.82-3.15,2.05-6.49,3.81-9.75,5.69-4.71,2.71-4.71,2.7-2.84,7.53,0,.09-.22.29-.61.78-3-5.84-6.49-2.54-10-.55-10.43,5.91-20.9,11.77-31.34,17.67-.61.35-1.65.34-1.5,1.66,1.31,0,2.6.09,3.88,0,12-1,24-1.63,35.86-3.16a1095.59,1095.59,0,0,0,143.37-27.86c30.92-8.26,60.94-19.63,90.88-31,56.58-21.42,112.67-44.08,167.82-69q14.17-6.4,27.76-13.95c5-2.81,10-5.77,13.95-10.1s3.47-6.79-2.07-9.21c-.54-.23-1.11-.39-1.67-.57a53.73,53.73,0,0,0-17.42-2.32c-6.83,0-13.68.1-20.44-.86a20.23,20.23,0,0,0-16.15,4.22A86.79,86.79,0,0,0,1456,265.17c-1.28,1.66-2.69,3.15-5,2.3-5.19-1.91-6.45-6.12-3.11-10.45A224.75,224.75,0,0,1,1471,231.4c7.19-6.83,15.28-9.68,24.26-11.7,10.25-2.31,20.73-3,31.14-4.09,10.64-1.15,21.38-1.53,31.91-3.59a19.27,19.27,0,0,0,13.36-9.56c4.06-7,1.85-13.76-1.6-20.12s-8.08-11.55-13-16.68c-1.36-1.42-2.32-1.51-3.74-.22-1.82,1.65-5.43,1.91-5.88,4s1.23,4.88,2,7.34c.23.76.52,1.5.87,2.48,2.36-1.33,4.16-2.84,4.86-5.42a1.55,1.55,0,0,1,1.81-1.31c1.12.2,1.49,1.06,1.54,2.07a5.49,5.49,0,0,1-1.21,3.25c-.33.5-1.21.93-.39,1.73,4,3.84,5.06,9.16,7.22,13.93a7.31,7.31,0,0,1,0,6.23c-4.93-5.82-5.81-13.06-9.78-18.57-2.64,1-3.22,2.73-2.25,5.29a31.57,31.57,0,0,1,1.3,5.47c.16.92,0,2.06-1.07,2.34s-1.69-.68-2-1.6q-.78-2.34-1.34-4.74c-.43-1.85-1.08-2.61-3-1.34-1.68,1.1-3.57,2-5.85,1.45a4.47,4.47,0,0,1,2.2-2.93c5.77-2.32,4.52-6.29,2.68-10.48-.14-.32-.11-.75-.31-1-.7-.89-.21-3.44-2.54-2.13-1.57.88-4.63.71-3.42,4.11a56.48,56.48,0,0,1,1.58,5.77c.14.57,0,1.28-.67,1.4a1.8,1.8,0,0,1-1.24-.45,5.52,5.52,0,0,1-2-3.62c-.54-3.75-2.27-3.76-5.18-2.15a91.86,91.86,0,0,1-9.94,4.54c-1.6.65-3.33,1.41-5.39.76,1.26-2.2,3.13-3,4.82-4,2.08-1.26,4.69-1.55,6.37-3.51,2.12.12,3.63-1.38,5.46-2,.62-.22,1.47-.6,1.21-1.45-.61-2-1-4.31-2.23-5.77-.88-1-2.61.85-4,1.25-1.72.49-1.72,1.55-1.11,3a11.45,11.45,0,0,1,.79,5.15,2.24,2.24,0,0,1-2.83-1.52c-1.39-5.59-4.49-3.15-7.44-1.75-2.13,1-4.24,2.06-6.44,2.88-1.68.62-3.4,1.54-5.58.76,2.19-3.4,6-4.2,9.48-6.44-3.63-.31-2.35-5.68-6-5-2.69.51-5.15,2.24-7.71,3.44-.74.34-1.47.75-2.23,1-2,.78-4.07,1.63-6.79,1.23a9.76,9.76,0,0,1,4.11-3.59c2.71-1.4,5.49-2.68,8.24-4,5.16-2.53,4.94-1.3,2.79-6.75-.38-1-.12-3.62-2.35-2.28-1.62,1-5.38.12-4.29,4.09.2.71.59,1.79-.44,2.12a2.13,2.13,0,0,1-1.81-.77c-1.32-2-2.76-1.49-4.49-.62a80.13,80.13,0,0,1-7.42,3.25,9.25,9.25,0,0,1-6.33.65c1.32-1,2-1.43,2.61-1.91a42.24,42.24,0,0,1,9.74-4.92c2.46-1,2.82-2,1.68-4.37-2.77-5.9-2.64-6-8.37-3.08-1,.47-1.85,1-2.83,1.42-2.84,1.12-5.46,3.08-9.25,2.68.79-.91,1.34-1.48,1.83-2.1,1.18-1.54,4.19-1.62,4.08-3.83-.09-1.85-1.5-3.64-2.34-5.46a5.18,5.18,0,0,1-.3-.63c-.52-1.74-1.51-1.72-2.93-1-3.53,1.87-7.1,3.67-10.68,5.46-2,1-3.89,2.09-6.48,1.76a7.22,7.22,0,0,1,4-4c2.29-1.09,1.79-2.27.87-4.09s-1.86-2.6-4-1.53a19.5,19.5,0,0,1-10.27,2.49c2.77-3.18,6.07-4.38,9.26-5.67,1.74-.71,1.91-1.43,1.22-3.16-1-2.57-2.26-3.18-4.66-1.66a24.56,24.56,0,0,1-4.48,2c-2,.75-3.63,1.74-3.34,4.43-4.08-2.94-6.61.67-9.62,1.64s-5.88,3.2-9.93,2.7c3.51-3.88,8-5.07,12-7.22,1.13-.62,3.85-.53,2.12-3.17-1.15-1.75-1.29-4.67-4.93-2.87-6.9,3.42-14,6.45-21.06,9.56-2.57,1.13-5.15,2.42-8.42,2.16,1.71-2.42,3.93-3.56,6.11-4.65a116.39,116.39,0,0,1,10.88-5c2.77-1,2.72-2.29,1.63-4.69s-1.92-3.48-4.79-2c-6.91,3.52-14,6.7-21.06,9.93-2.58,1.18-5.14,2.65-9,2.21,6.57-5.73,14.31-7.89,21-11.81-1.94-2.75-3.27-6-7.93-5.3,4.29-2.36,2.61-4.43.33-7,0,3.39-2.4,4.29-4.27,5.92-2.45,2.14-4.55,3.68-7.85,2.34-.33-.13-.88.25-1.33.4-13,4.23-23.9,12-34.52,20.19a31.25,31.25,0,0,0-4.55,4.91c-.52.62-1.55,1.15-1,2.43,3.09-1.85,6.1-3.69,9.15-5.46a242.57,242.57,0,0,1,22.85-11.89c1.61-.72,3.62-1.42,4.55.86.86,2.09-1,2.85-2.47,3.58-10.93,5.27-21.51,11.17-31.87,17.48-2,1.24-3.88,3.27-6.73,2.24-.7-.26-1,.41-1.32.9a48.77,48.77,0,0,0-4.77,10.51,214.93,214.93,0,0,1,28-17.06c1.66-.87,3.58-2.25,4.92.06s-.71,3.39-2.32,4.39c-1.4.86-2.87,1.6-4.33,2.38a181.85,181.85,0,0,0-22.38,14.11c-1.8,1.33-3.27,3.6-6.14,2.65-.73-.24-1,.49-1.14,1.05-.87,3-2,5.94-2,9.52.8-.46,1.31-.71,1.78-1q11.86-7.67,24.28-14.41c1.43-.78,3-1.35,4,.43.9,1.58-.25,2.67-1.43,3.53a27.59,27.59,0,0,1-2.7,1.67c-8.06,4.63-16.13,9.25-23.84,14.47-4,2.74-4.61,4.31-3,9.46l12.87-8.1c3.2-2,6.39-4,9.6-6,1.22-.74,2.53-.9,3.49.35s.51,2.48-.52,3.47a14.88,14.88,0,0,1-2.23,1.72q-10.34,6.45-20.7,12.85c-.73.46-2,.47-1.73,1.82.44,2,.75,4.26,2.36,5.36,1.44,1,3-.6,4.37-1.45a30.57,30.57,0,0,0,2.83-2.11c2.39-1.92,4.74-3.87,7.11-5.8,1.28-1,2.7-1.8,4.08-.4s.79,3.06-.43,4.37a21.65,21.65,0,0,1-2.62,2.35c-3.51,2.75-7,5.46-10.69,8.29.65.53,1.29,1,1.9,1.54,2,1.75,3.48,3.84,1.79,6.43s-4.27,2.07-6.62.87a21.47,21.47,0,0,1-7.54-6.29c-6.06-8.21-7.63-17.62-6.56-27.49,1.79-16.52,8-31.37,17.39-45a58.9,58.9,0,0,1,20.18-18.39c8.1-4.5,15.43-10.47,24.63-12.89,1.82-.48,2.57-1.53,1.44-3.67-2.81-5.31-2.7-5.38-8-2.74-.85.42-1.66.91-2.54,1.24-2.07.78-3.15,1.79-1.77,4.14.73,1.25,1.66,3.38.28,4.08s-2.59-1.31-3.22-2.61c-1.15-2.4-2.49-2.14-4.42-1-3,1.82-6.16,3.43-9.27,5.11-2.46,1.33-4.87,2.81-8,2.83.89-2.44,2.84-3.64,4.72-4.76,3.74-2.22,7.6-4.24,11.38-6.4.91-.53,2.68-.73,2-2.32-.75-1.91-1.15-4.93-3-5.2-2.27-.33-4.42,1.81-6.52,3.07-1.8,1.09.16,2.21.24,3.33.06.8.63,1.78-.1,2.33a1.7,1.7,0,0,1-2.42-.73c-1.74-3-3.6-1.84-5.69-.46-2.45,1.61-5,3.13-7.56,4.54a7.34,7.34,0,0,1-5.52,1.15c3.68-4.35,8.33-6.67,12.73-9.28,1.8-1.07,2.44-1.85,1.3-4-2.94-5.55-2.81-5.62-8.28-2.3a16.8,16.8,0,0,1-1.51.91c-1.37.67-1.45,1.56-.79,2.87.92,1.85,2.19,3.67,1.49,5.93a2.39,2.39,0,0,1-2.53-1c-1-1.16-1.65-2.58-2.66-3.7-1.26-1.41-3.07-2.35-2.39-4.86.2-.75-.69-2.06-2.16-1.06-3,2-6,4-9.17,6.05,3.59,2.41,3.6,3.67.11,6.2-10.11,7.33-20.69,13.94-31.17,20.72-5.21,3.37-8.12,8.66-11.4,13.68,10.48-7.69,21.23-14.9,31.77-22.39,1.58-1.12,3.3-2.55,4.86-.4s-.13,3.57-1.71,4.69c-13.32,9.5-26.72,18.88-39.69,28.88-2.8,2.16-4.08,4.4-5.15,7.94,1-.52,1.48-.74,1.92-1q12.59-8.5,25.15-17c1-.66,1.9-1.39,2.89-2,1.31-.83,2.73-1.16,3.77.27s.39,2.75-.76,3.75a50.86,50.86,0,0,1-4.25,3.16c-9.91,6.77-20,13.28-29.72,20.34-3.27,2.37-4.35,5.46-5.06,9.55l21.65-14.9c1.66-1.14,3.59-2.75,5.23-.55,1.79,2.4-.5,3.8-2.15,5.1-1.21.94-2.49,1.78-3.75,2.65-7,4.82-13.84,9.81-21,14.38-3.76,2.42-3.69,5.92-4.56,10.24,8.46-5.93,16.15-11.34,23.85-16.72,1.73-1.21,3.61-3.87,5.67-1.35,2.29,2.82-.7,4.47-2.58,5.83q-12.33,8.87-24.83,17.48c-3.62,2.5-4.39,4.17-3.29,9.37,7.86-6,15.56-12,23.31-17.92,1.73-1.33,3.65-4.18,5.83-1.35,2,2.58-.79,4.28-2.57,5.67-7.79,6.09-15.66,12.07-23.51,18.08-4.32,3.31-4.85,5.19-2.89,10.82a14,14,0,0,0,1.47-.9q11.22-8.58,22.4-17.21c1.43-1.11,2.88-2,4.34-.39s.8,3.18-.5,4.39a74.3,74.3,0,0,1-6,4.93c-6,4.52-12.07,9-18,13.62-3.66,2.84-3.15,5.63-1.39,9.19,1.12-.71,2.22-1.36,3.27-2.09,6.67-4.63,13.5-9,19.68-14.35,1.25-1.07,2.71-1.79,4.1-.45,1.54,1.47.85,3.06-.4,4.34a28.72,28.72,0,0,1-3.73,3.23c-5.55,4-11.11,7.93-16.74,11.81-5.23,3.6-5.22,3.53-2.79,9.45.59,1.45,1.12,1.9,2.47.87,2-1.5,4-2.89,6-4.39,3.65-2.79,7.24-5.65,10.9-8.43,1.22-.93,2.66-1.25,3.84,0,1.34,1.39.78,2.84-.35,4.07a17.61,17.61,0,0,1-2.37,2.11c-4.59,3.49-9.17,7-13.82,10.42-4.16,3.06-4.2,3-2.22,7.67.14.32.29.65.4,1,.61,2,1.57,1.86,3,.73,4.78-3.63,9.63-7.18,14.47-10.72,1.79-1.31,3.8-4,5.9-1.27s-1,4.2-2.73,5.54q-7.41,5.71-15.08,11.08c-1.73,1.23-2.14,2.31-.69,4,1.18,1.31,2.32,2.66,3.43,4s2.11,1.55,3.45.16c3.45-3.54,7.49-6.47,10.58-10.37,1-1.26,2.08-2.56,3.8-1.45s1.19,2.9.32,4.37c-1.58,2.68-4,4.65-6.21,6.72-6.47,5.94-6.43,5.87.54,11.42,1.5,1.2,2.43,1.15,3.89,0a29.14,29.14,0,0,0,8-9.77c.75-1.44,1.65-2.82,3.51-2.06s2,2.51,1.29,4.18a19.25,19.25,0,0,1-1.82,3.41,31,31,0,0,1-8.64,9.14c1.58,1.44,2.92,2.58,4.17,3.81,2.87,2.84,4.15,6.5,2.47,7.67-2.94,2-5.41,0-7.56-1.76-7.1-5.82-14.11-11.75-21.12-17.69a35.84,35.84,0,0,1-9.21-11.51c-14-28.46-20.26-57.93-11.25-89.26,5-17.22,10.17-34.43,21.28-48.92,7.17-9.35,13.93-18.94,20.38-28.81a78.17,78.17,0,0,1,29.08-26.64c.57-.3,1.08-.52,1-1.21-.1-1.27,0-2.51,1.56-2.62s2,1.37,2.59,2.49c.43.83.73,1.74,1.19,2.56,1.06,1.93,1.28,4.89,3.19,5.63,1.67.66,3.25-1.89,5-2.83a3.6,3.6,0,0,1,1.26-.59c2.53-.15,1.74-1.42,1-2.79-1.06-2.1-2-4.28-3.08-6.34-.65-1.19.71-2.26,0-3.33-.37-.54-8.52-2-9.23-1.72-10.1,4.67-21,6.68-31.67,9.49a11.63,11.63,0,0,1-9.59-1.11c10.13-6.29,21.53-6.43,32.24-11.05-4.25-.6-7.59-2.51-11.23-1.88-6.37,1.1-12.68,2.53-19,4-5.69,1.28-11.35,2.74-17.51,4.24,2.44,2.86,4.46,5.28,6.55,7.65,1.79,2,2.76,5.25,4.69,6.42,2.17,1.32,5.12-1.4,7.85-1.89,1.72-.32,3.48-.36,4.08,1.69s-.79,3-2.46,3.65c-11.49,4.21-23,8.45-34.5,12.53a24.68,24.68,0,0,1-10.09,1.31c9.21-8.65,20.9-10.67,31.23-15.41-3.88-4.44-7.66-8.78-11.45-13.09-.84-1-1.56-2-3-2.27-.86-.14-2.07-.2-2.17-1.38-.08-1,.86-1.62,1.59-2.18,2.62-2,5.82-2.48,8.89-3.24,7-1.74,14.11-3.42,21.16-5.12a107.13,107.13,0,0,0-13.8-3.53c-.55-.11-1.52-.18-1.68.09-2.17,3.8-6.24,2.69-9.46,3.65-6.1,1.82-12.3,3.31-18.86,5,2.55,3.22,4.68,5.87,6.74,8.58,1.16,1.52,2.07,3.17,4.52,2.09a2.18,2.18,0,0,1,2.68,1.2c.44.8.45,1.88-.21,2.29-2.5,1.52-.83,2.84,0,4.28a21,21,0,0,1,1.5,3.18,2,2,0,0,1-.66,2.53c-.81.52-1.59,0-2.3-.38a8.6,8.6,0,0,1-3.49-3.9c-1.21-2.47-2.77-2.52-5.1-1.58-5,2-10.11,3.86-15.22,5.65-3.26,1.15-6.59,2.21-10.81,1.64,1.86-2.24,3.88-3.32,5.78-4.61,2.45-1.67,7.28-1.55,7.35-4.14s-3.23-5.2-5.21-7.67c-1.13-1.4-1.84-4-3.87-3.64-2.79.46-5.89.83-8,3.1-.72.78-1.25,1.42-2.29,1-1.7-.64-3.22.13-4.82.4-2,.33-4.92,1.36-5.75-.56-.75-1.73,2-3.07,3.64-4.15.84-.53,1.87-.7,1.24-2.31-2.29-5.82-3.33-6.4-9.14-4.39-1.1.37-2.18.81-3.32,1.23.56,2.19,2.5,3.29,3.28,5.13.38.87.71,1.82-.12,2.61a2.24,2.24,0,0,1-2.64.17,7.41,7.41,0,0,1-3-2.87c-1.3-2-2.71-3.14-5.19-1.85a8.2,8.2,0,0,1-2.75.53c-2.51.35-3.34,1.16-1.41,3.47a55,55,0,0,1,5.29,7.49c1.18,2,1.31,3.94-1.86,4.7-2.14.51-4.09,1.77-6.17,2.59-2.24.88-4.44,1.57-3.5,4.86.3,1.08-.48,2.93-1.87,1.32-3-3.46-5.73-1.46-8.75-.33-5.26,2-10.27,4.81-16,5.16-1.06.07-2.67.68-3.14-.6s1-2,1.88-2.72c3.79-3.18,8.58-4.32,13-6.15,7.12-3,7-2.8,3-9.21-1.54-2.44-2.93-2.65-5.41-1.6-4.76,2-9.43,4.34-14.56,5.3-1.31.24-3.27.86-3.92-.35-.77-1.43,1.19-2.24,2.08-3.24.51-.57,1.51-.68,1.61-1.8-2.18-1.72-3.41-4.31-5.25-6.55-1.15,1.18-1.83,2.38-3.22,3q-27.27,11.67-54.07,24.38c-2.59,1.23-5.38,2.2-8.7,1.4a12.44,12.44,0,0,1,5-5.48,84.13,84.13,0,0,1,11.6-6c10.59-4.86,21.23-9.6,31.83-14.44.85-.39,2.69-.54,2.18-1.76-.94-2.23-2.08-5-4.3-5.77s-4.6,1.24-6.76,2.37c-.63.33-.15,1.06,0,1.59.38,1.11,1.08,2.36-.21,3.2a2.54,2.54,0,0,1-3.43-1c-1.44-1.94-2.9-1.37-4.61-.61-6.34,2.82-12.69,5.63-19.09,8.33-2.66,1.12-7.08,3.19-8,1-1.13-2.8,3.31-4.32,5.83-5.89,2.26-1.41,6.35-1.57,6.66-3.82.28-2-2.64-4.41-4.22-6.59-2.4-3.31-4.35-3.44-9.36-.5-2.88,1.7.52,3,.42,4.6,0,.33.23.66.31,1,.3,1.17.59,2.49-.66,3.16-1.07.58-2-.29-2.78-1-3.5-3.26-6.19-4.54-10.58-5.06-.3,0-.57-.31-.85-.48,1.05-2.1,3.58-2.6,4.8-4.52-1.24-1.28-3.45-.59-4.1-2.1-1.06-2.49-2.57-1.87-4.19-.95s-4.48.94-4.62,2.73c-.25,3.21-1.66,2.17-3.46,1.88-3.4-.55-5.87,1.89-8.69,3.15-.91.41.08,1.18.43,1.69.93,1.37,2.3,3,.54,4.31s-3.24-.28-4.51-1.55c-.79-.78-1.29-2.25-2.78-1.61-2,.89-4.56,1.51-5.84,3.09-1.1,1.35,1.44,2.8,2,4.36a10.45,10.45,0,0,1,.47,1c.51,2,1.42,2.11,3.23,1.19a94.61,94.61,0,0,1,13.52-6c1.7-.56,3.43-.51,4.11,1.5.62,1.81-.62,2.84-2.13,3.52-2.68,1.2-5.41,2.31-8.07,3.56-11.51,5.42-22.7,11.44-34,17.35-3,1.57-6.14,2.82-10.67,1.85,9.19-9.58,21.61-12.63,31.62-19.4a28.69,28.69,0,0,1-3.21-4c-1.42-2.57-3-2.52-5.39-1.26-9.61,5-19.31,9.79-29,14.62-3.56,1.77-7.16,3.52-11.73,3.26a17.84,17.84,0,0,1,7.55-7c5.48-3,11.06-5.76,16.55-8.71.79-.42,3-.56,1.62-2.14-1.07-1.24-1.21-4.45-4.21-3-2.84,1.41-5.56,3.1-8.45,4.39-1.42.63-1.1,3.1-2.82,2.75-2.45-.51-4.06,1-5.84,1.93-12.11,6.55-24.17,13.2-36.25,19.81-3.65,2-7.34,3.87-12.43,3.75,1.37-1.53,2.22-2.63,3.21-3.57a38.36,38.36,0,0,1,7.84-5.4c11.75-6.46,23.49-13,35.31-19.31,2.22-1.19,2.55-2,1-4.11-4.45-6.21-4.36-6.28-11.34-3-.64.3-1.26.66-1.92.9-1.61.58-2.51,1.28-1.86,3.34.75,2.38-1.07,3.49-2.59,2.06-2.81-2.64-4.89-.95-7.2.26-7.51,3.93-15,8-22.52,11.8-3,1.55-6.1,3.28-10.19,2.14,5.5-7.34,14.08-9.53,21.56-14.76-4.63,0-8.38.22-12.1,0-7.38-.53-14.26.41-20.23,5.28a8,8,0,0,1-5.27,1.78c-1.84,0-2.74-.91-1.41-2.65,1-1.35,2.27-2.54,3.72-4.15-2.87,0-5.31,0-7.74,0-.69,0-1.22,0-1.5,1-.89,3.09-1.91,3.29-4.5,1-1-.9-1.88-2.53-3.5-1.35-3.76,2.75-9.1,3.29-11.38,8.11-.33.7-1,.53-1.54.4-1.57-.37-2.7.54-3.9,1.25-4.9,2.91-9.83,5.76-14.69,8.73q-15.52,9.5-31,19.08c-1.81,1.12-3.62,2.29-5.81,2.37-1.82.07-2.71-.65-1.7-2.6a12.19,12.19,0,0,1,4.74-4.63q13.47-8.41,27-16.76c6.23-3.81,6.29-3.79,1.65-9.31-.73-.87-2.35-2.79-2.5-2.18-.63,2.58-5.88,1.27-4.25,5.35.37.93.63,2.17-.55,2.84a2.32,2.32,0,0,1-2.92-.54c-1.87-2.21-3.56-1.23-5.53-.16-12,6.55-23.77,13.43-35.43,20.54-4.09,2.49-8.34,4.69-13.32,5.24,14-13.93,32.31-21.36,49-31.84a65.42,65.42,0,0,1-5.36-6.49c-2.09-3.28-4-1.45-6.13-.29-3,1.63,0,2.57.48,3.74.5,1.35,1.39,2.73,0,3.85-1.19.94-2.47.18-3.54-.62A7.09,7.09,0,0,1,836.59,83c-1.17-1.69-2.35-1.76-4.11-.65-4.27,2.71-8.69,5.19-13,7.78-.87.53-2,.9-2,2.22,0,2-1.17,1.74-2.79,2-4.71.6-7.94,4.47-12.17,6.27-.06,0-.07.21-.08.33-.34,4.26-2.78,2.06-3.92.93a53.76,53.76,0,0,1-6.18-7.67c-1.68-2.44-3-2.71-5.63-1-14.1,9.4-28.2,18.79-42,28.6a28.89,28.89,0,0,1-8,4.39c-1,.33-2.49,1.09-3.24,0-.61-.93.54-1.92,1.14-2.76a27.89,27.89,0,0,1,7-6.36q12.32-8.58,24.69-17.08c7.18-4.92,7.22-4.89,1.23-11.46-.74-.8-1.33-2.25-2.81-1.26-2.51,1.68-5.55,2.58-7.49,5.08-.11.14.42.78.65,1.18.64,1.14,1.48,2.4.13,3.46s-2.85.44-3.82-.62c-1.45-1.59-2.6-1-4.28-.34-3.16,1.35-5.79,3.89-9.42,4.21-.89-.77-1.79-1.51-2.66-2.31-4.57-4.2-4.49-4.08-9.82-1-2.63,1.53-2.7,2.47-.69,4.82,2.4,2.83,4.34,3.26,7.18.9a11.56,11.56,0,0,1,6.09-2.54c2.08,2.75,1.22,4.67-1.58,6.27-3.88,2.22-7.73,4.52-11.48,7-2.81,1.83-7.56,2.75-8,5.74-.88,5.67-4.93.62-7.38,3.18-4.76,5-11.4,8.17-17.28,12.09-3.12,2.08-6.27,4.08-10.55,4.12,1.22-3.76,3.79-6,6.55-8,6.16-4.33,12.47-8.45,18.68-12.71.71-.49,2.22-.57,1.47-2.21-1.71-3.73-4.73-4.63-8.19-2.34L701,114.36c-1.47,1-2.9,1.6-2.08,4.08.72,2.2-1.06,2.76-2.72,1.73-1.92-1.2-3.22-.46-4.74.64-4.49,3.23-9,6.45-13.59,9.52-1.81,1.21-4.67,3.06-6,1.41s1.34-3.82,2.76-5.51c.65-.79,2.32-1.57,1.86-2.28a24.45,24.45,0,0,0-4.55-4.88c-1.36-1.17-2.28.56-3.39,1-1.91.75-4.31,2.63-5.7.78-1.21-1.61,1.15-3.47,2.37-5,.57-.72,2-1,1.28-2.5-1.22-2.53-3.46-3.22-5.87-1.66-1.28.84-2.51,1.76-3.83,2.52s-1.33,1.54-.36,2.74c2.51,3.11,4.91,6.31,7.28,9.54a6.49,6.49,0,0,1,1.56,4.23c-.08,1.45-1.07,2.58-2.24,1.72-3.37-2.48-5.75-.14-8.25,1.34-10.13,6-19.82,12.7-29.45,19.47-3.19,2.24-6.49,4.21-11.78,4.17,9.33-11.71,22.35-17.16,33.33-25.79-2.51-.3-3.79-2-5-3.67s-2.41-2.06-4.27-.61c-3.8,3-7.84,5.62-11.69,8.53-6.2,4.69-12.28,9.53-18.5,14.18-1.67,1.25-4.38,2.91-5.7,1.4s.93-3.69,2.29-5.22a22.22,22.22,0,0,1,2.85-2.63c4.34-3.44,8.72-6.82,13.06-10.25,1.1-.87,3.14-1.65,1.08-3.38-1.56-1.31-2-4.79-5.65-2.33-4.14,2.78-7.18,6.73-11.68,9.24-5.49,3.06-10.15,7.6-15.21,11.45-1.25,1-2,1.83-1,3.49a2.21,2.21,0,0,1-.23,2.93,2,2,0,0,1-2.89-.19c-1.66-1.59-2.8-.76-4.17.39q-10.12,8.52-20.35,16.95c-2.09,1.72-4.17,3.47-6.94,4-1.88.38-2.33-.36-1.82-2.1.31-1.08,1.89-2.05,1-3.13-2.29-2.87-2.67-6.51-4.31-9.61-.3-.56-.53-1.71-1.37-1.15a101.44,101.44,0,0,0-8.3,6c-1.42,1.15.23,2.6.17,3.94s.05,2.68-1.47,3.26a2.06,2.06,0,0,1-2.71-1.07c-1.14-2.86-2.5-1.49-3.94-.41-1.78,1.35-3.56,2.71-5.38,4-7.47,5.33-14.38,11.42-22.19,16.3-2.15,1.35-4.38,2.11-7,1.39-.19-1.15,1.14-2.1.32-3.35-3-4.56-4.75-9.72-7.13-14.57-.75-1.52-1.41-1.93-2.86-.82-2.54,1.91-5.18,3.68-7.75,5.55-6.19,4.5-6.09,4.45-1.95,11,1.66,2.61,2.92,4.76,6.19,1.84a2.46,2.46,0,0,1,3.74.62,2.54,2.54,0,0,1-.31,3.25c-1.57,2-5,2.42-5.08,5.79a1.77,1.77,0,0,1-.94,0c-1.56-.84-2.41.46-3.4,1.15-3.46,2.45-6.8,5.05-10.31,7.42-1.84,1.25-3.11,2.4-1.88,4.78a2.05,2.05,0,0,1-.39,2.61,1.57,1.57,0,0,1-2.2-.44c-2.08-2.67-4.36-1.82-6.86-.82a4.61,4.61,0,0,1-4,.15c6.63-4,5.5-8.62,1.68-13.4a1.37,1.37,0,0,1-.19-.3c-.66-1.66-1.5-1.78-2.82-.53a59.47,59.47,0,0,1-6.14,5.31c-2.72,1.94-3.37,3.77-1,6.53a14.18,14.18,0,0,1,3.37,6.14c.2.92.59,2.05-.26,2.65-1,.73-2-.11-2.82-.75a18.82,18.82,0,0,1-4.47-5.87c-1.23-2.22-2.23-2.17-3.89-.44a63.56,63.56,0,0,1-6.3,5.64c-1.31,1-3.24,1.76-4.52.37s-.1-3,.88-4.11c1.68-2,3.51-3.8,5.37-5.61,3.77-3.67,3.72-3.6.75-7.9-1-1.46-1.61-1.48-3-.46-4.14,3.06-7.39,7.29-12.43,9.17-1.51.56-.24,1.58.08,2.29,1.3,2.89,3.32,5.44,4,8.62.18.9.57,2-.45,2.56s-1.87-.12-2.52-.75c-1.32-1.29-2.51-2.7-4.08-4.42-.17,2.59-2,3.2-3.62,4.16-9.55,5.7-9.53,5.8-6,15.25.7,1.88,1.33,2.56,3.12,1.18a27.6,27.6,0,0,1,3.58-2.25c.79-.43,1.84-1.07,2.45.09.48.9-.39,1.47-1.11,1.92-1.39.88-2.75,1.81-4.19,2.62-1.23.69-1.62,1.44-.89,2.8,2.2,4.13,4.3,8.3,6.53,12.63a24.52,24.52,0,0,1,3-2.31c3.4-1.8,3.52-4,1.36-7a52.07,52.07,0,0,1-3.81-7.16c-.36-.73-.58-1.74.34-2.17s1.46.45,1.85,1.19c.78,1.45,1.48,2.94,2.31,4.36,1.18,2,1.73,5.22,3.67,5.68,1.51.35,3.67-2.09,5.53-3.29a5,5,0,0,1,.91-.55c1.64-.63,2.6-1.37,1.11-3.2-.56-.68-1.61-1.93-.08-2.63,1.09-.51,1.53.76,2,1.52,2.7,4.41,5.57,8.74,8,13.3,1.39,2.61,2.37,2.36,4.35.69,4.5-3.79,9.18-7.37,13.85-11,1.34-1,2.37-1.89,1.24-3.68a1.41,1.41,0,0,1,.13-1.66.86.86,0,0,1,1.25-.14c1.13.95,3,1.87,3.15,3,.78,5.19,5,8.31,7.09,12.66.94,1.95,2,2.12,3.75.8,4.75-3.47,9.66-6.73,14.5-10.06,1.75-1.2,3.48-2.42,5.26-3.57.82-.54,1.9-1.78,2.68-.55s-.78,1.74-1.57,2.38c-.64.51-1.35.94-2,1.4-5.24,3.59-10.5,7.16-15.73,10.77-4.17,2.89-4.09,2.89-1.49,7.1,1.87,3,4.3,5.79,5.05,9.64a4.78,4.78,0,0,1-3.27-2.47c-1.69-2.4-3.35-4.84-4.83-7.38-1.11-1.89-2-2.48-4-.8a93.5,93.5,0,0,1-7.84,6c-1.35,1-2.74,2.13-5.4,1.61,4.27-3.32,8-6.36,11.87-9.17,1.87-1.35,2.46-2.37.87-4.44a82.74,82.74,0,0,1-5.81-8.85c-1.1-1.89-1.95-2.18-3.71-.71-4.07,3.39-8.14,6.82-12.5,9.8-3.15,2.14-4.43,4.17-1.92,7.52.29.4.2,1.08.3,1.69a2.55,2.55,0,0,1-2.27-1.68c-1.32-2.58-2.74-2.43-4.77-.69s-4,3.14-7.23,3c2.13-2.62,4.82-3.92,7.1-5.69,1.16-.91,1.82-1.62.83-3.13-1.93-2.95-3.69-6-5.53-9-.47-.78-.77-1.72-2.08-1-2.57,1.46-5.72,2.66-7,5.15-1,2,1.73,4.05,2.75,6.1.79,1.57,1.89,3,2.77,4.51.43.74,1.13,1.56.17,2.44-2.65-1.6-2.65-1.6-5.62-6.56s-3-5-7.41-1.35c-1.4,1.14-2.07,2.08-.93,3.79.34.51,1,1.44-.27,2.28-1.86-2.73-3.86-2.31-6.09-.27a2.54,2.54,0,0,1-3.81-.07,22.9,22.9,0,0,1,2.74-2c3-1.54,3.24-3.49,1.39-6.18a48.35,48.35,0,0,1-2.95-5.62c-2.83-5.53-2.71-5.36-8.13-1.89-3,1.89-4.59,3.72-2.54,7.16.07.12-.14.41-.09.27-2.32,1.15-2-3.5-5-1.71-2.15,1.27-2.23,3.13-2.69,5.26-3.11-2-4.73-4.68-6.31-7.43-.26-.44-.71-1.11-1.05-1.1-2.81.14-2.85.2-4-1.79q-2.52-4.23-4.91-8.56c-.47-.86-1.56-1.82-.55-2.83,1.21-1.21,1.74.9,2.78.92.3-1-.52-1.56-.81-2.28-1.09-2.74-2.45-2.58-4.23-.52a22.3,22.3,0,0,1-4.51,4.44c-1.91,1.23-1.76,2.26-.86,4,2.13,4.05,5.12,7.85,5.81,12.39.47,3.1,1.79,3.54,4.35,3.91,22.74,3.28,45.33,7.3,67.18,14.68q24.09,8.13,48.56,15.08c1.05.3,2.32,1.41,3.28.36,3.14-3.46,7.38-5.4,11-8.19,1.4-1.08,1.32-1.83.43-3.14-2.11-3.12-4.14-6.3-6-9.54-1-1.69-1.78-1.63-3.19-.47q-6.69,5.49-13.55,10.76c-1.68,1.28-3.38,2.77-6.13,2.38a11,11,0,0,1,1.16-1.25c5.7-4.55,11.37-9.15,17.17-13.59,1.66-1.27,2-2.21.68-3.95-1.46-2-2.62-4.18-3.89-6.3-.38-.63-.6-1.4.07-1.92.91-.72,1.56,0,2,.69a53.29,53.29,0,0,1,3.52,5.7c1.19,2.45,2.28,2.19,4.18.64,4.47-3.64,9.12-7.06,13.74-10.51.77-.58,1.81-1.83,2.67-.61s-.58,1.83-1.4,2.46c-3.83,2.93-7.68,5.84-11.51,8.78-4.83,3.71-4.88,3.76-1.62,8.73,1.77,2.71,2.94,7.32,5.57,7.53s5.3-3.4,8.06-5.16c1.71-1.08,1.73-2.1.71-3.69a50.9,50.9,0,0,1-2.91-5.64,1.31,1.31,0,0,1,.51-1.84c.83-.43,1.37.17,1.72.77a46.36,46.36,0,0,1,2.48,4.67c.92,2.12,1.92,2.9,4,1.08s4.11-3.14,6.19-4.68c.66-.49,1.39-1.17,2.12-.22s0,1.56-.63,2.09c-1,.85-2,1.64-3,2.41-5.89,4.35-5.89,4.35-2.2,10.83,3.89,6.82,3.82,6.72,10.23,2.26,2.21-1.53,2.68-2.72,1-4.92-.89-1.13-2.91-3-1.14-4.12,1.94-1.25,2.53,1.55,3.19,2.76,1.33,2.41,2.43,2.48,4.53.81,3.87-3.07,8-5.85,12-8.7.78-.56,1.75-1.82,2.65-.53.79,1.12-.43,1.9-1.27,2.51q-4.68,3.46-9.42,6.86c-5.29,3.81-5.3,3.8-1.71,9.38,4.45,6.94,4.42,6.89,11.08,2,1.36-1,1.69-1.71.5-3-1.74-1.91-3.4-3.9-5.07-5.87-.47-.56-.89-1.23-.35-1.9.72-.89,1.57-.42,2.13.18a55.28,55.28,0,0,1,5.06,5.88c1.27,1.84,2.18,1.76,3.91.56,8.5-5.91,17.09-11.69,25.68-17.46,1.14-.77,2.56-2.92,3.76-1.21s-1.25,2.45-2.4,3.25c-8.33,5.74-16.68,11.47-25.12,17-2.06,1.35-2.82,2.24-1,4.47a80.17,80.17,0,0,1,5.69,8.5c1.41,2.31,3,4.59,3.33,8-3.89-3.78-6.24-8-8.94-12-3.88-5.69-3.75-5.56-9.49-2-2.75,1.71-3.06,3.07-1.21,5.69s4.21,5.48,4.88,9.43c-3.86-2-5.34-5.31-7-8.32-1.46-2.57-2.62-3-5-1.06-2.23,1.78-4.67,3.66-8.8,3.13,3.29-2.27,5.85-4.11,8.5-5.81,1.42-.92,2-1.68.8-3.3-1.92-2.67-3.57-5.53-5.4-8.28-.41-.61-.79-2-1.69-1.38a37.43,37.43,0,0,0-8.09,6.17c-.64.71.39,1.48.7,2.2.69,1.59,2.09,2.93,1.76,5a8.87,8.87,0,0,1-4.16-4c-.55-.9-1-1.55-2.16-.67-3.11,2.44-6.25,4.82-9.8,7.54,1.91.58,3.13,1,4.36,1.32,29.78,8.45,59.65,16.6,89.14,26.06,26.13,8.38,53,14.27,79.4,21.56,37.56,10.34,74.71,22.14,112.65,31.16,31.7,7.54,63.15,16.09,95.42,21.12,24.56,3.82,49.12,7.36,74,8.66,15.16.79,30.25,3.09,45.48,2.22,8.07-.45,16.43,1.6,24.15-1.05s14.66-7.41,21.8-11.5c2-1.16,5.12-2,5.72-3.73s-2.24-3.7-3.48-5.63c-1.59-2.46-3-6-5.23-6.83-2.62-.92-5.18,2.47-7.82,3.86s-6.27,2.5-3.62,7.33c-2.73-4-5.11-2.16-7.73-.56q-10.26,6.21-20.7,12.13c-2.17,1.23-4.42,2.57-7.52,2.14,1.35-1.65,3-2.31,4.46-3.18,8-4.68,16-9.43,24.09-14,2-1.15,2.39-2,1-4-2.65-3.74-5.18-7.58-7.47-11.55-1.26-2.18-2.35-2-4.1-.78a48,48,0,0,1-6.31,3.86c-2.43,1.18-2.62,2.26-1,4.49,2.54,3.56,5.44,7,6.37,11.88-3.14-2.11-4.83-5-6.65-7.69-3.73-5.55-3.73-5.55-9.29-2.14a80.06,80.06,0,0,1-7.26,4.35c-3.48,1.66-5.52,3.6-3,7.54,0,.07-.18.33-.3.53-.41-.25-1-.41-1.19-.77-2.06-3.07-4.11-2.06-6.64-.41-5.9,3.86-12,7.46-18,11.13-.73.44-1.71,1.45-2.46.39-.94-1.34.56-1.77,1.37-2.28,3.89-2.44,7.82-4.8,11.71-7.24,3.27-2.06,6.5-4.19,9.75-6.29-1.61-3.66-4.42-6.58-6.31-10.05-1.46-2.68-2.87-2.49-5.21-1.07-8.85,5.37-17.68,10.77-27,15.29-3.68,1.79-5.1,2.09-7.38,2,4.28-3.1,4.28-3.1,1.41-7.67l-.94-1.5c-2.95-4.73-2.92-4.69-7.62-2-4.9,2.8-9.81,5.59-14.79,8.24-3,1.61-4,1.67-6.56,1.31,2.6-2.52,6-3.43,8.89-5.1,1.34-.76,2-1.26.82-2.86-2.72-3.69-5.27-7.51-7.78-11.35-.9-1.4-1.72-1.62-3.13-.75C918,379.6,915,381.27,912,383c-2.1,1.19-4.83,2-2.88,5.75-2.62-3.12-4.71-1.37-6.88-.05-4.32,2.64-8.65,5.25-13,7.79-1.42.83-2.9,1.9-4.85.93.87-1.59,2.38-2.09,3.64-2.86,4.92-3,9.85-6,14.85-8.86,1.58-.91,1.92-1.67.79-3.25a80.18,80.18,0,0,1-5-7.71c-1-1.79-1.91-1.49-3.31-.62-3.79,2.37-7.56,4.78-11.5,6.87-2.61,1.39-3.62,2.58-1.18,5.06.88.9,2,2,1.33,3.74-.48-.2-1.12-.26-1.31-.59-3.93-6.58-8-2.83-12.12-.24a55.18,55.18,0,0,1-4.93,2.74c-1.5.74-3,1.62-5.33.73,5-2.93,9.58-5.74,14.29-8.32,2.11-1.15,2.2-2.11.83-4a86.12,86.12,0,0,1-6.1-9.5c-1.25-2.31-2.29-2.13-4.25-.88-7.83,5-15.77,9.84-23.68,14.72-1.93,1.19-3.81,2.54-6.48,2.55,1.48-2.3,3.55-3.47,5.52-4.71,7.57-4.76,15.13-9.52,22.81-14.1,2.44-1.45,3.61-2.67,1.57-5.35a16.52,16.52,0,0,1-1.81-4.18c-.32-.82-.37-1.73.56-2.14s1.42.44,1.77,1.2c.62,1.39,1.32,2.76,1.86,4.18.86,2.26,2,2.72,4.11,1.23,4.42-3.12,8.95-6.09,13.52-9,1.61-1,4.26-4.68,4.31,1.09,0,.31.31.62.5.92,2.54,4,5.14,7.89,7.6,11.9.93,1.52,1.76,1.4,3.1.55,3.26-2.1,6.55-4.18,10-6,2-1.07,1.64-2.05.62-3.54-1.79-2.62-3.47-5.32-5.12-8-.51-.83-1.57-2-.33-2.77,1.5-1,2,.68,2.56,1.56,1.82,2.74,3.61,5.51,5.3,8.34.84,1.39,1.62,1.71,3.07.76,2.85-1.86,5.76-3.65,8.75-5.3,1.65-.91,1.8-1.75.79-3.29-2.51-3.84-4.91-7.76-7.25-11.7-.51-.86-1.91-2.07-.25-2.95,1.25-.66,1.76.81,2.29,1.65,2.46,3.87,4.91,7.75,7.24,11.7.89,1.5,1.66,2,3.28.91a77.24,77.24,0,0,1,7.57-4.53c2-1,1.77-2,.65-3.52-1.26-1.7-2.33-3.54-3.41-5.35a1.42,1.42,0,0,1,.2-1.94c.68-.45,1.37.1,1.78.69,1.27,1.84,2.57,3.66,3.68,5.6.91,1.58,1.74,1.75,3.3.73,5.21-3.41,10.53-6.67,15.82-10,.92-.57,2.1-1.91,3-.54.63,1-.86,1.77-1.71,2.31-5.26,3.35-10.52,6.7-15.84,9.94-1.51.92-2,1.65-.79,3.25a69.37,69.37,0,0,1,5,7.68c1.35,2.46,2.6,3,5.17,1.37,5.59-3.48,11.43-6.54,17.11-9.88,5.47-3.22,10.86-6.58,16.32-9.84.94-.56,2.26-1.83,3.07-.59s-.83,1.94-1.78,2.51c-5.71,3.5-11.37,7.12-17.23,10.36-2.49,1.38-2.43,2.49-1,4.49a99.74,99.74,0,0,1,5.92,8.77c1.3,2.23,2.37,2.42,4.61,1.07,11-6.63,22.16-13.08,33.29-19.54,1.12-.65,2.8-2.22,3.64-.67s-1.42,2.07-2.54,2.74c-4.34,2.6-8.69,5.19-13.14,7.59-2,1.07-2.13,2.05-.82,3.76a52,52,0,0,1,4.15,6.14c1.2,2.14,2.41,2.46,4.4,1,1.78-1.33,3.8-2.35,5.68-3.55s3.57-1.8,3.61-5c0-2.5,2.49,1.75,5,0,10.16-7,20.82-13.28,31-20.33,1.22-.85,2.89-3.24,4-1.75,1.29,1.76-1.46,2.65-2.73,3.56-10,7.21-20.52,13.74-31.06,20.18-2,1.21-2.33,2.13-1,4,1.87,2.7,3.61,5.51,5.21,8.39,1.06,1.9,2,2,3.83.86,18.06-11.05,35.94-22.39,53.24-34.62,1.6-1.13,4-4.1,5-2.6,1.33,2.15-2.25,3.16-3.87,4.33-17.05,12.39-34.83,23.65-52.87,34.53-2,1.2-2.55,2.09-1.07,4.18,2.73,3.83,5.23,7.83,7.7,11.83.95,1.53,1.74,1.84,3.32.79a78.92,78.92,0,0,1,8.44-5.11c2.24-1.13,1.81-2.15.63-3.73-2.53-3.4-5-6.88-7.38-10.35-.51-.73-1.45-1.69-.38-2.42s1.7.44,2.23,1.18c2.42,3.33,4.91,6.62,7.12,10.09,1.36,2.13,2.38,2.35,4.72,1.1,5.21-2.77,9.31-7.21,15-9.32,2.71-1,5.08-2.94,7.57-4.5,1.78-1.12,4.08-2,5.08-3.62.86-1.41-1.53-2.87-2.11-4.5-.31-.85-.52-1.68.38-2.17s1.5.24,2,.94a7.42,7.42,0,0,1,.72,1.21c1.24,3,2.85,2.8,5.37,1.16,10.54-6.87,21.22-13.54,31.87-20.26.92-.58,2.21-1.84,3-.54s-.81,1.94-1.75,2.55c-4.64,3-9.26,6-14,8.92-1.79,1.1-2.59,1.9-.87,3.85,1.94,2.2,3.48,4.74,5.25,7.08,3.93,5.19,4,5.18,9.39,1.93s5.33-3.18,2.42-8.47c-.28-.52-.58-1-.81-1.57a1.29,1.29,0,0,1,.45-1.84c.77-.42,1.37.07,1.77.68a18.53,18.53,0,0,1,2,3.34c1.2,3.09,2.75,2.84,5.26,1.24,12.4-7.9,24.92-15.61,37.4-23.39,1.1-.68,2.21-1.36,3.32-2,.72-.42,1.65-1,2.21-.11.72,1.07-.35,1.65-1.08,2.21-.38.28-.8.51-1.2.75Q1162,344.31,1143.27,356c-5.2,3.23-5.28,3.25-1.72,8.44,2,2.88,3.34,7.81,6.14,8.06,3,.26,6.23-3.25,9.44-5,1.63-.87,1.87-1.69.78-3.22-1.7-2.39-3.28-4.88-4.8-7.4-.55-.9-1.83-2.19-.34-3s1.89.92,2.5,1.83c1.5,2.25,3,4.49,4.37,6.83,1.09,1.91,2.09,2.47,4.11,1a94.68,94.68,0,0,1,8.42-5.15c1.76-1,3-1.91,1.09-3.9-.56-.59-1-1.51-.2-2.2,1-.91,1.88,0,2.26.79,1.21,2.46,2.56,1.87,4.39.67,4.61-3,9.36-5.9,14-8.87,9.12-5.83,18.22-11.71,27.33-17.54,1-.61,2.29-1.87,3.08-.76,1,1.45-.84,2.1-1.81,2.77q-3.9,2.73-7.92,5.3c-11.12,7.06-22.24,14.14-33.44,21.08-2.11,1.31-2.49,2.3-.88,4.28a52.89,52.89,0,0,1,4.36,6.42c.83,1.4,1.55,1.71,3,.87,5.84-3.29,11.71-6.53,17.64-9.65,1.78-.93,1.62-1.8.8-3.29-1.19-2.15-2.16-4.43-3.15-6.69a1.49,1.49,0,0,1,.93-2.26c1.09-.3,1.22.62,1.56,1.42,1,2.26,2.13,4.44,3.13,6.69.63,1.4,1.35,1.61,2.71.82q7.94-4.59,16-9c1.5-.82,1.7-1.61.77-3-1.21-1.86-2.27-3.84-3.33-5.81-.4-.74-.61-1.65.41-2.1.82-.35,1.32.34,1.67.94,1.1,1.81,2.22,3.61,3.17,5.5s1.87,1.94,3.56.89c5.39-3.36,10.85-6.59,16.31-9.84,1.76-1.05,3.59-1.93,2.46-4.56a1.35,1.35,0,0,1,.83-1.75,1.11,1.11,0,0,1,1.55,1c.44,2.39,1.62,1.31,2.72.62,4.6-2.84,9.19-5.71,13.81-8.53,1-.58,2.35-1.72,3.08-.45s-1,1.86-1.94,2.45c-4.77,3-9.53,6-14.39,8.93-1.55.92-1.81,1.76-1,3.33,1.6,3,3.17,6.05,4.49,9.19,1,2.22,2,2,3.72.93,4.62-2.82,9.31-5.52,14-8.15,1.79-1,2.37-1.8,1-3.7a57.26,57.26,0,0,1-4.16-6.95c-.48-.87-1.16-2.11.28-2.71,1.21-.49,1.46.73,1.93,1.53,1.42,2.44,3,4.82,4.34,7.27.82,1.42,1.6,1.66,3,.69,3.53-2.33,7.19-4.48,10.77-6.73,4.89-3.06,4.88-3.07,2.41-8.09-.15-.32-.31-.64-.46-.95-.38-.82-.53-1.65.42-2.13.76-.39,1.34.12,1.76.73a10.94,10.94,0,0,1,.9,1.51c1.26,2.72,2.55,5.22,5.88,2,.44-.42,1.34-.81,1.9-.09a1.11,1.11,0,0,1-.61,1.72c-5.09,2-2.22,4.71-.75,7.3a41.58,41.58,0,0,1,2.32,3.95c1,2.32,2.1,2.45,4.18,1.07,10.49-7,21.08-13.76,31.63-20.64,2.36-1.54,4.66-3.18,7-4.73.64-.42,1.49-1.17,2.12-.17s-.35,1.49-1,2a24.7,24.7,0,0,1-2.32,1.62q-16.65,11-33.32,21.9c-5.14,3.35-5.19,3.28-2.56,8.88.07.17,0,.43-.08.77a4.34,4.34,0,0,1-3.43-2.06c-1.57-2.91-3.12-1.89-5.24-.6q-23.07,14-46.28,27.78c-2.69,1.6-5.37,3.39-8.91,3.44,1.11-1.92,3-2.51,4.53-3.45,10.7-6.38,21.45-12.7,32.14-19.12,1-.57,2.59-.64,2.5-2.38,3.83-.36,6.38-3.24,9.52-4.93,2.87-1.55,7.09-3,7.86-5.42.88-2.77-3-5.7-4.35-8.76-.94-2-1.94-2.43-3.93-1-3.45,2.42-7.09,4.57-10.68,6.8-4.68,2.91-4.6,2.83-1.38,7.49C1289.29,340.49,1291.81,341.74,1291.09,344.59ZM37.47,359.52c1.15.41,2-.39,2.91-.81a456.11,456.11,0,0,0,67-38.35c5-3.49,10-7.12,15-10.52,2.17-1.45,4.47-2.88,7.37-3.18-.49,1.68-1.7,2.51-2.67,3.49-6.33,6.41-13.72,11.49-21.15,16.46C82.78,342.13,58.64,356,32.72,366.66c-2.19.9-4.66,2.66-4.06,5A56.92,56.92,0,0,1,30,379l3.94-2.47,46.65-29.28c2.2-1.38,4.47-2.67,7.13-2.89a2.09,2.09,0,0,1,1.55.53c.48.58-.21,1.11-.59,1.43a40.42,40.42,0,0,1-4.18,3.22C66.64,360.73,48.82,372,30.92,383.08c-3.36,2.08-6.39,4.38-8.55,7.7-.89,1.37-3.29,2.64-1.65,4.42,1.4,1.52,3-.5,4.27-1.22,20.93-11.8,40.89-25.16,61.1-38.12,25.28-16.19,50.48-32.49,75.14-49.62a48.39,48.39,0,0,1,14.84-7.43c-3.92,5-8.42,8.4-13.06,11.63-15.66,10.89-31.45,21.59-47.55,31.8-31,19.64-61.17,40.66-93.47,58.24a3.64,3.64,0,0,0-2.32,3.57c7.83-3.95,15.38-7.7,22.88-11.56,33.88-17.42,65.79-38,97.49-59.09,24.11-16,45.41-35.1,66.05-55.11.49-.48.89-1.05,1.36-1.6-1.26-1.28-2.82-1.47-4.24-1.88a287.58,287.58,0,0,0-37.64-7.88c-4-.6-7.93-1.08-11.88-1.7-1.55-.25-3-.85-3.41-2.63s.86-2.63,2.19-3.57a12.72,12.72,0,0,1,5.86-2.1c16.74-2.48,33.7-4,49.26-11.61,2.42-1.19,2.89-1.73,1.19-4.1a621.64,621.64,0,0,0-62.53-73.69C112.23,133,73,106,30.9,82.68c-.88-.49-1.72-1.29-2.88-1.06-1.09,4.31-1.7,3.51,2.46,5.36,6.56,2.91,13.36,5.42,19.3,9.48,19.33,13.23,38.41,26.83,56.5,41.74,22.14,18.26,41.5,39.35,61.27,60a18,18,0,0,1,2.36,3.07c.38.63,1.12,1.43.46,2.24s-1.71.55-2.61.25c-2.59-.85-4.23-2.92-6-4.78-14.88-15.58-29.68-31.24-45.44-45.95-18-16.76-38.27-30.51-57.8-45.27-10-7.51-20.93-13.08-32.43-17.72-.5-.21-1-.6-1.59.21,1,1.78,2.42,3.51,3,5.48,1,3.43,3.5,4.94,6.33,6.54,11.88,6.72,23.68,13.58,35.48,20.44,2,1.14,3.94,2.39,4.55,5-3.61.57-6.46-.91-9.21-2.48-11.35-6.48-22.65-13-34-19.55a12.32,12.32,0,0,0-2.52-1.25c-1.05-.32-1.92.42-1.11,1.24,3.1,3.17,5.17,7.48,9.4,9.39,25,11.23,48.16,25.69,72,39.06a14.51,14.51,0,0,1,5.29,4.84c-4.56.44-7.94-1.51-11.3-3.4-19-10.65-37.76-21.67-57.14-31.63-1.61-.83-3.27-1.59-5.19-2.52.17,2.51.93,4.71-.55,6.32-1.82,2-.87,3.22.59,4.68a13.46,13.46,0,0,0,3.8,2.5c35.85,17.38,69.76,38.18,103.93,58.54A26.11,26.11,0,0,1,154,198.4a8,8,0,0,1-3.79-.4,57.12,57.12,0,0,1-13.7-6.42C112.26,177.16,88,162.75,63.08,149.39c-5.16-2.77-10.39-5.41-15.83-8.24-.09,1.68.27,3.2-.31,4.14-1.64,2.69.08,4.13,1.62,5.76,3.38,3.6,7.48,6.77,10,10.91C63.42,170,71,173.37,79,176.89c18.3,8.06,36.43,16.53,54.6,24.89a25.83,25.83,0,0,1,8.66,6.23c-5.84-.4-10.45-2.4-15-4.48L68.44,176.86c-1.18-.53-2.36-1.05-3.56-1.54-1.62-.66-2.88.4-3.77,1.31s.46,1.84,1.07,2.51c2.43,2.72,4.94,5.38,7.5,8,1.65,1.68,3,4.46,6.13,2.12.37-.28,1.36.13,2,.37,14.21,5.31,28.43,10.61,42.94,15.07,2.28.7,4.54,1.65,5.86,4.21-17.49-1.3-32.92-9.8-50-14.73,1.58,2.26,3.13,4,2.87,6.19-.24,2,.62,2.63,2.32,3.14,11,3.3,21.86,7.31,32.67,11.31q19.85,7.36,39.64,14.89c2.94,1.12,5.9,2.31,8.49,5.1-5.44.18-9.91-1.2-14.34-2.81-21.89-7.94-43.45-16.79-65.66-23.85-2.31-.73-4.65-1.35-7-2,2.9,4.45,5.3,8.76,11,10.28,12.15,3.27,24,7.42,35.9,11.67a17.28,17.28,0,0,1,5.06,2.44c.59.46,1.62.86,1.22,1.84-.27.67-1.15.7-1.87.74a16.21,16.21,0,0,1-6.19-1.21Q104.09,226.38,87.49,221c-1.07-.35-2.64-1.37-3.25-.32-1,1.72-2.34,3.19-3.29,4.91-.11.21.3.88.63,1.15,2.12,1.72,3.86,3.75,6.94,4.29,17,3,34,6.19,51,9.39,2.36.44,4.92.69,6.38,3.15-1.46,1.35-3.16,1.21-4.76,1-2.69-.27-5.38-.65-8-1.15-14.11-2.64-28.2-5.34-42.3-8-1-.2-2.45-1.07-3,.67-.38,1.26-1.25,2.91.69,3.65,3.08,1.18,4.91,3.93,7.5,5.74a13.15,13.15,0,0,0,8.2,2.5c8-.13,16-.05,24,0,2.81,0,5.57.18,8,2.29a12.24,12.24,0,0,1-6.16,2,112.62,112.62,0,0,1-20.11.27c-8.47-.7-14.62,3.85-21.07,8-1.87,1.21-.72,2.85-.42,4.15.35,1.58,1.76.55,2.66.41,8.14-1.27,16.21-2.87,24.25-4.68,2.15-.49,5.25-1.09,5.86,1.27.47,1.77-2.7,2.51-4.57,3-6.8,1.91-13.77,3-20.71,4.34-7.23,1.35-14.66,1.8-21,6.53-2.47,1.85-1.4,3.16-.81,4.94.83,2.49,2.42.76,3.41.42,17-5.82,34.16-11.4,50.7-18.56a17.69,17.69,0,0,1,4.05-1.15c1.11-.18,2.7-.47,3.21.67.6,1.32-1,2-1.87,2.57A32.06,32.06,0,0,1,129,267c-17.65,7.54-35.87,13.55-54,19.72-5.43,1.85-8.52,6.56-13,10.19,2.14,1,3.17-.11,4.29-.57,19.47-8.05,39.3-15.14,59-22.64,2.4-.92,4.94-1.87,7.93-1-2.74,3.83-6.6,5.34-10.41,6.81C107,285.55,91.34,292,75.28,297.39c-8.09,2.71-13.09,8.55-18.8,13.92-.63.59-1.12,1.2-.49,2.13a1.5,1.5,0,0,0,2.1.63c.75-.33,1.53-.6,2.3-.91,14.86-5.93,29.69-11.92,44.19-18.71,2.34-1.09,4.72-2.3,7.89-1.67-1.88,3.25-4.55,4.68-7.31,6-14.69,6.91-29.77,12.93-44.84,19-1.18.47-2.73.55-3.3,1.84-2,4.59-6.2,6.95-9.93,9.79-.83.64-2,1.09-2.23,2.93,1.79-.79,3.17-1.37,4.53-2,24.39-11,47.71-24,71.24-36.66,10.26-5.51,20.43-11.19,30.66-16.76,3.13-1.7,6.3-3.41,10.51-3a19,19,0,0,1-6.54,5.78c-4.49,2.59-9,5.16-13.55,7.61C111.56,303.46,82,320.77,50.54,334.49c-6.78,3-9.34,9-14.47,13.49,2,.6,3.07-.32,4.2-.8a274.68,274.68,0,0,0,26.22-13.06C87.2,322.45,107.94,310.83,128,298c2.4-1.54,4.87-3.2,8.37-2.37-1.47,2.87-3.76,4.52-6.11,6-6.56,4.16-13.09,8.38-19.8,12.27-22.08,12.83-43.72,26.49-67.22,36.64C38.67,352.49,36.87,354.89,37.47,359.52ZM837.63,37.06a73.33,73.33,0,0,1-21.14,2.29c-14.46-.83-28.93-1.25-43.41-.7-5.26.2-6.85,1.33-8.86,6.51h25a102.67,102.67,0,0,1-23.62,4c-1.18.06-3-.37-3.22,1.39-.49,3.32-2.72,5.92-3.67,9.66,86-19.41,172.84-28.9,260.48-32.25a35.74,35.74,0,0,0-7-1.06c-16-.86-32-1.82-47.9-3.45-3.26-.34-6.54-1-9.85-.47-10.39,1.54-20.78,2.41-31.22.26-4.38-.9-8.82-1.46-13.25-2.09-14.46-2.05-29-2.7-43.57-4.12-12.76-1.25-25.46-3.09-38.34-2.91-25.08.34-50.11,2-75.16,3-2.82.11-5.63.48-8.85.76,2.42,2.37,4.91,2.17,7.35,2,15.26-1.26,30.54-2,45.84-2.45a461.73,461.73,0,0,1,50.46.86c17.14,1.34,34.09,4.16,51.16,6.1,4.84.55,9.76.77,14.49,2.25-5.53.22-10.9,1.9-16.52,1.12-13.05-1.82-26.11-3.55-39.2-5.06-31.13-3.58-62.3-2.16-93.46-.5-3.09.16-6.17.46-9.53.72,5.41,5.35,11.68,4.22,17.85,3.81a612.73,612.73,0,0,1,96.65,1.18c5.13.47,10.23,1.23,15.34,1.86-5,1.52-10,2.47-15.09,1.95A599,599,0,0,0,777,29.78c-3.33.18-6.66.5-9.88.75.45,4.45,3,4.93,6.63,4.76C795.08,34.3,816.35,35.76,837.63,37.06Zm44.12,373.42c-1.24-.3-2.48-.62-3.73-.88-16.23-3.47-32.56-6.52-48.56-10.94a24.06,24.06,0,0,0-14,.45C789.09,407,762.78,415,737.64,426.37c-1.56.7-4,1.87-4.77,0-.85-2,1.9-2.43,3.36-3.08A511.59,511.59,0,0,1,811,397.07c1.25-.34,2.84-.26,3.61-1.74-7-2.75-13.78-3.93-21.24-1.28-8.85,3.13-18.11,5.06-26.93,8.38-7.81,2.94-15.59,6-23.4,8.92-1.31.5-3.09,1.08-3.67-.64-.51-1.52,1.21-2,2.42-2.45,15.66-6.14,31.26-12.42,47.61-16.56,1.41-.36,2.8-.81,4.2-1.22-6.33-1-11.74-5.16-19-2.12-9.58,4-19.78,6.66-29.59,10.23-1.58.58-2.35,1.72-3.3,3-9.16,11.81-11.21,26.48-16.18,40,0,.13.18.37.27.54C778,432.41,828.75,416,881.75,410.48ZM365.08,262.37c-1.61-2.67-2.85-4.65-4-6.67-3.56-6.09-7.07-12.2-10.66-18.27-.46-.77-.81-2.53-2.16-1.57a31.49,31.49,0,0,0-6.32,5.57c-1.28,1.6,1,3.11,1.36,4.76.17.8.58,1.56.69,2.36.16,1.22.74,2.8-.7,3.44-1.2.53-2-.85-3-1.5-1.7-1.18-1.35-4.72-3.75-4.35-1.83.29-3.37,2.41-5,3.7a5.62,5.62,0,0,1-.87.6c-1.7.92-3.63,1.92-5-.06s.21-3.32,1.53-4.5c1.84-1.64,3.76-3.21,5.73-4.69,2.48-1.88.32-3.37-.45-4.79-1-1.83-2-.13-2.77.42-2.23,1.53-4.26,3.35-6.54,4.8-2.08,1.33-2.1,2.64-.87,4.6s2.64,4.21,2.57,6.83c-.06,2.27-1.16,2.68-2.94,1.51s-2.25-3-3.29-4.51c-.71-1.06-.83-3.35-2.51-2.76a12.69,12.69,0,0,0-5.74,3.72c-1.32,1.72,3.18,7.63,5.53,7.67,9.89.15,19.73.93,29.57,1.87C351.82,261.16,358.23,261.73,365.08,262.37Zm766.65,114.54c-3.6-1.39-5.29-4.1-7.12-6.55-1.21-1.63-2.23-1.95-4-.81-4,2.51-8,4.85-12.15,7.13-1.74,1-2.11,1.73-.67,3.37,2.55,2.91,5,5.94,7.27,9.07,1.28,1.76,2.36,1.72,4.07.7,6.55-3.92,13.17-7.7,19.76-11.56,6.29-3.68,6.28-3.69,2.22-9.75-5.6-8.35-5.57-8.3-14.11-2.72-1.47,1-1.66,1.46-.54,2.84C1128.37,371,1130.59,373.31,1131.73,376.91ZM554.48,124.78c-.76-.14-1.51-.34-2.28-.41-10.77-.94-21.58-2-32.1-4.4-6.27-1.45-10.88-1-14.63,4.8-2,3.13-5.67,5.06-8.31,8.7,10.5.77,20.41,1.64,30.35,2.15,2.85.14,5.49-1.36,8.52-3.27-8.89-.77-17-1.48-25.21-2.22-1.26-.11-3-.08-2.92-1.82.08-2,1.88-1.75,3.27-1.64,9.49.77,19,1.31,28.45,2.49C545.31,129.87,549.7,127.23,554.48,124.78Zm-61.72,169.7c5.94,1.81,11.89,3.59,17.81,5.44a3.29,3.29,0,0,0,3.29-.52c3.24-2.51,6.5-5,9.79-7.48,1.11-.83,1.47-1.58.67-2.92-2-3.31-3.85-6.72-5.76-10.08-.47-.83-1.06-1.93-2.08-.86-2.78,2.89-7.69,3.46-8.79,8.13-.18.75-.69.57-1,.33-1.43-1-2.16.32-3,.91C500.15,289.75,496.94,292.51,492.76,294.48Zm403,76a5.17,5.17,0,0,0-.28-.64c-2.73-4.25-5.48-8.48-8.19-12.74-.58-.9-1.13-.94-2-.36-4.6,3.05-9.21,6.09-13.86,9.05-1.23.78-1.16,1.5-.47,2.56,2.45,3.73,4.89,7.47,7.25,11.25.81,1.29,1.59,1.42,2.86.63,4.49-2.77,9-5.46,13.55-8.2C895.2,371.65,896,371.39,895.76,370.45Zm344.54-13.78c.29-.14.61-.28.92-.45,5.86-3.24,11.7-6.51,17.59-9.71,1.63-.88.89-1.84.37-2.9-1.52-3.05-3.09-6.07-4.49-9.18-.72-1.6-1.29-2.16-3-1.05-5.67,3.57-11.42,7-17.21,10.37-1.56.91-2,1.63-.87,3.22,1.85,2.72,3.51,5.57,5.24,8.37C1239.16,355.93,1239.39,356.64,1240.3,356.67Zm-135,19c.49-.27,1-.54,1.51-.84,4.14-2.43,8.22-5,12.45-7.25,2-1.08,1.66-1.9.51-3.38-2.74-3.51-5.46-7.05-7.9-10.76-1-1.52-1.57-1.46-2.89-.61-4.22,2.74-8.49,5.43-12.81,8-1.57.93-1.87,1.71-.68,3.2,2.7,3.39,5.26,6.89,7.91,10.33C1103.89,375,1104.23,375.91,1105.32,375.71Zm-3.43,1.44a5.66,5.66,0,0,0-.47-.86c-2.89-3.84-5.84-7.64-8.68-11.51-1-1.31-1.75-.64-2.65-.08-4.3,2.63-8.58,5.28-12.9,7.87-1.31.78-1.94,1.41-.76,2.94,2.6,3.32,5.07,6.75,7.49,10.2.93,1.32,1.73,1.53,3.16.67,4.41-2.67,8.91-5.19,13.35-7.81C1101,378.25,1101.81,378.1,1101.89,377.15Zm-85.49,3.55a4.37,4.37,0,0,0-.32-.65c-2.36-3.5-4.76-7-7.09-10.49-.92-1.38-1.79-.61-2.68-.08-4.72,2.83-9.42,5.7-14.17,8.5-1.25.74-1.63,1.37-.68,2.7,2.25,3.15,4.4,6.37,6.5,9.62.79,1.21,1.44,1.55,2.79.69,4.74-3,9.57-5.9,14.36-8.87C1015.65,381.79,1016.49,381.63,1016.4,380.7Zm200.21-11.18c6.62-3.57,12.87-7,19.2-10.3,1.68-.88,1.47-1.7.63-3-1.72-2.65-3.43-5.31-5-8.07-.92-1.64-1.78-1.64-3.29-.75q-7.74,4.52-15.62,8.76c-1.66.89-1.82,1.66-.85,3.22C1213.61,362.44,1216.09,365.23,1216.61,369.52ZM968,351.43c-.21.1-.43.18-.64.3l-12.27,6.91c-1.34.76-.5,1.55,0,2.3,2.42,3.75,4.89,7.46,7.26,11.24.79,1.26,1.53,1.46,2.83.66,3.49-2.16,7-4.25,10.63-6.23,1.64-.91,1.81-1.67.68-3.22-2.48-3.42-4.76-7-7.11-10.49C969,352.34,968.74,351.62,968,351.43Zm507.83-238a8.21,8.21,0,0,0-1.29-1c-5.23-2.14-10.44-4.3-15.71-6.35-3-1.17-5.61-3-9,.56-2.37,2.55-6.62,3.35-10,4.91-4.54,2.08-4.16,1-2,5.5,1.1,2.26,2.31,2.53,4.34,1.36a38.3,38.3,0,0,1,4.19-1.85c2.36-1,5.18-1.64,2.76-5.22a1.65,1.65,0,0,1,.6-2.46,1.56,1.56,0,0,1,2.32.92c1.19,4.12,3.49,3,6,1.45a15.18,15.18,0,0,1,2.23-1.06c.83-.32,1.71-.35,2.21.49.63,1,0,1.84-.87,2.34a29,29,0,0,1-4.06,2.11c-1.76.71-2.14,1.5-1.33,3.42,1.1,2.6,2.29,3.61,4.87,1.84,1.92-1.32,4.93-1.17,5.55-4.26a1.09,1.09,0,0,1,1.43-.72C1471.12,117,1473,114.37,1475.79,113.46ZM1006.54,366.07c-.47-.71-1-1.5-1.49-2.27-1.87-2.67-3.31-6.9-5.76-7.6-2.74-.78-5.81,2.71-8.68,4.43s-8.08,2.94-8.27,5.69,3.55,6,5.49,9c.85,1.34,1.59,1.66,3.07.73,4.65-2.94,9.4-5.71,14.11-8.55C1005.59,367.19,1006.29,367,1006.54,366.07Zm48-320.1c-5.68.35-10.46-.8-15.21.68-2.23.69-2.42,1.59-1.07,3.42,2.1,2.83,3.93,5.86,6,8.72,4.14,5.74,2.08,5,8.65,2.28,1.92-.81,3.08-1.53,1.31-3.66-.83-1-1.32-2.47,0-3.46,1.5-1.1,2.85-.16,3.54,1.12,1.52,2.85,3.44,2.57,5.76,1.19a24.25,24.25,0,0,1,2.89-1.3c4.11-1.83,4.14-2.32,1.17-5.73-1.08-1.25-2-.81-3.1-.46-3.13,1-6.24,2.08-9.39,3a6.85,6.85,0,0,1-5.93-.7C1050,48.72,1052.29,48.1,1054.52,46ZM735.16,14c34.15-1.08,68.25-3.45,102.43-3.76C803.34,8.63,769.08,6.32,735.16,14ZM741,378.79c5,4.41,6.28,9.52,4.58,15.86,9.33-3.45,17.88-6.88,26.76-9.71-7.31-2.49-14.63-4.44-21.85-6.73C747.33,377.22,744.53,377.75,741,378.79Zm205.56,4.35c-.38-.64-.74-1.24-1.11-1.84-1.49-2.38-3-4.77-4.49-7.15-3.56-5.66-3.56-5.66-9.46-2.36-6.56,3.67-6.64,3.73-2.29,9.86,2,2.87,3.27,7.79,6.47,7.94s6.28-3.2,9.42-5A4.51,4.51,0,0,0,946,384,4.43,4.43,0,0,0,946.54,383.14Zm4.5-22.26c-1.73.95-3.68,2-5.61,3.08-5.93,3.31-5.95,3.33-2.3,9,1.94,3,4,6,6,9l9.76-5.54c.11-.06.19-.14.3-.19,1.64-.73,1.93-1.64.82-3.23-2.42-3.46-4.64-7.05-7-10.57C952.6,361.85,952.34,361,951,360.88Zm120.13,34.63c3.28-1.9,7.17-4.08,11-6.42,1-.6.09-1.45-.38-2.09-2.49-3.41-5-6.81-7.48-10.25-.8-1.11-1.49-1.59-2.85-.7-3,1.93-6,3.75-9,5.49-1.37.78-1.47,1.46-.57,2.72,2.45,3.44,4.77,7,7.18,10.45C1069.36,395.23,1069.53,396.15,1071.17,395.51Zm-84.72-17.42a6.65,6.65,0,0,0-.38-.68c-2.06-3-4.14-6-6.2-9-.63-.91-1.32-.74-2.12-.27-3.84,2.27-7.66,4.56-11.54,6.76-1.24.71-1.25,1.36-.55,2.5,1.72,2.79,3.35,5.65,4.93,8.53.65,1.18,1.24,1.43,2.46.68,4.11-2.5,8.29-4.89,12.42-7.36C985.9,379,986.58,378.8,986.45,378.09Zm-78.9,4.68c.33-.16.65-.31,1-.48,3.86-2.23,7.69-4.49,11.57-6.67,1.13-.64,1.1-1.27.44-2.23-2-2.9-3.94-5.82-5.84-8.78-.7-1.09-1.38-1.36-2.53-.65-3.59,2.23-7.19,4.43-10.83,6.55-1.33.78-1.47,1.5-.61,2.76,1.86,2.71,3.57,5.51,5.36,8.26C906.42,382.09,906.66,382.84,907.55,382.77ZM1268.17,55.55c0-.28,0-.57,0-.85-7-.69-13.72-3.66-21-1.8-3.86,1-7.74,1.87-11.59,2.91-7.08,1.9-7.15,2.25-2,7.6.16.17.29.38.46.53,1.76,1.46,3.32-.15,5-.36,1.18-.15,1.56-.76,1.59-2.15.06-2.84,1.89-3.58,4.2-1.73,1.28,1,2.32,1.64,4,1.14C1255.28,59,1261.73,57.3,1268.17,55.55Zm149,36.38-27.69-8.43c-.54-.16-1.28-.33-1.42.48-.39,2.27-2.34,2.88-4,3.59-2.35,1-2.39,2.15-1.22,4.25,2.38,4.27,2.25,4.34,6.51,2.27.63-.31,1.28-.59,1.9-.9,1.43-.72,3-1.11,2.19-3.51-.43-1.25,1.11-2.6,2.11-1.61,1.88,1.84,3.38,1,5.18.31a1.64,1.64,0,0,1,1.42,3c-4.63,1.81-1.46,4.24-.6,6.5.7,1.86,1.65,1.85,3.5,1.2,4-1.42,6.29-6.11,11.13-6C1416.39,93.08,1416.61,92.58,1417.15,91.93ZM1030.41,372.29a5.16,5.16,0,0,0-.35-.76q-3.64-5.82-7.32-11.62c-3.91,1.31-7,4.1-10.55,6-.21.11-.4.25-.6.37a1.08,1.08,0,0,0-.41,1.75l7.86,11.24c3.72-1.22,6.64-3.85,10-5.65a3.46,3.46,0,0,0,.87-.6A3.58,3.58,0,0,0,1030.41,372.29ZM718.86,70.4C704.62,67,691,64.48,677.41,62.17c-2.88-.49-2.56,1.43-3.15,3-.73,1.91,0,2.41,1.82,2.66,10.22,1.42,20.45,2.76,30.62,4.47C710.89,73,714.48,71.67,718.86,70.4Zm241.88-21,.28.88c5.74-.31,11.85.52,17.13-1.19,9.73-3.16,19.13-7.45,30-10.72a14,14,0,0,0-2.26-.48q-11.08.72-22.15,1.47c-.82,0-1.73,0-2.12.94-.85,2-2.69,2-4.37,2.5C971.46,44.43,966.11,47,960.74,49.43ZM924.13,373.09a3.49,3.49,0,0,0,.67-.21L935.17,367c1.18-.67.38-1.4,0-2-1.9-3.09-3.88-6.13-5.77-9.22-.67-1.11-1.32-1.44-2.53-.68q-4.74,3-9.61,5.79c-1.33.77-1,1.54-.34,2.54,1.9,2.8,3.75,5.65,5.65,8.46C922.94,372.44,923.25,373.16,924.13,373.09Zm17.22-26.72c-3.19,1.95-6.62,4-10,6.14-.8.51-.3,1.24.07,1.84,2,3.19,4,6.37,6,9.59.61,1,1.2,1.21,2.24.59,3.42-2,6.89-4,10.34-6-1.19-3.37-3.71-5.92-5.44-9a24.59,24.59,0,0,0-1.55-2.36C942.66,346.73,942.36,346.16,941.35,346.37ZM474.41,197.54c-.47-.75-1-1.64-1.6-2.51-4.8-7.23-4.8-7.23-11.37-1.84-6.83,5.6-6.77,5.56-2.05,13.16,1,1.68,1.78,1.69,3.22.6,3.44-2.63,7-5.12,10.48-7.7C473.63,198.86,474.37,198.59,474.41,197.54ZM1152.14,51.4c0-.29,0-.57-.05-.85-4.53-.29-9.13-.19-13.59-.94-8.92-1.52-16.91,1.16-24.82,4.64-.63.28-1.56.41-1.55,1.21a1.61,1.61,0,0,0,1.64,1.54c3.45-.23,7.13,1.91,10.35-1.07,1-.93,2.25-.4,3.17.48,2.92,2.75,6.24,1.94,9.56,1.12,1.34-.33,2.09-.94,1.2-2.48-.78-1.34-.88-2.79.72-3.64a2.29,2.29,0,0,1,3.23,1.27c1.1,2.16,2.52,2,4.34,1.1S1150.2,52.18,1152.14,51.4Zm31.07,317.87-3.2-4.8c-3.81-5.65-3.83-5.68-9.42-2.21-2.56,1.58-7,2.71-7.14,4.93-.16,2.52,3,5.25,4.79,7.88.06.1.13.2.18.3.7,1.3,1.57,1.44,2.87.7,3.47-2,7-3.8,10.5-5.72A11.14,11.14,0,0,0,1183.21,369.27ZM486.53,303.1c-6.47-4.11-12.16-3.52-17.65.71a17.55,17.55,0,0,1-4.28,2.42,12.45,12.45,0,0,0-8.14,8.85c-.41,1.63-2.4,3.58-1.12,4.73,1.43,1.28,3.47-.54,5.08-1.34.88-.43,2.94-.68,2.14-2.1-1.63-2.92.65-3.17,2.23-3.9C471.88,309.18,479,305.88,486.53,303.1ZM969.9,387.71l-.57-.82-7.05-9.49L952.52,383a3,3,0,0,1-.3.19c-1.73.76-1.76,1.76-.74,3.27a83.33,83.33,0,0,1,4.55,7.51c.78,1.48,1.54,1.4,2.75.71,3.26-1.85,6.57-3.62,9.82-5.46C969.14,388.86,970,388.72,969.9,387.71ZM1358.51,75c1.52,5.72,1.58,5.74,5.29,3.12.91-.65,2-1,2.92-.2s.82,2.16-.13,3.11a14.25,14.25,0,0,1-2.47,2,1.94,1.94,0,0,0-.94,2.84c2.93,7.4,2.87,7.43,9.71,3.89l.61-.33c1.59-.87,3.53-1.28,2.73-4-.39-1.31,1.23-2.5,2.2-1.41,3.15,3.53,4.61-.27,6.86-1.71ZM889,53.72c15.45,2.24,28-4.91,41.11-10.47-10,.29-19.85,1.38-29.7,2.65-.7.09-1.57.18-1.46,1.13.38,3.35-2.22,3.65-4.38,4.46C892.83,52.14,891.12,52.87,889,53.72ZM627.27,98.28a24.36,24.36,0,0,0-2.44-.67c-7.43-1-14.87-2-22.3-3C598,94,593.5,93.23,589,92.5c-3.33-.54-3.71,2.45-4.11,4.2-.43,2,2,1.31,3.13,1.43,8.63.88,17.31,1.35,25.89,2.53C618.47,101.29,622.43,100.38,627.27,98.28ZM379.75,240.93c.47-.36,1.05-.76,1.59-1.2,1.93-1.55,3.84-3.11,5.76-4.67,6.13-4.94,6.13-4.94,2.68-12a2.22,2.22,0,0,1-.14-.32c-.5-1.52-1.24-1.75-2.51-.66-2.42,2.06-4.93,4-7.39,6-6.06,5-6.05,5-1.59,11.44C378.55,240.08,378.77,240.81,379.75,240.93ZM762.28,69.54c-13.52,1.23-34.85,10.37-40.43,16.76C737.36,86.37,749.45,77,762.28,69.54ZM499.7,187l14.1-10.71c1.49-1.14,3.58-2,4.3-3.51s-1.81-2.82-2.06-4.7-1.28-1.82-2.67-.79c-3.57,2.65-7.31,5.09-10.79,7.86-2,1.56-5.55,2-5.79,4.45C496.58,181.87,498.55,184.33,499.7,187Zm-88.3,33c-1-1.94-1.82-3.48-2.63-5-4-7.44-4-7.44-10.55-2-5.5,4.52-5.38,4.47-2.79,10.94,1.14,2.84,2,3.18,4.58,1.26C403.25,222.76,406.09,219.16,411.4,220.06ZM964.09,40.72q-11.65.78-23.32,1.56c-.7,0-1.07.42-.89,1.16.78,3.2-1.56,3.71-3.74,4.4-1.69.52-3.39,1-5,1.67s-3.4.92-4.59,2C940.69,53.9,952.31,47.23,964.09,40.72ZM1504.57,236.4a114.87,114.87,0,0,1,21.69,2.37,2,2,0,0,0,1.56-.57,136.51,136.51,0,0,1,16.64-14c-2.11-.7-3.14.34-4.19,1.24-2.67,2.31-5.3,4.66-8,6.95-1.64,1.39-3.58,3.08-5.53,1s.13-3.77,1.55-5.29c.88-.94,2.23-1.49,2.68-3-1.91-.27-2.86.83-3.93,1.71-3.09,2.54-6.12,5.15-9.31,7.55-1.47,1.1-3.39,1.62-4.73-.17s0-3.06,1.1-4.33,2.66-1.71,3.73-4.19C1511.73,228.13,1508.62,232.73,1504.57,236.4ZM1023.41,53.56c2.6,2.09,2.72,7,8.07,5.37,1.87-.57,3.27,2.15,1.76,3.6-2.82,2.73.25,3.86,1.16,5.47,1.21,2.13,2.64.26,3.92-.16,1-.33,1.89-1,2.87-1.34,1.48-.56,1.69-1.3.73-2.6-1.82-2.47-3.52-5-5.25-7.53C1031.69,49.08,1031.69,49.07,1023.41,53.56Zm487,76.84c-4.75-3.88-9.42-5.47-15.51-2s-6.17,2.83-3,9.08c.88,1.75,1.68,1.76,3.21,1,4.56-2.31,9.19-4.5,13.79-6.75C1509.46,131.39,1510.18,131.19,1510.38,130.4ZM299.53,258.71c8.2-.13,8.2-.13,5-7.58l-.57-1.3c-2.51-5.57-2.51-5.57-7.3-2.09-1.62,1.17-3.26,2.32-4.86,3.52-.62.45-1.39.73-1.26,1.86.4,3.65,2.54,5.63,6.2,5.59Zm1224.63-120.1-8.39-5.33a2.12,2.12,0,0,0-2.31-.07c-2.5,1.29-5,2.56-7.56,3.75-1.44.68-1.52,1.62-.83,2.84,1.26,2.24,1,5.27,3.48,6.87.17.11.64-.22,1-.37C1514.25,144,1519.11,141.93,1524.16,138.61ZM667.69,76.74c17.76,2.67,25.17,2.31,32.4-1.63-9.2-1.32-18.09-2.57-27-3.89a1.89,1.89,0,0,0-2,1C670.07,73.6,669,75,667.69,76.74Zm181-19.08c9.72,1.46,32.69-4.52,38.76-10.08-4.08.51-8,1.4-12,1.41-9.53,0-17.29,5.48-26,8C849.22,57.05,849,57.37,848.7,57.66Zm-463,156.27c-.12-2.71-2.33-4.93-3.9-3.84-4.72,3.28-9.36,6.67-14.07,10-1.27.89-1.34,1.71-.39,2.85a19.89,19.89,0,0,1,2,2.89c.93,1.64,1.82,1.27,3,.25,3.93-3.34,7.94-6.59,11.92-9.88C385,215.57,385.92,215.09,385.71,213.93Zm140.46,101c-4.09-2.07-6.9-2.33-10.88-.65C506,318.2,496.18,321,487,325.69c1.17,2.16,3,1.39,4.64,1C503.37,324.13,513.93,318.19,526.17,314.9Zm815-244.25c2.73,5.51,5.11,10.09,7.27,14.76.89,1.94,1.71,1.93,3.41.94,5.43-3.14,5.46-3.07,3.2-8.95a5.53,5.53,0,0,1-.54-2c0-1.22-.61-1.66-1.63-1.9ZM976.86,57.29c-3.36-.25-6.27,1.69-9.34,3.09-.61.27-1.46.62-.65,1.47q3.39,3.58,6.86,7.06c.62.62,1.32.13,1.95-.17,2.76-1.29,5.53-2.56,8.27-3.9.53-.26,1.36-.33,1.15-1.4C984.61,61,979.83,57.22,976.86,57.29Zm553.32,103.33c-.2-.49-.37-.8-.47-1.13-.42-1.3-2.25-2.9-.08-3.83,1.87-.81,2.44,1.32,3.09,2.6.52,1,1,1.48,2.14.87,2.69-1.41,5.42-2.75,8.14-4.11,1-.47,1.06-.92.35-1.84-3-3.81-5.29-4.32-9.62-2.05-2.49,1.3-5,2.52-7.55,3.74-4.7,2.27-4.72,2.26-2.51,7,.38.83.42,2.41,2,1.52S1529.34,162.5,1530.18,160.62ZM513.76,311.17c-3-1.24-5.61-3-7.85-2.07-6.7,2.83-13.76,4.62-20.41,7.54-3.76,1.64-3.73,1.51-1.26,4.71.88,1.16,1.3,1.46,2.62.4s3.13-1.55,4.73-2.26C498.61,316.34,505.89,313.88,513.76,311.17Zm57.59-169a3.44,3.44,0,0,0-.84.34c-2.47,1.79-5.53,3.18-7.17,5.55-1.07,1.55,1.68,3.8,2.35,5.89.25.79.66,1.52.92,2.3.47,1.45,1.17,1.46,2.26.54,2.8-2.34,5.66-4.6,8.48-6.92.49-.41,1.25-.72.93-1.65C578.05,147.54,572.15,142.25,571.35,142.2ZM238.7,263l.24.52c3.93-.52,7.87-1,11.8-1.57a3.16,3.16,0,0,0,1.87-.82c3.19-3.88,7.46-6.41,11.48-9.23,1.88-1.32,1.17-2.3.4-3.74-1-1.86-1.94-1-3.05-.22-5.32,3.65-10.65,7.29-16,10.87C243.24,260.28,241,261.61,238.7,263Zm262.2,44.24c-3.41-1.17-6.08-3.08-9.17-2.17a109.66,109.66,0,0,0-19.18,7.68c2.95.52,4.71,3.32,7.17,2.49C486.65,312.89,493.43,310.1,500.9,307.24Zm499-232.54,4.93-2.57c5.75-3,5.65-3,2-8.3-1.35-2-2.56-2.84-4.74-1.34a13.67,13.67,0,0,1-2.23,1c-6.62,3-6.63,3-2.43,8.79C998.14,73.2,998.51,74.45,999.94,74.7Zm552.37,86.76c-.12-.2-.24-.4-.34-.6a5.77,5.77,0,0,0-8.16-2.43c-1.54.83-3.11,1.63-4.68,2.41-4.83,2.42-4.88,2.62-2.61,7.55.54,1.18,1.06,1.67,2.35,1,3.92-2.09,7.89-4.1,11.82-6.17A2.61,2.61,0,0,0,1552.31,161.46ZM502.57,167.92c12.55-9.79,26-17.52,38.68-26.46a53.89,53.89,0,0,0-14.2,6.93c-7.45,4.88-15.27,9.29-22.86,14C502.17,163.66,501.33,165,502.57,167.92Zm17.33-29.07c-8.53-1.59-17-.4-24.85-3.36-.28-.1-.84.31-1.18.59-1.56,1.3-3.1,2.64-4.64,4l.74,1.2C499.79,140.42,510,145,519.9,138.85Zm1014.44,7.42a4.35,4.35,0,0,0-.65-.77c-2.08-1.51-4-3.46-6.33-4.35-1.68-.63-3.08,1.72-4.79,2.4-.86.34-1.61,1-2.49,1.28-2.67.85-3,2.39-1.63,4.65a14.37,14.37,0,0,1,1.09,2.58c.52,1.47,1.34,1.62,2.69.92,3.53-1.83,7.13-3.53,10.68-5.33C1533.47,147.36,1534.29,147.22,1534.34,146.27ZM610.89,339.47c-3.94-.85-6.56-2.92-9.8-1.51-3.76,1.63-7.6,3.08-11.31,4.8-1.28.59-3.69,1-3.31,2.49.45,1.75,2.66,2.47,4.65,2.5a6.51,6.51,0,0,0,2.77-.26C599.28,345,604.61,342.45,610.89,339.47ZM412.53,211.35a18.83,18.83,0,0,1,5.35-6.24c2.27-1.87,4.5-3.8,6.8-5.62,2.57-2-.16-3.26-.73-4.72-.83-2.13-2-.73-3,0-3.53,2.74-7,5.52-10.55,8.29-.82.65-1.8,1.2-1,2.56C410.43,207.33,411.31,209.08,412.53,211.35ZM1434.31,97.59c-3.93-1.28-7-2.31-10.13-3.3-2.24-.7-4.84-2.78-5.86,1.5-.08.34-.69.63-1.11.81-1.27.54-1.41,1.33-.77,2.49.85,1.53,1.64,3.1,2.37,4.69.52,1.14,1.08,1.66,2.39.92C1425.3,102.41,1429.46,100.21,1434.31,97.59Zm15,6.1c-.06-.37-.11-.75-.17-1.12-5.07-1.09-9.6-5.41-15.52-.82-2.77,2.14-3.27,3.33-1.19,5.75.85,1,.72,3.36,3.12,2.28C1440.12,107.73,1444.71,105.72,1449.3,103.69ZM488.13,151.42c-11.75-2.13-22.21-.69-31.57,7.25,8.46,2,12,2.17,15.39-1.23l-3.27-.2c-1.17-.08-2.75,0-2.76-1.49,0-1.76,1.66-1.67,2.94-1.69,2.47,0,4.95-.13,7.41.07A18.22,18.22,0,0,0,488.13,151.42ZM232,250.2c-3.29-.64-6.28-.91-7.85,2.63a2.87,2.87,0,0,1-2.74,1.93c-4.24-.52-7.35,2.07-10.77,3.71-5,2.4-10,4.6-16,6.84,3.35.93,5.44,1.52,8.07.49,8.89-3.52,17.1-8.28,25.3-13.08C229.37,251.92,230.69,251,232,250.2ZM801,97a10,10,0,0,1,1.16-1.6c1.41-1.24,2.81-2.49,4.33-3.58,3.45-2.47,3.54-2.48.4-5.6-1.19-1.19-2.21-3.68-3.88-3.06-3,1.12-6.27,2.68-8,5.34-.85,1.27,2,3,3,4.67a30.9,30.9,0,0,0,1.86,2.56C800.09,96.07,800.4,96.36,801,97Zm444-29.24c-1.2.33-2.21.68-3.25.87-2.53.49-3.08,1.36-1.22,3.55a36.22,36.22,0,0,1,5.76,8.42c.53,1.18,1.3,1.19,2.26.73,1.94-1,4.32-1,5.88-2.72.07-.07-.12-.44-.26-.61-2.67-3.28-5.34-6.57-8-9.81C1245.8,67.89,1245.23,67.86,1244.94,67.76ZM795.53,62.82c-4.69.1-9.14.71-13.21,2.91-4.86,2.62-9.79,5.11-14.58,7.85-1.44.83-4.55,1.15-3.73,3.19,1,2.4,3.7,1,5.66.39,1-.29,2.66-.8,2.73-1.37.59-4.83,4-3.47,7.15-4.41C785.22,69.67,790.24,65.79,795.53,62.82ZM400.89,245.67c-3.17-1.77-3.77-4.76-4.79-7.48-.5-1.35-.94-1.86-2.45-.86-6.6,4.34-6.67,4.4-3.2,11.43a10.43,10.43,0,0,1,.61,1.26c.6,1.86,1.55,1.6,2.84.62C396,249,398.27,247.52,400.89,245.67Zm438.83-191c-18.92,1.71-26.05,3.64-32.53,9.24C818.63,61.27,830.28,62.63,839.72,54.7ZM610.2,104.19a12.78,12.78,0,0,0-1.89-.58q-12.6-1.27-25.22-2.52c-2.12-.22-2.93,1.3-4.3,3,6.31.81,12.23,1,17.82,2.46C601.62,107.91,605.42,105.92,610.2,104.19Zm-345.68,156,20.76-1.15c.68,0,1.65.1,1.83-.67.12-.57-.38-1.3-.68-1.91-.5-1-1.25-.84-2.05-.36a6.92,6.92,0,0,1-.95.46c-1.65.64-3.37.91-4.4-.84s.25-3.07,1.58-4.14c.55-.44,1.16-.81,1.66-1.3s.24-1.1-.09-1.6-.86-1.12-1.39-.58c-2.48,2.55-7.23,2.78-7.67,7.45-.08.94-.84,1.73-1.66,1.37C268,255.46,266.48,258.33,264.52,260.22Zm919.09-176c.23-.07.56-.18.89-.27,8.12-2.34,8.18-2.67,3.24-9.32-1.33-1.78-2.43-2.28-4.64-1.44-6.23,2.39-6.28,2.27-2.59,7.9.45.69.87,1.39,1.35,2.05S1182.64,84.32,1183.61,84.2Zm-31.55-17.41c-.06,1.89,1,2.76,1.71,3.81,1.37,2.14,2.51,5.4,4.41,6s4.76-1.39,7.09-2.46c1.14-.52,3.5-.44,3-2.08s-1.48-4.1-3.76-4.2C1160.39,67.64,1156.21,68,1152.06,66.79Zm-589.71,94a29.76,29.76,0,0,0-3.47-8.24,1.22,1.22,0,0,0-1.73-.56q-6.3,2.2-3.91,8.3c.73,1.85,1.35,3.73,2,5.6.2.52.29,1.19,1,1.3C557.19,167.34,562.38,162,562.35,160.79ZM358.83,238.62c.36-.34.79-.71,1.19-1.1,1.67-1.66,3.23-3.44,5-4.93,1.58-1.32,1.26-2.33.24-3.82-3.11-4.54-3.05-4.59-7.3-1.15-1,.81-2,1.6-3,2.46s-2.29,1.28-1.22,2.76C355.24,234.86,355.79,237.7,358.83,238.62Zm316.4,118.45c-3.79-1-6.54-2.79-9.69-1.62-3.95,1.47-7.86,3.09-11.75,4.73-.79.34-2.56.51-1.42,2,.85,1.12,1,3.81,3.28,2.77C661.82,362.2,668.13,359.79,675.23,357.07Zm13.22,3.41c-3.59-.71-6-2.45-9-1.16-4.41,1.89-9,3.44-13.44,5.21-2.77,1.1-5.48,2.35-8.21,3.53l.33.86A96.78,96.78,0,0,0,688.45,360.48ZM587.35,123.93c-1-.19-1.25-.33-1.44-.27-10.2,3.22-18.56,9.85-27.76,14.93-1.54.85-.5,1.69,0,2.55.7,1.16,1.38,1.68,2.77.71C569.44,135.86,577.8,129.65,587.35,123.93ZM909.69,60.41c-1.65.16-3.78.24-5.85.61-1.74.31-2.75.92-1.23,3,4.5,6.2,4.41,6.26,11.21,2.4,1-.58,2-1.2,3.08-1.72,1.26-.62,1.27-1.27.56-2.47C915.58,59.08,912.7,60.56,909.69,60.41ZM437,206a8.42,8.42,0,0,0,.88-.54c3.1-2.69,6.33-5.26,9.25-8.14,1.95-1.93-.55-3.35-1.24-4.86-.89-2-2-.27-2.73.28-2.86,2-5.62,4.24-8.46,6.32-1.14.83-1.55,1.67-.59,2.91S435.67,205,437,206Zm577.9-156a40,40,0,0,1-2.7-3.88c-1.22-2.22-2.7-3-5.12-1.8-2.16,1-6.47,1.23-6.31,2.64.28,2.41,2.87,4.6,4.63,6.77.81,1,9.41-2,9.64-3.21C1015.07,50.44,1015,50.32,1014.91,50ZM410.4,194.79a63.94,63.94,0,0,0-18.59,8.58c-4.28,3-4.37,2.88-1.47,7.85ZM682.59,91c-12,3.36-23.23,6.78-32.89,14C661.15,102.07,672.71,99.33,682.59,91ZM1307.83,104c2.77-1.73,5.56-3.42,8.3-5.19,4.43-2.87,8.78-5.86,13.25-8.64,1.82-1.14,1-2.2.45-3.5s-1.23-1.38-2.39-.59C1320.06,91.06,1313.28,96.75,1307.83,104Zm64.2-1.36,5.84-2.87c4-2,3.85-1.91,2.06-5.91-1.22-2.74-2.55-3.1-4.94-1.48a41.17,41.17,0,0,1-5.26,2.78c-1.17.56-1.64,1.24-.86,2.44C1370,99.21,1370,101.57,1372,102.59Zm-357-36.1c.54.07,8-3.91,8.35-4.34s0-.86-.2-1.27c-2.1-4.77-4.38-5.69-9.1-3.63-1,.42-2,.8-2.88,1.29a2.91,2.91,0,0,0-1.25,1.09C1009.71,60.19,1014.42,66.4,1015.07,66.49ZM725.33,107.38c-.12-.2-.25-.39-.36-.6-2.53-4.45-4.69-5-9-2.21a12,12,0,0,0-2,1.35c-.84.81-3.14,1-2.29,2.45,1.14,1.9,2.87,5,4.78,4.57,3.14-.76,5.87-3.2,8.76-5C725.32,107.91,725.28,107.59,725.33,107.38Zm772.46,16.16c-2.7-1.34-4.4-3.31-7.24-2-4.26,2-8.6,3.77-12.94,5.58-1.34.56-2.32,1-1.29,2.74.77,1.28,1,3,3.24,1.75,1.1-.66,3.06-.78,3.4-1.64,1.25-3.09,2.72-3.43,6.09-2.89C1491.54,127.49,1494.5,125,1497.79,123.54ZM482.5,164.2c-1.66,1-5.1.89-5.08,2.82,0,3.66-2.39,4.12-4.59,5.31-1.75.95-3.41,2.06-5.15,3.06-1.2.68-1.34,1.47-.47,2.54.72.89,1.19,2.09,2.73,1q7-5.1,14-10.07c1.2-.85.92-1.78.39-2.74C483.93,165.35,484,164.09,482.5,164.2Zm1005.14-45.09c-5.05-4.94-9.8-4.07-14.8-.78-1.68,1.1-1.34,2-.56,3.06s.64,4,3.41,2.86C1479.66,122.61,1483.59,120.86,1487.64,119.11ZM1363.05,94c0-1.15-3.6-7.42-4.23-7.44-1.11,0-7.41,4.47-7,5.11,1.31,2.37,1.62,5.46,4.26,6.88C1356.9,99,1363.08,94.67,1363.05,94ZM439.17,182.31a63.89,63.89,0,0,0-11.45,7.78c-1.09,1,.9,2.62,1.52,3.93.48,1,1.19.94,2,.33q5.06-3.84,10.13-7.66c1.28-1,.44-1.89,0-2.76S440.72,182,439.17,182.31ZM867.47,75c3.15-.21,4.44-2.49,5.61-4.35,1-1.64-1.35-2-2.27-2.8-.71-.63-1.71-1.18-1.63-2.16.21-2.62-1-2.22-2.71-1.57-6.78,2.6-6.81,2.59-2,8.08C865.42,73.28,866,74.89,867.47,75Zm-219.34,56.1c2.8-1.58,5.07-2.82,7.29-4.12.62-.36,1.9-.62,1.06-1.71-1.71-2.23-3.22-5-5.52-6.28-1.65-1-3.45,1.84-5.27,2.8-1.39.73-1.41,1.58-.36,2.75C646.89,126.27,648.48,128.05,648.13,131.09ZM689.28,115c0-.92-5.33-5.16-5.91-4.8-2.48,1.55-5.45,2.82-7.06,5-1,1.38,2.15,2.83,3.06,4.51s1.8,1.36,3,.39c1.76-1.37,3.64-2.57,5.45-3.88A17,17,0,0,0,689.28,115Zm722.66-15.51c-1.21,0-7.19,3.62-7.16,4.36,0,1.15,3.6,6.92,4.28,6.94,1.17,0,7.19-3.68,7.17-4.43C1416.21,105.09,1412.73,99.53,1411.94,99.51ZM464.09,182.38c-1.08-.64-1-3.59-3.29-2.22a98,98,0,0,0-10.29,7.27c-2.15,1.71.28,3.12.91,4.48.9,1.94,1.89.26,2.66-.34,2.93-2.32,5.8-4.71,8.68-7.09C463.37,184,464.2,183.61,464.09,182.38Zm935-81.15c.05-.74-3.18-6.08-3.72-6.16-.87-.12-8.21,4-8.22,4.67,0,1.17,3.24,6.19,4,6.17C1392.16,105.88,1399.07,101.81,1399.1,101.23Zm-828.6,9.29c14.39,2.89,19.28,2.7,23.09-.9-5.49-.68-11-1.19-16.37-2.08C574.31,107.06,572.23,107.73,570.5,110.52Zm18.67,30c0-1.93-5.46-6-6.86-5.47-2.19.82-4.88,1.69-5.71,3.7-.64,1.58,2.22,2.56,3.31,4a5.4,5.4,0,0,0,1,1c.84.64,1.4,2.18,2.85,1.08C585.67,143.34,587.53,141.82,589.17,140.52Zm43.34-22.36c-2,.66-4,1.22-6,2-5,2-5.11,3-1.59,6.83,1.11,1.23,1.88,1.38,3.17.38,2-1.59,4.19-3,6.25-4.54.67-.5,2-.91,1.23-2.08S634.25,118.22,632.51,118.16ZM771.4,84.89c.69.92,1.22,1.68,1.8,2.38,4.26,5.22,4.28,5.24,9.84,1.5.89-.6,2.77-1,2.21-2.25-.72-1.59-1.94-3.56-4-3.42A36.71,36.71,0,0,0,771.4,84.89Zm682.87,38.05c0-3.27-2.64-5-5.39-3.8-1.93.83-3.89,1.58-5.77,2.51-.76.37-2.51.45-1.52,2s1,4.48,3.14,4c3.22-.76,6.18-2.63,9.23-4.07C1454.18,123.48,1454.23,123,1454.27,122.94ZM471.78,298.25c-4.57-1.43-8.22-2.59-11.88-3.72-2-.64-2.16.38-1.79,2,.48,2.15.92,4.33,1.23,6.52.2,1.42.66,1.89,2,1.11C464.57,302.3,467.82,300.49,471.78,298.25ZM901.52,70.88c-1.69-2.21-3-3.93-4.33-5.66-.62-.82-1.32-.76-2.15-.34-3.57,1.78-7.15,3.53-10.71,5.32-.47.23-1.2.44-1,1.21s.88.73,1.45.69Zm-38.17,8.63a5.86,5.86,0,0,0-.58-1.12c-1.9-2.22-4-4.3-5.72-6.65-2.12-2.89-4-.84-5.61.24-2.4,1.59.48,2.32.9,3.45a5.48,5.48,0,0,0,1.09,1.36C857.33,81.47,857.33,81.47,863.35,79.51ZM596.88,335.56c-4.85-2.6-12.46-1.05-18.64,3.6,2,.75,3.33,3.53,5.45,2.53C588,339.67,592.24,337.52,596.88,335.56ZM544,152.82c-.44-1.34-.5-3.13-1.42-3.9-1.11-.95-2.21.74-3.28,1.33-1.64.9-3.1,2.17-4.78,3-3.49,1.66-1.68,3.78-.61,5.77,1.56,2.94,2.68.06,3.74-.52a47.25,47.25,0,0,0,5.16-3.7C543.51,154.3,544.24,153.83,544,152.82Zm954.77-1.65c1.35.11,5.65-2.69,5.35-3.58-.81-2.44-1.79-4.82-2.75-7.21-.25-.62-.74-.68-1.43-.56-4.4.75-5.62,3-3.82,7.08.47,1.07.93,2.15,1.4,3.22C1497.8,150.67,1498.11,151.15,1498.81,151.17Zm-804-39.57c2-1.4,4.32-3,6.56-4.63.39-.28,0-.8-.26-1.21-2.18-3.46-4.81-4.06-8.25-1.86-1,.64-2,1.23-3,1.92a2.7,2.7,0,0,0-1,1.26C688.67,107.68,693.65,111.67,694.78,111.6ZM717.65,81c-9.82,2.15-18,7.67-27.46,12.48C701.72,93.18,709.31,86.32,717.65,81Zm771.59,59.58c-.12-2.15-3.55-8-4.21-7.65-1.9,1.08-4.83.82-5.53,3.42-.41,1.49,3.59,7.72,4.28,7.36C1485.71,142.74,1488.22,142.52,1489.24,140.62ZM886,82.31c-.46-.59-.82-1-1.17-1.5-2.3-3-5.27-1.09-7.85-.85-5.4.51-5.23.59-2.08,5,1.73,2.45,3.19,3,5.58,1a42.59,42.59,0,0,1,4.21-2.57A11.28,11.28,0,0,0,886,82.31Zm282.43-30.56c-.57.07-1.16.1-1.73.2-5.09.9-5.08,1.35-2.5,5.63,2.33,3.85,4.8,1.35,7.16.72,3.71-1,4.07-2.41,1.66-5.35C1171.78,51.44,1169.93,52.34,1168.43,51.75ZM521.57,170.44c2.82-2.09,5.58-3.71,7.77-5.89,2-2-.62-3.73-1.32-5.46-.79-1.92-2-.21-2.76.28-5.29,3.23-5.27,3.26-4,9.29C521.33,169.08,521.4,169.5,521.57,170.44Zm63.15,161.27c-5.43-3.75-10.42-1.91-15.37.42-.85.4-1.46,1.06-.63,1.87,1.63,1.59,3.23,3.51,6,2.27ZM1026.93,66.38a59.17,59.17,0,0,1-6,3.15c-2.74,1.06-3.07,2.31-1.53,4.86,1.06,1.75,1.78,2,3.44,1,1.82-1,3.8-1.82,5.64-2.84.81-.44,2.54-.55,1.94-1.91A10,10,0,0,0,1026.93,66.38ZM460.65,162.44c-3.41.46-5.56-2.58-7.57-1.4-5.51,3.23-10.63,7.12-15.91,10.74,7.41-2.29,14.43-5.2,21.44-8.13C459,163.48,459.37,163.2,460.65,162.44ZM1103,50.34c.59-1.42.22-2-1.25-2.19-3.69-.51-6.94.77-10.19,2.19-.72.31-1,.72-.64,1.63,1.15,3.09,3.07,4,6.11,2.82,1.3-.53,2.58-1.14,3.92-1.57C1102.5,52.73,1103.6,52.07,1103,50.34Zm131.84-.15-.08-.65c-1.92-.28-3.84-.6-5.77-.83-2.67-.31-5.64-1.39-7.94-.59s-2.16,4.57-3.6,6.77c0,0,.06.19.18.52ZM480.76,147.45c15.18,1.48,17.79,1.23,21.71-2.26-4.65-.32-9.08-.37-13.42-1C485.65,143.68,483.24,144.78,480.76,147.45ZM713.22,367.62C720,375.06,729.14,375,738,376c.12-.39.23-.78.35-1.17ZM555.39,322.83c-3.68-1.39-6.52-2.5-10.09-.79-5.66,2.72-5.79,2.46-1.94,8C546.33,326.37,551,325.56,555.39,322.83ZM814.69,86.45c1.41-.91,3.49-1.66,4.61-3.14,1-1.27-1.21-2.13-1.92-3.21a22.05,22.05,0,0,0-2.08-2.37c-.71-.79-1.36-1.75-2.6-.87-1.5,1.08-3.44,1.57-4.5,3.2C807.89,80.52,813.65,86.41,814.69,86.45Zm10.38-6.2c1.49-1,3.6-1.78,4.84-3.31.76-.94-1.34-1.81-2.06-2.79s-1.55-1.73-2.21-2.68c-.49-.72-.59-2-1.9-1.09-1.66,1.16-4,1.45-4.92,3.54C818.61,74.4,824.13,80.17,825.07,80.25Zm274.74-16.86c4.37,8,4.38,8,11.28,4.84.9-.41,2.7-.29,2.35-1.9a3,3,0,0,0-3.07-2.39C1107,63.81,1103.65,63.6,1099.81,63.39Zm129.38,2.43c-1-1.34-2.08-2.71-3.1-4.12-1.75-2.38-4.36-2.87-7-.82-2.17,1.71.73,2.86.9,4.36,0,.21.23.39.35.59,1.46,2.44,6.65,2.87,8.44.69A6.12,6.12,0,0,0,1229.19,65.82ZM943.27,58.66c-3.27.15-6.42,1.52-6.23,2.72.13.81,4.69,5.55,5.19,5.28,2-1.08,4.71-1.33,5.68-3.6C948.51,61.66,945,58.58,943.27,58.66Zm477.27,56.41c-1.31-1.12-.81-3.73-3-4.52-1-.36-7.39,3.7-7.09,4.29.81,1.58.72,3.73,2.42,4.68C1413.81,120,1420.53,116.11,1420.54,115.07ZM660.17,353.51a13.65,13.65,0,0,0-14.41.48c-.4.28-.78.49-.69,1,.16,1.08,4,3.3,5.1,2.84C653.47,356.49,656.73,355,660.17,353.51Zm810.05-227.95c-.14-3.16-2.63-4.67-5.52-3.35a18.91,18.91,0,0,1-2.56,1.17c-2.57.73-2.94,1.92-1.6,4.3,1,1.76,1.73,2.5,3.68,1.42,1.53-.84,3.25-1.35,4.85-2.08C1469.66,126.76,1470.48,126.54,1470.22,125.56ZM628.65,108.22c-7.55,1.78-13.9,5.74-20.06,10.13,5.44-1.46,10.75-3.26,16.1-4.94C627.18,112.63,628.6,111.14,628.65,108.22ZM203.32,254.71a185.65,185.65,0,0,1-29.21,6.42C185.21,265.15,193.84,258,203.32,254.71ZM1431.65,115.16c-1.19,0-5.84,2.51-5.89,3.22-.11,1.27,2.66,5.87,3.38,5.54,2.15-1,4.83-1.12,6.24-3.31C1435.86,119.86,1432.45,115.18,1431.65,115.16ZM661.14,83.81c7.09,1.78,13.52.84,18.1-3C672.86,82.69,666.41,76.64,661.14,83.81Zm549.38-37.49c-7.75-.9-15.5-1.83-23.26-2.68-.89-.1-2.41-.78-2.42,1,0,1.46,1.48,1.22,2.45,1.33,5.58.64,11.17,1.18,16.74,1.87A8.44,8.44,0,0,0,1210.52,46.32Zm-33.9-4c-8.66-.44-16.55-2.28-25.27-1.44C1155,44,1171.59,44.8,1176.62,42.33ZM250.69,247.75c-.22-.38-.45-.76-.68-1.14l-27.38,16.76.67,1.13A268.09,268.09,0,0,0,250.69,247.75Zm451-148.9c4.61,5.11,4.61,5.11,9.67,1.85,1.09-.7,2.19-1.38,3.26-2.1.54-.37,1.45-.68,1-1.54a1.7,1.7,0,0,0-1.82-.85C709.8,97,705.88,97.92,701.65,98.85Zm764.65,39c1.9-.93,3.66-1.82,5.44-2.68,1.33-.64,2.86-.93,1.75-3.15-1-1.93-1.82-2.76-3.92-1.54a40.66,40.66,0,0,1-4.5,1.89c-.88.37-1.9.78-1.19,2S1464.61,137.35,1466.3,137.88ZM318.06,237.79a5.41,5.41,0,0,0,.64-.36q4.49-3.36,9-6.76c.62-.46,1-1,.57-1.79-.49-.93-1.27-.88-2.11-.58-3.58,1.25-6.56,3.55-9.67,5.62-.9.6-.86,1.3-.25,2.06S316.86,237.81,318.06,237.79ZM829.63,67.7c-.16.35-.31.71-.46,1.06,1.08.87,2.44,1.56,3.2,2.67,2.32,3.38,4.68,2.24,7.31.51,1.23-.82,1.11-1.3.34-2.43C837.05,65.15,833.21,67.46,829.63,67.7ZM967.8,70.62c.13-.27.26-.54.4-.81-1.79-1.67-3.67-3.26-5.35-5-1.87-2-3.4-.48-5,.28-.55.26-1.69.53-1.18,1.36.94,1.54,1.56,3.59,3.81,3.79C962.91,70.42,965.36,70.49,967.8,70.62Zm462.58,40.59c-1.72-1.67-1.49-5.17-4.32-5-1.48.11-4.61.83-4.3,3.09.24,1.69.47,5,3.37,4.77A6.64,6.64,0,0,0,1430.38,111.21ZM932.49,70.51c1.47,0,3.27.22,3.93-1s-1.11-2.06-1.75-3.1a9.11,9.11,0,0,0-.9-1.07,4,4,0,0,0-6.38.32c-1.21,1.89,1.05,2.93,1.91,4.22C930,71,931.45,70.39,932.49,70.51ZM619.86,342.66c-6.89-1.19-12.06,3-17.71,5.76C609,349.4,613.92,344.45,619.86,342.66ZM386.75,256.33c3.06-1.53,3.58-3.51,1.76-6.19-.65-1-.85-2.25-1.59-3.08s-.2-3.36-2.59-2.13c-2,1-2,2.39-.95,4.27C384.64,251.41,385.58,253.81,386.75,256.33Zm214-125.08c-.81-1.08-1.51-2.25-2.84-1.86-2.57.74-5.07,1.73-7.61,2.6-.69.24-.84.59-.55,1.29a4.1,4.1,0,0,0,6.53,1.75c1.11-.85,2.24-1.68,3.33-2.56A13.25,13.25,0,0,0,600.79,131.25ZM1210.52,56.8a4.06,4.06,0,0,0-1.32-.64c-2.56-.27-5.12-.56-7.68-.6-1.08,0-2.66-.18-3.12,1.09s.85,2.05,1.34,3.07c.58,1.19,1.5,1.28,2.66.87,2.2-.79,4.43-1.49,6.63-2.29C1209.64,58.09,1210.48,58,1210.52,56.8ZM295.84,237c-3.76,1.63-6.39,4.82-9.61,7.2-.66.49,0,1.29.41,1.87.49.78,1.14.69,1.78.22,2.94-2.12,5.87-4.26,8.8-6.38.61-.45,1.07-1,.72-1.76A1.88,1.88,0,0,0,295.84,237Zm1219.68-69c1-.4,1.81-.74,2.66-1.12,3.41-1.54,3.36-1.79,1.11-6.51-1.4-2.95-2.81-.53-4.2-.21-1.57.36-2,1.29-1.28,2.84S1514.94,166.29,1515.52,168Zm1.34-13.2-1.8-4.37c-.52-1.24-.72-2.89-2.82-1.75-1.62.87-3.73,1.26-2.34,3.92.53,1,.77,2.2,1.26,3.26.34.73.38,2.13,1.79,1.41S1516.09,156.42,1516.86,154.81Zm-381.78-89c2.67,5.72,2.67,5.7,8.05,3.94,1.09-.36,2.23-.55,3.37-.82C1145,65.94,1143.57,65.53,1135.08,65.81Zm-564.5,261.6c-7.91-3.62-13.35-2.94-20.05,2.72,1.7-.61,2.88-1.06,4.07-1.47,2.84-1,5.87-1.68,8.57-.16C566.11,330.17,568.19,328.89,570.58,327.41Zm565.55-288c-6.06-.42-12.19-2.06-18,1.48C1124.19,41.15,1130.33,43,1136.13,39.39ZM339.06,235.87a81,81,0,0,0,6.18-5.9c.63-.74-.61-1.89-1.24-2.69s-1.27-.06-1.79.3c-1.73,1.22-3.39,2.52-5.13,3.72-1.32.9-.64,1.83-.09,2.7C337.44,234.72,337.55,235.86,339.06,235.87ZM986.25,57.21c2.24,1.92,2.3,5.08,5.2,4.12s5.79-2.59,8.7-3.84c1.35-.58,1.08-1.26.39-2.14s-1.19-1-1.88,0c-1.32,1.93-3.36,1.91-5.39,1.88S989.31,57.21,986.25,57.21ZM529.42,317.68c6.06,5.06,7.38,5.21,12.32,1.4C534.87,316.12,532.72,315.88,529.42,317.68Zm-1.83-199.61c.11-.25.21-.5.31-.75-2.42-1.38-4.87-2.71-7.26-4.14-3.06-1.84-4.95-.6-6.72,2.51Zm770.07-.63.61.58,12-8c-2.52-.23-4.83,1.6-7.12-.55-.59-.55-.91.47-1.16.86C1300.53,112.71,1299.11,115.08,1297.66,117.44ZM359.1,219.83c-2.19-1.14-3.11-2.33-4.64-1.22-1.79,1.3-3.55,2.64-5.37,3.89-1.26.87-.73,1.69-.16,2.65.82,1.4,1.61.85,2.5.11,1.8-1.48,3.61-2.94,5.46-4.36A14.81,14.81,0,0,1,359.1,219.83Zm1133,16.3c2,.12,5,1.45,5.4,0,.92-3.52,4-5,5.51-8C1498.43,229.48,1495.52,233.1,1492.09,236.13ZM579.35,115.53c-12.68-2.24-12.68-2.24-14.54.52C569.55,116.31,574.1,118.88,579.35,115.53Zm615.93-53.32c-2-4.75-7.06-5-11.5-.81C1187.6,62.29,1191.26,62.22,1195.28,62.21ZM787.48,74.39c1.6,0,2.75-.09,3.88,0,1.87.17,4.12.25,4.46,2.56s-1.64,3.41-3.55,4.21a9.4,9.4,0,0,0-1.33.43c-.58.35-2.08-.22-1.64,1.12s1.55,1.06,2.57.39c1.87-1.22,3.73-2.44,5.66-3.55,1.5-.88,1.29-1.67.16-2.67s-1.92-2.08-3-2.93C792.39,72.2,790.09,72,787.48,74.39Zm556.75,11.49c-1.67,2.34-3.94,3.61-6,5.1-1,.73-1.46,1.5-.75,2.65.79,1.3,1.58.39,2.34,0a31.14,31.14,0,0,1,3.62-2.16C1346.38,90.2,1346.79,88.55,1344.23,85.88Zm-792.7,56.71c-1.44,1.27-4.11,1.43-4.3,3.56-.07.8.46,4,2.41,3.42s4.4-1.65,4.62-4.13A3.1,3.1,0,0,0,551.53,142.59ZM313.34,241.08c-1-1.15-1.17-3.44-2.75-2.87-1.8.66-4.29,1.44-4.55,3.81-.11,1,.71,3.46,2.12,3A10.63,10.63,0,0,0,313.34,241.08ZM885.81,62,874,63C878.06,67.56,878.25,67.55,885.81,62ZM679,105.88c-.15-.33-.29-.67-.44-1-3.54.19-6.8,1.6-10.74,2.67,1.91,1.15,2.11,4.24,4.86,2.64C674.84,108.9,676.86,107.32,679,105.88ZM457.32,175.19l-.31-.61c-3.64,1.51-7.26,3-10.91,4.53-1.31.53-1,1.3-.54,2.22s1,1.61,2.13.77C450.88,179.77,454.11,177.49,457.32,175.19ZM738.21,91.1c3.73,4.68,5.33,4.44,9.88-1.75A36.74,36.74,0,0,0,738.21,91.1ZM589.81,89l19.52,2.94C603.06,89.42,596.74,87.18,589.81,89ZM1148,59.32l11.72.83C1156.93,54.72,1156.93,54.72,1148,59.32Zm-68.71-21.7c-9-.82-12.57-.57-16.35,1.12C1068.37,39.17,1073.54,40.78,1079.28,37.62ZM799.87,72c1.56,1.71,2.47,3.73,3.83,3.35a13.09,13.09,0,0,0,5.59-3.39c1.14-1.17-.46-1.42-1.34-1.29C805.44,71,802.94,71.43,799.87,72Zm292.47-31.89c4.63.4,9.4,1.51,14.21-1.76C1101.35,37.76,1096.77,37.74,1092.34,40.06ZM499.93,158.19c-.12-.27-.23-.54-.34-.81l-10,4c-1.2.47-1.09,1.31-.65,2.28.6,1.33,1.38.85,2.22.3Q495.55,161.06,499.93,158.19ZM644.32,92.57l-8.23.64c-2.41.18-4.81.33-7.22.5C637.06,95.6,638.43,95.46,644.32,92.57ZM1072,46.93c3,4.82,4.77,4.82,10.45.47ZM496.75,167.44c-1.3,1.66-5.06,1-3.77,4.63.26.73.17,2.42,1.86,1.89C497.11,173.24,497.94,170.61,496.75,167.44ZM277.2,242.63l-.4-.71c-2.14.42-4.31.77-6.43,1.29-.77.19-2.17-.1-2.08,1.21a4.84,4.84,0,0,0,1.27,2.41c.92,1.13,1.67,0,2.34-.44C273.71,245.19,275.44,243.89,277.2,242.63ZM557.05,121.39c3.55.23,6.91,1.52,10.33-1.54C563.49,119.3,560.07,117.58,557.05,121.39Zm89.62,227.85c-3.44-.49-6.09-2.5-8.83,0C641.09,352.52,641.09,352.52,646.67,349.24ZM951,58.32c1.9,3.37,3.9,3.16,7.24-.43ZM1079.41,56c2.41,0,4,0,5.66,0,.75,0,1.75.45,2.15-.52.15-.37-.32-1-.57-1.53a1.53,1.53,0,0,0-2.34-.69C1082.91,54,1081.21,54.15,1079.41,56ZM685,59.24c-2.35-.92-4.68-1.87-7.05-2.75-.61-.22-1.49-.57-1.84.25-.48,1.09.62,1.41,1.29,1.65A16.93,16.93,0,0,0,685,59.24Zm-39.34,55.32c-2.08-.26-3.6.74-5.24,1.16-.73.19-1.82.3-1.14,1.52.51.92,1.29,1.36,2.28.6C642.84,116.82,644.47,116.17,645.62,114.56ZM1178.89,53c1.36,2.88,1.78,2.93,6.11.59A18.28,18.28,0,0,0,1178.89,53Z"/><path d="M846.67,361.13c0,2.16,1.82,3.2,1.59,5.3a42.61,42.61,0,0,1-7.61-8.9c-2.88-4.16-5.72-8.35-8.46-12.6-.9-1.4-1.6-1.69-3-.69-3.08,2.17-6.21,4.27-9.43,6.21-1.82,1.1-1.64,2-.57,3.58,3.93,5.72,7.74,11.52,11.52,17.34a10,10,0,0,1,2.13,5.42c-2.45-1.5-3.67-3.54-5-5.45-3.59-5.25-7.2-10.48-10.58-15.86-1.28-2-2.26-2-4-.72-4,2.85-8.11,5.66-12.34,8.2-2.18,1.3-1.94,2.35-.67,4.07a31.26,31.26,0,0,1,5,9.09c-3.74-2.14-5.57-5.12-7.4-8-1.12-1.79-2-2.1-3.89-1a15.74,15.74,0,0,1-6.9,2.48c2.56-1.83,4.21-3.18,6-4.25,1.56-.92,1.89-1.71.76-3.28-1.92-2.68-3.67-5.47-5.41-8.27-.79-1.28-1.5-1.46-2.81-.61-4.23,2.77-8.5,5.5-12.85,8.07-2.65,1.58.76,3.05-.46,5-2.49-4.49-5.87-1.51-9.11-.94a4,4,0,0,1,.15-.62c.92-1.72,4.12-1.67,3.83-3.89-.22-1.69-1.85-3.21-2.85-4.8-3.58-5.64-3.58-5.63-9.38-2.82a19.51,19.51,0,0,1-3.25,1.34c-.61.16-1.23.78-2.4,0,2.65-1.77,5.08-3.55,7.66-5.06,1.77-1,2.24-1.92,1-3.79-2.63-3.9-5.08-7.92-7.49-12-.87-1.47-1.52-2.05-3.22-.95-4.53,2.93-9,6.06-14.2,7.72-1.26.4-1.23,1.13-.69,2.16a5.34,5.34,0,0,1,.58,3.35c-1.37-1.72-2.9-3.33-4.09-5.16-2.59-3.93-5.09-7.92-7.45-12-1.1-1.9-2.06-2.57-4-1a53.23,53.23,0,0,1-4.71,3.11c-4.18,2.72-4.18,2.72-2.81,7-.2,0-.52.18-.57.11-2.34-2.87-4.71-2.45-7.41-.4-1.94,1.48-4.32,2.19-7.6,3.09a39.72,39.72,0,0,1,8.36-6c1.75-1.05,1.83-1.94.7-3.59-2.74-4-5.33-8-7.84-12.16-.92-1.51-1.63-1.89-3.22-.81a91,91,0,0,1-8.16,4.92c-1.65.89-1.77,1.66-.76,3.22,3.72,5.72,7.32,11.52,10.89,17.33.72,1.16,1.63,2.33,1.39,4.36a13.86,13.86,0,0,1-4.29-4.46c-3-4.65-5.93-9.33-8.89-14-2.51-4-2.49-3.93-6.4-1.67-3.36,1.94-6.73,3.87-10.15,5.7-1.5.8-3.06,1.74-5.4.87,4.7-2,2.48-4.05.65-6.4-2.59-3.34-5-6.82-7.38-10.34-1-1.52-1.87-1.63-3.35-.59a71.3,71.3,0,0,1-7.45,4.71c-1.87,1-3.15,2-1.76,4.57-2.46-1.94-4.85-1.68-7.58-.81,4.16-2,2.36-4.21.67-6.48a44.58,44.58,0,0,1-4.16-6.12c-1.51-3-3-2.73-5.31-.86a99.74,99.74,0,0,1-9,6.25c-1.31.84-2.67,1.95-4.86,1.28,4-3.88,8.49-6.68,12.87-9.57,2.55-1.69,2.56-2.91.81-5.15a111.84,111.84,0,0,1-6.37-9.32c-1.08-1.7-1.95-2.31-3.85-.94-3.81,2.75-7.76,5.33-11.74,7.83-1.58,1-1.67,1.82-.73,3.36,1.48,2.4,3.67,4.5,4.23,7.93-3.51-1.31-4.67-4.12-6.15-6.54-1-1.6-1.72-2.14-3.48-1a22.81,22.81,0,0,1-7.46,3c1.91-2.32,4.11-3.47,6.18-4.73,1.63-1,2.14-1.81,1-3.58a80.45,80.45,0,0,1-4.75-8.25c-.92-1.85-1.73-1.57-3.16-.62-3.82,2.53-7.69,5-11.64,7.31-1.87,1.11-3.83,2.26-7,1.93,5.8-3.73,10.91-7.25,16.25-10.36,2.92-1.69,3.26-3.21,1.41-5.95a42.56,42.56,0,0,1-3.29-7c-.38-.89-.51-2,.74-2.3,1-.23,1.19.82,1.54,1.57,1.14,2.45,2.43,4.84,3.51,7.31.92,2.11,1.79,2.47,3.86,1,15.5-10.9,31.17-21.55,46.17-33.13a12.84,12.84,0,0,1,1.1-.88c.59-.35,1.26-.88,1.91-.22.88.88.1,1.56-.5,2-3.6,2.84-7.17,5.74-10.9,8.4-11.88,8.47-23.74,17-35.8,25.17-2.86,1.94-3.17,3.36-1.24,6a50.27,50.27,0,0,1,3.89,6.71c.82,1.58,1.57,2,3.21.84q5.9-4.19,12-8c1.44-.91,1.61-1.61.62-3a45.85,45.85,0,0,1-3-5.16,1.28,1.28,0,0,1,.42-1.85c.78-.42,1.32.09,1.76.69.14.18.24.4.37.6,4,5.93,4,5.92,10,1.94L683,246.34c.49-.32,1-.7,1.47-1s1.37-.75,1.91,0,0,1.33-.56,1.77c-.94.71-1.9,1.4-2.88,2-20.27,13.49-40.49,27.06-60.86,40.4-3,1.93-3.09,3.23-1,5.81a97.59,97.59,0,0,1,6.37,9.32c1,1.62,1.85,1.63,3.28.53,3-2.29,7.69-3.89,8.63-6.77.89-2.71-3.46-5.88-5.29-9-.24-.41-.53-.78-.74-1.2-.5-1-1.83-2.15-.41-3s1.92.84,2.54,1.72c1.89,2.69,3.77,5.4,5.53,8.18.93,1.46,1.69,2,3.31.79,3.22-2.36,6.57-4.57,9.93-6.74,1.42-.91,1.54-1.74.64-3.13-1.28-2-2.38-4.06-3.48-6.14-.33-.61-.46-1.52.2-2,.88-.58,1.5.14,2,.84.21.28.35.61.54.91,1.4,2.12,2,5.8,4.25,6,2,.21,4.37-2.31,6.5-3.74q13.93-9.32,27.84-18.69a18.57,18.57,0,0,1,1.77-1.16c1-.53,2.23-1.83,3-.53s-.9,1.94-1.8,2.54c-11.21,7.57-22.4,15.18-33.72,22.58-2.26,1.49-2.45,2.54-.92,4.61a60.24,60.24,0,0,1,5.1,8c1.39,2.72,2.75,2.44,4.79.82,2.3-1.83,5-3.22,7.16-5.15,2.59-2.28,4.6-1.87,6.71,1.61,3,4.92,5.92,9.88,8.7,14.93,1.13,2,2.13,2.33,4.05,1a76.64,76.64,0,0,1,7.51-4.61c1.56-.87,2-1.69.87-3.27-.56-.76-1.56-1.95-.32-2.76s2,.5,2.38,1.39c.92,2,1.92,1.67,3.49.68,8.77-5.5,17.6-10.9,25.94-17.06.75-.56,1.71-2,2.62-.92,1.14,1.36-.59,2-1.42,2.64A283.94,283.94,0,0,1,713,305.48c-2.18,1.3-2.38,2.27-1,4.28,2.49,3.57,4.87,7.22,7,11,1.19,2.08,2.12,2,4,.84q33-20.8,66.08-41.42c1.49-.93,3-1.81,4.55-2.69.51-.3,1.11-.53,1.59,0,.61.76.11,1.33-.47,1.77s-1.38.88-2.08,1.32C776.5,290.76,760.26,301,743.93,311c-2.4,1.48-2.7,2.7-1.24,5,2.22,3.46,4.26,7,6.29,10.62.81,1.45,1.54,1.71,3,.74,3.73-2.46,7.51-4.85,11.4-7.05,1.89-1.07,1.87-2.07.68-3.55a9.22,9.22,0,0,1-1.08-1.81c-.36-.78-.59-1.66.35-2.17a1.28,1.28,0,0,1,1.78.69c2.1,5.56,5.06,2.66,8,.9q28.56-17.2,57.13-34.39c.92-.55,2.16-1.84,3-.44.58,1-1,1.7-1.82,2.22-13.49,8.15-27,16.31-40.53,24.34-2,1.21-2.63,2-1,4.1,2.48,3.28,4.73,6.75,6.88,10.26,1.17,1.89,2.11,1.85,3.88.69,23.54-15.39,47.3-30.43,70.39-46.48,1.31-.91,3.07-3.27,4.39-1.46,1,1.43-1.66,2.4-2.91,3.28-17.72,12.45-35.85,24.28-54.12,35.89-2.45,1.56-2.93,2.81-1.09,5.11,2.18,2.73,3.1,7.69,6.06,8.16,2.53.41,5.74-3.08,8.58-4.94q17.73-11.58,35.42-23.22c1-.64,2-1.24,3-1.81a1.1,1.1,0,0,1,1.55.35c.42.6.06,1.16-.39,1.53a26.43,26.43,0,0,1-2.28,1.65c-14,9.14-27.94,18.31-42,27.36-2.18,1.4-3,2.45-1.11,4.76,2.07,2.53,3.36,6.92,5.8,7.61s5.48-3,8.23-4.73c4.84-3.13,9.56-6.44,14.38-9.61,1-.66,2.34-2.13,3.31-.64.75,1.15-1,1.89-1.89,2.52-6.74,4.53-13.45,9.1-20.26,13.51-2,1.26-2.56,2.19-1,4.3,2.92,4,5.54,8.12,8.5,12.53,1.75-2.85,4.42-4,6.8-5.42a266.79,266.79,0,0,0,37.69-27.92,216.53,216.53,0,0,1,21.92-16.66c30.7-21,61-42.68,94.55-59.06,27.45-13.38,55.47-25.34,85.17-32.84,16.33-4.12,33.06-5,49.82-3.93a260.26,260.26,0,0,0,28.21,0c10.94-.51,21.9-.82,32.78.86,5.6.86,7.11,2.7,6.89,8.24-.14,3.55.11,6.77,2.2,10,2.28,3.49,2.38,7.84,2.78,11.94.65,6.68,1.3,13.35,2.36,20s-1.44,10-8,11.23a43.23,43.23,0,0,1-18.22-.65c-53.51-12.75-106.72-10.2-159.69,3.19a456,456,0,0,0-134.31,57.91C881.08,342,868,350.12,855,358.34,852.46,359.92,850,361.63,846.67,361.13Zm123.23-77.8a35.81,35.81,0,0,0,8-3.55c15.79-8.46,32.21-15.46,48.82-22.15,47.81-19.25,97.22-28.13,148.78-23.73,7.85.67,15.71,1.38,23.61.92.88,0,2.46.54,2.42-1.09a2.34,2.34,0,0,0-2.18-2c-1-.13-2.11-.11-3.17-.14-4.71-.11-9.41-.11-14.11-.35-18.33-.9-36.64-2.38-55-1.65a187,187,0,0,0-56.6,10.82c-8.29,3-16.65,5.83-24.91,8.92-24.35,9.09-48.76,18.07-71.45,31-1.49.85-3.24,1.39-4.23,3-3.29,1-5.82,3.16-8.49,5.12C964.43,287.08,968.47,287.37,969.9,283.33Zm29.75-23.8c1.59.59,2.47-.2,3.38-.58,17.15-7.18,34.76-13.2,52-20.11,34-13.61,69-18,105.22-15.43,11.74.84,23.49,1.61,35.26,1.68.91,0,2.57.61,2.51-1s.27-3.53-1.94-4a20.62,20.62,0,0,0-3.85-.41,293.83,293.83,0,0,0-31.41.34,122.66,122.66,0,0,1-16.93-.12c-20.92-1.53-41.63-.39-61.88,5.65-23.41,7-45.91,16.25-68,26.61C1009.27,254.41,1004.65,257,999.65,259.53Zm77.81-2.38a33.26,33.26,0,0,0,3.46,0c22.23-2.27,44.58-1,66.87-2,17.92-.77,35.94,1,53.92,1.55,1.08,0,3,1.36,3-1.39,0-2.25-.58-3.35-3.23-3.13a115.23,115.23,0,0,1-21.5-.31,355.31,355.31,0,0,0-81.29,1.08A111.35,111.35,0,0,0,1077.46,257.15Zm-15.54-4.65c1.45.79,2.43.16,3.42-.07a339.61,339.61,0,0,1,102.63-8c10.67.81,21.33,2,32,1.41,1.44-.07,3.82,1,3.69-2.19s-2.31-2.34-4-2.26a167.92,167.92,0,0,1-22.54-.87,312.24,312.24,0,0,0-90.53,5.34A179,179,0,0,0,1061.92,252.5ZM779.67,334.56c.31-.16.63-.31.93-.5,4.73-3.08,9.42-6.2,14.19-9.2,1.39-.88.85-1.6.23-2.51-2.61-3.91-5.27-7.78-7.79-11.75-.83-1.33-1.5-1.44-2.79-.64-4.58,2.86-9.22,5.64-13.87,8.39-1.21.72-1.26,1.37-.5,2.5,2.83,4.18,5.57,8.43,8.36,12.64C778.74,334,779,334.53,779.67,334.56Zm-48.37,5.86c5-3.15,9.79-6.26,14.68-9.29,1.46-.89,1.9-1.6.84-3.26-2.46-3.86-4.79-7.81-6.93-11.85-.94-1.78-1.71-1.36-2.95-.55-4.34,2.8-8.68,5.59-13.09,8.28-1.5.91-1.87,1.6-.8,3.24C725.88,331.31,728.47,335.77,731.3,340.42Zm45.3-4.58a5.33,5.33,0,0,0-.32-.63c-2.91-4.42-5.86-8.82-8.73-13.26-.9-1.38-1.72-.67-2.62-.12-4,2.47-8,5-12,7.39-1.35.8-1.45,1.5-.63,2.77,2.73,4.26,5.41,8.55,8,12.9,1,1.62,1.84,1.32,3.1.48,3.91-2.61,7.87-5.15,11.8-7.75C775.81,337.19,776.72,336.91,776.6,335.84Zm-95.41-39.66c-.26.16-.56.34-.85.54-3.18,2.21-6.31,4.49-9.54,6.62-1.5,1-.85,1.84-.18,2.88,3,4.75,6.06,9.49,9,14.28.89,1.43,1.66,2,3.31.93,2.73-1.81,5.59-3.44,8.43-5.08,1.26-.73,1.53-1.4.71-2.76-3.28-5.42-6.43-10.91-9.62-16.38C682.17,296.71,682,296.15,681.19,296.18ZM666.87,330.7c.34-.18.86-.43,1.37-.72,2.84-1.65,5.64-3.39,8.55-4.91,1.71-.89,1.71-1.76.73-3.24-3.09-4.72-6.13-9.46-9.06-14.28-.9-1.47-1.54-1.62-2.93-.6-3,2.22-6.15,4.33-9.32,6.34-1.52,1-1.38,1.75-.44,3,3.16,4.37,6.23,8.82,9.33,13.25C665.5,330.16,665.76,330.87,666.87,330.7Zm139.2,9.47c-2.27,1.45-4.69,2.91-7,4.51-3,2.09-8.33,3.35-8.66,6.33s3.52,6.28,5.53,9.44l.19.3c.74,1.55,1.64,1.56,3,.61q6.52-4.5,13.2-8.76c1.56-1,1.82-1.82.72-3.33-1.85-2.57-3.54-5.26-5.31-7.89C807.37,340.82,807.07,340.12,806.07,340.17Zm-9-13.8c-.32.17-.75.36-1.13.61-4.52,2.93-9,5.9-13.57,8.79-1.25.79-1.54,1.53-.65,2.83,1.85,2.7,3.65,5.45,5.34,8.26.89,1.47,1.71,1.5,3.07.6q6.6-4.35,13.34-8.51c1.35-.84,1.78-1.53.7-3-1.94-2.64-3.66-5.44-5.49-8.17C798.28,327.22,798,326.52,797.05,326.37Zm-89.34-17.51c-1.48.89-3.1,1.84-4.69,2.82-6.79,4.17-6.82,4.19-2.5,10.89,2,3.13,3.48,8.29,6.41,8.68s6.3-3.44,9.48-5.42c.2-.12.39-.27.6-.37,1.24-.64,1.23-1.43.51-2.54-2.82-4.33-5.57-8.7-8.36-13.05C708.86,309.4,708.6,308.83,707.71,308.86Zm77.82,40.72c-.78-1.24-1.63-2.63-2.53-4-1.49-2.23-2.61-5.69-4.63-6.35-2.35-.77-4.76,2.26-7,3.82-2.81,2-7.79,3.08-7.87,6.08s3.44,6.13,5.29,9.26c.89,1.51,1.77,1.44,3.12.57,4-2.63,8.11-5.15,12.17-7.73C784.66,350.88,785.36,350.62,785.53,349.58Zm-120-46.53c-.26-.43-.54-.94-.86-1.43-2-3.18-4.14-6.29-6-9.55-1.06-1.85-1.94-1.82-3.52-.66-3,2.23-6.17,4.32-9.35,6.34-1.5.95-1.89,1.73-.71,3.3,2.34,3.09,4.54,6.29,6.68,9.53.87,1.31,1.51,1.83,3,.74,3.12-2.3,6.38-4.42,9.57-6.62C664.88,304.32,665.62,304.05,665.52,303.05ZM820.6,327.63a10.37,10.37,0,0,0-.53-1.06c-2-3.17-4-6.3-6-9.5-.83-1.37-1.63-.83-2.57-.21-3.43,2.24-6.83,4.52-10.32,6.66-1.3.8-1.47,1.45-.59,2.7,2,2.77,3.87,5.58,5.65,8.47.93,1.49,1.73,1.42,3.06.52,3.19-2.17,6.49-4.18,9.73-6.29A15.93,15.93,0,0,0,820.6,327.63ZM650.53,313.4c-.16-.27-.38-.67-.63-1-2.4-3.46-4.82-6.91-7.19-10.39-.78-1.16-1.52-1.1-2.58-.34-2.66,1.91-5.34,3.8-8.11,5.55-1.61,1-1.59,1.94-.56,3.38,2.19,3,4.33,6.11,6.34,9.27.94,1.48,1.76,1.44,3.07.53,2.71-1.84,5.51-3.54,8.25-5.34C649.67,314.65,650.45,314.44,650.53,313.4ZM829.31,341a6,6,0,0,0-.33-.8c-2.05-3.14-4.1-6.26-6.16-9.39-.66-1-1.35-.51-2.07-.05-3.44,2.22-6.85,4.48-10.34,6.61-1.36.83-1.4,1.51-.51,2.75,1.84,2.56,3.57,5.21,5.25,7.88.84,1.32,1.56,1.75,3,.71,3.15-2.23,6.43-4.26,9.64-6.41A14.61,14.61,0,0,0,829.31,341Zm186.47-71.87c11.36-2.17,22.48-5.11,33.73-7.46.56-.11,1.84-.06,1.3-1-1.07-1.93.19-3.2,1.73-5.32-5.8,2-10.68,3.64-15.48,5.46C1029.93,263.49,1022.87,266.34,1015.78,269.13Zm172.06-6.22a24.45,24.45,0,0,0,9.39,2.14,26.42,26.42,0,0,0,7.37-.44c.55-.13,1.19-.28,1.13-1.06,0-.61-.54-.64-1-.64Z"/><path d="M1420.69,234c-21.91.1-37.76-14.85-41.14-37.08-1.78-11.75.43-22.69,5-33.3,9.13-21,34-31,54.65-21,11.69,5.68,21.66,14.17,28.36,25.76a21.75,21.75,0,0,1,3.23,12.49c-1.44,20-8.36,37-26.75,47.61C1436.8,232.67,1428.91,233.94,1420.69,234Zm1-86.29c-9.73-.6-17.55,2.66-23.06,9.32-9.63,11.65-14.23,25.27-10.06,40.33,3.25,11.77,8.6,22.16,22,26.09,11.2,3.27,21.38,2.38,31.46-3.44,9.9-5.73,14.41-15,18.18-25.13,4.94-13.21,1.9-24.23-8.78-33.2C1442.52,154.21,1433.69,146.55,1421.64,147.68Z"/><path d="M1390.35,277.5c2.11,0,4.23-.11,6.33,0,1.73.12,3.27.91,3.66,2.78s-.73,3.36-2.33,4.35a9.21,9.21,0,0,1-4.37,1.25,65.74,65.74,0,0,1-16.51-.91,22.38,22.38,0,0,1-12.91-7.36c-5.3-5.91-9.88-12.17-12.38-19.9-1.32-4.09-3.76-7.82-5.52-11.79-2.2-5-.74-9.42,2.47-13.46a6.09,6.09,0,0,1,3.81-2.37,4.12,4.12,0,0,1,4.55,2,3.41,3.41,0,0,1-.86,4.75c-3.28,2.45-3,5.22-1.27,8.36a135.53,135.53,0,0,1,6.57,14.41A35.65,35.65,0,0,0,1373,274.19C1378,278.08,1384.39,277.32,1390.35,277.5Z"/><path d="M747.1,136.28c-2,.18-2.19-1-1.66-2.44a9.57,9.57,0,0,1,3.57-4.27,322,322,0,0,1,39-25.24,19.73,19.73,0,0,1,2.23-1c1.76-.7,3.61-1,4.57,1.07s-.56,3.24-2.22,4.09c-13.73,7.07-26.47,15.7-39,24.71C751.68,134.6,749.69,136.09,747.1,136.28Z"/><path d="M874.12,116c-.35-.1-1.26-.06-1.62-.49-.6-.71-.09-1.62.46-2.22a20.92,20.92,0,0,1,3.54-3.38,223.1,223.1,0,0,1,33.38-18.84c2.22-1,5.28-3,6.72.37s-2.25,3.66-4.32,4.6A241.16,241.16,0,0,0,881.86,113C879.59,114.46,877.3,115.91,874.12,116Z"/><path d="M1045,150.27a30.92,30.92,0,0,1,8.4-6.77c20.43-12.56,41.9-23.23,63-34.56,6.21-3.34,12.38-6.73,18.64-10,1.17-.6,2.82-2.57,3.85-.61.8,1.53-1.51,2-2.64,2.59-19.76,10.61-39.58,21.11-59.31,31.78-8.26,4.47-16.32,9.3-24.52,13.89C1050,148,1047.43,149.06,1045,150.27Z"/><path d="M646,186.06a54.63,54.63,0,0,1,9.1-7.83C678.27,161.28,701.88,145,725.63,129c1.28-.87,3.11-3.18,4.36-1.23,1,1.49-1.82,2.28-3.08,3.14-23,15.74-45.92,31.5-68.44,47.88C654.81,181.41,651.15,184.09,646,186.06Z"/><path d="M859.63,156.08c2.62-3.2,5.57-5.12,8.43-7.12,20.16-14.09,40.79-27.45,61.56-40.62A43,43,0,0,1,934,106c.64-.32,1.51-.43,1.91.28.53.93-.17,1.43-1,1.9-3.34,2-6.66,4-9.94,6.06Q897.56,131.64,870.8,150A43.42,43.42,0,0,1,859.63,156.08Z"/><path d="M1194.7,151.18c3.34-3.35,7.49-5.53,11.7-7.58q31.81-15.53,63.71-30.84c1.45-.7,3.66-3.07,4.76-.85.91,1.83-2.17,2.2-3.59,2.89q-33.4,16.24-66.9,32.33C1201.23,148.64,1197.93,149.83,1194.7,151.18Z"/><path d="M1314.29,351.17c4.7-2.88,9.47-5.64,14.07-8.66,21.42-14.09,43.14-27.72,64.17-42.41.69-.48,1.56-1.65,2.36-.55s-.49,1.92-1.28,2.46c-5.9,4.09-11.78,8.19-17.78,12.14q-23.58,15.51-47.24,30.89C1324.26,347.86,1319.81,350.46,1314.29,351.17Z"/><path d="M984.43,137.06a58.92,58.92,0,0,1,10-6.33c22.85-12.59,45.95-24.75,68.12-38.55.74-.46,1.73-1.52,2.44-.46,1,1.48-.67,2-1.54,2.58-9.67,6.29-19.72,11.91-29.8,17.5-13.87,7.69-27.58,15.68-41.86,22.64A22,22,0,0,1,984.43,137.06Z"/><path d="M1126.41,133c2.45-1.3,4.85-2.7,7.35-3.88q36.79-17.28,73.65-34.43c1.49-.69,3.72-2.78,4.8-.59.68,1.37-2.31,1.69-3.67,2.33q-34.71,16.33-69.49,32.52C1135.05,130.81,1131.06,132.75,1126.41,133Z"/><path d="M535.8,209.57c6.49-6.8,14.19-12,21.62-17.57,12.63-9.41,25.42-18.6,38.14-27.89a15.91,15.91,0,0,1,1.74-1.21c.86-.47,1.94-1.61,2.72-.32s-.71,1.78-1.51,2.35c-18.48,13.36-36.93,26.77-55.09,40.56A22,22,0,0,1,535.8,209.57Z"/><path d="M600.14,188.66c9.79-6.89,19.61-13.75,29.37-20.68,11.79-8.37,23.55-16.77,35-25.67.47-.36.94-.7,1.42-1.05.66-.47,1.47-1.22,2.14-.43.84,1-.17,1.72-.88,2.27-4.66,3.58-9.3,7.18-14,10.65-13.65,10-27.34,20-41.41,29.37A36,36,0,0,1,600.14,188.66Z"/><path d="M772.43,166.85a32.14,32.14,0,0,1,7.58-6.7q25.25-17.72,51.45-34c1.28-.79,3.15-3.14,4.37-1,.92,1.64-1.92,2.18-3.17,3-16.87,10.68-33.57,21.64-50,33A42.19,42.19,0,0,1,772.43,166.85Z"/><path d="M1172.52,132.75a26.81,26.81,0,0,1,8-4.76q27.14-11.86,54.3-23.67c.54-.23,1.08-.46,1.63-.67s1.43-.47,1.85.34c.52,1-.24,1.49-1,1.9-.52.28-1.06.52-1.6.75q-27.79,12.09-55.62,24.16C1177.88,131.77,1175.65,132.9,1172.52,132.75Z"/><path d="M487.2,225.77a11.71,11.71,0,0,1,3.72-3.8c16.52-12.33,32.18-25.69,47.82-39.08,1.11-.95,2.5-3.33,4-1.62,1.2,1.42-1.29,2.38-2.33,3.29-13.62,11.94-27.47,23.63-41.83,34.69A39.35,39.35,0,0,1,487.2,225.77Z"/><path d="M935.92,135.08c1-.62,1.93-1.3,2.94-1.85q24.93-13.56,49.89-27c1.47-.79,3.75-3,4.8-.92.88,1.71-2.23,2.08-3.63,2.85-14,7.68-28.06,15.27-42.1,22.89C944.11,133,940.3,134.76,935.92,135.08Z"/><path d="M749.07,159c2.23-1.69,4.42-3.45,6.71-5.06q19.2-13.44,38.45-26.81a11.38,11.38,0,0,1,1.16-.8c.86-.47,1.89-1.58,2.68-.24.62,1.07-.65,1.6-1.37,2.11q-7.19,5.1-14.42,10.13Q769.55,147.2,756.76,156A15.31,15.31,0,0,1,749.07,159Z"/><path d="M694.94,171c1.91-1.4,3.07-2.36,4.34-3.16,11.29-7.19,22.19-15,33.15-22.63.58-.4,1.16-.81,1.77-1.15s1.15-.45,1.6.09c.57.7.2,1.32-.34,1.84a8.67,8.67,0,0,1-1.12.85c-9.86,6.78-19.7,13.61-29.62,20.31A21.41,21.41,0,0,1,694.94,171Z"/><path d="M821.75,152.51c.6-1.33,1.79-1.72,2.76-2.29a418.44,418.44,0,0,0,35.75-23.79c.78-.58,1.73-1.83,2.68-.65s-.43,1.88-1.22,2.46c-10.8,7.9-21.66,15.72-33.4,22.21C826.35,151.54,824.31,152.76,821.75,152.51Z"/><path d="M461.09,227.59c2.09-2.76,4.48-4.3,6.73-6,9.26-6.87,18.76-13.37,28.38-19.71a25.77,25.77,0,0,1,3-1.84c.85-.41,2-1.48,2.7,0,.53,1.13-.82,1.48-1.56,1.95Q483.3,213,467,225.1A10.41,10.41,0,0,1,461.09,227.59Z"/><path d="M141,196.25a23.14,23.14,0,0,1-13.51-2.77c-15-7.42-29.79-15-44.72-22.48a203.52,203.52,0,0,0-21.49-9.75c-1.36-.5-2.94-1.07-2.31-2.88s2.4-1.65,3.89-1.11c2.65,1,5.29,2,7.84,3.16,21.79,10,42.8,21.59,64.31,32.17C136.8,193.46,138.42,194.65,141,196.25Z"/><path d="M743,435.14c3.39-3.14,7-4.4,10.68-5.61,22.76-7.6,46-13.58,69.17-19.69,6.14-1.62,12.32-3.07,18.47-4.62,1.56-.39,3.35-.77,3.79,1.22s-1.57,2-2.84,2.35c-30.53,7.33-60.84,15.42-90.7,25.14A18.87,18.87,0,0,1,743,435.14Z"/><path d="M1401.7,186.61a36.47,36.47,0,0,1,2.59-12.75c5.11-12.19,17-18.33,29.89-15.43a19.33,19.33,0,0,1,14.64,23.06c-2.74,11.68-8.83,20.58-20.7,24.82C1413.49,211.55,1401.48,203.18,1401.7,186.61Zm38.54-3.21c0-1.83.15-3.62-2.1-4a2.2,2.2,0,0,0-2.64,2.19c-.63,5.14-3.53,8.83-7.45,11.9-1.33,1-2.14,2.38-1,3.93s2.72,1.27,4.09.28C1436.13,194.14,1439.42,189.46,1440.24,183.4Zm-10.55-19.34c-1.58.05-3,.34-3.26,2.12-.26,1.56.71,2.38,2,2.87s2.65.95,4,1.46,2.6.44,3.39-.89c.88-1.49.31-2.7-1-3.66A10,10,0,0,0,1429.69,164.06Z"/><path d="M1426.94,220.87c-8.52,2.76-16.11.58-23-4.41-6-4.33-10.56-9.69-11.41-17.49C1399,214.14,1409.87,222.26,1426.94,220.87Z"/><path d="M1457.45,189.9c1.45,6.64-7,21.76-13.2,23.57C1451.16,207,1454.94,198.8,1457.45,189.9Z"/><path d="M1391.45,177.64a29.76,29.76,0,0,1,3.42-10.37l1.26.45L1392.57,178Z"/><path d="M1451.12,197.32c.61,3.8-1.64,6.3-3.44,9l-1-.47Z"/><path d="M1418.24,216.22c-3,1.36-5.65.63-7.88-1.85Z"/><path d="M1391.55,187.08c1,2.11.85,4.23.47,7.36C1390.53,191.42,1390.16,189.3,1391.55,187.08Z"/></g></g></svg>