<svg xmlns="http://www.w3.org/2000/svg" viewBox="0 0 424.85 450.78"><g id="Capa_2" data-name="Capa 2"><g id="Capa_1-2" data-name="Capa 1"><path d="M276.65,59.42c1.13,1.26,2.37,2.44,3.38,3.8,2.38,3.16,4.79,6.3,5.85,10.26.48,1.8,1.67,3.42,2.11,5.22,1.28,5.21,1.71,10.62.24,15.74-1,3.33-1.7,7.37-5.86,8.9A1.73,1.73,0,0,0,282,105a45.1,45.1,0,0,0,3.74,5.33c5,5.8,10.24,11.33,14.92,17.34,5.24,6.72,10,13.8,14.85,20.83a123.87,123.87,0,0,1,6.59,10.79c1.7,3.14,3,6.47,4.54,9.72a24.62,24.62,0,0,0,2.05,4.26,3,3,0,0,0,2.52.63c3.64-.69,7.27-1.49,10.86-2.38,10.11-2.48,20.36-2.26,30.47-.72a127.42,127.42,0,0,1,20.5,5.42c3.37,1.1,6.22,3.68,9.5,5.16,3.94,1.77,6.86,4.68,9.63,7.75,4.83,5.34,7.75,11.65,10,18.52,2.81,8.52,3.13,17.08,2.28,25.78a68.9,68.9,0,0,1-5.14,19.92c-2.09,5-4.13,10-6.57,14.84-1.52,3-3.82,5.62-5.64,8.49-1,1.57-1.59,3.42-2.64,4.94-2.84,4.14-5.84,8.16-8.76,12.24-2,2.75-3.84,5.55-5.84,8.27-1.6,2.19-3.34,4.27-5,6.44-1.47,2-2.9,4-4.27,6.06-.8,1.2-.18,2.07.81,2.9,4.08,3.41,4.54,11.15.67,14.71a32.29,32.29,0,0,1-6.23,4.07,4.23,4.23,0,0,0-2.31,3.84c-.25,4.44-.63,8.88-.76,13.33a22.94,22.94,0,0,0,.69,5.38c.08.42,1,.79,1.56.95,2.18.59,4.68.73,5.68,3.19,1.36,3.34,2.91,6.66,1.68,10.48-.78,2.42-1.15,4.85-3.24,6.78-3.41,3.16-10.94,4.32-14.8,1.67-1.19-.82-1.9-.61-3-.05-9.18,4.59-18.43,0-18.78-10.47a15.44,15.44,0,0,1,2.72-9.13c1.26-1.9,4-3,6.32-4,1.61-.69,3.56-.55,5.31-1,.51-.12,1.26-.9,1.24-1.35-.24-6.73-.31-13.49-2.28-20a2.74,2.74,0,0,0-2.11-1.34c-4.4,0-7.79-1.9-8.92-5.65-1.07-3.54-.73-8.49,2.92-11.16.49-.36.95-.75,1.44-1.11,1.51-1.12,1.85-2,.16-3.53-2.6-2.38-4.63-5.41-7.31-7.67-2.2-1.86-3-5.43-6.55-5.62-.29,0-.58,0-.9,0a16.94,16.94,0,0,1-5.67,8.67c-1.37,1.22-1.87,3.37-3.15,4.75-5.36,5.8-10.69,11.65-16.38,17.12a149,149,0,0,1-13.1,10.77,60.92,60.92,0,0,1-9.65,6.32c-7.17,3.56-14.48,6.85-21.83,10-10.75,4.65-22.06,7.09-33.6,9-14.12,2.39-28.26,2-42.39,1.57-6.58-.21-13.16-1.85-19.66-3.25-5.06-1.09-5-1.18-5,3.87,0,4.27-.77,8.54-1.05,12.82a2.23,2.23,0,0,0,1.25,1.74,11.84,11.84,0,0,0,4.26.46c4.12-.46,7.32,1.33,10.3,3.82,3.48,2.9,4.79,9.17,2.52,13.11a6.85,6.85,0,0,1-2.75,2.16,26,26,0,0,1-3.72,1.25c1.36,1.73,2.42,3.35,3.74,4.72,2,2.11,4.26,4.08,6.46,6.05,1.14,1,2.31,1.46,3.34-.29a3,3,0,0,1,1.56-1.21c7.54-2.49,18.47,2.41,18.38,12,0,5.71-1.67,10.26-6.37,13.49-1.2.83-2.81,1-4.14,1.7-.78.4-1.8,1-2,1.76-2,6.86-7.47,8.86-11.87,8.42-7-.7-11.39-5.14-11.67-11.69a12.93,12.93,0,0,1,3.14-9.24c1.15-1.33,1.17-2.22-.19-3.36-2.46-2.05-5.28-3.87-7.14-6.4-2.54-3.45-6.2-3.27-9.6-4.11-2.24-.56-4-.51-5.56,2-2.26,3.66-8.63,2.8-11-.63-3.34-4.88-1.94-9.55-.61-14.45,1.22-4.51,1.71-4.51-3.39-5.34-5.74-.93-11.45-2.16-17.11-3.53-7.36-1.78-14.74-3.54-21.94-5.83-6.1-2-12-4.59-17.91-7a47.28,47.28,0,0,1-6.88-3.4c-5.25-3.24-10.58-6.39-15.51-10.06-6.43-4.79-11-11.2-14.89-18.22-6.25-11.35-7.4-23.44-5.26-35.87a48.09,48.09,0,0,1,7-17.35q4.22-6.69,9-13.05a62.93,62.93,0,0,1,6.25-6.83,104.57,104.57,0,0,1,8.29-7.75,80.42,80.42,0,0,1,9.83-6.76c2.75-1.6,4.42-3.22,4.36-6.81-.21-11-.27-22,.1-33,.39-11.57,1.28-23.13,2.09-34.69.42-5.88,1.13-11.74,1.75-17.6.17-1.56-.37-2.34-2-2.69-5-1.1-8.73-3.94-12-8-5.84-7.2-7.13-15.34-6.4-24.16a13.71,13.71,0,0,0-.08-4c-.17-.77-1.1-1.37-1.69-2-.66.62-1.57,1.12-1.91,1.88-.67,1.49-1,3.16-1.51,4.71a99,99,0,0,1-4,10.47c-1.94,3.9-3.31,8.17-7.1,11-2.24,1.68-3.94,3.88-7.17,3.7-.6,0-1.55,1.35-1.88,2.25a28.61,28.61,0,0,1-4.28,7.88c-2.72,3.49-5.81,6.15-10.23,6.85-1.81.29-2.49,1.17-2.92,2.86a38.84,38.84,0,0,1-2.75,8.34,11,11,0,0,1-14.51,5.27,9.55,9.55,0,0,1-6-7.48c-1.8-10.39-.76-20.68,1.58-30.87,1.37-6,2.53-12,4.29-17.85,2.1-7,4.65-13.89,7.17-20.77,2.08-5.66,4.11-11.36,6.68-16.8C24.5,92.11,28.54,84,35.21,77.54c2-1.94,3.63-4.36,5.85-6C48.12,66.3,55.87,62.61,65,63.78a34.28,34.28,0,0,1,15.77,6.54c4.75,3.44,9.52,6.86,14.21,10.37a67,67,0,0,1,5.68,4.83c1.82,1.72,3,1.69,3.89-.62,1.24-3.3,2.13-6.74,3.31-10.06A106.75,106.75,0,0,1,112,64.1a138.71,138.71,0,0,1,7.31-13.25c3.8-6,8.21-11.57,14.24-15.55a45.23,45.23,0,0,1,35.72-6.71,78.52,78.52,0,0,1,21.34,8.1c4.34,2.39,9,4.24,13.38,6.55,4.2,2.2,8.34,4.55,12.34,7.11,2.86,1.83,5.08,1.16,5.48-2.23,1.19-10,4.78-19.38,7.94-28.85,1.21-3.6,3.22-6.92,4.7-10.43,2.26-5.4,6.5-8.07,12.06-8.56a43.3,43.3,0,0,1,11.09.15c9.53,1.64,19.09,3.35,28.43,5.83,6.89,1.83,13.49,4.8,20.13,7.49,4.95,2,9.81,4.23,14.6,6.58,2.9,1.42,5.59,3.25,8.38,4.9,1.62,1,3.32,1.83,4.83,2.93,3.16,2.3,6.22,4.72,9.3,7.11.35.28.54.79.91,1,6.65,3.67,11.16,9.55,15.41,15.53,3.09,4.36,5,9.25,4.06,14.92-.57,3.22-2,5.68-5.08,6.63-6.42,2-12.76,2-18.89-1.38a10.89,10.89,0,0,0-5-1c-4.44-.11-8.89.14-13.33,0a9.27,9.27,0,0,1-4.11-1.71c-2-1.28-4.14-1.78-6.17-.38-3.05,2.11-6.34,2-9.61,1.21A44.91,44.91,0,0,1,286.7,64c-2.34-1.6-4.62-3.31-7-4.85a8.48,8.48,0,0,0-2.53-.65ZM89.27,257.9c5.55-1.37,10.48-1.78,15.29-.34,4,1.19,8.31,1.46,11.91,4.12,2.43,1.79,5.52,2.66,8,4.42a40.46,40.46,0,0,1,6.55,6.14,114.64,114.64,0,0,1,9.18,11.15,94.46,94.46,0,0,1,7.54,13.14,187.35,187.35,0,0,1,7.46,18.23,140.25,140.25,0,0,1,4.44,16.4A188.53,188.53,0,0,1,163,350.58a7.82,7.82,0,0,0,5.29,7.09,48,48,0,0,0,11.17,2.79c6.46.76,13,.9,19.49,1.41,16,1.27,31.73-.68,47.25-4.55a93.43,93.43,0,0,0,11.3-3.35c11.35-4.44,22.48-9.36,32.3-16.78,2.22-1.68,4.76-3,6.83-4.83,5.08-4.5,10.1-9.1,14.91-13.89,5.31-5.29,10.92-10.34,14.74-17,1.36-2.35,3.09-4.47,4.53-6.76a3.82,3.82,0,0,0-.19-4.64A146.58,146.58,0,0,1,321.52,277c-3.31-5.83-6-12-8.93-18.05a36.84,36.84,0,0,1-2.55-6c-1.58-5.66-2.79-11.43-4.43-17.08-2-6.81-2.1-13.76-1.95-20.72A54,54,0,0,1,306,199.94a48.05,48.05,0,0,1,5-11.25A27.37,27.37,0,0,1,321.27,179c1.34-.7,2.21-1.93,1.57-3.37A129.45,129.45,0,0,0,317,163.44c-2.64-4.64-5.69-9-8.6-13.52q-1.41-2.17-2.95-4.26c-1.83-2.47-3.76-4.88-5.58-7.36-.7-1-1.09-2.18-1.86-3.08-2.45-2.85-5.14-5.51-7.51-8.42A308.06,308.06,0,0,0,268.93,103Q260.45,94.51,252,86c-3.26-3.23-6.45-6.56-9.92-9.57s-7-5.42-10.48-8.14c-2.49-1.94-4.88-4-7.43-5.87-1.64-1.2-3.51-2.09-5.25-3.16-5.43-3.39-10.83-6.82-16.28-10.17a74.6,74.6,0,0,0-6.71-3.75c-5.71-2.74-11.38-5.65-17.28-8a56.9,56.9,0,0,0-13.31-3.49c-5.91-.77-11.82-.67-17.64,1.68-4.64,1.87-8.94,4-12.42,7.57a85.06,85.06,0,0,0-7.43,8.45A88.4,88.4,0,0,0,121.13,62,83.73,83.73,0,0,0,117,71.5c-1.53,3.85-3.06,7.71-4.34,11.65-1.07,3.26-1.74,6.65-2.64,10-2.07,7.73-4.26,15.44-6.24,23.19-1.66,6.44-3.37,12.89-4.56,19.43-2,11.23-3.84,22.51-5.47,33.81-1.14,7.93-2.2,15.9-2.63,23.89-.86,16.1-1.31,32.23-1.84,48.35C89.13,247,89.27,252.2,89.27,257.9Zm267-82.6c-3.76.6-9.07,1.35-14.34,2.33a49.07,49.07,0,0,0-20.39,8.91c-6.34,4.68-9.83,11.39-11.3,18.86a59.92,59.92,0,0,0,.68,26.8c1.49,5.77,2.7,11.65,4.74,17.22a141.25,141.25,0,0,0,7.66,16.64c2.83,5.42,6,10.67,9.24,15.85a85.57,85.57,0,0,0,7.05,9.74c5.66,6.67,11.52,13.16,17.32,19.71a40.3,40.3,0,0,1,3.18,3.51c1.57,2.29.9,3.82-1.76,4.48-.81.2-1.64.33-2.44.53-3.54.89-4.48,2.31-4.17,5.9.11,1.19,0,2.48,1.58,2.43,1.23,0,2.83-.14,3.59-.9,2.73-2.71,5.82-2.14,7.14,1.58,1,2.87,3.46,4.12,6.16,2.64a44.13,44.13,0,0,0,7.45-5.39,4,4,0,0,0,.79-3.27c-.13-.64-1.52-1.1-2.42-1.47s-2.1-.44-3-.91c-2.84-1.44-3.08-4.12-.68-6.2a9.05,9.05,0,0,0,1.45-1.69c2.53-3.7,4.95-7.49,7.57-11.13,2.1-2.93,4.56-5.61,6.63-8.57,2.48-3.54,4.72-7.25,7.07-10.89,1-1.57,2-3.18,3.07-4.72,2.44-3.49,5.18-6.79,7.34-10.44,2.3-3.89,4.1-8.07,6.07-12.15a74.71,74.71,0,0,0,7.35-24.9A46.53,46.53,0,0,0,415.72,208c-1.59-4.09-3.51-8.21-6.9-11.52-4.65-4.55-8.94-9.31-14.84-12.5C382.64,177.81,370.36,176.34,356.24,175.3ZM157.93,369.67c-.32-4.63-1-9.54-.92-14.44.1-9.45-2.29-18.47-4.27-27.55a101.73,101.73,0,0,0-4.11-12.44c-1.2-3.34-2.5-6.65-3.93-9.89a95.61,95.61,0,0,0-5.22-10.78A88.28,88.28,0,0,0,131.9,284c-5.55-6.72-11-13.53-19.35-17.26-6.49-2.9-13-4.45-20.18-3.31s-12.71,4.95-18.17,9.1a69.93,69.93,0,0,0-7.32,7c-2.67,2.76-5.34,5.56-7.77,8.53-1.67,2-2.78,4.49-4.4,6.56a53.26,53.26,0,0,0-10.43,21.2A37.84,37.84,0,0,0,45,336.4,45.61,45.61,0,0,0,53,351.2a85.63,85.63,0,0,0,8.7,9.54c3.55,3.19,7.67,5.74,11.36,8.79a22.75,22.75,0,0,0,6.07,3.14c3,1.27,5.66,3.35,8.67,4.58a121.5,121.5,0,0,0,15.6,5.52c13,3.33,26,6.26,39.06,9.29,1.76.41,3.61.41,5.38.76,3,.59,3.83,2.2,2.62,4.93a20.28,20.28,0,0,1-2.14,4c-1.9,2.55-1.79,5.43-1.48,8.28a2.71,2.71,0,0,0,1.88,1.79c.59.06,1.49-.94,1.91-1.66a8.94,8.94,0,0,0,.61-2.64c.32-1.71,1.42-2.36,3.07-2.42,2-.07,2.78,1.12,3.75,2.66.66,1.05,2.37,1.61,3.71,1.93.29.07,1.44-1.79,1.5-2.8a20,20,0,0,0-.64-4.69c-.51-2.83,1.16-4.33,4-4a49.75,49.75,0,0,0,7.91,0,2.35,2.35,0,0,0,1.75-1.35,5.53,5.53,0,0,0-4.77-6.51c-3.74-.58-7.51-1-11.2-1.73-3.29-.69-3.6-1.25-3.4-4.52C157.17,379.31,157.56,374.64,157.93,369.67Zm170.59-304,.46-.58c-1.23-1.67-2.57-3.27-3.65-5-3-4.93-6-9.92-8.93-14.91-1.2-2-.9-4.29.6-5,1.68-.84,4.5.24,5.43,2,2.79,5.17,5.3,10.5,9.36,14.91s8.36,8.64,14.25,10.84c4.46,1.66,6.28,1.1,9.17-2.45,2.16-2.66,1.78-5.1.22-7.48a56.63,56.63,0,0,0-6.36-8.17,139,139,0,0,0-11.32-10.66,116.22,116.22,0,0,0-12.21-8.79c-3.47-2.19-7.29-3.83-11-5.7-3.48-1.79-6.83-3.89-10.45-5.28-9.09-3.49-18.14-7-27.71-9.18A140.93,140.93,0,0,0,252,6.5c-2.91-.15-6,.78-8.8,1.74-2.28.78-3.16,3.09-3.68,5.39-.08.35-.42.63-.59,1-1,2-2.11,4-2.92,6.11a104.48,104.48,0,0,0-3.82,10.91C230.48,38,229,44.53,227.63,51c-.76,3.54-.76,6.56,3.54,8.56,3.47,1.61,6.36,4.53,9.37,7,5.12,4.25,10.29,8.45,15.13,13C262,85.57,268,91.85,274.19,98c1.56,1.55,3.56,1.66,4.76.44,4.72-4.84,5-10.6,3.45-16.68-1.68-6.46-5.35-11.78-10-16.43-1.51-1.5-3.16-3.4-5.06-3.87C261,59.85,256.07,56.52,253,50.74a4.25,4.25,0,0,1-.23-3.34,3.3,3.3,0,0,1,2.73-1.33,6.87,6.87,0,0,1,3.46,1.62,34.53,34.53,0,0,1,3.34,3.69,9.44,9.44,0,0,0,10.08,3.14,19.77,19.77,0,0,0-1.23-2.26c-1.14-1.57-2.38-3.08-3.57-4.62a13.55,13.55,0,0,0-1.86-2.41c-1.14-.92-2.21-1.87-1.54-3.39a4.66,4.66,0,0,1,2.14-2.22,3.42,3.42,0,0,1,4.07,1.06c4.8,5,9.59,10,14.6,14.76,1.39,1.33,3.76,1.6,5.25,2.87a28.63,28.63,0,0,0,14.25,6.25c2.33.4,2.95-.21,2.49-2.56a7.44,7.44,0,0,0-1.17-2.36c-2.34-3.76-4.83-7.44-7-11.29a3.59,3.59,0,0,1,1.23-5c1.57-.76,4.15.27,5,2,3,6.41,6.75,12.27,12.47,16.69A17.43,17.43,0,0,0,328.52,65.64ZM5.55,176.32c.51,2.94.7,5.85,1.56,8.54,1.06,3.33,5.34,4.82,7.23,2.6a18.62,18.62,0,0,0,3.71-6.6,91.28,91.28,0,0,0,2.28-11.77,110.27,110.27,0,0,0,1.23-25.54c-.19-2.32.81-3.91,2.63-4.07,2.34-.2,3.8.9,3.86,3.36.11,4.46.15,8.93-.06,13.39-.18,3.69-.81,7.36-1.12,11a2.78,2.78,0,0,0,.69,2.21,2.64,2.64,0,0,0,2.22-.42,11.29,11.29,0,0,0,3-2.69,29.09,29.09,0,0,0,5.35-14.69,64.88,64.88,0,0,0-1.78-20.5c-.38-1.5-.94-3.05.4-3.89a5.17,5.17,0,0,1,4-.46,4.55,4.55,0,0,1,2.13,3,43.18,43.18,0,0,1,.58,6.74c.21,4.37.37,8.75.53,13.13.08,1.94.85,2.51,2.58,1.7A4,4,0,0,0,48.28,150c1.74-3,3.74-5.93,4.95-9.14a87,87,0,0,0,4.28-14.5c1-5.49,1.11-11.1-1.36-16.44-.74-1.59-.08-3,1.63-3.66a3.64,3.64,0,0,1,5.15,3.07c.43,3.3.62,6.62,1,9.92.11.84.53,2,1.16,2.35a4.25,4.25,0,0,0,5.19-2.1,36.91,36.91,0,0,0,2.33-7.08c.52-2.81.48-5.71.74-8.57.13-1.47.43-3.09,2.13-3.36a6,6,0,0,1,3.78.55,3,3,0,0,1,1,3.85,31.05,31.05,0,0,0-.71,3.53c-1,4.4-1.42,9.12-3.29,13.13-5.32,11.44-5.83,22.48,1.58,33a18.8,18.8,0,0,0,7.6,5.79c3.26,1.44,3.47,1,3.76-2.57,0-.23,0-.45.08-.68,1.86-9.79,3.64-19.6,5.61-29.38,1.89-9.41,4-18.79,6-28.19a18.36,18.36,0,0,0,.48-4,3.11,3.11,0,0,0-.89-2.18c-3.54-2.77-7.2-5.4-10.8-8.1-1.49-1.12-2.91-2.34-4.43-3.42-1.88-1.34-4.1-2.31-5.71-3.9a27.9,27.9,0,0,0-11.91-6.71C60.57,69.1,54.09,70.51,48,75A66.43,66.43,0,0,0,31.42,93.07a99.67,99.67,0,0,0-8.54,17.75C19,121,15.47,131.26,12.13,141.61A121.59,121.59,0,0,0,8.6,156.85C7.41,163.31,6.55,169.83,5.55,176.32ZM367.79,345.88l-.52-.07c0-2.19-.11-4.4,0-6.58.13-1.81-.91-1.75-2.12-1.74s-2.28,0-2.08,1.79c.35,3.08.65,6.16.79,9.25.19,4.45.44,8.92.24,13.36-.13,2.91-2.39,4.2-4.75,2.54-2.66-1.89-4.57-.51-6.63.46-3.65,1.72-5,8-2.49,11.19a3.35,3.35,0,0,0,1.48.95c3.85,1.4,6.46.17,8-3.7.65-1.69,1.41-3.18,3.65-3.07s2.87,1.66,3.39,3.39c.15.5,0,1.14.32,1.53.5.7,1.09,1.59,1.83,1.82a5.16,5.16,0,0,0,6-1.66c1.94-2.55,1.71-5.45.47-8.2-1-2.24-3.22-1.53-5-1.51-3.71,0-4.91-1.23-4.57-5,0-.6.17-1.2.26-1.8Q366.88,352.36,367.79,345.88Zm-184,79.06c.42.95.63,1.49.89,2,1.14,2.26.91,3.36-1.09,4.84-.55.4-1.14.76-1.72,1.1-2.45,1.44-3.71,7.05-2.09,9.42a2.78,2.78,0,0,0,1,.93c2.27,1.16,4.79,1.7,6.93.23,1.92-1.33,1.76-3.73,1.34-5.84-.87-4.41.45-5.72,4.75-4.58.44.11.87.25,1.3.4,2.57.92,6.38-1,7.05-3.75,1.77-7.27-1.87-10.19-8.38-10.86-1.95-.2-3,1-3.26,3-.57,4.14-1.43,4.62-5.35,3.29A12.49,12.49,0,0,0,183.75,424.94Zm-5.11-5.36c-.17-1.12-.1-1.57-.29-1.8-1.74-2.14-3.43-4.33-5.33-6.32-.6-.63-1.79-.68-2.7-1,.15,1.26.24,2.54.51,3.78.07.29.76.41,1.13.66,1.41,1,2.79,2,4.19,2.94Z"/><path d="M172.93,54.63a14.73,14.73,0,0,1,2.09.87c5.79,3.9,11.64,7.72,17.31,11.79,2.54,1.82,4.66,4.24,7.08,6.25,1.38,1.14,3,2,4.47,3C216.46,85.75,227.17,97,238,108c3.63,3.7,6.67,8,10,12,3,3.59,6.1,7.09,8.95,10.79s5.6,7.85,8.42,11.76c1.1,1.53,2.37,2.94,3.4,4.52,2.55,3.87,5.06,7.78,7.49,11.73,2.79,4.54,5.49,9.14,8.23,13.72.15.26.32.51.45.78,1.11,2.17.68,4.39-1,5.43-1.42.86-3.82,0-5-2-1.33-2.27-2.49-4.64-3.81-6.9-2.42-4.16-4.75-8.39-7.4-12.39-3.44-5.2-7-10.35-10.79-15.27-6-7.8-12-15.66-18.55-23-7.08-7.92-14.75-15.31-22.25-22.84a128.16,128.16,0,0,0-10.74-10C198.33,80.75,191,75.41,183.8,70c-4-3-8.06-5.86-12.1-8.77a3.23,3.23,0,0,1-1.25-4.2C170.92,56,172.12,55.38,172.93,54.63Z"/><path d="M244.17,327c-7.64.88-15-.8-22.45-1.71a38.66,38.66,0,0,1-6.36-1.66,95.84,95.84,0,0,1-28.54-14.07c-7.92-5.67-15.39-12-21.14-20.08-4.54-6.37-9.5-12.44-13.92-18.88-2.92-4.27-5.2-9-7.8-13.48-1.28-2.21-2.76-4.32-3.92-6.59-2.38-4.63-4.57-9.35-6.9-14-.54-1.07-1.46-1.94-2-3-1.08-2.34-.53-4.29,1.24-5.08,1.57-.7,3.91.34,4.89,2.27,1.2,2.35,2.21,4.79,3.48,7.1,3.83,6.94,7.7,13.86,11.67,20.73,1.88,3.25,4,6.34,6,9.51,2.43,3.86,4.53,8,7.33,11.53A146.66,146.66,0,0,0,177.08,292a124.28,124.28,0,0,0,11.82,10.91A112,112,0,0,0,202,311.25a57.22,57.22,0,0,0,10.81,5.15c6.38,2,12.75,4.43,19.64,4.19,4.31-.15,8.62-.23,12.92-.43,1.9-.08,3.72.21,4.21,2.21a3.9,3.9,0,0,1-1,3.37C247.41,326.57,245.68,326.62,244.17,327Z"/><path d="M270.47,318.83a20.87,20.87,0,0,1,2.33-3.36c3.94-3.72,7.92-7.41,12-11,1.38-1.19,2.89-3.06,5.06-2.1,3.19,1.4,3.26,4.67.44,6.91-3,2.38-5.86,4.87-8.77,7.33-1.82,1.53-3.52,3.24-5.47,4.58a3.7,3.7,0,0,1-3.09.22C272.05,321,271.43,319.88,270.47,318.83Z"/><path d="M297,193.83c0,1.91-.33,3.21-2.07,3.45s-3.52-.06-4.37-2a18.74,18.74,0,0,1-1.57-4.45,3.08,3.08,0,0,1,.9-2.66,4.43,4.43,0,0,1,3.44-.35C295.18,188.66,296.94,192.19,297,193.83Z"/><path d="M344.67,262.51c-.31,2-1,3.54-2.92,3.89s-2.85-1-3.61-2.5c-3.86-7.51-6-15.59-8.07-23.71a2.9,2.9,0,0,1,2.23-3.78,3.48,3.48,0,0,1,4.14,2.63c.62,2.25.85,4.61,1.59,6.81,1.4,4.12,3,8.17,4.59,12.22C343.21,259.59,344,261,344.67,262.51Z"/><path d="M141.52,334.54c.06,2.35-.87,3.66-2.64,3.79a3.42,3.42,0,0,1-3.64-3.25c-.84-6.15-1.73-12.26-4.82-17.81a15.64,15.64,0,0,1-1.93-4.76,4.75,4.75,0,0,1,1-3.52c1-1.13,4.13-.4,5.12.88a2,2,0,0,1,.35.58C137.62,318.35,141,326.05,141.52,334.54Z"/></g></g></svg>