<svg xmlns="http://www.w3.org/2000/svg" viewBox="0 0 328.64 437.6"><defs><style>.cls-1{fill:#757575;}</style></defs><g id="Capa_2" data-name="Capa 2"><g id="Capa_1-2" data-name="Capa 1"><path class="cls-1" d="M165.63,437.49q-32.88,0-65.76,0c-8,0-16.05-.08-24.08-.27C69.2,437.05,66.36,435,65,428.5c-2-9.23-3.42-18.57-5.07-27.86-2.35-13.2-4.74-26.39-7-39.6-2.42-14.06-4.68-28.15-7.09-42.21-2-12-4.27-23.95-6.3-35.94-1.79-10.6-3.4-21.23-5.16-31.84-.56-3.4-2.49-5.72-5.33-7.82A94.27,94.27,0,0,1,16.43,232.3a77.52,77.52,0,0,1-9.64-12.59,42.22,42.22,0,0,1-4.44-11C.25,200.9-1.16,193,1.31,185a67.22,67.22,0,0,1,7.1-15.63c4.06-6.58,10.32-10.44,16-15.09,1.35-1.12,3.38-1.5,5.16-2,3.26-1,5.57-2.94,6.43-6.2,2.65-10.12,7.85-18.91,13.74-27.41A50.39,50.39,0,0,1,66,103.15a60.64,60.64,0,0,1,12.63-5.3c3.81-1.14,7.69-2.56,11.92-1.7,2,.41,3.08-1,2.6-3.06-2.31-10-.79-19.73,2.54-29.21a71,71,0,0,1,10.5-19.74c4.54-5.94,9-12,14.12-17.41,6.53-6.82,13-13.88,21.25-18.77a47.11,47.11,0,0,1,6.1-2.87c3-1.24,6-2.44,9.07-3.48A28.58,28.58,0,0,1,178.83,3a17.21,17.21,0,0,1,8.88,8.81c2.57,6,3,12,2.85,18.28-.19,10.51,1.83,20.44,7.54,29.45,4.56,7.2,10.64,12.84,17.56,17.73,10.68,7.52,22.73,11.71,35.14,15.21a43.29,43.29,0,0,1,9.87,4.15,56.57,56.57,0,0,1,17,15.76c9.73,13.12,15.8,27.83,20.13,43.39.67,2.4,1.23,4.84,1.86,7.25a2.77,2.77,0,0,0,2.85,2.27,5,5,0,0,1,2.6.83,104.78,104.78,0,0,1,10.64,8.28c2.13,2,3.6,4.85,5,7.49a70,70,0,0,1,7.4,20.34c1.2,6.14,0,11.66-2.09,17.43a45.12,45.12,0,0,1-10.19,16.22c-3.32,3.45-7.29,6.28-11,9.36a2.11,2.11,0,0,1-1,.48c-3.42.38-4.15,2.64-4.64,5.66-2,12.15-4.28,24.25-6.36,36.38-1.94,11.29-3.73,22.62-5.64,33.92-1.09,6.45-2.34,12.88-3.42,19.34-.65,3.91-1,7.89-1.68,11.8-1.39,7.73-3,15.43-4.39,23.17-1.6,8.89-3,17.81-4.6,26.7-1.08,6.14-2.27,12.26-3.41,18.38a8,8,0,0,0-.33,2.07,15.4,15.4,0,0,1-3.13,10.51,7.21,7.21,0,0,1-3.63,2.86,35.79,35.79,0,0,1-8.56,1.08q-44.22.1-88.43,0Zm.5-186.64v.07q-47.16,0-94.33,0c-4.6,0-9.2-.21-13.8-.21-2.91,0-3.66.89-3.22,3.63.66,4.15,1.37,8.3,2.1,12.44,1.7,9.58,3.44,19.16,5.13,28.74,1.13,6.37,2.2,12.75,3.28,19.13s2,12.63,3.14,18.92c1.41,8,3,15.93,4.38,23.92,1.52,8.75,2.88,17.53,4.33,26.29,1.63,9.85,3.32,19.69,4.91,29.54.54,3.32,1.56,4.28,4.94,4.22,5.69-.11,11.39-.24,17.08-.24q71.28.06,142.56.17c3.43,0,4.18-.81,4.59-4.17.51-4.25,1.15-8.5,1.9-12.72,1.68-9.52,3.52-19,5.19-28.53,1.48-8.45,2.74-16.93,4.21-25.38s3.11-16.69,4.57-25.05c2.51-14.44,4.92-28.89,7.38-43.34q2.14-12.57,4.31-25.12c.3-1.77-.31-2.73-2.22-2.62s-4,.31-6,.31Q218.33,250.87,166.13,250.85Zm57.15-20v-.12q31.23,0,62.48,0a9.79,9.79,0,0,0,4.94-.95c4.2-2.6,8.38-5.11,11.84-9,4.76-5.32,7-10.91,5.36-17.88a51.24,51.24,0,0,0-2-5.94c-3.82-10.17-11.74-15.54-22-16.91-16-2.15-32-.68-48,1.58-7.39,1-14.83,1.93-22.28,2.38a128.43,128.43,0,0,1-15.43-.48c-6.39-.41-12.68-1.6-18.43-4.52a26.3,26.3,0,0,1-7.53-5.37c-6.12-6.72-11.7-13.94-17.88-20.61-5-5.34-10.36-10.31-15.8-15.17a137.34,137.34,0,0,0-11.27-8.65,59.65,59.65,0,0,0-9.37-6,88.13,88.13,0,0,0-15.73-5.92c-16-3.9-25.9-.18-36.08,12.46-3.6,4.47-5.79,10.07-8.72,15.11-1.63,2.81-1.08,4.43,2,5.51,3.94,1.38,8.11,2.27,11.25,5.4,1.53,1.53,3.34,2.76,4.89,4.27,3,2.88,6,5.7,8.65,8.83,6.25,7.35,12.25,14.9,18.46,22.28,3.65,4.34,7.45,8.57,11.31,12.72a76.62,76.62,0,0,0,8.15,8,118.6,118.6,0,0,0,19.32,13,62.54,62.54,0,0,0,17.72,5.56c3.95.7,8.09.48,12.14.49Q197.3,230.89,223.28,230.85ZM169.81,29.68l.6-.09a45.74,45.74,0,0,0-.09-6.31c-.14-1-1.07-2.64-1.84-2.76-2.26-.36-4.82-.71-6.89,0A52.32,52.32,0,0,0,142.06,33c-10.09,9.94-19.34,20.53-25.7,33.32A36.67,36.67,0,0,0,112,82.16c-.11,6.08,1.76,11.51,4.06,16.89a6.6,6.6,0,0,0,2.83,2.75c6.3,3.53,12.85,6.66,19,10.46,4.46,2.78,8.47,6.3,12.56,9.65q5.13,4.2,10,8.78c3.6,3.43,7.14,6.94,10.48,10.62,3.86,4.26,8,8.39,11.07,13.22,3.57,5.68,8.93,7.56,14.72,8.79a36.69,36.69,0,0,0,10.26.46c16.62-1.28,33.21-2.88,49.83-4.11a162.14,162.14,0,0,1,17.5-.08c2.07.07,2.94-.6,2.65-2.36a54.31,54.31,0,0,0-1.83-6.69,93.6,93.6,0,0,0-12.4-25.28,32.85,32.85,0,0,0-11.45-10.76c-3.71-2-8-2.82-12-4.35-7.62-2.94-15.46-5.51-22.72-9.18-6.32-3.2-12.12-7.52-17.9-11.68-9-6.51-15.37-15.38-20.45-25.12a47.05,47.05,0,0,1-5.36-15.85C172.05,42.08,170.84,35.89,169.81,29.68ZM113.68,230.34a17.27,17.27,0,0,0-1.6-1.83c-2.1-1.69-4.51-3.09-6.3-5.06-3.74-4.15-8.69-7.09-11.67-12-1.23-2-2.62-4.4-4.57-5.46-3.91-2.13-5.22-6.28-8.19-9.12-3.63-3.47-6.62-7.61-9.88-11.46-.5-.6-1-1.23-1.42-1.85-1.9-2.53-3.56-5.28-5.75-7.52-2.7-2.76-5.59-5.45-9.5-6.52-4.61-1.28-9.24-2.27-14-.6a30.88,30.88,0,0,0-14.3,9.93c-5.94,7.31-7.79,15.1-5.13,24,.82,2.74,1.51,5.76,3.18,7.94a152,152,0,0,0,12.16,13.84c3.88,4,8.39,6.29,14.46,6.19,19.79-.3,39.59,0,59.38,0A22.92,22.92,0,0,0,113.68,230.34Z"/></g></g></svg>