<svg xmlns="http://www.w3.org/2000/svg" viewBox="0 0 479.46 217.91"><g id="Capa_2" data-name="Capa 2"><g id="Capa_1-2" data-name="Capa 1"><path d="M106.64,216.9l-19.46-1.17a5.56,5.56,0,0,1-2.45-.31c-10-6.1-21.76-9.81-28.47-20.41a12.22,12.22,0,0,0-10.65-6.2c-6.31-.26-9.7-3-11.12-9.47s-4.08-10.47-11.56-10.55c-2.7,0-5.83-2.38-7.95-4.48-4.37-4.33-8.27-9.13-12.21-13.87s-3.7-7.29.55-11.73c2.65-2.77,5.42-5.41,8.19-8.07,3.93-3.77,8.11-7.16,9.26-13.12a9.6,9.6,0,0,1,4.64-6.15c4.14-1.89,5.31-5.19,6.09-8.93,3.59-17.07,15.09-29,26.71-40.72,6.12-6.18,14.16-8,22.89-8.25A65.85,65.85,0,0,0,101,49.93c25.75-9.3,50.83-20.51,78.27-24.47,9.41-1.35,18.31-1.23,27.52,1.83,6,2,12.77,2.12,19.2,2.17,5.37.05,8.89-3.22,11.44-8.25,1.47-2.9,4.79-6.32,7.71-6.79C263,11.53,280.94,8.91,299,7.24,309.13,6.29,319,9,328.58,13.1c7.52,3.22,15.25,2.5,21.44-3.24C357.73,2.72,366.63,0,376.92,0c12.63.05,25,1.77,36.77,6.11,12.53,4.62,22.09,13,29.12,24.67,3.57,6,9,11,14.29,15.67,3.57,3.16,6.12,6,6.45,11.08.19,2.79,2.42,5.57,4.11,8.09.87,1.31,2.58,2.06,3.93,3,4.7,3.34,7.94,7.25,6.92,13.66-.41,2.54.21,5.31.66,7.93,1.71,9.89-4.3,18.73-14.29,20.92q-5.83,1.28-11.63,2.71c-2.77.68-3.63,2.38-3,5.2,2.93,12.38-3.95,23-6.54,34.34-.29,1.26-2.33,2.19-3.66,3.12-8.2,5.68-17.9,6.83-27.28,8.94-35.56,8-71,16.51-106.72,23.83Q254.74,199.82,203,208.21c-25.47,4.08-51.21,6.52-76.86,9.35-6.41.71-13,.11-19.45.11ZM296.61,83c-3.56-2-6.26-3.48-8.87-5.08C261.26,61.71,233,49,204.78,36.27a30.27,30.27,0,0,0-16-2.19c-16.45,2.41-32.77,5.77-49.1,9-1.85.37-3.41,2.17-5.11,3.31,1.28,1.45,2.3,3.26,3.86,4.27,12.82,8.32,21,20.8,29.3,33,1.29,1.9.4,5.27.51,8-2.27.07-4.92.94-6.76.08-8.74-4.07-17.51-8.18-25.8-13.08C118.22,68.36,99.54,62.42,79.34,62c-4.13-.08-9.33,1.4-12.26,4.1C60,72.64,53.72,80.07,47.62,87.53,43,93.19,41,100.14,40.42,107.46c-.85,11,6.25,23.6,16.26,28,7.77,3.39,15.58,7,23.73,9.15A72.48,72.48,0,0,0,102,146.77c9.11-.45,18.15-2.4,27.19-3.86,27.6-4.43,55.52-6.46,82.88-12.86,19.4-4.54,39.47-6.11,59.07-9.85,27.8-5.32,55.46-11.36,83.16-17.19,24.92-5.25,49.94-10.27,73.41-20.64,7.31-3.24,13.61-7.77,15.07-16.58,3.2-19.35-15.09-47-34.2-51.6-.48-.12-1-.19-1.47-.28-4.91-.91-9.79-2.35-14.73-2.6-9.29-.46-18.61-.36-27.91-.22-3.93.06-4.55,2.32-2.16,5.22,2.75,3.33,5.56,6.65,8.6,9.7,10.08,10.12,15.76,22.57,19.4,36.1.94,3.48-1.27,5.41-4.76,4.27a15.68,15.68,0,0,1-4.26-2.53q-26.78-20.1-53.49-40.29c-5.89-4.47-11.71-8.4-19.49-4.3-1.23.65-2.91.44-4.38.63-1.41,2.21-3.4,4.58-5.25,4.48-1.66-.09-3.07-3-4.78-4.47-1.17-1-2.72-2.35-4-2.28q-17.72,1-35.4,2.47c-1.84.16-3.59,1.42-5.38,2.18L248.56,24C271.43,37.62,288.25,56.09,296.61,83Zm-99.14,87.15c1.45-1.09,2.51-1.83,3.49-2.66,7.67-6.48,9.76-6.42,17.39.4a21.56,21.56,0,0,0,4.34,3.32c1.23.63,3.09,1.17,4.19.68,4.81-2.17,9.76-4.27,14.05-7.27,5.7-4,10.19-4.71,15.31-.19,3.08,2.72,5,2.4,8-.05,4.87-4,10.81-6,16.81-3.47,10.76,4.51,21.63,7.11,33.43,6.71,4.82-.16,7.88-1.24,10.11-5.42a44,44,0,0,1,5.39-8.36c7.25-8.29,13.14-7.71,18.77,1.57a17.67,17.67,0,0,1,1,1.72c1.21,2.58,3.13,2.89,5.78,2.38,10.22-2,13-4.78,14.3-15,1-7.91,6.56-10.25,13.14-5.54,1.62,1.16,3.22,2.37,4.88,3.47,4,2.62,7.4,2.22,11.36-.78,3.32-2.52,7.54-4,11.56-5.42a100.7,100.7,0,0,1,12.09-3c5.53-1.19,8.68-4.4,9.6-10.06,1-6,2.88-11.54,9.43-14a9.05,9.05,0,0,0,3.65-3.32c2.58-3.67,5.81-4.07,10.07-3.46,3.26.46,6.82-.47,10.12-1.27s3.93-3.18,2.07-6.08l-4.26-6.67c1.81-3.69,3.63-6.09,4.16-8.76,1.25-6.2-2.25-10.45-7-13.85-2.93-2.13-5.12-1.62-6.68,1.87-.9,2-2.08,5.22-3.56,5.48-6.4,1.13-8.31,5.06-9,10.82-.28,2.44-2.14,5.13-5.29,3.16-3.87-2.41-5.25-.41-6.62,2.73a14.43,14.43,0,0,1-2.45,3c-2.38,2.87-5.26,5.47-7,8.69-2.12,3.91-3.25,8.35-4.83,12.55-2.1,5.62-3.75,6.53-9.38,4.13a84.88,84.88,0,0,1-13.73-7.09c-6.77-4.5-12.48-2.95-18,2-10.76,9.61-23.34,13.6-37.72,12.78-3.54-.2-7.16,1.1-10.74,1.71l-.57,1.78A39.39,39.39,0,0,0,323,126c-4.87-5.8-11.71-5.17-15,1.52-3.49,7.17-6.77,14.46-10.06,21.73-1.49,3.32-3.39,4.36-7,2.62-9.23-4.45-18.6-8.61-28.35-13.09-7.91,9.33-18.72,14.2-31.32,15.51s-24.24-.47-33.57-11.45c-4.75,11.48-9.05,21.87-13.45,32.54,8.49-.24,9-6.59,9.66-12.83l1.25.47C195.93,165.27,196.63,167.48,197.47,170.15Zm-26.59-30.1c-2.26,3.39-3.76,5.64-5.35,8l-5-2.56c.45,5.14-2.17,5.71-5.91,5.44s-6,2.17-7.53,5.47c-1.64,3.62,1.41,4.86,3.36,6.24,6.33,4.5,13,8.34,21.07,8.9,1.22.08,2.35,1.44,3.52,2.21-.95,1.17-1.92,3.36-2.85,3.34a23.09,23.09,0,0,1-8.92-1.63c-6.42-3-12.56-6.5-17.2-8.95-23.9,14.52-40,2.8-55.89-12.89-1,6.27-4.67,7-9,6.09-5.15-1.12-.49-5-1.85-7.43-6-.6-3,6.37-7.2,8-3.45-5.91-7.66-.32-12,.32,1.28-5,2.38-9.33,3.47-13.62l-1.37-.48-8.13,12.31c0-2.78.6-4.7-.1-5.6-3.63-4.64-4.85-11.13-11.29-13.69-3.59-1.43-4.37-4.77-2.52-8.4a17.67,17.67,0,0,0,1.36-3.21c.78-2.85-1.91-7.42-4.78-7.57-3.2-.17-6.85-.65-6.79,4.68,0,4.47-2.9,7-6.73,9.08a73.34,73.34,0,0,0-10.68,7.14c-3.45,2.73-2.86,5.71.54,8.18,7.2,5.23,13.81,11.64,23.63,11.6a7.88,7.88,0,0,1,4.32,1,6.92,6.92,0,0,1,2.62,3.77c.3,1.33-.47,2.9-.74,4.38-1.4,7.62,1.53,11.23,9.25,11.8,3.82.29,6.51-1,9.12-3.89,5.39-5.87,8.47-5.77,15-1.32A18.06,18.06,0,0,0,84.49,180c4.85.41,8.1,2.78,11.6,5.85,2.63,2.31,7,4.82,10,4.16,8.78-2,16.26.89,23.51,4.54,8.95,4.51,17.1,3.6,25.71-.86,4-2.06,8.69-2.93,13.18-3.66,4.16-.67,12.11-5.88,13.29-9.77l-4.16-1.73c3.1-6,6.54-11.76,9.07-17.86,2.45-5.89,4-12.16,5.91-18.27l-1.47-.45-6.67,6.23.8-7.89-.89-.18-4.64,9.6-3.54-5.22-4,2.94ZM168,200c.06.62.12,1.24.17,1.86,2.14.13,4.34.62,6.42.32,16.3-2.36,32.59-4.74,48.85-7.37q36.7-5.93,73.35-12.25c3.52-.6,6.87-2.2,11.5-3.74-7.52-3.22-15.88,3.3-19.62-6.46l-2.77,4.56c-2.59-.94-5.42-1.22-6.81-2.77-.79-.89.78-3.87,1.48-6.73-3.74,3.19-3.74,3.17-11.64,5-.57.13-1,.94-1.54,1.15-5.08,1.89-10.19,3.7-16,5.8.29-3.91.47-6.23.66-8.78-3.35,1.3-1.71,7.17-6.89,6.21.42-2.82.79-5.29,1.17-7.77a3.62,3.62,0,0,0-2.32,2.22c-2.38,6.44-6.52,10.32-13.84,9.62-2.48-.24-5.56-1.57-7.3-.56-4.46,2.6-8.28,1.11-12.34-.29-8.67,7.9-7.37,5.28-11.07,1.76-1.89.87-5.29,1.38-5.77,2.84-2.14,6.58-7.71,7-12.93,8.55C176.07,194.57,171.08,195.69,168,200Zm-6.46-113.6,1-1.42c-.39-1.21-.5-2.64-1.22-3.61-2.53-3.41-5.8-6.36-7.82-10C144.55,55.22,130.83,51,113.78,54.64c-4.42,1-8.71,2.52-13,3.8l.09,1.52c1.46.63,2.91,1.3,4.39,1.88,6,2.35,12.23,4.32,18.05,7.09,6.06,2.89,12,5.13,18.9,5.2,5.71.06,10.87,2.27,13.24,8.72C156,84.55,159.41,85.24,161.53,86.39Zm105.31,38.75-1.27-.13c-1.4,3-4,7.22-.79,9.46,7.15,5,15.14,8.8,23,12.77,4.06,2.06,7.06.8,8.93-3.76,1.95-4.75,4.75-9.13,6.89-13.8a21.94,21.94,0,0,0,1.89-7.15c.12-1.41-.95-2.93-1.49-4.41a31.27,31.27,0,0,0-3.91,2.37,19.13,19.13,0,0,0-2.5,3l-3.18-2.29c-5.06,5.71-10.43,6.7-12.76,2.73l-4.77,4.22-2.27-6.09-6.05,11.07ZM277,54.4l1.12-1.23c-.72-1.33-1.17-2.94-2.21-3.92-7.9-7.44-16.11-14.11-27-17.3-10.29-3-17.5,1.73-26.06,7.28,2.21,1.27,3.52,2.17,4.94,2.82,7.42,3.39,14.78,6.92,22.33,10,2.25.91,5.12.72,7.63.42C264.26,51.63,270.93,48,277,54.4ZM380.5,58l2.44-.5c-.15-2.37.12-4.87-.52-7.1-2.49-8.68-8.36-15.22-13.73-22.25C361.63,19,353,16.07,342.12,18.06c-1.8.33-3.64.46-5.4.93A22.37,22.37,0,0,0,333,20.84c6,7.9,12.75,13.81,21.19,17.74.86.39,2.27.76,2.88.34,3.82-2.62,6-1.55,6.66,3l5.82-5.4,1.19.73c-.4,2.15-.79,4.3-1.27,6.91l4.63-3.2C376.33,47,378.42,52.49,380.5,58Zm-167,84c-1.15-1.66-2-2.38-2.18-3.24-.49-2.17-.71-5-3.8-3.46-2.94,1.45-3.76,4.55-1.48,7.13a21.85,21.85,0,0,0,7.34,5.72c12.16,5.23,35.27-2,42.36-13a4.67,4.67,0,0,0,.34-4c-.73-1.28-2.69-3-3.7-2.79-3.59.85-7,2.46-11,4l-3.29-2.54c-1,1.48-1.74,3.05-2.93,4s-3.92,2.53-4.59,2c-4.18-3.19-7.1-1.56-9.62,2.21l-3.31-5C216.23,136,215.17,138.33,213.45,142.07Zm179.8,8c-3.07,1.71-5.39,3.21-7.89,4.35-5.89,2.71-11.91,5.14-17.76,8-.94.45-1.23,2.29-1.82,3.48,1.14.3,2.43,1.1,3.41.82,17.45-4.92,34.88-9.91,52.25-15.11,1.37-.41,2.24-2.52,3.34-3.84-1.66-.07-3.64-.76-4.92-.11a25.42,25.42,0,0,1-16.52,2.21c-1.19-.21-2.89-.22-3.66.46C396.78,152.85,394.62,152.07,393.25,150ZM327,113.45c-4,4.08-3.69,6,1.1,7.42,15.16,4.57,28.89,1.65,41.23-8.14,3-2.38,3.53-5.28.58-10.44l-6,8.63c-.79-2.65-1.25-4.17-2-6.59-5.27,5.39-8.14,16.17-18.22,7.35-3.15,4-5.67,1.45-8.32-1l-4.74,6.67ZM103.22,154.68c6.85,11,23.79,13.41,34,5.2,2.8-2.26,4.5-6,6.3-9.28.54-1-.27-2.7-.6-5.12l-6.65,9c-.95-3.15-1.51-5-2.47-8.2-1.52,2.18-2.75,3.49-3.44,5-.8,1.8-.82,4-1.74,5.68-.78,1.44-2.65,3.61-3.53,3.39-1.82-.45-3.54-2.07-4.84-3.61-.7-.83-.44-2.47-.69-4.29Zm-12.89,32.2H88.81c-2.22,3.24-6.21,6.56-3.62,10.76,3.57,5.78,9,9.73,16.45,9.73,5.22,0,10.45.66,15.66.5,1.57-.05,3.28-1.67,4.48-3,.26-.29-1.13-3-2.21-3.44-5.22-1.91-10.58-3.39-16-5.05-.4,1-1,2.5-2.13,5.21l-4.27-8.24c-1.21,3-2.14,5.32-3.06,7.63l-1.26-.21Q91.62,193.82,90.33,186.88Zm301.76-81.26-.3,1.47c5.68,2.93,11.31,6,17.11,8.61.64.29,2.94-1.39,3.35-2.55A90.72,90.72,0,0,0,416.4,98.8c.4-2.2-.92-4.71-1.47-7.08l-1.71,0c-1.45,3.37-2.89,6.74-3.89,9.05ZM345.3,170.51c-.23-.47-.47-.93-.71-1.4-3,.29-6.1.26-9,.94a100.94,100.94,0,0,0-12.07,3.77,3.11,3.11,0,0,0-1.37,2.71,3.08,3.08,0,0,0,2.62,1.49c5.95-1.33,11.89-2.79,17.74-4.51C343.62,173.18,344.37,171.54,345.3,170.51ZM446.69,67.69l1.81.86c2-3.75,4.33-7.36,5.86-11.3.55-1.41-.54-3.76-1.48-5.33-.45-.76-2.27-.7-3.47-1-.17,1.11-.41,2.22-.5,3.34-.2,2.52-.16,5.07-.55,7.56A45.61,45.61,0,0,1,446.69,67.69Zm-170.39-1a58,58,0,0,0,4.27-6.25c.1-.17-2.5-2.48-3.1-2.19a9.33,9.33,0,0,0-4.16,3.79C273,62.7,274.8,64.47,276.3,66.71ZM148.18,203.29c6,2.81,11.14,1.3,12.88-3.58Zm170.22-26-3.72-4.43c-.84,1-2.54,2.2-2.35,2.87.44,1.5,1.82,2.72,2.82,4.06Zm-179-10.37-.72-2.45L129.25,168l.74,2Z"/><path d="M365.58,129.41c1.18.92,3,1.7,3,2.45a5.77,5.77,0,0,1-1.78,4.16,63.77,63.77,0,0,1-10.54,6.26c-1.37.63-4.84,0-5-.65-.46-2-.59-5.61.51-6.25C356,132.93,360.75,131.4,365.58,129.41Z"/><path d="M422.31,117.19c-.66,7.08-4.28,11.49-10.39,12.58C413.44,123.86,417.82,121.14,422.31,117.19Z"/><path d="M322.68,143.15c-2.09-3.44-4.29-6.82-6.16-10.37-.33-.62.54-2.09,1.19-2.9a3.12,3.12,0,0,1,2.35.93c1.7,3.78,3.16,7.66,4.7,11.51Z"/><path d="M266.78,153.06c-2.35,1.45-3.73,3-4.78,2.78-1.4-.28-2.54-1.9-3.8-3,1.1-1,2.21-2.78,3.31-2.77C262.91,150.12,264.3,151.58,266.78,153.06Z"/><path d="M57.9,161.93c3.06,7.19-2,15.8-8.31,15.85-.78,0-2.47-2.74-2.22-3.06C50.59,170.48,54.09,166.46,57.9,161.93Z"/></g></g></svg>