<svg xmlns="http://www.w3.org/2000/svg" viewBox="0 0 452.41 426.48"><defs><style>.cls-1{fill:#757575;}</style></defs><g id="Capa_2" data-name="Capa 2"><g id="Capa_1-2" data-name="Capa 1"><path class="cls-1" d="M226.09,426.48c-32.87-.06-65-4.86-96.18-15.36-25.07-8.44-48.45-20.17-69.45-36.38-18.56-14.32-34.17-31.26-45.33-52A123.75,123.75,0,0,1,.52,274.82a128.08,128.08,0,0,1,1.17-31,22.75,22.75,0,0,0-.11-6.89A119.43,119.43,0,0,1,5.8,180.73c6.47-20.29,17.62-37.78,32-53.32,15-16.21,32.58-29,51.9-39.57A260.77,260.77,0,0,1,148.11,65c1.58-.42,2-1,1.94-2.66A59.31,59.31,0,0,1,209.62,0c9.08,0,18.13,0,27.07,1.91a90.35,90.35,0,0,1,51.78,31.41,6,6,0,0,0,4.23,2.33c15.78,2,31.37,4.86,46.27,10.61a146.42,146.42,0,0,1,88,95.12,11.5,11.5,0,0,0,1.55,3.19c11.3,16.41,19.16,34.22,22.32,54a122.79,122.79,0,0,1-.28,39.85,18.59,18.59,0,0,0,.17,6,119.4,119.4,0,0,1-4.62,57.78,138,138,0,0,1-24.8,44.23c-14.05,17.14-30.94,30.94-49.89,42.29-23.32,14-48.37,23.59-74.8,29.78A310.53,310.53,0,0,1,226.09,426.48ZM151.52,79.19c-1.5.41-2.65.7-3.79,1-28.58,8.05-55.21,20.11-78.8,38.37C51,132.48,36,149,26,169.57,12.16,198.16,10.64,227.38,22.38,257c8,20.14,21,36.77,37,51.11,21.93,19.63,47.41,33.08,75.14,42.4,33.6,11.31,68.21,15.79,103.6,14.4a290.07,290.07,0,0,0,56.42-7.69,247.12,247.12,0,0,0,65.25-25.34c18.53-10.55,35.14-23.51,48.94-39.88a125.8,125.8,0,0,0,23.54-41,104.09,104.09,0,0,0,2.91-57c-.51-2.28-1.18-4.53-1.77-6.8a51.67,51.67,0,0,0-.8,7c-.19,2.32-.41,4.64-.71,7q-6.6,50.79-43.08,86.78c-23.9,23.55-53,36.27-85.93,40.95a308.1,308.1,0,0,1-52.93,2.72c-17-.52-34-2.18-50.44-6.64-15.92-4.31-25.81-14.8-28.77-31.11-1.18-6.53-1.12-13.28-1.69-19.93-2.7-31.3-5.34-62.6-8.14-93.89-2.73-30.67-5.63-61.32-8.47-92C152.17,85.19,151.85,82.33,151.52,79.19ZM300.29,51.44a5.18,5.18,0,0,0,.15.76c5.7,12,7.8,24.74,8.92,37.82,1.55,18.06,3.45,36.1,5.14,54.15.78,8.33,1.87,16.63,1.37,25-1.31,22.06-9.21,41.39-23.9,57.85-14.27,16-32,25.6-53.38,28.23-5.48.68-11.06.54-16.56,1.1-11.34,1.15-21.53,5-29.64,13.4-13.49,13.93-8.5,35.16,9.79,40.7a141.55,141.55,0,0,0,19.2,4,255.46,255.46,0,0,0,49,2.44c12.27-.46,24.51-1.25,36.62-3.5,14.95-2.78,29.36-7.16,42.71-14.55,30.24-16.75,51-41.51,62-74.28a127.35,127.35,0,0,0,4.5-65.22q-9.86-52-52.62-83.34c-16.48-12.09-35-19.41-55.09-23.07ZM182.43,258.72c2.07-1.72,3.79-3.28,5.64-4.67,11.8-8.82,25.25-12.44,39.81-12.57,12.06-.11,23.61-2.66,34-8.82,25.42-15.09,38.41-37.78,39.42-67.18.25-7.31-.83-14.69-1.52-22C298,124,296,104.6,294.17,85.18c-2.44-25.48-14.26-45.3-35.87-59.09C240.87,15,221.48,12.44,201.6,15.47,178.27,19,162.38,40.73,164.75,63.73c1.94,18.85,3.69,37.72,5.46,56.59q2.46,26,4.75,52.1c1.89,21.51,3.7,43,5.55,64.55C181.12,244.11,181.77,251.25,182.43,258.72Zm254.2,18.73c-.26.42-.54.82-.78,1.25a158.88,158.88,0,0,1-29.51,37.13c-19.83,18.66-42.79,32.43-67.89,42.7-33.84,13.85-69.2,20.42-105.67,21.25a306.66,306.66,0,0,1-70.92-6.62c-32.54-6.92-63.06-18.76-90.75-37.4-22.4-15.08-41.2-33.65-54.67-57.28-.22-.38-.52-.71-1-1.41a107.91,107.91,0,0,0,7.1,27c8.17,20.14,21.15,36.81,37.28,51.12,21.82,19.35,47.08,32.68,74.55,42,31.88,10.78,64.72,15.28,98.33,14.58A288,288,0,0,0,294,404.08c32.27-7.72,62.27-20.44,88.77-40.72,17.51-13.4,32.14-29.35,42.42-49A103.19,103.19,0,0,0,436.63,277.45Z"/><path class="cls-1" d="M100.33,244.7a13.78,13.78,0,0,1-9.83-4.26,7.89,7.89,0,0,1,0-11.22c5.31-5.75,16.58-5.69,21.81.13a8,8,0,0,1,0,11C109.7,243.18,105.83,244.71,100.33,244.7Z"/><path class="cls-1" d="M48.12,251.5c-2.28-1-4.51-1.61-6.27-2.87-2.7-1.93-2.67-5.38-.3-7.71,3.33-3.29,10-3.18,13.2.21,2.07,2.18,2.1,5.49-.35,7.31C52.62,249.76,50.36,250.45,48.12,251.5Z"/><path class="cls-1" d="M139.92,205.46a8.66,8.66,0,0,1-6.45-2.77,4.86,4.86,0,0,1,.15-6.95c3.23-3.4,9.88-3.49,13.2-.17a5,5,0,0,1,0,7.5C145,204.83,142.71,205.45,139.92,205.46Z"/><path class="cls-1" d="M69.45,179.67a9.5,9.5,0,0,1-6.39-2.39,5,5,0,0,1,0-7.64,10,10,0,0,1,12.79,0,5,5,0,0,1,0,7.77A9.41,9.41,0,0,1,69.45,179.67Z"/><path class="cls-1" d="M125.65,136.67a8.56,8.56,0,0,1-5.61-2.25,5,5,0,0,1-.1-7.65c3.21-3.12,9.56-3.16,12.83-.09a5.08,5.08,0,0,1-.18,7.92C130.78,136.15,128.61,136.69,125.65,136.67Z"/><path class="cls-1" d="M118.13,292.81c-2.17-1-4.36-1.54-6-2.78-2.81-2.07-2.67-5.67,0-8,3.15-2.77,9.07-2.83,12.27-.12,2.83,2.4,3,6.06-.07,8.22C122.54,291.37,120.33,291.89,118.13,292.81Z"/><path class="cls-1" d="M384,203.09c-4-.12-7.43-1.08-10.3-3.62a8,8,0,0,1-.41-12.16c5.2-5.29,15.67-5.39,21-.2a8.08,8.08,0,0,1,0,12.07C391.38,202,387.72,203,384,203.09Z"/><path class="cls-1" d="M252.15,296a15,15,0,0,1-10-3.62c-4.12-3.72-4-9.24.21-12.82,5.34-4.53,14.65-4.49,19.93.08,4.2,3.65,4.24,9.15.05,12.81A15.32,15.32,0,0,1,252.15,296Z"/><path class="cls-1" d="M347.7,111.36a15.57,15.57,0,0,1-9.65-2.89c-5-3.77-5.13-9.61-.39-13.65,5.47-4.67,15.5-4.21,20.43.93a8,8,0,0,1,.1,11.37C355.29,110.22,351.54,111.24,347.7,111.36Z"/><path class="cls-1" d="M334.59,251a9.53,9.53,0,0,1-6.56-2.19,5,5,0,0,1-.25-7.76c3.26-3.23,9.87-3.18,13.06.1a5,5,0,0,1-.19,7.5A8.88,8.88,0,0,1,334.59,251Z"/><path class="cls-1" d="M355.71,152.85a9.2,9.2,0,0,1-6.65-2.4,5,5,0,0,1,0-7.52c3.38-3.3,9.95-3.19,13.19.21a5,5,0,0,1-.27,7.37A9.07,9.07,0,0,1,355.71,152.85Z"/><path class="cls-1" d="M231.49,70.05a13.87,13.87,0,0,1-8.37-3.34c-4.26-3.52-4.37-9.09-.31-12.82,5.28-4.84,15.25-4.79,20.5.11a8,8,0,0,1,.25,12C240.62,69,237,70,231.49,70.05Z"/><path class="cls-1" d="M246.61,193.19a14.07,14.07,0,0,1-9.57-4,8,8,0,0,1,0-11.76c5.31-5.34,15.85-5.35,21.15,0a8.06,8.06,0,0,1,.12,11.66C255.79,191.71,251.86,193.21,246.61,193.19Z"/><path class="cls-1" d="M207.94,140.4c-5.24,0-8.9-1.09-11.83-4a8,8,0,0,1-.13-11.5c5.24-5.53,15.85-5.67,21.26-.28a8,8,0,0,1-.38,12.28A13.8,13.8,0,0,1,207.94,140.4Z"/><path class="cls-1" d="M266.53,127c-3.61-.19-5.89-.76-7.68-2.57a5,5,0,0,1,.15-7.51c3.16-3,9.21-3.11,12.52-.3,2.83,2.41,2.93,6.06-.07,8.19A22,22,0,0,1,266.53,127Z"/></g></g></svg>