<svg xmlns="http://www.w3.org/2000/svg" viewBox="0 0 421.17 434.4"><g id="Capa_2" data-name="Capa 2"><g id="Capa_1-2" data-name="Capa 1"><path d="M156,434.34a110.26,110.26,0,0,1-35.64-4.58,152.27,152.27,0,0,1-53-28.62A172,172,0,0,1,32.42,361c-8-12.57-14-26-18.81-40.12A252.13,252.13,0,0,1,.42,255.05c-1.21-18.8,0-37.52,5.46-55.7,2.32-7.79,4.59-15.78,8.3-22.93,5.3-10.22,11.75-19.89,20.1-28,6.56-6.4,12.78-13.27,20-18.83a365.47,365.47,0,0,1,32.49-22.3,357.14,357.14,0,0,1,31.86-16.84c8.15-3.89,16.69-7,25.16-10.15A173.31,173.31,0,0,1,164,73.69c10.91-2.59,22-4.59,33-6.61,13.27-2.43,26.63-4.36,39.86-7a194.34,194.34,0,0,0,22.9-6.25c11-3.63,20.54-9.87,29.88-16.63C303,27.55,316.26,17.72,330.39,9.41,340.91,3.21,352.86-1,365.48.23a52.27,52.27,0,0,1,19.14,5.46c7.26,3.9,13.52,9.66,20.17,14.66a7.68,7.68,0,0,1,1.73,2.1c14.23,22.72,17.91,47,11.86,73.17a221.06,221.06,0,0,1-17,47.2c-6.39,13.1-12.42,26.42-17.82,40-5.82,14.6-10.71,29.57-16,44.37-4.51,12.59-9,25.17-13.55,37.74-3.47,9.56-6.72,19.22-10.65,28.59s-8.56,18.65-13.06,27.87c-3,6.2-6.23,12.33-9.64,18.33a171.59,171.59,0,0,1-22,30.08A194,194,0,0,1,241,414.09a201.4,201.4,0,0,1-39.11,14.52A171.75,171.75,0,0,1,156,434.34ZM394.85,15.59c-1.19-.84-2.1-1.42-3-2.07Q372.66-.89,349.42,5.19A79.48,79.48,0,0,0,323.58,17c-10.53,7.45-21.22,14.68-31.52,22.43a145.36,145.36,0,0,1-28.51,17c-13.1,5.81-27.15,8.22-41.05,11-12.91,2.56-26.09,3.75-39,6.49a263.65,263.65,0,0,0-35.32,9.73c-11.76,4.28-23,10-34.34,15.44a252.94,252.94,0,0,0-39.67,23.58c-8.59,6.27-16.72,13.22-24.67,20.3a124.33,124.33,0,0,0-27.67,35.44C14.74,192.09,11.32,207,9.8,222.17A194.13,194.13,0,0,0,12,276.88c4,21.67,9.94,42.77,19.53,62.78a161.77,161.77,0,0,0,28,40.43c13.12,14.07,28.24,25.72,46.1,33.13a146.13,146.13,0,0,0,28.11,8.87c16.16,3.1,32.54,2.79,48.88.15,15.5-2.5,30.69-6,45-12.66,8.3-3.86,16.33-8.29,24.47-12.49,11.51-6,21.15-14.5,30.72-23,6.25-5.54,11.46-12.25,17.09-18.48,11.29-12.49,19.18-27.17,26.79-42,2.12-4.13,3.85-8.46,5.72-12.71,4.72-10.76,9.64-21.44,14.07-32.32,4.23-10.38,7.93-21,11.88-31.46,6.59-17.5,12.85-35.13,19.91-52.43,5.57-13.64,11.92-27,18.3-40.26,7.11-14.85,13.58-29.86,17.4-46,3.56-15,5.09-30,1.88-45.25A136.32,136.32,0,0,0,411,37.64c-.47-1.36-1.75-2.44-2.91-4-.89,1.39-1.23,2.51-2,3-1,.62-2.72,1.37-3.53.94a24.94,24.94,0,0,1-10.67-10.49C389,21.47,389.37,19.54,394.85,15.59Zm7.83,20c.93-2.29,2.74-4.68,2.15-5.73a47.67,47.67,0,0,0-6.89-8.7c-1.35-1.46-3.2-.82-3.11,1a14.59,14.59,0,0,0,2.05,6.55C398.24,31,400.31,32.83,402.68,35.56Z"/><path d="M280.26,197.49c-.95,15.22-2.15,30.37-6.51,44.91a284,284,0,0,1-12.53,34.06,161.21,161.21,0,0,1-14.56,25.66c-7,10.15-15,19.7-25,27.15-5.73,4.25-11.46,8.7-17.77,11.92-15.36,7.83-31.52,12.52-49.15,10.88-12.21-1.14-23.68-4.46-33.79-11.2-7.39-4.92-14.87-10.29-20.65-16.91-13.29-15.22-19.9-33.1-17-53.69,2.49-17.45,9.58-33,20.3-46.87a215.53,215.53,0,0,1,19.09-21.62c5.39-5.29,11.7-9.67,17.86-14.11A239.35,239.35,0,0,1,160.9,174.2c6.83-3.93,14.09-7.16,21.29-10.4a170.84,170.84,0,0,1,17.33-6.91c12.56-4.07,25.41-7.08,38.69-7.16,10.24-.07,20,2.72,28,9,3.76,2.94,6.52,7.56,8.77,11.92C279.34,179,279.58,188.39,280.26,197.49Zm-41.45-43.22-.1-.82c-8.16,1.28-16.5,1.85-24.42,4a191,191,0,0,0-28,10.07,173.43,173.43,0,0,0-33.78,20.12c-15.87,12.05-30.89,24.77-42,41.75-7.22,11-13.23,22.35-16,35.26-4.13,18.91-.45,36.16,11.66,51.27,10,12.41,23.07,20.2,38.29,24.63,18.68,5.43,36.71,2.44,54.07-4.9,7-3,13.57-7.39,19.71-12a110.58,110.58,0,0,0,26.42-27.27,278,278,0,0,0,16.63-29.17c5.84-11.71,9.36-24.29,11.86-37.15,3.4-17.44,5.13-35,1.14-52.46-1.54-6.76-4.92-12.86-10.93-17.07C255.93,155.4,247.67,153.72,238.81,154.27Z"/><path d="M230.06,286.72c1.94,3.88.24,6.24-1.24,8.43a65.28,65.28,0,0,1-28.23,23.67c-16.7,7.25-34.36,9.47-52.3,5.57-8.7-1.9-17.09-5.1-24.22-10.87-2.26-1.82-2.17-3.95-.93-6,2-3.18,4.32-3.76,6.82-2,15.2,10.89,32.22,13.62,50.43,11.7,11.89-1.25,22.94-4.93,32.36-12.13,5.4-4.13,9.59-9.83,14.31-14.85C228,289.3,228.84,288.18,230.06,286.72Z"/></g></g></svg>