<svg xmlns="http://www.w3.org/2000/svg" viewBox="0 0 380.09 230.11"><defs><style>.cls-1{fill:#757575;}</style></defs><g id="Capa_2" data-name="Capa 2"><g id="Capa_1-2" data-name="Capa 1"><path class="cls-1" d="M62,194.46C34,179.3,11.44,161,.57,143L0,142.07l.32-1c.15-.53,4-12.92,13.38-17.08,4.6-2,9.66-1.77,15,.8,1.31.63,134.12,60.2,203.48,2.67,62.24-51.62,96.42-78.37,99.34-80.64,2.46-2.89,18-20.73,27.53-21.46a6.65,6.65,0,0,1,5,1.55c7.65,6.66,11.68,21.42,11.85,22l.56,2.08L354.05,60.4c-2.18,11.63-19.68,94.36-85.9,147.09-26.23,20.88-67.35,27.61-115.79,18.93C121.05,220.81,89,209.11,62,194.46Zm-56.62-53c21.37,34,85.94,69.06,147.86,80.15,47,8.42,86.75,2,111.85-17.94,69.46-55.31,84.21-144.47,84.35-145.37l.21-1.35,20.94-8.78c-1.32-4.08-4.71-13.21-9.71-17.56a1.75,1.75,0,0,0-1.42-.35c-5.82.44-18,12.45-24.33,19.92l-.36.35c-.34.27-34.68,27-99.42,80.7-71.68,59.46-207.41-1.37-208.75-2-4.06-2-7.63-2.19-10.91-.75C9.67,131.11,6.39,138.69,5.37,141.43Z"/><path class="cls-1" d="M132.12,156.26l-10.75-5.83c-54.46-39.32-60.11-68.9-60-79.8,0-4.85,1.2-8.54,3.11-9.88s4.43-.48,22.08,7.78c28.22,13.2,80.76,37.77,106.36,29.83,34.7-10.75,125.46-56.68,133.42-60.72C352.42-.09,356.44,0,357.76,0l1.32,0,1.11,1.32c2.39,3.7,4.24,21.72,4.75,27.15A2.46,2.46,0,0,1,360,29c-.81-8.66-2.17-18.65-3.29-23-4.69,4.44-16.57,20.25-26.75,35l-.36.51-.55.29c-4,2-98.22,50-134.74,61.32-27.42,8.5-81.08-16.6-109.9-30.08C77.22,69.6,69.77,66.12,67,65.3c-.43,1.16-1.15,4.14-.55,9.17,1.18,10,9.15,36.87,57.51,71.81l10.48,5.65a2.46,2.46,0,0,1-2.35,4.33Z"/><path class="cls-1" d="M372.4,51.71a2.48,2.48,0,0,1-1.19-2.83c2.42-8.57,5.1-22.26,3.51-25.87-2-4.51-13.78-14.84-18.16-18.44a2.46,2.46,0,0,1,3.12-3.8c1.71,1.4,16.72,13.86,19.54,20.26S377,46.49,375.94,50.22a2.46,2.46,0,0,1-3,1.7A2.28,2.28,0,0,1,372.4,51.71Z"/><path class="cls-1" d="M49.84,148.44A301.27,301.27,0,0,1,16.3,127.26a2.46,2.46,0,1,1,2.89-4c86.32,62.65,170.38,55.5,198,53.15,38.16-3.26,100.66-84.92,101.28-85.74a2.46,2.46,0,1,1,3.92,3c-2.61,3.43-64.45,84.22-104.78,87.66C193.15,183.42,125.08,189.23,49.84,148.44Z"/><path class="cls-1" d="M119.62,107C101.16,96.94,80.76,83,64,64.41a2.46,2.46,0,1,1,3.65-3.29c40.67,45.26,103.74,62.17,104.37,62.34a2.46,2.46,0,0,1-1.25,4.76A259.07,259.07,0,0,1,119.62,107Z"/></g></g></svg>